<?xml version="1.0" encoding="UTF-8" standalone="no" ?>
<!DOCTYPE svg PUBLIC "-//W3C//DTD SVG 1.1//EN" "http://www.w3.org/Graphics/SVG/1.1/DTD/svg11.dtd">
<svg xmlns="http://www.w3.org/2000/svg" xmlns:xlink="http://www.w3.org/1999/xlink" version="1.1" width="1772" height="1772" viewBox="0 0 1939.13 1939.13" xml:space="preserve">
<desc>Created with Fabric.js 2.3.3</desc>
<defs>
</defs>
<path d="M 152.501 247.375 Q 152.5 247.375 151.5 247.375 Q 150.5 247.375 147.5 247.375 Q 144.5 247.375 142.5 246.375 Q 140.5 245.375 137.5 243.375 Q 134.5 241.375 128.5 234.375 Q 122.5 227.375 114.5 214.375 Q 106.5 201.375 102.5 190.375 Q 98.5 179.375 94.5 166.375 Q 90.5 153.375 89.5 139.375 Q 88.5 125.375 88.5 114.375 Q 88.5 103.375 91.5 92.375 Q 94.5 81.375 101.5 73.375 Q 108.5 65.375 118.5 58.375 Q 128.5 51.375 153.5 43.375 Q 178.5 35.375 190.5 35.375 Q 202.5 35.375 216.5 35.375 Q 230.5 35.375 241.5 38.375 Q 252.5 41.375 259.5 47.375 Q 266.5 53.375 270.5 61.375 Q 274.5 69.375 275.5 78.375 Q 276.5 87.375 276.5 98.375 Q 276.5 109.375 274.5 120.375 Q 272.5 131.375 267.5 143.375 Q 262.5 155.375 256.5 166.375 Q 250.5 177.375 245.5 185.375 Q 240.5 193.375 235.5 198.375 Q 230.5 203.375 225.5 208.375 Q 220.5 213.375 215.5 215.375 Q 210.5 217.375 206.5 218.375 Q 202.5 219.375 198.5 219.375 Q 194.5 219.375 191.5 219.375 Q 188.5 219.375 185.5 217.375 Q 182.5 215.375 181.5 212.375 Q 180.5 209.375 179.5 204.375 Q 178.5 199.375 178.5 194.375 Q 178.5 189.375 183.5 179.375 Q 188.5 169.375 196.5 162.375 Q 204.5 155.375 214.5 148.375 Q 224.5 141.375 230.5 139.375 Q 236.5 137.375 253.5 133.375 Q 270.5 129.375 281.5 129.375 Q 292.5 129.375 301.5 130.375 Q 310.5 131.375 316.5 136.375 Q 322.5 141.375 326.5 148.375 Q 330.5 155.375 332.5 163.375 Q 334.5 171.375 335.5 179.375 Q 336.5 187.375 335.5 195.375 Q 334.5 203.375 330.5 208.375 Q 326.5 213.375 321.5 218.375 Q 316.5 223.375 308.5 227.375 Q 300.5 231.375 291.5 233.375 Q 282.5 235.375 272.5 235.375 Q 262.5 235.375 252.5 235.375 Q 242.5 235.375 237.5 235.375 Q 232.5 235.375 227.5 232.375 Q 222.5 229.375 219.5 227.375 Q 216.5 225.375 215.5 221.375 Q 214.5 217.375 215.5 210.375 Q 216.5 203.375 222.5 197.375 Q 228.5 191.375 236.5 184.375 Q 244.5 177.375 253.5 173.375 Q 262.5 169.375 273.5 168.375 Q 284.5 167.375 294.5 167.375 Q 304.5 167.375 311.5 171.375 Q 318.5 175.375 321.5 179.375 Q 324.5 183.375 327.5 187.375 Q 330.5 191.375 331.5 194.375 Q 332.5 197.375 332.5 200.375 Q 332.5 203.375 332.5 205.375 Q 332.5 207.375 330.5 209.375 Q 328.5 211.375 325.5 213.375 Q 322.5 215.375 319.5 217.375 Q 316.5 219.375 313.5 221.375 Q 310.5 223.375 306.5 223.375 Q 302.5 223.375 297.5 225.375 Q 292.5 227.375 288.5 227.375 Q 284.5 227.375 280.5 227.375 Q 276.5 227.375 274.5 227.375 Q 272.5 227.375 271.5 227.375 Q 270.5 227.375 269.5 227.375 L 268.499 227.375" style="stroke: rgb(255,92,92); stroke-width: 1; stroke-dasharray: none; stroke-linecap: round; stroke-linejoin: round; stroke-miterlimit: 10; fill: none; fill-rule: nonzero; opacity: 1;" transform="translate(212.38 141.38) translate(-212.375, -141.375) " stroke-linecap="round" />
<g transform="translate(207.28 140.72) scale(0.44 0.44)" style="">
	<rect id="change1_1" x="-201.5" y="-201.05" rx="0" ry="0" width="403" height="402.1" style="stroke: none; stroke-width: 1; stroke-dasharray: none; stroke-linecap: butt; stroke-linejoin: miter; stroke-miterlimit: 4; fill: rgb(125,134,147); fill-rule: nonzero; opacity: 1;" transform="translate(-0.5 0.05)"/>
	<rect id="change1_2" x="-181.5" y="-31.5" rx="0" ry="0" width="363" height="63" style="stroke: none; stroke-width: 1; stroke-dasharray: none; stroke-linecap: butt; stroke-linejoin: miter; stroke-miterlimit: 4; fill: rgb(125,134,147); fill-rule: nonzero; opacity: 1;" transform="translate(-0.5 212.5)"/>
	<rect id="change2_1" x="-181.5" y="-7.5" rx="0" ry="0" width="363" height="15" style="stroke: none; stroke-width: 1; stroke-dasharray: none; stroke-linecap: butt; stroke-linejoin: miter; stroke-miterlimit: 4; fill: rgb(255,255,255); fill-rule: nonzero; opacity: 1;" transform="translate(-0.5 242.5)"/>
	<rect id="change1_3" x="-31" y="-183" rx="0" ry="0" width="62" height="366" style="stroke: none; stroke-width: 1; stroke-dasharray: none; stroke-linecap: butt; stroke-linejoin: miter; stroke-miterlimit: 4; fill: rgb(125,134,147); fill-rule: nonzero; opacity: 1;" transform="translate(-213 0)"/>
	<rect id="change2_2" x="-7.5" y="-181" rx="0" ry="0" width="15" height="362" style="stroke: none; stroke-width: 1; stroke-dasharray: none; stroke-linecap: butt; stroke-linejoin: miter; stroke-miterlimit: 4; fill: rgb(255,255,255); fill-rule: nonzero; opacity: 1;" transform="translate(-242.5 0)"/>
	<rect id="change1_4" x="-31.5" y="-181" rx="0" ry="0" width="63" height="362" style="stroke: none; stroke-width: 1; stroke-dasharray: none; stroke-linecap: butt; stroke-linejoin: miter; stroke-miterlimit: 4; fill: rgb(125,134,147); fill-rule: nonzero; opacity: 1;" transform="translate(212.5 0)"/>
	<rect id="change2_3" x="-7.5" y="-181" rx="0" ry="0" width="15" height="362" style="stroke: none; stroke-width: 1; stroke-dasharray: none; stroke-linecap: butt; stroke-linejoin: miter; stroke-miterlimit: 4; fill: rgb(255,255,255); fill-rule: nonzero; opacity: 1;" transform="translate(242.5 0)"/>
	<path id="change1_5" d="M 434.2 494 c 33.1 0 59.8 -26.6 59.8 -59.8 V 431 h -63 v 63 H 434.2 z" style="stroke: none; stroke-width: 1; stroke-dasharray: none; stroke-linecap: butt; stroke-linejoin: miter; stroke-miterlimit: 4; fill: rgb(125,134,147); fill-rule: nonzero; opacity: 1;" transform="translate(212.5 212.5) translate(-462.5, -462.5) " stroke-linecap="round" />
	<path id="change2_4" d="M 432.7 485 H 429 v 15 h 3.7 c 37.2 0 67.3 -30.1 67.3 -67.3 V 429 h -15 v 3.7 C 485 461.6 461.6 485 432.7 485 z" style="stroke: none; stroke-width: 1; stroke-dasharray: none; stroke-linecap: butt; stroke-linejoin: miter; stroke-miterlimit: 4; fill: rgb(255,255,255); fill-rule: nonzero; opacity: 1;" transform="translate(214.5 214.5) translate(-464.5, -464.5) " stroke-linecap="round" />
	<path id="change1_6" d="M 65.8 494 H 68 v -63 H 6 v 3.2 C 6 467.4 32.6 494 65.8 494 z" style="stroke: none; stroke-width: 1; stroke-dasharray: none; stroke-linecap: butt; stroke-linejoin: miter; stroke-miterlimit: 4; fill: rgb(125,134,147); fill-rule: nonzero; opacity: 1;" transform="translate(-213 212.5) translate(-37, -462.5) " stroke-linecap="round" />
	<path id="change2_5" d="M 0 437.5 c 2.5 35 31.7 62.5 67.3 62.5 H 70 v -15 h -2.7 C 38.4 485 15 461.6 15 432.7 V 429 H 0 v 3.7 C 0 434.3 -0.1 435.9 0 437.5 z" style="stroke: none; stroke-width: 1; stroke-dasharray: none; stroke-linecap: butt; stroke-linejoin: miter; stroke-miterlimit: 4; fill: rgb(255,255,255); fill-rule: nonzero; opacity: 1;" transform="translate(-215.02 214.5) translate(-34.97777777777778, -464.5) " stroke-linecap="round" />
	<rect id="change1_7" x="-183.5" y="-31.5" rx="0" ry="0" width="367" height="63" style="stroke: none; stroke-width: 1; stroke-dasharray: none; stroke-linecap: butt; stroke-linejoin: miter; stroke-miterlimit: 4; fill: rgb(125,134,147); fill-rule: nonzero; opacity: 1;" transform="translate(-0.5 -212.5)"/>
	<rect id="change2_6" x="-182.5" y="-7.5" rx="0" ry="0" width="365" height="15" style="stroke: none; stroke-width: 1; stroke-dasharray: none; stroke-linecap: butt; stroke-linejoin: miter; stroke-miterlimit: 4; fill: rgb(255,255,255); fill-rule: nonzero; opacity: 1;" transform="translate(-0.5 -242.5)"/>
	<path id="change1_8" d="M 434.2 6 H 431 v 63 h 63 v -3.2 C 494 32.6 467.4 6 434.2 6 z" style="stroke: none; stroke-width: 1; stroke-dasharray: none; stroke-linecap: butt; stroke-linejoin: miter; stroke-miterlimit: 4; fill: rgb(125,134,147); fill-rule: nonzero; opacity: 1;" transform="translate(212.5 -212.5) translate(-462.5, -37.5) " stroke-linecap="round" />
	<path id="change2_7" d="M 485 67.3 V 71 h 15 v -3.7 C 500 30.1 469.9 0 432.7 0 H 429 v 15 h 3.7 C 461.6 15 485 38.4 485 67.3 z" style="stroke: none; stroke-width: 1; stroke-dasharray: none; stroke-linecap: butt; stroke-linejoin: miter; stroke-miterlimit: 4; fill: rgb(255,255,255); fill-rule: nonzero; opacity: 1;" transform="translate(214.5 -214.5) translate(-464.5, -35.5) " stroke-linecap="round" />
	<path id="change1_9" d="M 6 65.8 V 69 h 62 V 6 h -2.2 C 32.6 6 6 32.6 6 65.8 z" style="stroke: none; stroke-width: 1; stroke-dasharray: none; stroke-linecap: butt; stroke-linejoin: miter; stroke-miterlimit: 4; fill: rgb(125,134,147); fill-rule: nonzero; opacity: 1;" transform="translate(-213 -212.5) translate(-37, -37.5) " stroke-linecap="round" />
	<path id="change2_8" d="M 15 67.3 C 15 38.4 38.4 15 67.3 15 H 70 V 0 h -2.7 C 31.7 0 2.5 27.5 0 62.5 V 71 h 15 V 67.3 z" style="stroke: none; stroke-width: 1; stroke-dasharray: none; stroke-linecap: butt; stroke-linejoin: miter; stroke-miterlimit: 4; fill: rgb(255,255,255); fill-rule: nonzero; opacity: 1;" transform="translate(-215 -214.5) translate(-35, -35.5) " stroke-linecap="round" />
</g>
<g transform="translate(970 970)" style="">
	<ellipse cx="0" cy="0" rx="24.56" ry="21.8" style="stroke: none; stroke-width: 1; stroke-dasharray: none; stroke-linecap: butt; stroke-linejoin: round; stroke-miterlimit: 1.41; fill: rgb(237,175,6); fill-rule: evenodd; opacity: 1;" transform="translate(-0.84 1.89)"/>
	<ellipse cx="0" cy="0" rx="24.56" ry="21.8" style="stroke: none; stroke-width: 1; stroke-dasharray: none; stroke-linecap: butt; stroke-linejoin: round; stroke-miterlimit: 1.41; fill: rgb(250,201,64); fill-rule: evenodd; opacity: 1;" transform="translate(0.1 0.78)"/>
	<radialGradient id="SVGID_3" gradientUnits="userSpaceOnUse" gradientTransform="matrix(3.05961 0 0 3.05961 18.83 31.25)"  cx="-18.83" cy="-31.25" r="1" fx="-18.83" fy="-31.25">
<stop offset="0%" style="stop-color:rgb(29,29,29);stop-opacity: 1"/>
<stop offset="100%" style="stop-color:rgb(0,0,0);stop-opacity: 1"/>
</radialGradient>
<circle cx="0" cy="0" r="3.06" style="stroke: none; stroke-width: 1; stroke-dasharray: none; stroke-linecap: butt; stroke-linejoin: round; stroke-miterlimit: 1.41; fill: url(#SVGID_3); fill-rule: evenodd; opacity: 1;" transform="translate(-13.17 -0.75) "/>
	<circle cx="0" cy="0" r="1.33" style="stroke: none; stroke-width: 1; stroke-dasharray: none; stroke-linecap: butt; stroke-linejoin: round; stroke-miterlimit: 1.41; fill: rgb(255,255,255); fill-rule: evenodd; opacity: 1;" transform="translate(-14.5 0.86) "/>
	<circle cx="0" cy="0" r="0.67" style="stroke: none; stroke-width: 1; stroke-dasharray: none; stroke-linecap: butt; stroke-linejoin: round; stroke-miterlimit: 1.41; fill: rgb(255,255,255); fill-rule: evenodd; opacity: 1;" transform="translate(-13.4 -1.27) "/>
	<ellipse cx="0" cy="0" rx="3.19" ry="0.9" style="stroke: none; stroke-width: 1; stroke-dasharray: none; stroke-linecap: butt; stroke-linejoin: round; stroke-miterlimit: 1.41; fill: rgb(90,167,231); fill-rule: evenodd; opacity: 1;" transform="translate(-13.17 1.64)"/>
	<radialGradient id="SVGID_4" gradientUnits="userSpaceOnUse" gradientTransform="matrix(3.05961 0 0 3.05961 43.4 31.25)"  cx="-43.4" cy="-31.25" r="1" fx="-43.4" fy="-31.25">
<stop offset="0%" style="stop-color:rgb(29,29,29);stop-opacity: 1"/>
<stop offset="100%" style="stop-color:rgb(0,0,0);stop-opacity: 1"/>
</radialGradient>
<circle cx="0" cy="0" r="3.06" style="stroke: none; stroke-width: 1; stroke-dasharray: none; stroke-linecap: butt; stroke-linejoin: round; stroke-miterlimit: 1.41; fill: url(#SVGID_4); fill-rule: evenodd; opacity: 1;" transform="translate(11.4 -0.75) "/>
	<circle cx="0" cy="0" r="1.33" style="stroke: none; stroke-width: 1; stroke-dasharray: none; stroke-linecap: butt; stroke-linejoin: round; stroke-miterlimit: 1.41; fill: rgb(255,255,255); fill-rule: evenodd; opacity: 1;" transform="translate(10.07 0.86) "/>
	<circle cx="0" cy="0" r="0.67" style="stroke: none; stroke-width: 1; stroke-dasharray: none; stroke-linecap: butt; stroke-linejoin: round; stroke-miterlimit: 1.41; fill: rgb(255,255,255); fill-rule: evenodd; opacity: 1;" transform="translate(11.17 -1.27) "/>
	<ellipse cx="0" cy="0" rx="3.19" ry="0.9" style="stroke: none; stroke-width: 1; stroke-dasharray: none; stroke-linecap: butt; stroke-linejoin: round; stroke-miterlimit: 1.41; fill: rgb(90,167,231); fill-rule: evenodd; opacity: 1;" transform="translate(11.4 1.64)"/>
	<path d="M 31.1 38.65 a 13.23 13.23 0 0 1 0.7 0.02 l 0.32 0.02 a 12.94 12.94 0 0 1 1.17 0.17 l 0.29 0.05 a 13.82 13.82 0 0 1 2.3 0.72 a 8.23 8.23 0 0 1 1.64 0.98 a 5.21 5.21 0 0 1 0.74 0.78 a 2.53 2.53 0 0 1 0.39 0.86 a 1.85 1.85 0 0 1 0.04 0.5 v 0.04 l -0.2 0.21 l -0.21 -0.2 l -0.02 -0.1 a 1.48 1.48 0 0 0 -0.32 -0.7 a 2.83 2.83 0 0 0 -0.93 -0.76 a 5.36 5.36 0 0 0 -1.37 -0.55 a 10.31 10.31 0 0 0 -2.27 -0.42 l -0.18 -0.02 a 13.83 13.83 0 0 0 -1.15 -0.05 h -1.16 l -0.3 0.01 c -0.25 0 -0.5 0.02 -0.76 0.04 a 11.1 11.1 0 0 0 -0.84 0.07 l -0.25 0.03 a 13.74 13.74 0 0 0 -2.27 0.48 a 6.56 6.56 0 0 0 -1.4 0.66 a 3.3 3.3 0 0 0 -0.57 0.5 c -0.18 0.23 -0.31 0.49 -0.35 0.77 v 0.03 l -0.21 0.2 l -0.2 -0.2 a 1.61 1.61 0 0 1 0 -0.42 c 0.05 -0.36 0.2 -0.7 0.4 -1 a 3.1 3.1 0 0 1 0.46 -0.53 a 4.64 4.64 0 0 1 0.54 -0.45 a 7.4 7.4 0 0 1 1.03 -0.63 l 0.21 -0.1 a 10.46 10.46 0 0 1 2.1 -0.72 l 0.2 -0.04 a 12.99 12.99 0 0 1 2.18 -0.25 h 0.26 z m -9.5 -16.63 l 0.02 0.6 l -0.4 0.43 l -3.75 1.71 l -0.6 0.02 l -0.43 -0.4 l -0.02 -0.6 l 0.4 -0.43 l 3.75 -1.71 l 0.6 -0.02 l 0.43 0.4 z m 20.05 0.48 l 3.76 1.7 l 0.4 0.44 l -0.02 0.59 l -0.44 0.4 l -0.59 -0.01 l -3.75 -1.71 l -0.4 -0.44 l 0.01 -0.59 l 0.44 -0.4 l 0.59 0.01 z" style="stroke: none; stroke-width: 1; stroke-dasharray: none; stroke-linecap: butt; stroke-linejoin: round; stroke-miterlimit: 1.41; fill: rgb(46,13,25); fill-rule: nonzero; opacity: 1;" transform="translate(-0.88 0.31) translate(-31.115000000000002, -32.31) " stroke-linecap="round" />
	<path d="M 43.36 36.34 s -1.5 1.93 -1.5 2.77 a 1.5 1.5 0 0 0 3 0 c 0 -0.83 -1.5 -2.77 -1.5 -2.77 z" style="stroke: none; stroke-width: 1; stroke-dasharray: none; stroke-linecap: butt; stroke-linejoin: round; stroke-miterlimit: 1.41; fill: rgb(90,167,231); fill-rule: evenodd; opacity: 1;" transform="translate(11.36 6.48) translate(-43.36, -38.47500000000001) " stroke-linecap="round" />
	<path d="M 44.25 38.8 c 0.33 0.21 0.39 0.7 0.12 1.1 c -0.26 0.4 -0.73 0.54 -1.06 0.32 c -0.33 -0.22 -0.38 -0.71 -0.12 -1.1 c 0.26 -0.4 0.74 -0.54 1.06 -0.32 z" style="stroke: none; stroke-width: 1; stroke-dasharray: none; stroke-linecap: butt; stroke-linejoin: round; stroke-miterlimit: 1.41; fill: rgb(177,214,244); fill-rule: evenodd; opacity: 1;" transform="translate(11.78 7.51) translate(-43.78210322957706, -39.510000000000005) " stroke-linecap="round" />
	<path d="M 46.78 41.8 s -1.5 1.94 -1.5 2.77 a 1.5 1.5 0 0 0 3 0 c 0 -0.83 -1.5 -2.77 -1.5 -2.77 z" style="stroke: none; stroke-width: 1; stroke-dasharray: none; stroke-linecap: butt; stroke-linejoin: round; stroke-miterlimit: 1.41; fill: rgb(90,167,231); fill-rule: evenodd; opacity: 1;" transform="translate(14.78 11.93) translate(-46.78, -43.935) " stroke-linecap="round" />
	<path d="M 47.67 44.26 c 0.33 0.22 0.38 0.71 0.12 1.1 c -0.26 0.4 -0.74 0.54 -1.07 0.32 c -0.32 -0.22 -0.38 -0.71 -0.12 -1.1 c 0.26 -0.4 0.74 -0.54 1.07 -0.32 z" style="stroke: none; stroke-width: 1; stroke-dasharray: none; stroke-linecap: butt; stroke-linejoin: round; stroke-miterlimit: 1.41; fill: rgb(177,214,244); fill-rule: evenodd; opacity: 1;" transform="translate(15.2 12.97) translate(-47.196560815131335, -44.97) " stroke-linecap="round" />
	<path d="M 18.86 36.34 s 1.5 1.93 1.5 2.77 a 1.5 1.5 0 1 1 -3 0 c 0 -0.83 1.5 -2.77 1.5 -2.77 z" style="stroke: none; stroke-width: 1; stroke-dasharray: none; stroke-linecap: butt; stroke-linejoin: round; stroke-miterlimit: 1.41; fill: rgb(90,167,231); fill-rule: evenodd; opacity: 1;" transform="translate(-13.14 6.48) translate(-18.86, -38.47500000000001) " stroke-linecap="round" />
	<path d="M 17.97 38.8 c -0.33 0.21 -0.38 0.7 -0.12 1.1 c 0.26 0.4 0.74 0.54 1.07 0.32 c 0.32 -0.22 0.38 -0.71 0.12 -1.1 c -0.26 -0.4 -0.74 -0.54 -1.07 -0.32 z" style="stroke: none; stroke-width: 1; stroke-dasharray: none; stroke-linecap: butt; stroke-linejoin: round; stroke-miterlimit: 1.41; fill: rgb(177,214,244); fill-rule: evenodd; opacity: 1;" transform="translate(-13.56 7.51) translate(-18.443439184868666, -39.510000000000005) " stroke-linecap="round" />
	<path d="M 15.45 41.8 s 1.5 1.94 1.5 2.77 a 1.5 1.5 0 1 1 -3 0 c 0 -0.83 1.5 -2.77 1.5 -2.77 z" style="stroke: none; stroke-width: 1; stroke-dasharray: none; stroke-linecap: butt; stroke-linejoin: round; stroke-miterlimit: 1.41; fill: rgb(90,167,231); fill-rule: evenodd; opacity: 1;" transform="translate(-16.55 11.93) translate(-15.45, -43.935) " stroke-linecap="round" />
	<path d="M 14.56 44.26 c -0.33 0.22 -0.39 0.71 -0.12 1.1 c 0.26 0.4 0.73 0.54 1.06 0.32 c 0.33 -0.22 0.38 -0.71 0.12 -1.1 c -0.26 -0.4 -0.74 -0.54 -1.06 -0.32 z" style="stroke: none; stroke-width: 1; stroke-dasharray: none; stroke-linecap: butt; stroke-linejoin: round; stroke-miterlimit: 1.41; fill: rgb(177,214,244); fill-rule: evenodd; opacity: 1;" transform="translate(-16.97 12.97) translate(-15.027896770422931, -44.97) " stroke-linecap="round" />
	<path d="M 46.97 41.8 s -1.5 1.94 -1.5 2.77 a 1.5 1.5 0 0 0 3 0 c 0 -0.83 -1.5 -2.77 -1.5 -2.77 z" style="stroke: none; stroke-width: 1; stroke-dasharray: none; stroke-linecap: butt; stroke-linejoin: round; stroke-miterlimit: 1.41; fill: rgb(90,167,231); fill-rule: evenodd; opacity: 1;" transform="translate(14.97 11.93) translate(-46.97, -43.935) " stroke-linecap="round" />
	<path d="M 47.87 44.26 c 0.32 0.22 0.38 0.71 0.12 1.1 c -0.27 0.4 -0.74 0.54 -1.07 0.32 c -0.33 -0.22 -0.38 -0.71 -0.12 -1.1 c 0.26 -0.4 0.74 -0.54 1.07 -0.32 z" style="stroke: none; stroke-width: 1; stroke-dasharray: none; stroke-linecap: butt; stroke-linejoin: round; stroke-miterlimit: 1.41; fill: rgb(177,214,244); fill-rule: evenodd; opacity: 1;" transform="translate(15.39 12.97) translate(-47.39343918486867, -44.97) " stroke-linecap="round" />
</g>
<g transform="translate(154 84)" style="">
	<ellipse cx="0" cy="0" rx="24.56" ry="21.8" style="stroke: none; stroke-width: 1; stroke-dasharray: none; stroke-linecap: butt; stroke-linejoin: round; stroke-miterlimit: 1.41; fill: rgb(237,175,6); fill-rule: evenodd; opacity: 1;" transform="translate(0.45 0.15)"/>
	<ellipse cx="0" cy="0" rx="24.56" ry="21.8" style="stroke: none; stroke-width: 1; stroke-dasharray: none; stroke-linecap: butt; stroke-linejoin: round; stroke-miterlimit: 1.41; fill: rgb(250,201,64); fill-rule: evenodd; opacity: 1;" transform="translate(1.39 -0.97)"/>
	<radialGradient id="SVGID_6" gradientUnits="userSpaceOnUse" gradientTransform="matrix(5.65728 0 0 5.65728 43.41 28.4)"  cx="-43.41" cy="-28.4" r="1" fx="-43.41" fy="-28.4">
<stop offset="0%" style="stop-color:rgb(29,29,29);stop-opacity: 1"/>
<stop offset="100%" style="stop-color:rgb(0,0,0);stop-opacity: 1"/>
</radialGradient>
<circle cx="0" cy="0" r="5.66" style="stroke: none; stroke-width: 1; stroke-dasharray: none; stroke-linecap: butt; stroke-linejoin: round; stroke-miterlimit: 1.41; fill: url(#SVGID_6); fill-rule: evenodd; opacity: 1;" transform="translate(11.41 -3.6) "/>
	<path d="M 43.41 21.9 c 0 1.75 0.39 4.68 1.1 5.4 c 0.73 0.72 3.65 1.1 5.41 1.1 c -1.76 0 -4.68 0.39 -5.4 1.1 c -0.72 0.73 -1.1 3.65 -1.1 5.41 c 0 -1.76 -0.39 -4.68 -1.11 -5.4 c -0.72 -0.73 -3.64 -1.1 -5.4 -1.1 c 1.76 0 4.68 -0.4 5.4 -1.11 c 0.72 -0.72 1.1 -3.65 1.1 -5.4 z" style="stroke: none; stroke-width: 1; stroke-dasharray: none; stroke-linecap: butt; stroke-linejoin: round; stroke-miterlimit: 1.41; fill: rgb(255,255,255); fill-rule: evenodd; opacity: 1;" transform="translate(11.42 -3.6) translate(-43.415000000000006, -28.404999999999998) " stroke-linecap="round" />
	<radialGradient id="SVGID_7" gradientUnits="userSpaceOnUse" gradientTransform="matrix(5.65728 0 0 5.65728 21.54 28.4)"  cx="-21.54" cy="-28.4" r="1" fx="-21.54" fy="-28.4">
<stop offset="0%" style="stop-color:rgb(29,29,29);stop-opacity: 1"/>
<stop offset="100%" style="stop-color:rgb(0,0,0);stop-opacity: 1"/>
</radialGradient>
<circle cx="0" cy="0" r="5.66" style="stroke: none; stroke-width: 1; stroke-dasharray: none; stroke-linecap: butt; stroke-linejoin: round; stroke-miterlimit: 1.41; fill: url(#SVGID_7); fill-rule: evenodd; opacity: 1;" transform="translate(-10.46 -3.6) "/>
	<path d="M 21.54 21.9 c 0 1.75 0.39 4.68 1.1 5.4 c 0.72 0.72 3.65 1.1 5.41 1.1 c -1.76 0 -4.68 0.39 -5.4 1.1 c -0.72 0.73 -1.1 3.65 -1.1 5.41 c 0 -1.76 -0.4 -4.68 -1.11 -5.4 c -0.72 -0.73 -3.65 -1.1 -5.4 -1.1 c 1.75 0 4.68 -0.4 5.4 -1.11 c 0.72 -0.72 1.1 -3.65 1.1 -5.4 z" style="stroke: none; stroke-width: 1; stroke-dasharray: none; stroke-linecap: butt; stroke-linejoin: round; stroke-miterlimit: 1.41; fill: rgb(255,255,255); fill-rule: evenodd; opacity: 1;" transform="translate(-10.46 -3.6) translate(-21.544999999999998, -28.404999999999998) " stroke-linecap="round" />
	<path d="M 39.76 34.26 l 0.2 0.21 a 1.55 1.55 0 0 1 -0.02 0.41 c 0 0.08 -0.02 0.15 -0.04 0.22 a 2.85 2.85 0 0 1 -1.01 1.44 a 5.34 5.34 0 0 1 -1.12 0.75 a 6.3 6.3 0 0 1 -1.06 0.47 a 11.32 11.32 0 0 1 -1.87 0.54 l -0.19 0.04 a 11.6 11.6 0 0 1 -1.93 0.21 h -0.6 a 9.04 9.04 0 0 1 -1.16 -0.07 l -0.2 -0.03 a 13.05 13.05 0 0 1 -0.73 -0.12 l -0.27 -0.06 a 13.93 13.93 0 0 1 -1.18 -0.33 l -0.35 -0.13 a 10.04 10.04 0 0 1 -1.05 -0.48 a 7.3 7.3 0 0 1 -1.22 -0.85 a 4.38 4.38 0 0 1 -0.64 -0.75 a 2.19 2.19 0 0 1 -0.33 -1.24 v -0.02 l 0.2 -0.2 l 0.22 0.2 a 1.5 1.5 0 0 0 0.1 0.39 a 2 2 0 0 0 0.63 0.75 l 0.23 0.17 c 0.51 0.33 1.1 0.54 1.68 0.7 a 9.24 9.24 0 0 0 1.34 0.3 l 0.62 0.08 l 0.24 0.03 l 0.41 0.04 l 0.44 0.03 l 0.76 0.04 h 0.62 l 0.22 0.01 h 0.61 a 21.68 21.68 0 0 0 1.07 -0.05 l 0.26 -0.02 a 13.58 13.58 0 0 0 2.54 -0.49 a 8.8 8.8 0 0 0 1.15 -0.49 l 0.23 -0.13 c 0.24 -0.16 0.47 -0.35 0.65 -0.58 a 1.41 1.41 0 0 0 0.33 -0.74 v -0.02 l 0.01 -0.02 l 0.2 -0.2 z m 2.19 -17.54 l 3.98 1.08 l 0.47 0.36 l 0.07 0.59 l -0.36 0.47 l -0.59 0.08 l -3.98 -1.08 l -0.47 -0.36 l -0.08 -0.59 l 0.37 -0.47 c 0.2 -0.03 0.4 -0.13 0.59 -0.08 z m -18.35 0.08 l 0.36 0.47 l -0.08 0.59 l -0.46 0.36 l -3.99 1.08 l -0.58 -0.08 l -0.37 -0.47 l 0.08 -0.59 l 0.47 -0.36 L 23 16.72 l 0.59 0.08 z" style="stroke: none; stroke-width: 1; stroke-dasharray: none; stroke-linecap: butt; stroke-linejoin: round; stroke-miterlimit: 1.41; fill: rgb(46,13,25); fill-rule: nonzero; opacity: 1;" transform="translate(0.47 -4.37) translate(-32.474999999999994, -27.628151969554178) " stroke-linecap="round" />
	<ellipse cx="0" cy="0" rx="3.85" ry="2.47" style="stroke: none; stroke-width: 1; stroke-dasharray: none; stroke-linecap: butt; stroke-linejoin: round; stroke-miterlimit: 1.41; fill: rgb(230,85,110); fill-rule: evenodd; opacity: 1;" transform="translate(18.59 3.11)"/>
	<ellipse cx="0" cy="0" rx="3.85" ry="2.47" style="stroke: none; stroke-width: 1; stroke-dasharray: none; stroke-linecap: butt; stroke-linejoin: round; stroke-miterlimit: 1.41; fill: rgb(230,85,110); fill-rule: evenodd; opacity: 1;" transform="translate(-17.58 3.11)"/>
</g>
<g transform="translate(970 970) scale(0.4 0.39)" style="">
	<path d="M 312 246.9 h -500 v -3.6 h 500 V 246.9 z M -186.8 245.7 h 497.6 v -1.2 h -497.6 V 245.7 z" style="stroke: none; stroke-width: 1; stroke-dasharray: none; stroke-linecap: butt; stroke-linejoin: miter; stroke-miterlimit: 10; fill: rgb(64,71,98); fill-rule: nonzero; opacity: 1;" transform="translate(0 -56.45) translate(-62, -245.10000000000002) " stroke-linecap="round" />
	<path d="M 312 359.9 h -500 v -3.6 h 500 V 359.9 z M -186.8 358.7 h 497.6 v -1.2 h -497.6 V 358.7 z" style="stroke: none; stroke-width: 1; stroke-dasharray: none; stroke-linecap: butt; stroke-linejoin: miter; stroke-miterlimit: 10; fill: rgb(64,71,98); fill-rule: nonzero; opacity: 1;" transform="translate(0 56.55) translate(-62, -358.09999999999997) " stroke-linecap="round" />
</g>
	<g transform="translate(968.03 970.28)">
		<text xml:space="preserve" font-family="Playfair Display" font-size="20" font-style="normal" font-weight="normal" style="stroke: none; stroke-width: 1; stroke-dasharray: none; stroke-linecap: butt; stroke-linejoin: miter; stroke-miterlimit: 10; fill: rgb(64,71,98); fill-rule: nonzero; opacity: 1; white-space: pre;" ><tspan x="-66.9" y="6.28" >THE NEW YOU</tspan></text>
	</g>
	<g transform="translate(988.3 997.53)">
		<text xml:space="preserve" font-family="Roboto" font-size="42" font-style="normal" font-weight="normal" style="stroke: none; stroke-width: 1; stroke-dasharray: none; stroke-linecap: butt; stroke-linejoin: miter; stroke-miterlimit: 4; fill: rgb(204,50,75); fill-rule: nonzero; opacity: 1; white-space: pre;" ><tspan x="-96.13" y="-14.33" >gfgfghghg</tspan></text>
	</g>
<g transform="translate(969.5 968.85) scale(0.37 0.22)" style="">
	<rect x="-254.5" y="-1.25" rx="0" ry="0" width="509" height="2.5" style="stroke: none; stroke-width: 1; stroke-dasharray: none; stroke-linecap: butt; stroke-linejoin: miter; stroke-miterlimit: 10; fill: rgb(64,71,98); fill-rule: nonzero; opacity: 1;" transform="translate(-1.4 17.6)"/>
</g>
	<g transform="translate(969.02 989.12)">
		<text xml:space="preserve" font-family="Josefin Sans" font-size="20" font-style="normal" font-weight="normal" style="stroke: none; stroke-width: 1; stroke-dasharray: none; stroke-linecap: butt; stroke-linejoin: miter; stroke-miterlimit: 10; fill: rgb(64,71,98); fill-rule: nonzero; opacity: 1; white-space: pre;" ><tspan x="-94.56" y="6.28" >UNIVERSITY PRESS</tspan></text>
	</g>
	<g transform="translate(968.59 958.37) scale(1.25 1.25)">
		<text xml:space="preserve" font-family="Montserrat" font-size="20" font-style="normal" font-weight="bold" style="stroke: none; stroke-width: 1; stroke-dasharray: none; stroke-linecap: butt; stroke-linejoin: miter; stroke-miterlimit: 10; fill: rgb(64,71,98); fill-rule: nonzero; opacity: 1; white-space: pre;" ><tspan x="-75.77" y="6.28" >COPENHAGEN</tspan></text>
	</g>
</svg>