<?xml version="1.0" encoding="UTF-8" standalone="no" ?>
<!DOCTYPE svg PUBLIC "-//W3C//DTD SVG 1.1//EN" "http://www.w3.org/Graphics/SVG/1.1/DTD/svg11.dtd">
<svg xmlns="http://www.w3.org/2000/svg" xmlns:xlink="http://www.w3.org/1999/xlink" version="1.1" width="1772" height="1772" viewBox="0 0 1942.88 1942.88" xml:space="preserve">
<desc>Created with Fabric.js 2.3.3</desc>
<defs>
</defs>
	<g transform="translate(971.5 971.5)">
		<text xml:space="preserve" font-family="Roboto" font-size="42" font-style="normal" font-weight="normal" style="stroke: none; stroke-width: 1; stroke-dasharray: none; stroke-linecap: butt; stroke-linejoin: miter; stroke-miterlimit: 4; fill: rgb(204,50,75); fill-rule: nonzero; opacity: 1; white-space: pre;" ><tspan x="-78.41" y="13.19" >Heading</tspan></text>
	</g>
	<g transform="translate(99.5 63.5)">
		<text xml:space="preserve" font-family="Roboto" font-size="42" font-style="normal" font-weight="normal" style="stroke: none; stroke-width: 1; stroke-dasharray: none; stroke-linecap: butt; stroke-linejoin: miter; stroke-miterlimit: 4; fill: rgb(204,50,75); fill-rule: nonzero; opacity: 1; white-space: pre;" ><tspan x="-78.41" y="13.19" >Heading</tspan></text>
	</g>
<g transform="translate(410.24 248.68) scale(0.46 0.46)" style="">
	<polygon id="change1" points="0,-167.85 71.32,-219.5 98.66,-135.79 186.72,-135.66 159.64,-51.87 230.8,0 159.64,51.87 186.72,135.66 98.66,135.79 71.32,219.5 0,167.85 -71.32,219.5 -98.66,135.79 -186.72,135.66 -159.64,51.87 -230.8,0 -159.64,-51.87 -186.72,-135.66 -98.66,-135.79 -71.32,-219.5 " style="stroke: none; stroke-width: 1; stroke-dasharray: none; stroke-linecap: butt; stroke-linejoin: miter; stroke-miterlimit: 4; fill: rgb(198,240,218); fill-rule: nonzero; opacity: 1;" transform="translate(0.17 -3.07) "/>
	<path id="change2" d="M 490.4121 233.2051 l -75.6025 -55.1074 l 28.7725 -89.021 l -93.5547 -0.145 L 320.9795 0 l -75.7729 54.873 L 169.4336 0 l -29.0483 88.9316 l -93.5552 0.145 l 28.772 89.021 L 0 233.2051 l 75.6025 55.1079 l -28.7725 89.0215 l 93.5552 0.1436 l 29.0483 88.9326 l 75.7729 -54.874 l 75.7729 54.874 l 29.0479 -88.9326 l 93.5547 -0.1436 l -28.7725 -89.0215 L 490.4121 233.2051 z M 397.1963 183.8203 l 57.4617 41.8848 h -53.5499 l -40.9509 -29.8496 l 15.5853 -48.22 l 43.3222 -31.4758 L 397.1963 183.8203 z M 252.707 67.9619 l 60.4033 -43.7431 l 26.0303 79.6963 l 71.1079 0.1097 l -43.3224 31.476 l -50.6761 -0.0789 l -19.6875 -60.2739 l -43.8555 31.7588 V 67.9619 z M 151.271 103.915 l 26.0317 -79.6963 l 60.4038 43.7434 v 38.9449 l -43.856 -31.7592 l -19.6875 60.2739 l -50.6755 0.0788 l -43.3231 -31.4759 L 151.271 103.915 z M 93.2158 183.8203 l -21.8683 -67.6602 l 43.3231 31.476 l 15.5847 48.2194 l -40.9509 29.8496 H 35.7541 L 93.2158 183.8203 z M 93.2158 282.5903 l -57.4612 -41.8848 H 89.305 l 40.9504 29.8496 l -15.5847 48.2194 l -43.3235 31.4765 L 93.2158 282.5903 z M 237.7065 398.4485 l -60.4038 43.7434 l -26.0317 -79.6963 l -71.1068 -0.1102 l 43.3224 -31.4757 l 50.6765 0.0781 l 19.6875 60.2744 l 43.856 -31.7592 V 398.4485 z M 201.7197 367.0435 l -16.6709 -51.0381 l -53.6924 -0.084 l 16.5132 -51.0889 L 104.48 233.2051 l 43.3896 -31.627 l -16.5132 -51.0898 l 53.6924 -0.083 l 16.6709 -51.0386 l 43.4868 31.4922 l 43.4868 -31.4922 l 16.6699 51.0386 l 53.6934 0.083 l -16.5127 51.0898 l 43.3887 31.627 l -43.3887 31.6274 l 16.5127 51.0889 l -53.6934 0.084 l -16.6699 51.0381 l -43.4868 -31.4912 L 201.7197 367.0435 z M 339.1406 362.4956 l -26.0303 79.6963 l -60.4033 -43.7431 v -38.9454 l 43.8555 31.7588 l 19.6875 -60.2744 l 50.6765 -0.0781 l 43.3217 31.4757 L 339.1406 362.4956 z M 419.0648 350.2509 l -43.3225 -31.4763 l -15.5851 -48.2194 l 40.9504 -29.8496 h 53.5499 l -57.4612 41.8848 L 419.0648 350.2509 z" style="stroke: none; stroke-width: 1; stroke-dasharray: none; stroke-linecap: butt; stroke-linejoin: miter; stroke-miterlimit: 4; fill: rgb(17,188,155); fill-rule: nonzero; opacity: 1;" transform="translate(0 0) translate(-245.20605, -233.20534999999998) " stroke-linecap="round" />
</g>
</svg>