<?xml version="1.0" encoding="UTF-8" standalone="no" ?>
<!DOCTYPE svg PUBLIC "-//W3C//DTD SVG 1.1//EN" "http://www.w3.org/Graphics/SVG/1.1/DTD/svg11.dtd">
<svg xmlns="http://www.w3.org/2000/svg" xmlns:xlink="http://www.w3.org/1999/xlink" version="1.1" width="1772" height="1772" viewBox="0 0 1942.88 1942.88" xml:space="preserve">
<desc>Created with Fabric.js 2.3.3</desc>
<defs>
</defs>
<path d="M 28.999 248.249 L 29.001 248.251" style="stroke: rgb(255,249,82); stroke-width: 1; stroke-dasharray: none; stroke-linecap: round; stroke-linejoin: round; stroke-miterlimit: 10; fill: none; fill-rule: nonzero; opacity: 1;" transform="translate(29 248.25) translate(-29, -248.25) " stroke-linecap="round" />
<path d="M 65.999 241.25 Q 66 241.25 68 241.25 Q 70 241.25 79.5 244.75 Q 89 248.25 97 250.25 Q 105 252.25 118 255.25 Q 131 258.25 137 259.25 Q 143 260.25 146.5 260.25 Q 150 260.25 154.5 260.25 Q 159 260.25 162 259.25 Q 165 258.25 169 255.75 Q 173 253.25 175.5 249.75 Q 178 246.25 181.5 243.75 Q 185 241.25 187 237.25 Q 189 233.25 191 230.75 Q 193 228.25 194 226.25 Q 195 224.25 195.5 222.25 Q 196 220.25 196.5 217.25 Q 197 214.25 197.5 212.75 Q 198 211.25 198.5 210.25 Q 199 209.25 199.5 208.75 Q 200 208.25 199.5 210.75 Q 199 213.25 197.5 218.25 Q 196 223.25 195 228.75 Q 194 234.25 194 241.75 Q 194 249.25 203 264.25 Q 212 279.25 220 285.75 Q 228 292.25 234.5 295.25 Q 241 298.25 245 299.25 Q 249 300.25 250 300.25 Q 251 300.25 252 299.25 Q 253 298.25 253 296.75 Q 253 295.25 251 291.75 Q 249 288.25 240 280.75 Q 231 273.25 224 269.25 Q 217 265.25 211 264.75 Q 205 264.25 205 265.25 Q 205 266.25 207.5 268.25 Q 210 270.25 213 271.75 Q 216 273.25 219 273.25 Q 222 273.25 227 271.25 Q 232 269.25 237 263.75 Q 242 258.25 243.5 250.25 Q 245 242.25 244.5 241.75 Q 244 241.25 243.5 241.25 Q 243 241.25 245 242.75 Q 247 244.25 249.5 246.25 Q 252 248.25 254.5 249.25 Q 257 250.25 260.5 250.75 Q 264 251.25 268 249.25 Q 272 247.25 272.5 244.75 Q 273 242.25 273.5 238.75 Q 274 235.25 274 234.75 L 274 234.249" style="stroke: rgb(255,249,82); stroke-width: 1; stroke-dasharray: none; stroke-linecap: round; stroke-linejoin: round; stroke-miterlimit: 10; fill: none; fill-rule: nonzero; opacity: 1;" transform="translate(170 254.37) translate(-169.9995, -254.36936437851568) " stroke-linecap="round" />
<g transform="translate(971.5 971.5)" style="">
	<ellipse cx="0" cy="0" rx="24.56" ry="21.8" style="stroke: none; stroke-width: 1; stroke-dasharray: none; stroke-linecap: butt; stroke-linejoin: round; stroke-miterlimit: 1.41; fill: rgb(237,175,6); fill-rule: evenodd; opacity: 1;" transform="translate(0.45 0.15)"/>
	<ellipse cx="0" cy="0" rx="24.56" ry="21.8" style="stroke: none; stroke-width: 1; stroke-dasharray: none; stroke-linecap: butt; stroke-linejoin: round; stroke-miterlimit: 1.41; fill: rgb(250,201,64); fill-rule: evenodd; opacity: 1;" transform="translate(1.39 -0.97)"/>
	<radialGradient id="SVGID_1" gradientUnits="userSpaceOnUse" gradientTransform="matrix(5.65728 0 0 5.65728 43.41 28.4)"  cx="-43.41" cy="-28.4" r="1" fx="-43.41" fy="-28.4">
<stop offset="0%" style="stop-color:rgb(29,29,29);stop-opacity: 1"/>
<stop offset="100%" style="stop-color:rgb(0,0,0);stop-opacity: 1"/>
</radialGradient>
<circle cx="0" cy="0" r="5.66" style="stroke: none; stroke-width: 1; stroke-dasharray: none; stroke-linecap: butt; stroke-linejoin: round; stroke-miterlimit: 1.41; fill: url(#SVGID_1); fill-rule: evenodd; opacity: 1;" transform="translate(11.41 -3.6) "/>
	<path d="M 43.41 21.9 c 0 1.75 0.39 4.68 1.1 5.4 c 0.73 0.72 3.65 1.1 5.41 1.1 c -1.76 0 -4.68 0.39 -5.4 1.1 c -0.72 0.73 -1.1 3.65 -1.1 5.41 c 0 -1.76 -0.39 -4.68 -1.11 -5.4 c -0.72 -0.73 -3.64 -1.1 -5.4 -1.1 c 1.76 0 4.68 -0.4 5.4 -1.11 c 0.72 -0.72 1.1 -3.65 1.1 -5.4 z" style="stroke: none; stroke-width: 1; stroke-dasharray: none; stroke-linecap: butt; stroke-linejoin: round; stroke-miterlimit: 1.41; fill: rgb(255,255,255); fill-rule: evenodd; opacity: 1;" transform="translate(11.42 -3.6) translate(-43.415000000000006, -28.404999999999998) " stroke-linecap="round" />
	<radialGradient id="SVGID_2" gradientUnits="userSpaceOnUse" gradientTransform="matrix(5.65728 0 0 5.65728 21.54 28.4)"  cx="-21.54" cy="-28.4" r="1" fx="-21.54" fy="-28.4">
<stop offset="0%" style="stop-color:rgb(29,29,29);stop-opacity: 1"/>
<stop offset="100%" style="stop-color:rgb(0,0,0);stop-opacity: 1"/>
</radialGradient>
<circle cx="0" cy="0" r="5.66" style="stroke: none; stroke-width: 1; stroke-dasharray: none; stroke-linecap: butt; stroke-linejoin: round; stroke-miterlimit: 1.41; fill: url(#SVGID_2); fill-rule: evenodd; opacity: 1;" transform="translate(-10.46 -3.6) "/>
	<path d="M 21.54 21.9 c 0 1.75 0.39 4.68 1.1 5.4 c 0.72 0.72 3.65 1.1 5.41 1.1 c -1.76 0 -4.68 0.39 -5.4 1.1 c -0.72 0.73 -1.1 3.65 -1.1 5.41 c 0 -1.76 -0.4 -4.68 -1.11 -5.4 c -0.72 -0.73 -3.65 -1.1 -5.4 -1.1 c 1.75 0 4.68 -0.4 5.4 -1.11 c 0.72 -0.72 1.1 -3.65 1.1 -5.4 z" style="stroke: none; stroke-width: 1; stroke-dasharray: none; stroke-linecap: butt; stroke-linejoin: round; stroke-miterlimit: 1.41; fill: rgb(255,255,255); fill-rule: evenodd; opacity: 1;" transform="translate(-10.46 -3.6) translate(-21.544999999999998, -28.404999999999998) " stroke-linecap="round" />
	<path d="M 39.76 34.26 l 0.2 0.21 a 1.55 1.55 0 0 1 -0.02 0.41 c 0 0.08 -0.02 0.15 -0.04 0.22 a 2.85 2.85 0 0 1 -1.01 1.44 a 5.34 5.34 0 0 1 -1.12 0.75 a 6.3 6.3 0 0 1 -1.06 0.47 a 11.32 11.32 0 0 1 -1.87 0.54 l -0.19 0.04 a 11.6 11.6 0 0 1 -1.93 0.21 h -0.6 a 9.04 9.04 0 0 1 -1.16 -0.07 l -0.2 -0.03 a 13.05 13.05 0 0 1 -0.73 -0.12 l -0.27 -0.06 a 13.93 13.93 0 0 1 -1.18 -0.33 l -0.35 -0.13 a 10.04 10.04 0 0 1 -1.05 -0.48 a 7.3 7.3 0 0 1 -1.22 -0.85 a 4.38 4.38 0 0 1 -0.64 -0.75 a 2.19 2.19 0 0 1 -0.33 -1.24 v -0.02 l 0.2 -0.2 l 0.22 0.2 a 1.5 1.5 0 0 0 0.1 0.39 a 2 2 0 0 0 0.63 0.75 l 0.23 0.17 c 0.51 0.33 1.1 0.54 1.68 0.7 a 9.24 9.24 0 0 0 1.34 0.3 l 0.62 0.08 l 0.24 0.03 l 0.41 0.04 l 0.44 0.03 l 0.76 0.04 h 0.62 l 0.22 0.01 h 0.61 a 21.68 21.68 0 0 0 1.07 -0.05 l 0.26 -0.02 a 13.58 13.58 0 0 0 2.54 -0.49 a 8.8 8.8 0 0 0 1.15 -0.49 l 0.23 -0.13 c 0.24 -0.16 0.47 -0.35 0.65 -0.58 a 1.41 1.41 0 0 0 0.33 -0.74 v -0.02 l 0.01 -0.02 l 0.2 -0.2 z m 2.19 -17.54 l 3.98 1.08 l 0.47 0.36 l 0.07 0.59 l -0.36 0.47 l -0.59 0.08 l -3.98 -1.08 l -0.47 -0.36 l -0.08 -0.59 l 0.37 -0.47 c 0.2 -0.03 0.4 -0.13 0.59 -0.08 z m -18.35 0.08 l 0.36 0.47 l -0.08 0.59 l -0.46 0.36 l -3.99 1.08 l -0.58 -0.08 l -0.37 -0.47 l 0.08 -0.59 l 0.47 -0.36 L 23 16.72 l 0.59 0.08 z" style="stroke: none; stroke-width: 1; stroke-dasharray: none; stroke-linecap: butt; stroke-linejoin: round; stroke-miterlimit: 1.41; fill: rgb(46,13,25); fill-rule: nonzero; opacity: 1;" transform="translate(0.47 -4.37) translate(-32.474999999999994, -27.628151969554178) " stroke-linecap="round" />
	<ellipse cx="0" cy="0" rx="3.85" ry="2.47" style="stroke: none; stroke-width: 1; stroke-dasharray: none; stroke-linecap: butt; stroke-linejoin: round; stroke-miterlimit: 1.41; fill: rgb(230,85,110); fill-rule: evenodd; opacity: 1;" transform="translate(18.59 3.11)"/>
	<ellipse cx="0" cy="0" rx="3.85" ry="2.47" style="stroke: none; stroke-width: 1; stroke-dasharray: none; stroke-linecap: butt; stroke-linejoin: round; stroke-miterlimit: 1.41; fill: rgb(230,85,110); fill-rule: evenodd; opacity: 1;" transform="translate(-17.58 3.11)"/>
</g>
<g transform="translate(971.5 971.5)" style="">
	<ellipse cx="0" cy="0" rx="24.56" ry="21.8" style="stroke: none; stroke-width: 1; stroke-dasharray: none; stroke-linecap: butt; stroke-linejoin: round; stroke-miterlimit: 1.41; fill: rgb(237,175,6); fill-rule: evenodd; opacity: 1;" transform="translate(-1.03 0.15)"/>
	<ellipse cx="0" cy="0" rx="24.56" ry="21.8" style="stroke: none; stroke-width: 1; stroke-dasharray: none; stroke-linecap: butt; stroke-linejoin: round; stroke-miterlimit: 1.41; fill: rgb(237,175,6); fill-rule: evenodd; opacity: 1;" transform="translate(-0.09 -0.97)"/>
	<path d="M 42.95 31.75 a 9.78 9.78 0 0 1 -2.32 6.79 a 11.72 11.72 0 0 1 -3.82 3.07 a 13.57 13.57 0 0 1 -4.08 1.32 a 13.8 13.8 0 0 1 -4.26 -0.06 a 12.98 12.98 0 0 1 -5.03 -2.08 a 11.85 11.85 0 0 1 -2.3 -2.12 a 10.81 10.81 0 0 1 -1.97 -3.6 a 9.86 9.86 0 0 1 -0.42 -3.25 v -0.07 l 0.2 -0.2 l 0.21 0.2 a 13.42 13.42 0 0 0 0.03 0.4 a 9.36 9.36 0 0 0 2.2 5.2 a 10.45 10.45 0 0 0 2.54 2.21 a 11.8 11.8 0 0 0 4.15 1.67 a 12.7 12.7 0 0 0 3.23 0.29 a 12.43 12.43 0 0 0 2.42 -0.28 a 12.54 12.54 0 0 0 4.04 -1.62 a 11.2 11.2 0 0 0 2.73 -2.45 a 9.68 9.68 0 0 0 1.95 -4.43 c 0.05 -0.33 0.08 -0.66 0.1 -0.99 l 0.2 -0.2 l 0.2 0.2 z" style="stroke: none; stroke-width: 1; stroke-dasharray: none; stroke-linecap: butt; stroke-linejoin: round; stroke-miterlimit: 1.41; fill: rgb(46,13,25); fill-rule: nonzero; opacity: 1;" transform="translate(-1.15 5.31) translate(-30.85161937927562, -37.30837823877215) " stroke-linecap="round" />
	<path d="M 37.36 42.5 c -0.78 -1.43 0.06 -3.5 1.85 -3.75 c -0.19 -0.73 1.92 -2.13 3.58 -0.8 c 5.44 4.38 3.98 7.42 2.37 8.7 c -4.8 3.82 -7.75 -3.83 -7.8 -4.16 z" style="stroke: none; stroke-width: 1; stroke-dasharray: none; stroke-linecap: butt; stroke-linejoin: round; stroke-miterlimit: 1.41; fill: rgb(224,46,77); fill-rule: evenodd; opacity: 1;" transform="translate(9.85 10.56) translate(-41.849104195297016, -42.55712219019437) " stroke-linecap="round" />
	<path d="M 37.05 42.03 c -0.8 -1.42 0.05 -3.5 1.84 -3.74 c -0.19 -0.74 1.92 -2.14 3.58 -0.8 c 5.44 4.38 3.99 7.42 2.37 8.7 c -4.8 3.82 -7.75 -3.83 -7.8 -4.16 z" style="stroke: none; stroke-width: 1; stroke-dasharray: none; stroke-linecap: butt; stroke-linejoin: round; stroke-miterlimit: 1.41; fill: rgb(241,74,103); fill-rule: evenodd; opacity: 1;" transform="translate(9.53 10.09) translate(-41.531036550799385, -42.09397219462026) " stroke-linecap="round" />
	<path d="M 38.42 38.67 c 0.32 -0.23 2.33 1.3 3.5 3.02 c 0.04 -0.04 -1.56 -2.94 -3.09 -3.2 l -0.4 0.18 z" style="stroke: none; stroke-width: 1; stroke-dasharray: none; stroke-linecap: butt; stroke-linejoin: round; stroke-miterlimit: 1.41; fill: rgb(224,46,77); fill-rule: evenodd; opacity: 1;" transform="translate(8.17 8.09) translate(-40.17036741932639, -40.09) " stroke-linecap="round" />
	<radialGradient id="SVGID_4" gradientUnits="userSpaceOnUse" gradientTransform="matrix(4.08642 0 0 4.08642 19.29 28.04)"  cx="-1.7763568394002505e-15" cy="-3.552713678800501e-15" r="1" fx="-1.7763568394002505e-15" fy="-3.552713678800501e-15">
<stop offset="0%" style="stop-color:rgb(29,29,29);stop-opacity: 1"/>
<stop offset="100%" style="stop-color:rgb(0,0,0);stop-opacity: 1"/>
</radialGradient>
<path d="M 19.29 23.95 a 4.09 4.09 0 0 1 4.08 4.09 c 0 2.25 -1.84 0.62 -4.1 0.62 c -2.25 0 -4.07 1.63 -4.07 -0.62 a 4.09 4.09 0 0 1 4.08 -4.09 z" style="stroke: none; stroke-width: 1; stroke-dasharray: none; stroke-linecap: butt; stroke-linejoin: round; stroke-miterlimit: 1.41; fill: url(#SVGID_4); fill-rule: evenodd; opacity: 1;" transform="translate(-12.72 -5.41) translate(-19.284999999999997, -26.590292011554638) " stroke-linecap="round" />
	<path d="M 18.45 26.2 a 1.11 1.11 0 1 1 -1.12 1.93 a 1.11 1.11 0 0 1 1.12 -1.93 z m 1.42 -0.6 a 0.56 0.56 0 1 1 -0.56 0.96 a 0.56 0.56 0 0 1 0.56 -0.97 z" style="stroke: none; stroke-width: 1; stroke-dasharray: none; stroke-linecap: butt; stroke-linejoin: round; stroke-miterlimit: 1.41; fill: rgb(255,255,255); fill-rule: evenodd; opacity: 1;" transform="translate(-13.51 -5.1) translate(-18.491972511086693, -26.897892699335152) " stroke-linecap="round" />
	<radialGradient id="SVGID_5" gradientUnits="userSpaceOnUse" gradientTransform="matrix(4.08642 0 0 4.08642 42.42 28.04)"  cx="7.105427357601002e-15" cy="-3.552713678800501e-15" r="1" fx="7.105427357601002e-15" fy="-3.552713678800501e-15">
<stop offset="0%" style="stop-color:rgb(29,29,29);stop-opacity: 1"/>
<stop offset="100%" style="stop-color:rgb(0,0,0);stop-opacity: 1"/>
</radialGradient>
<path d="M 42.42 23.95 a 4.09 4.09 0 0 1 4.09 4.09 c 0 2.25 -1.84 0.62 -4.1 0.62 c -2.25 0 -4.07 1.63 -4.07 -0.62 a 4.09 4.09 0 0 1 4.08 -4.09 z" style="stroke: none; stroke-width: 1; stroke-dasharray: none; stroke-linecap: butt; stroke-linejoin: round; stroke-miterlimit: 1.41; fill: url(#SVGID_5); fill-rule: evenodd; opacity: 1;" transform="translate(10.42 -5.41) translate(-42.424999999990675, -26.590292011554638) " stroke-linecap="round" />
	<path d="M 41.58 26.2 a 1.11 1.11 0 1 1 -1.12 1.93 a 1.11 1.11 0 0 1 1.12 -1.93 z m 1.42 -0.6 a 0.56 0.56 0 1 1 -0.56 0.96 a 0.56 0.56 0 0 1 0.56 -0.97 z" style="stroke: none; stroke-width: 1; stroke-dasharray: none; stroke-linecap: butt; stroke-linejoin: round; stroke-miterlimit: 1.41; fill: rgb(255,255,255); fill-rule: evenodd; opacity: 1;" transform="translate(9.62 -5.1) translate(-41.621972511086696, -26.897800709251086) " stroke-linecap="round" />
</g>
	<g transform="translate(971.5 971.5)">
		<text xml:space="preserve" font-family="Roboto" font-size="36" font-style="normal" font-weight="normal" style="stroke: none; stroke-width: 1; stroke-dasharray: none; stroke-linecap: butt; stroke-linejoin: miter; stroke-miterlimit: 4; fill: rgb(204,50,75); fill-rule: nonzero; opacity: 1; white-space: pre;" ><tspan x="-94.49" y="11.31" >Subheading</tspan></text>
	</g>
</svg>