<?xml version="1.0" encoding="UTF-8" standalone="no" ?>
<!DOCTYPE svg PUBLIC "-//W3C//DTD SVG 1.1//EN" "http://www.w3.org/Graphics/SVG/1.1/DTD/svg11.dtd">
<svg xmlns="http://www.w3.org/2000/svg" xmlns:xlink="http://www.w3.org/1999/xlink" version="1.1" width="1771.6535433281251" height="1771.6535433281251" viewBox="0 0 3225 3225" xml:space="preserve">
<desc>Created with Fabric.js 2.3.3</desc>
<defs>
</defs>
<g transform="translate(1612.5 1614.525) scale(0.36 0.3)" style="">
	<path d="M 77.7 167.4 c 0.3 0.1 0.6 0.3 0.6 0.4 C 78.8 167.5 78.9 167.4 77.7 167.4 z" style="stroke: none; stroke-width: 1; stroke-dasharray: none; stroke-linecap: butt; stroke-linejoin: miter; stroke-miterlimit: 10; fill: rgb(64,71,98); fill-rule: nonzero; opacity: 1;" transform="translate(-196.8241663824 69.2) translate(-78.17583361756829, -167.60000000000002) " stroke-linecap="round" />
	<path d="M 78.4 167.7 c -0.1 0 -0.1 0 -0.3 0.1 C 78.3 167.8 78.3 167.8 78.4 167.7 C 78.4 167.8 78.4 167.8 78.4 167.7 z" style="stroke: none; stroke-width: 1; stroke-dasharray: none; stroke-linecap: butt; stroke-linejoin: miter; stroke-miterlimit: 10; fill: rgb(64,71,98); fill-rule: nonzero; opacity: 1;" transform="translate(-196.75 69.35) translate(-78.25, -167.75) " stroke-linecap="round" />
	<path d="M 101.4 174.3 c 1.3 -0.4 2.1 -0.1 3.2 -0.4 l 0.6 0.6 c 1.3 -0.3 0.6 -0.5 1.5 -0.9 c 1.2 0.4 3.7 0 4.2 0 c 0.4 0.3 -0.5 0.4 -0.6 0.6 c 1.5 -0.3 1.4 -0.9 3.3 -0.9 v 0.1 c 4.6 -0.9 10.4 -0.8 15.4 -1.3 c -0.4 0 -0.3 -0.1 -0.4 -0.3 c 5.4 -0.3 11.6 -0.3 15.8 -1.9 c -3 0.1 -7.8 -0.9 -10.8 0.3 c -1 -0.5 -2.8 0.3 -3.2 -0.5 c -4.2 -0.3 -5.9 0.9 -10 0.9 c -0.6 -0.1 -0.3 -0.5 -0.5 -0.8 l 3.2 -0.4 l -1.8 0.1 c 0.9 -0.3 3 -0.1 3.1 -0.6 c -2.8 0.8 -7.3 0.1 -9.8 1 c 1.2 0.1 2.6 0 4 0 c 0.6 0.3 1.5 0.4 1.4 0.6 c -3.9 0.9 -7.1 0.5 -11.2 0.8 c -1 0.1 -2.3 0 -2.6 -0.3 c 0.6 -0.1 0.1 -0.4 0.6 -0.5 c -1.4 0.3 -0.1 1.2 -2.2 1 l 0.3 -1.2 c -0.8 1.2 -2.6 -0.3 -4 0.5 c -0.5 -0.4 0.4 -0.8 1.5 -0.8 c -1.3 -0.3 -1.4 0.5 -2.4 0.4 l 1 -0.9 c -1 0.9 -1.9 -0.1 -2.6 -0.5 c -0.1 0.3 0.5 0.9 -0.9 0.9 c -0.6 -0.1 -0.3 -0.4 -0.4 -0.5 c -0.1 0.3 -0.5 0.6 -1.4 0.6 c -0.1 -0.3 0.6 -0.5 0.6 -0.8 c -0.6 0 -1.3 0.1 -1.7 -0.1 c -1.2 0.3 0.1 0.5 -0.6 0.8 c -1.8 -0.3 -0.1 -1.2 -0.9 -1.8 c 1.4 -0.5 3.2 -0.6 3.9 -0.9 l -2.7 0.3 c 0.1 -0.4 -1.8 -0.6 -0.4 -1 c -2.7 -0.4 -5.8 0.1 -8.4 0.4 c 0.4 0.1 0.8 0.3 0.8 0.4 c -1.3 0.3 -1.2 -0.3 -1.4 -0.5 c -1 0.3 -0.9 0.9 -1.4 1.4 c -2.1 -0.5 -2.3 -0.3 -4 -1 l 0.1 0.6 c -1.2 -0.5 -1.4 0.5 -2.7 0.1 c -0.1 -0.1 0.4 -0.3 0.8 -0.5 c -1.2 0.3 -1 -0.5 -2.2 -0.3 l 0.9 -0.8 c -0.9 0 -2.2 0.3 -1.8 -0.4 c -1.5 0.8 -4.4 0.4 -6.3 0.9 l 0.1 -0.5 c -1 0.6 -3.7 0 -4.6 0.8 l -0.1 -0.3 l -2.1 0.8 c -0.9 -0.1 -0.6 -0.9 -0.6 -0.6 c -2.1 0.1 -3.6 0.3 -4.9 -0.1 c -0.4 0.8 -2.4 0.9 -4.1 1 c -8.1 -0.5 -16.7 0.3 -24.3 1.2 c -1.2 0 -2.7 0.9 -4.1 1.3 c 1.7 0.1 1.9 -0.1 3.6 -0.3 c 1.3 0.3 1.8 1 2.8 1.4 l -0.5 -0.6 c 1.7 -0.5 1.2 0.4 2.6 -0.3 v 1 c 0.5 -0.5 1.7 -0.1 2.2 0.1 l 0.4 -0.6 c 1 0.4 1.8 0.5 2.1 1.2 l -0.1 -0.6 c 0.4 0.4 4.1 -0.1 2.8 1 c 0.3 -0.1 0.6 -0.5 1.3 -0.4 l 0.1 0.6 c 1 -0.1 2.1 -0.3 2.4 0.1 c -0.5 0.1 -0.8 0.4 -0.9 0.8 c 4.2 0.1 0.9 -2.1 4.6 -2.2 v 0.4 l 0.9 -0.4 l 1 0.5 c 1.3 -1.4 5.1 0.1 7.5 -0.6 c 0.9 -0.1 2.1 0.8 3.7 0.6 l -0.1 -0.6 c 1.3 0.6 6.4 1 7.6 2.6 c 1.3 -0.5 -0.1 -0.1 -0.1 -0.6 c 2.4 -0.6 2.7 0.4 4 0.8 c 1.5 -0.4 -1.2 -0.3 -0.4 -0.8 c 2.3 0.5 1.9 -0.8 4.8 -0.4 c 0.3 0.4 -0.8 0.3 -1 0.5 c 2.1 -0.6 5.8 -0.3 8.9 -0.4 c 3.5 0.5 8.6 0.6 12.6 1.2 l 0.1 -0.3 c 1.7 0.6 3.5 0 5.4 0.3 L 101.4 174.3 z" style="stroke: none; stroke-width: 1; stroke-dasharray: none; stroke-linecap: butt; stroke-linejoin: miter; stroke-miterlimit: 10; fill: rgb(64,71,98); fill-rule: nonzero; opacity: 1;" transform="translate(-191 71.8) translate(-83.99999999999997, -170.19999999999996) " stroke-linecap="round" />
	<path d="M 125.5 168.3 l -0.3 -0.5 l -1.8 0.4 C 124.1 168.6 124.4 168.2 125.5 168.3 z" style="stroke: none; stroke-width: 1; stroke-dasharray: none; stroke-linecap: butt; stroke-linejoin: miter; stroke-miterlimit: 10; fill: rgb(64,71,98); fill-rule: nonzero; opacity: 1;" transform="translate(-150.55 69.6908693606) translate(-124.45, -168.09086936058088) " stroke-linecap="round" />
	<polygon points="-0.1,0.15 0.8,-0.15 -0.8,-0.15 " style="stroke: none; stroke-width: 1; stroke-dasharray: none; stroke-linecap: butt; stroke-linejoin: miter; stroke-miterlimit: 10; fill: rgb(64,71,98); fill-rule: nonzero; opacity: 1;" transform="translate(-149.8 71.45) "/>
	<polygon points="-1.95,0.15 -1.65,0.25 1.95,-0.25 " style="stroke: none; stroke-width: 1; stroke-dasharray: none; stroke-linecap: butt; stroke-linejoin: miter; stroke-miterlimit: 10; fill: rgb(64,71,98); fill-rule: nonzero; opacity: 1;" transform="translate(-171.55 70.55) "/>
	<path d="M 77.9 166.8 c 0.4 -0.3 1 -0.1 1.4 -0.4 l -1.7 0.3 L 77.9 166.8 z" style="stroke: none; stroke-width: 1; stroke-dasharray: none; stroke-linecap: butt; stroke-linejoin: miter; stroke-miterlimit: 10; fill: rgb(64,71,98); fill-rule: nonzero; opacity: 1;" transform="translate(-196.55 68.2) translate(-78.45000000000002, -166.60000000000002) " stroke-linecap="round" />
	<path d="M 62.1 164.6 c -0.6 1 -1.3 0 -0.4 0.9 C 62.6 165.3 61.7 165 62.1 164.6 z" style="stroke: none; stroke-width: 1; stroke-dasharray: none; stroke-linecap: butt; stroke-linejoin: miter; stroke-miterlimit: 10; fill: rgb(64,71,98); fill-rule: nonzero; opacity: 1;" transform="translate(-213.3065799904 66.65) translate(-61.69342000956135, -165.05) " stroke-linecap="round" />
	<path d="M 58.3 166 c 0.5 0 0.9 -0.1 1.2 -0.3 C 58.7 165.3 58.7 165.9 58.3 166 z" style="stroke: none; stroke-width: 1; stroke-dasharray: none; stroke-linecap: butt; stroke-linejoin: miter; stroke-miterlimit: 10; fill: rgb(64,71,98); fill-rule: nonzero; opacity: 1;" transform="translate(-216.1 67.3820079054) translate(-58.9, -165.78200790541624) " stroke-linecap="round" />
	<path d="M 465.1 171.9 c -0.3 -0.1 -0.6 -0.3 -0.6 -0.4 C 464.2 171.8 464.1 171.9 465.1 171.9 z" style="stroke: none; stroke-width: 1; stroke-dasharray: none; stroke-linecap: butt; stroke-linejoin: miter; stroke-miterlimit: 10; fill: rgb(64,71,98); fill-rule: nonzero; opacity: 1;" transform="translate(189.6967892651 73.3) translate(-464.6967892651262, -171.7) " stroke-linecap="round" />
	<path d="M 464.5 171.5 c 0.1 0 0.1 0 0.3 -0.1 C 464.7 171.5 464.6 171.5 464.5 171.5 z" style="stroke: none; stroke-width: 1; stroke-dasharray: none; stroke-linecap: butt; stroke-linejoin: miter; stroke-miterlimit: 10; fill: rgb(64,71,98); fill-rule: nonzero; opacity: 1;" transform="translate(189.65 73.05) translate(-464.65, -171.45) " stroke-linecap="round" />
	<path d="M 441.6 165 c -1.3 0.4 -2.1 0.1 -3.2 0.4 l -0.6 -0.6 c -1.3 0.3 -0.6 0.5 -1.5 0.9 c -1.2 -0.4 -3.7 0 -4.2 0 c -0.4 -0.3 0.5 -0.4 0.6 -0.6 c -1.5 0.3 -1.4 0.9 -3.3 0.9 v -0.1 c -4.6 0.9 -10.4 0.8 -15.4 1.3 c 0.4 0 0.3 0.1 0.4 0.3 c -5.4 0.3 -11.6 0.3 -15.8 1.9 c 3 -0.1 7.8 0.9 10.8 -0.3 c 1 0.5 2.8 -0.3 3.2 0.5 c 4.2 0.3 5.9 -0.9 10 -0.9 c 0.6 0.1 0.3 0.5 0.5 0.8 l -3.2 0.4 l 1.9 0.3 c -0.9 0.3 -3 0.1 -3.1 0.6 c 2.8 -0.8 7.3 -0.1 9.8 -1 c -1.2 -0.1 -2.6 0 -4 0 c -0.6 -0.3 -1.5 -0.4 -1.4 -0.6 c 3.9 -0.9 7.1 -0.5 11.2 -0.8 c 1 -0.1 2.3 0 2.6 0.3 c -0.6 0.1 -0.1 0.4 -0.6 0.5 c 1.4 -0.3 0.1 -1.2 2.2 -1 l -0.3 1.2 c 0.8 -1.2 2.6 0.3 4 -0.5 c 0.5 0.4 -0.4 0.8 -1.5 0.8 c 1.3 0.3 1.4 -0.5 2.4 -0.4 l -1 0.9 c 1 -0.9 1.9 0.1 2.6 0.5 c 0.1 -0.3 -0.5 -0.9 0.9 -0.9 c 0.6 0.1 0.3 0.4 0.4 0.5 c 0.1 -0.3 0.5 -0.6 1.4 -0.6 c 0.1 0.3 -0.6 0.5 -0.6 0.8 c 0.6 0 1.3 -0.1 1.7 0.1 c 1.2 -0.3 -0.1 -0.5 0.6 -0.8 c 1.8 0.3 0.1 1.2 0.9 1.8 c -1.4 0.5 -3.2 0.6 -3.9 0.9 l 2.7 -0.3 c -0.1 0.4 1.8 0.6 0.4 1 c 2.7 0.4 5.8 -0.1 8.4 -0.4 c -0.4 -0.1 -0.8 -0.3 -0.8 -0.4 c 1.3 -0.3 1.2 0.3 1.4 0.5 c 1 -0.3 0.9 -0.9 1.4 -1.4 c 2.1 0.5 2.3 0.3 4 1 l -0.1 -0.6 c 1.2 0.5 1.4 -0.5 2.7 -0.1 c 0.1 0.1 -0.4 0.3 -0.8 0.5 c 1.2 -0.3 1 0.5 2.2 0.3 l -0.9 0.8 c 0.9 0 2.2 -0.3 1.8 0.4 c 1.5 -0.8 4.4 -0.4 6.3 -0.9 l -0.1 0.5 c 1 -0.6 3.7 0 4.6 -0.8 l 0.1 0.3 l 2.1 -0.8 c 0.9 0.1 0.6 0.9 0.6 0.6 c 2.1 -0.1 3.6 -0.3 4.9 0.1 c 0.4 -0.8 2.4 -0.9 4.1 -1 c 8.1 0.5 16.7 -0.3 24.3 -1.2 c 1.2 0 2.7 -0.9 4.1 -1.3 c -1.7 -0.1 -1.9 0.1 -3.6 0.3 c -1.3 -0.3 -1.8 -1 -2.8 -1.4 l 0.5 0.6 c -1.7 0.5 -1.2 -0.4 -2.6 0.3 v -1 c -0.5 0.5 -1.7 0.1 -2.2 -0.1 l -0.4 0.6 c -1 -0.4 -1.8 -0.5 -2.1 -1.2 l 0.1 0.6 c -0.4 -0.4 -4.1 0.1 -2.8 -1 c -0.3 0.1 -0.6 0.5 -1.3 0.4 l -0.1 -0.6 c -1 0.1 -2.1 0.3 -2.4 -0.1 c 0.5 -0.1 0.8 -0.4 0.9 -0.8 c -4.2 -0.1 -0.9 2.1 -4.6 2.2 v -0.4 l -0.9 0.4 l -1 -0.5 c -1.3 1.4 -5.1 -0.1 -7.5 0.6 c -0.9 0.1 -2.1 -0.8 -3.7 -0.6 l 0.1 0.6 c -1.3 -0.6 -6.4 -1 -7.6 -2.6 c -1.3 0.5 0.1 0.1 0.1 0.6 c -2.4 0.6 -2.7 -0.4 -4 -0.8 c -1.5 0.4 1.2 0.3 0.4 0.8 c -2.3 -0.5 -1.9 0.8 -4.8 0.4 c -0.3 -0.4 0.8 -0.3 1 -0.5 c -2.1 0.6 -5.8 0.3 -8.9 0.4 c -3.5 -0.5 -8.6 -0.6 -12.6 -1.2 l -0.1 0.3 c -1.7 -0.6 -3.5 0 -5.4 -0.3 L 441.6 165 z" style="stroke: none; stroke-width: 1; stroke-dasharray: none; stroke-linecap: butt; stroke-linejoin: miter; stroke-miterlimit: 10; fill: rgb(64,71,98); fill-rule: nonzero; opacity: 1;" transform="translate(184.05 70.9) translate(-459.04999999999995, -169.30000000000007) " stroke-linecap="round" />
	<path d="M 417.5 171 l 0.3 0.5 l 1.8 -0.4 C 418.9 170.7 418.5 171.1 417.5 171 z" style="stroke: none; stroke-width: 1; stroke-dasharray: none; stroke-linecap: butt; stroke-linejoin: miter; stroke-miterlimit: 10; fill: rgb(64,71,98); fill-rule: nonzero; opacity: 1;" transform="translate(143.55 72.8091306394) translate(-418.55, -171.20913063941913) " stroke-linecap="round" />
	<polygon points="0.25,-0.15 -0.75,0.15 0.75,0.15 " style="stroke: none; stroke-width: 1; stroke-dasharray: none; stroke-linecap: butt; stroke-linejoin: miter; stroke-miterlimit: 10; fill: rgb(64,71,98); fill-rule: nonzero; opacity: 1;" transform="translate(142.65 71.05) "/>
	<polygon points="1.85,-0.15 1.65,-0.25 -1.85,0.25 " style="stroke: none; stroke-width: 1; stroke-dasharray: none; stroke-linecap: butt; stroke-linejoin: miter; stroke-miterlimit: 10; fill: rgb(64,71,98); fill-rule: nonzero; opacity: 1;" transform="translate(164.45 71.95) "/>
	<path d="M 465 172.4 c -0.4 0.3 -1 0.1 -1.4 0.4 l 1.7 -0.3 L 465 172.4 z" style="stroke: none; stroke-width: 1; stroke-dasharray: none; stroke-linecap: butt; stroke-linejoin: miter; stroke-miterlimit: 10; fill: rgb(64,71,98); fill-rule: nonzero; opacity: 1;" transform="translate(189.45 74.2) translate(-464.45000000000005, -172.60000000000002) " stroke-linecap="round" />
	<path d="M 480.9 174.7 c 0.6 -1 1.3 0 0.4 -0.9 C 480.4 174 481.2 174.3 480.9 174.7 z" style="stroke: none; stroke-width: 1; stroke-dasharray: none; stroke-linecap: butt; stroke-linejoin: miter; stroke-miterlimit: 10; fill: rgb(64,71,98); fill-rule: nonzero; opacity: 1;" transform="translate(206.2933034884 75.85) translate(-481.29330348842234, -174.25) " stroke-linecap="round" />
	<path d="M 484.7 173.2 c -0.5 0 -0.9 0.1 -1.2 0.3 C 484.2 174 484.3 173.4 484.7 173.2 z" style="stroke: none; stroke-width: 1; stroke-dasharray: none; stroke-linecap: butt; stroke-linejoin: miter; stroke-miterlimit: 10; fill: rgb(64,71,98); fill-rule: nonzero; opacity: 1;" transform="translate(209.1 75.047105413) translate(-484.1, -173.44710541298832) " stroke-linecap="round" />
</g>
	<g transform="translate(1612.5 1612.5)">
		<text xml:space="preserve" font-family="Roboto" font-size="42" font-style="normal" font-weight="normal" style="stroke: none; stroke-width: 1; stroke-dasharray: none; stroke-linecap: butt; stroke-linejoin: miter; stroke-miterlimit: 4; fill: rgb(204,50,75); fill-rule: nonzero; opacity: 1; visibility: hidden; white-space: pre;" ><tspan x="-77.826875267" y="13.19388" >Heading</tspan></text>
	</g>
	<g transform="translate(1612.4939297791 1635.259) scale(0.43 0.43)">
		<text xml:space="preserve" font-family="Special Elite" font-size="20" font-style="normal" font-weight="normal" style="stroke: none; stroke-width: 1; stroke-dasharray: none; stroke-linecap: butt; stroke-linejoin: miter; stroke-miterlimit: 10; fill: rgb(64,71,98); fill-rule: nonzero; opacity: 1; white-space: pre;" ><tspan x="-71.6254180908" y="6.2828" >THE LOW-DOWN</tspan></text>
	</g>
	<g transform="translate(1611.9929982224 1608.449) scale(2.33 2.33)">
		<text xml:space="preserve" font-family="Fredoka One" font-size="20" font-style="normal" font-weight="normal" style="stroke: none; stroke-width: 1; stroke-dasharray: none; stroke-linecap: butt; stroke-linejoin: miter; stroke-miterlimit: 10; fill: rgb(255,92,92); fill-rule: nonzero; opacity: 1; white-space: pre;" ><tspan x="-39.5999992371" y="6.2828" >MEXICO</tspan></text>
	</g>
<path d="M 137.001 184.5 Q 137 184.5 136 184.5 Q 135 184.5 132.5 186 Q 130 187.5 128 188.5 Q 126 189.5 119 193.5 Q 112 197.5 109 199 Q 106 200.5 102 203.5 Q 98 206.5 95 211 Q 92 215.5 90.5 221.5 Q 89 227.5 89 233 Q 89 238.5 89.5 246 Q 90 253.5 94.5 273 Q 99 292.5 101.5 298.5 Q 104 304.5 109 312 Q 114 319.5 117.5 323.5 Q 121 327.5 133 333 Q 145 338.5 148.5 339.5 Q 152 340.5 167 341.5 Q 182 342.5 190.5 342.5 Q 199 342.5 205 342.5 Q 211 342.5 226.5 341 Q 242 339.5 264.5 333.5 Q 287 327.5 293 324.5 Q 299 321.5 312 313 Q 325 304.5 329 300 Q 333 295.5 340 285.5 Q 347 275.5 350 268 Q 353 260.5 352.5 241 Q 352 221.5 349.5 217.5 Q 347 213.5 317.5 202.5 Q 288 191.5 277.5 192 Q 267 192.5 262 194.5 Q 257 196.5 254.5 199.5 Q 252 202.5 249 212 Q 246 221.5 245.5 226 Q 245 230.5 245 234.5 Q 245 238.5 252 252 Q 259 265.5 260.5 266.5 Q 262 267.5 272 268 Q 282 268.5 288.5 268 Q 295 267.5 307 265 Q 319 262.5 328 259.5 Q 337 256.5 349 251 Q 361 245.5 366 242 Q 371 238.5 374.5 235 Q 378 231.5 387.5 211 Q 397 190.5 397 184.5 Q 397 178.5 396.5 176.5 Q 396 174.5 394 170.5 Q 392 166.5 391 165.5 Q 390 164.5 387.5 163.5 Q 385 162.5 384 163 Q 383 163.5 379.5 172.5 Q 376 181.5 376.5 189 Q 377 196.5 389 209.5 Q 401 222.5 404 223.5 Q 407 224.5 414.5 226 Q 422 227.5 441.5 228.5 Q 461 229.5 508.5 210.5 Q 556 191.5 556 188.5 Q 556 185.5 554.5 178.5 Q 553 171.5 551 167.5 Q 549 163.5 546.5 161 Q 544 158.5 540 155.5 Q 536 152.5 533.5 152.5 Q 531 152.5 529 153.5 Q 527 154.5 524.5 158 Q 522 161.5 519.5 169 Q 517 176.5 519.5 189.5 Q 522 202.5 525 205.5 Q 528 208.5 591.5 213 Q 655 217.5 674 209 Q 693 200.5 697 194 Q 701 187.5 701 185.5 Q 701 183.5 699.5 179 Q 698 174.5 693.5 172 Q 689 169.5 687 169.5 Q 685 169.5 676.5 174 Q 668 178.5 662.5 183.5 Q 657 188.5 643.5 203 Q 630 217.5 623 226 Q 616 234.5 599.5 276.5 Q 583 318.5 583.5 327.5 Q 584 336.5 586 342 Q 588 347.5 593.5 355 Q 599 362.5 601.5 364.5 Q 604 366.5 607 368 Q 610 369.5 616 370 Q 622 370.5 626 368 Q 630 365.5 630.5 364 Q 631 362.5 629 355.5 Q 627 348.5 625 345.5 Q 623 342.5 616 336 Q 609 329.5 596.5 325 Q 584 320.5 579.5 320.5 Q 575 320.5 563 321.5 Q 551 322.5 526.5 338.5 Q 502 354.5 494 372 Q 486 389.5 486 392.5 Q 486 395.5 486.5 397 Q 487 398.5 489 401.5 Q 491 404.5 492.5 405.5 Q 494 406.5 496.5 407 Q 499 407.5 499.5 407.5 Q 500 407.5 501 405 Q 502 402.5 501 395.5 Q 500 388.5 498.5 386 Q 497 383.5 489 379 Q 481 374.5 476.5 373.5 Q 472 372.5 468 372 Q 464 371.5 449.5 371 Q 435 370.5 427 372 Q 419 373.5 400 405 Q 381 436.5 382 438 Q 383 439.5 383.5 441.5 Q 384 443.5 384.5 445 L 385.001 446.501" style="stroke: rgb(255,92,92); stroke-width: 1; stroke-dasharray: none; stroke-linecap: round; stroke-linejoin: round; stroke-miterlimit: 10; fill: none; fill-rule: nonzero; opacity: 1;" transform="translate(395 299.5005) translate(-395, -299.5005) " stroke-linecap="round" />
<path d="M 109.936 197.436 Q 110 197.5 111.5 200.5 Q 113 203.5 114 204.5 Q 115 205.5 120.5 211.5 Q 126 217.5 129.5 220 Q 133 222.5 140.5 227 Q 148 231.5 153 234 Q 158 236.5 164.5 239 Q 171 241.5 182.5 244 Q 194 246.5 202.5 247.5 Q 211 248.5 227.5 249 Q 244 249.5 254 250 Q 264 250.5 277.5 249.5 Q 291 248.5 301.5 246.5 Q 312 244.5 326.5 239.5 Q 341 234.5 343 233.5 Q 345 232.5 354 224 Q 363 215.5 364.5 210.5 Q 366 205.5 366.5 197 Q 367 188.5 361 174.5 Q 355 160.5 291.5 188.5 Q 228 216.5 226.5 227.5 Q 225 238.5 226 244 Q 227 249.5 234 258 Q 241 266.5 245.5 269.5 Q 250 272.5 260.5 276 Q 271 279.5 279 280.5 Q 287 281.5 312.5 282.5 Q 338 283.5 344 283.5 Q 350 283.5 375.5 282.5 Q 401 281.5 415.5 280 Q 430 278.5 446.5 275 Q 463 271.5 471.5 268.5 Q 480 265.5 486 262.5 Q 492 259.5 497.5 255 Q 503 250.5 501 250 Q 499 249.5 495 250 Q 491 250.5 482.5 255.5 Q 474 260.5 468 265.5 Q 462 270.5 447 284 Q 432 297.5 426 305 Q 420 312.5 406.5 336 Q 393 359.5 431 374 Q 469 388.5 469 386 Q 469 383.5 466 378.5 Q 463 373.5 459.5 372 Q 456 370.5 446.5 370.5 Q 437 370.5 432.5 372 Q 428 373.5 424 375.5 Q 420 377.5 410 386 Q 400 394.5 397 399 Q 394 403.5 391.5 410 Q 389 416.5 389.5 423.5 Q 390 430.5 390.5 432 Q 391 433.5 392.5 435.5 Q 394 437.5 393.5 437 Q 393 436.5 391 435.5 Q 389 434.5 386 433.5 Q 383 432.5 376.5 431.5 Q 370 430.5 364.5 430.5 Q 359 430.5 348 430.5 Q 337 430.5 334 430.5 Q 331 430.5 324 430 L 316.936 429.436" style="stroke: rgb(255,92,92); stroke-width: 64; stroke-dasharray: none; stroke-linecap: round; stroke-linejoin: round; stroke-miterlimit: 10; fill: none; fill-rule: nonzero; opacity: 1;" transform="translate(306.0788467505 301.2909091424) translate(-306.0788467505232, -301.2909091424423) " stroke-linecap="round" />
<path d="M 107.987 365.487 Q 108 365.5 109.5 368 Q 111 370.5 121 381 Q 131 391.5 144 400 Q 157 408.5 162.5 411 Q 168 413.5 200 426.5 Q 232 439.5 244.5 444.5 Q 257 449.5 273.5 455.5 Q 290 461.5 302 466 Q 314 470.5 333.5 477.5 Q 353 484.5 357 486 Q 361 487.5 380 493 Q 399 498.5 406 500 Q 413 501.5 426.5 503 Q 440 504.5 446.5 504.5 Q 453 504.5 469 503.5 Q 485 502.5 491 501.5 Q 497 500.5 506 498 Q 515 495.5 524 493.5 Q 533 491.5 545.5 488 Q 558 484.5 561 483.5 Q 564 482.5 578.5 478 Q 593 473.5 599 471 Q 605 468.5 615.5 464 Q 626 459.5 631.5 457 Q 637 454.5 647 449.5 Q 657 444.5 659.5 443 Q 662 441.5 671.5 434.5 Q 681 427.5 685 423.5 Q 689 419.5 697 412 Q 705 404.5 708.5 400.5 Q 712 396.5 714 394 Q 716 391.5 723.5 381.5 Q 731 371.5 735.5 363.5 Q 740 355.5 742.5 350 Q 745 344.5 747 338.5 Q 749 332.5 752.5 318 Q 756 303.5 757.5 294 Q 759 284.5 745 245.5 Q 731 206.5 724 201 Q 717 195.5 712 192.5 Q 707 189.5 706 188.5 Q 705 187.5 702 185 Q 699 182.5 697.5 181 Q 696 179.5 695.5 179.5 L 694.987 179.5" style="stroke: rgb(255,92,92); stroke-width: 13; stroke-dasharray: none; stroke-linecap: round; stroke-linejoin: round; stroke-miterlimit: 10; fill: none; fill-rule: nonzero; opacity: 1;" transform="translate(433.0677981734 342) translate(-433.067798173402, -342) " stroke-linecap="round" />
</svg>