<?xml version="1.0" encoding="UTF-8" standalone="no" ?>
<!DOCTYPE svg PUBLIC "-//W3C//DTD SVG 1.1//EN" "http://www.w3.org/Graphics/SVG/1.1/DTD/svg11.dtd">
<svg xmlns="http://www.w3.org/2000/svg" xmlns:xlink="http://www.w3.org/1999/xlink" version="1.1" width="1772" height="1772" viewBox="0 0 2869.31 2869.31" xml:space="preserve">
<desc>Created with Fabric.js 2.3.3</desc>
<defs>
</defs>
	<g transform="translate(1420.45 1435.1)">
		<text xml:space="preserve" font-family="Roboto Slab" font-size="20" font-style="normal" font-weight="normal" style="stroke: none; stroke-width: 1; stroke-dasharray: none; stroke-linecap: butt; stroke-linejoin: miter; stroke-miterlimit: 10; fill: rgb(255,92,92); fill-rule: nonzero; opacity: 1; white-space: pre;" ><tspan x="-61.15" y="6.28" >46546465566</tspan></text>
	</g>
<g transform="translate(1434.5 1434.5) scale(0.59 0.68)" style="">
	<polygon points="38.85,-36.2 36.15,-38.9 0.05,-2.7 -36.15,-38.9 -38.85,-36.2 -2.65,0 -38.85,36.2 -36.15,38.9 0.05,2.7 36.15,38.9 38.85,36.2 2.75,0 " style="stroke: none; stroke-width: 1; stroke-dasharray: none; stroke-linecap: butt; stroke-linejoin: miter; stroke-miterlimit: 10; fill: rgb(64,71,98); fill-rule: nonzero; opacity: 1;" transform="translate(0.35 0.05) "/>
</g>
	<g transform="translate(1660.07 1434.44)">
		<text xml:space="preserve" font-family="Roboto Slab" font-size="20" font-style="normal" font-weight="normal" style="stroke: none; stroke-width: 1; stroke-dasharray: none; stroke-linecap: butt; stroke-linejoin: miter; stroke-miterlimit: 10; fill: rgb(64,71,98); fill-rule: nonzero; opacity: 1; white-space: pre;" ><tspan x="-201.27" y="6.28" >++++++++++++++++++++++++++++++++++++</tspan></text>
	</g>
<path d="M 268.585 154.375 Q 268.5 154.375 268 154.375 Q 267.5 154.375 266.5 155.375 Q 265.5 156.375 263.5 158.875 Q 261.5 161.375 260.5 164.875 Q 259.5 168.375 257.5 172.875 Q 255.5 177.375 254 181.875 Q 252.5 186.375 251 191.875 Q 249.5 197.375 248 202.375 Q 246.5 207.375 245.5 212.375 Q 244.5 217.375 244 222.375 Q 243.5 227.375 243.5 237.375 Q 243.5 247.375 243.5 253.375 Q 243.5 259.375 243.5 263.875 Q 243.5 268.375 244.5 272.875 Q 245.5 277.375 247.5 281.875 Q 249.5 286.375 251 291.375 Q 252.5 296.375 254.5 301.375 Q 256.5 306.375 259.5 310.375 Q 262.5 314.375 266.5 320.375 Q 270.5 326.375 275.5 331.875 Q 280.5 337.375 285.5 342.875 Q 290.5 348.375 297 355.875 Q 303.5 363.375 310.5 368.375 Q 317.5 373.375 324.5 378.875 Q 331.5 384.375 339.5 389.375 Q 347.5 394.375 356.5 399.375 Q 365.5 404.375 374.5 408.875 Q 383.5 413.375 393 417.375 Q 402.5 421.375 411 424.375 Q 419.5 427.375 426 429.375 Q 432.5 431.375 439 431.875 Q 445.5 432.375 454.5 432.875 Q 463.5 433.375 472 433.375 Q 480.5 433.375 488 433.375 Q 495.5 433.375 503 432.875 Q 510.5 432.375 520 431.375 Q 529.5 430.375 536.5 428.875 Q 543.5 427.375 550.5 425.875 Q 557.5 424.375 564 421.875 Q 570.5 419.375 577.5 414.875 Q 584.5 410.375 592.5 406.375 Q 600.5 402.375 607 398.375 Q 613.5 394.375 618.5 390.875 Q 623.5 387.375 627 384.375 Q 630.5 381.375 633 378.875 Q 635.5 376.375 638.5 372.875 Q 641.5 369.375 644 362.375 Q 646.5 355.375 647 353.375 Q 647.5 351.375 649 345.375 Q 650.5 339.375 650.5 335.875 Q 650.5 332.375 650.5 328.875 Q 650.5 325.375 650.5 321.875 Q 650.5 318.375 650.5 313.875 Q 650.5 309.375 650.5 304.375 Q 650.5 299.375 649.5 293.875 Q 648.5 288.375 646.5 282.375 Q 644.5 276.375 641.5 268.875 Q 638.5 261.375 636 254.875 Q 633.5 248.375 629.5 241.875 Q 625.5 235.375 619.5 226.375 Q 613.5 217.375 609.5 211.375 Q 605.5 205.375 601.5 199.875 Q 597.5 194.375 593.5 189.875 Q 589.5 185.375 585 180.875 Q 580.5 176.375 576.5 172.375 Q 572.5 168.375 567.5 163.875 Q 562.5 159.375 558 155.875 Q 553.5 152.375 543.5 145.375 Q 533.5 138.375 531 136.875 Q 528.5 135.375 524 131.875 Q 519.5 128.375 515 125.375 Q 510.5 122.375 507 119.375 Q 503.5 116.375 498.5 114.375 Q 493.5 112.375 491.5 111.375 Q 489.5 110.375 488 109.875 Q 486.5 109.375 484 108.375 Q 481.5 107.375 479.5 106.875 Q 477.5 106.375 475.5 105.875 Q 473.5 105.375 472 105.375 Q 470.5 105.375 470 105.375 Q 469.5 105.375 468.5 105.375 Q 467.5 105.375 466 105.375 Q 464.5 105.375 464 105.375 Q 463.5 105.375 460.5 105.375 Q 457.5 105.375 456 105.375 Q 454.5 105.375 453 105.875 Q 451.5 106.375 449.5 107.375 Q 447.5 108.375 442.5 109.375 Q 437.5 110.375 432.5 111.875 Q 427.5 113.375 423 114.375 Q 418.5 115.375 414.5 116.875 Q 410.5 118.375 408 118.875 Q 405.5 119.375 403 119.875 Q 400.5 120.375 398.5 121.375 Q 396.5 122.375 395 122.375 Q 393.5 122.375 392.5 122.875 Q 391.5 123.375 391 123.375 L 390.415 123.375" style="stroke: rgb(204,50,75); stroke-width: 85; stroke-dasharray: none; stroke-linecap: round; stroke-linejoin: round; stroke-miterlimit: 10; fill: none; fill-rule: nonzero; opacity: 1;" transform="translate(692.58 477.8) scale(0.26 0.26) translate(-447, -269.375) " stroke-linecap="round" />
<g transform="translate(1434.5 1434.5) scale(0.29 0.22)" style="">
</g>
	<g transform="translate(1437.07 1412.89) scale(0.64 0.64)">
		<text xml:space="preserve" font-family="Libre Baskerville" font-size="20" font-style="italic" font-weight="normal" style="stroke: none; stroke-width: 1; stroke-dasharray: none; stroke-linecap: butt; stroke-linejoin: miter; stroke-miterlimit: 10; fill: rgb(64,71,98); fill-rule: nonzero; opacity: 1; white-space: pre;" ><tspan x="-44.04" y="6.28" >Est. 1989</tspan></text>
	</g>
	<g transform="translate(1433 1435.84) scale(1.37 1.37)">
		<text xml:space="preserve" font-family="Libre Baskerville" font-size="20" font-style="normal" font-weight="normal" style="stroke: none; stroke-width: 1; stroke-dasharray: none; stroke-linecap: butt; stroke-linejoin: miter; stroke-miterlimit: 10; fill: rgb(64,71,98); fill-rule: nonzero; opacity: 1; white-space: pre;" ><tspan x="-70.19" y="6.28" >Smith &amp; Sons</tspan></text>
	</g>
	<g transform="translate(1433.15 1457.91) scale(0.73 0.73)">
		<text xml:space="preserve" font-family="Libre Baskerville" font-size="20" font-style="normal" font-weight="normal" style="stroke: none; stroke-width: 1; stroke-dasharray: none; stroke-linecap: butt; stroke-linejoin: miter; stroke-miterlimit: 10; fill: rgb(64,71,98); fill-rule: nonzero; opacity: 1; white-space: pre;" ><tspan x="-51.79" y="6.28" >VINTAGE</tspan></text>
	</g>
</svg>