<?xml version="1.0" encoding="UTF-8" standalone="no" ?>
<!DOCTYPE svg PUBLIC "-//W3C//DTD SVG 1.1//EN" "http://www.w3.org/Graphics/SVG/1.1/DTD/svg11.dtd">
<svg xmlns="http://www.w3.org/2000/svg" xmlns:xlink="http://www.w3.org/1999/xlink" version="1.1" width="1772" height="1772" viewBox="0 0 1582.81 1582.81" xml:space="preserve">
<desc>Created with Fabric.js 2.3.3</desc>
<defs>
</defs>
<path d="M 107 204.251 Q 107 204.25 107 202.75 Q 107 201.25 109.5 198.75 Q 112 196.25 113.5 183.25 Q 115 170.25 114 165.25 Q 113 160.25 112 156.75 Q 111 153.25 111 147.25 Q 111 141.25 107.5 132.75 Q 104 124.25 101.5 118.25 Q 99 112.25 98.5 111.25 Q 98 110.25 97.5 109.25 Q 97 108.25 97 107.75 Q 97 107.25 94.5 109.25 Q 92 111.25 91.5 115.75 Q 91 120.25 93 125.25 Q 95 130.25 98.5 135.25 Q 102 140.25 103 140.75 Q 104 141.25 109.5 141.25 Q 115 141.25 121 140.75 Q 127 140.25 135.5 139.25 Q 144 138.25 156 134.75 Q 168 131.25 177.5 127.75 Q 187 124.25 194.5 120.75 Q 202 117.25 203.5 115.25 Q 205 113.25 206.5 110.75 Q 208 108.25 210 106.75 Q 212 105.25 212 104.75 Q 212 104.25 212.5 103.25 Q 213 102.25 213.5 101.25 Q 214 100.25 214 99.25 Q 214 98.25 214 97.75 Q 214 97.25 214 96.75 Q 214 96.25 214 95.75 Q 214 95.25 212.5 94.75 Q 211 94.25 208.5 94.25 Q 206 94.25 202.5 94.25 Q 199 94.25 189 94.25 Q 179 94.25 172 94.25 Q 165 94.25 159.5 96.25 Q 154 98.25 150.5 100.75 Q 147 103.25 145 110.25 Q 143 117.25 144 119.75 Q 145 122.25 149 125.25 Q 153 128.25 158.5 130.25 Q 164 132.25 172 132.75 Q 180 133.25 187.5 133.25 Q 195 133.25 205 133.25 Q 215 133.25 224 134.75 Q 233 136.25 240.5 139.25 Q 248 142.25 253.5 146.75 Q 259 151.25 263.5 157.25 Q 268 163.25 271 168.75 Q 274 174.25 274.5 178.75 Q 275 183.25 274.5 187.25 Q 274 191.25 273 193.75 Q 272 196.25 271 199.25 Q 270 202.25 269.5 204.75 Q 269 207.25 267.5 209.25 Q 266 211.25 264.5 213.25 Q 263 215.25 261 215.75 Q 259 216.25 254 217.75 Q 249 219.25 244 221.75 Q 239 224.25 235 224.75 Q 231 225.25 225 225.25 Q 219 225.25 212.5 225.25 Q 206 225.25 196 225.25 Q 186 225.25 179 224.75 Q 172 224.25 169 224.25 Q 166 224.25 165 223.75 Q 164 223.25 163.5 221.75 Q 163 220.25 163.5 217.25 Q 164 214.25 170 209.25 Q 176 204.25 184.5 199.25 Q 193 194.25 204 191.75 Q 215 189.25 226 188.75 Q 237 188.25 250 186.25 Q 263 184.25 276.5 182.75 Q 290 181.25 300 181.25 Q 310 181.25 318 180.25 Q 326 179.25 330.5 177.75 Q 335 176.25 338 175.25 Q 341 174.25 343 171.75 Q 345 169.25 347 164.75 Q 349 160.25 350.5 155.25 Q 352 150.25 353.5 146.75 Q 355 143.25 356.5 140.25 Q 358 137.25 358 136.25 Q 358 135.25 358 134.25 Q 358 133.25 355 132.75 Q 352 132.25 346 132.25 Q 340 132.25 335.5 132.25 Q 331 132.25 330.5 132.25 Q 330 132.25 330.5 132.25 Q 331 132.25 331.5 132.25 Q 332 132.25 332.5 132.25 L 333.001 132.25" style="stroke: rgb(204,50,75); stroke-width: 1; stroke-dasharray: none; stroke-linecap: round; stroke-linejoin: round; stroke-miterlimit: 10; fill: none; fill-rule: nonzero; opacity: 1;" transform="translate(224.61 159.75) translate(-224.61111111111114, -159.75) " stroke-linecap="round" />
<path d="M 14.001 38.25 Q 14 38.25 13.5 38.25 Q 13 38.25 11.5 38.25 Q 10 38.25 8.5 37.75 Q 7 37.25 5.5 36.25 Q 4 35.25 2.5 35.25 Q 1 35.25 -0.5 34.25 Q -2 33.25 -5 32.75 Q -8 32.25 -10.5 31.75 Q -13 31.25 -18.5 29.75 Q -24 28.25 -29.5 27.25 Q -35 26.25 -39.5 24.25 Q -44 22.25 -46.5 21.25 Q -49 20.25 -51 18.75 Q -53 17.25 -56 15.25 Q -59 13.25 -61 12.25 Q -63 11.25 -64.5 9.75 Q -66 8.25 -66.5 8.25 Q -67 8.25 -67.5 7.75 L -68.001 7.249" style="stroke: rgb(204,50,75); stroke-width: 1; stroke-dasharray: none; stroke-linecap: round; stroke-linejoin: round; stroke-miterlimit: 10; fill: none; fill-rule: nonzero; opacity: 1;" transform="translate(-27 22.75) translate(27, -22.7495) " stroke-linecap="round" />
</svg>