<?xml version="1.0" encoding="UTF-8" standalone="no" ?>
<!DOCTYPE svg PUBLIC "-//W3C//DTD SVG 1.1//EN" "http://www.w3.org/Graphics/SVG/1.1/DTD/svg11.dtd">
<svg xmlns="http://www.w3.org/2000/svg" xmlns:xlink="http://www.w3.org/1999/xlink" version="1.1" width="1772" height="1772" viewBox="0 0 2801.8 2801.8" xml:space="preserve">
<desc>Created with Fabric.js 2.3.3</desc>
<defs>
</defs>
<g transform="translate(1401 1401) scale(0.4 0.39)" style="">
	<path d="M 312 246.9 h -500 v -3.6 h 500 V 246.9 z M -186.8 245.7 h 497.6 v -1.2 h -497.6 V 245.7 z" style="stroke: none; stroke-width: 1; stroke-dasharray: none; stroke-linecap: butt; stroke-linejoin: miter; stroke-miterlimit: 10; fill: rgb(64,71,98); fill-rule: nonzero; opacity: 1;" transform="translate(0 -56.45) translate(-62, -245.10000000000002) " stroke-linecap="round" />
	<path d="M 312 359.9 h -500 v -3.6 h 500 V 359.9 z M -186.8 358.7 h 497.6 v -1.2 h -497.6 V 358.7 z" style="stroke: none; stroke-width: 1; stroke-dasharray: none; stroke-linecap: butt; stroke-linejoin: miter; stroke-miterlimit: 10; fill: rgb(64,71,98); fill-rule: nonzero; opacity: 1;" transform="translate(0 56.55) translate(-62, -358.09999999999997) " stroke-linecap="round" />
</g>
	<g transform="translate(1398.7 1401.28)">
		<text xml:space="preserve" font-family="Playfair Display" font-size="20" font-style="normal" font-weight="normal" style="stroke: none; stroke-width: 1; stroke-dasharray: none; stroke-linecap: butt; stroke-linejoin: miter; stroke-miterlimit: 10; fill: rgb(64,71,98); fill-rule: nonzero; opacity: 1; white-space: pre;" ><tspan x="-66.57" y="6.28" >THE NEW YOU</tspan></text>
	</g>
<g transform="translate(1401 1401)" style="">
	<rect id="change1_1" x="-201.5" y="-201.05" rx="0" ry="0" width="403" height="402.1" style="stroke: none; stroke-width: 1; stroke-dasharray: none; stroke-linecap: butt; stroke-linejoin: miter; stroke-miterlimit: 4; fill: rgb(125,134,147); fill-rule: nonzero; opacity: 1;" transform="translate(-0.5 0.05)"/>
	<rect id="change1_2" x="-181.5" y="-31.5" rx="0" ry="0" width="363" height="63" style="stroke: none; stroke-width: 1; stroke-dasharray: none; stroke-linecap: butt; stroke-linejoin: miter; stroke-miterlimit: 4; fill: rgb(125,134,147); fill-rule: nonzero; opacity: 1;" transform="translate(-0.5 212.5)"/>
	<rect id="change2_1" x="-181.5" y="-7.5" rx="0" ry="0" width="363" height="15" style="stroke: none; stroke-width: 1; stroke-dasharray: none; stroke-linecap: butt; stroke-linejoin: miter; stroke-miterlimit: 4; fill: rgb(255,255,255); fill-rule: nonzero; opacity: 1;" transform="translate(-0.5 242.5)"/>
	<rect id="change1_3" x="-31" y="-183" rx="0" ry="0" width="62" height="366" style="stroke: none; stroke-width: 1; stroke-dasharray: none; stroke-linecap: butt; stroke-linejoin: miter; stroke-miterlimit: 4; fill: rgb(125,134,147); fill-rule: nonzero; opacity: 1;" transform="translate(-213 0)"/>
	<rect id="change2_2" x="-7.5" y="-181" rx="0" ry="0" width="15" height="362" style="stroke: none; stroke-width: 1; stroke-dasharray: none; stroke-linecap: butt; stroke-linejoin: miter; stroke-miterlimit: 4; fill: rgb(255,255,255); fill-rule: nonzero; opacity: 1;" transform="translate(-242.5 0)"/>
	<rect id="change1_4" x="-31.5" y="-181" rx="0" ry="0" width="63" height="362" style="stroke: none; stroke-width: 1; stroke-dasharray: none; stroke-linecap: butt; stroke-linejoin: miter; stroke-miterlimit: 4; fill: rgb(125,134,147); fill-rule: nonzero; opacity: 1;" transform="translate(212.5 0)"/>
	<rect id="change2_3" x="-7.5" y="-181" rx="0" ry="0" width="15" height="362" style="stroke: none; stroke-width: 1; stroke-dasharray: none; stroke-linecap: butt; stroke-linejoin: miter; stroke-miterlimit: 4; fill: rgb(255,255,255); fill-rule: nonzero; opacity: 1;" transform="translate(242.5 0)"/>
	<path id="change1_5" d="M 434.2 494 c 33.1 0 59.8 -26.6 59.8 -59.8 V 431 h -63 v 63 H 434.2 z" style="stroke: none; stroke-width: 1; stroke-dasharray: none; stroke-linecap: butt; stroke-linejoin: miter; stroke-miterlimit: 4; fill: rgb(125,134,147); fill-rule: nonzero; opacity: 1;" transform="translate(212.5 212.5) translate(-462.5, -462.5) " stroke-linecap="round" />
	<path id="change2_4" d="M 432.7 485 H 429 v 15 h 3.7 c 37.2 0 67.3 -30.1 67.3 -67.3 V 429 h -15 v 3.7 C 485 461.6 461.6 485 432.7 485 z" style="stroke: none; stroke-width: 1; stroke-dasharray: none; stroke-linecap: butt; stroke-linejoin: miter; stroke-miterlimit: 4; fill: rgb(255,255,255); fill-rule: nonzero; opacity: 1;" transform="translate(214.5 214.5) translate(-464.5, -464.5) " stroke-linecap="round" />
	<path id="change1_6" d="M 65.8 494 H 68 v -63 H 6 v 3.2 C 6 467.4 32.6 494 65.8 494 z" style="stroke: none; stroke-width: 1; stroke-dasharray: none; stroke-linecap: butt; stroke-linejoin: miter; stroke-miterlimit: 4; fill: rgb(125,134,147); fill-rule: nonzero; opacity: 1;" transform="translate(-213 212.5) translate(-37, -462.5) " stroke-linecap="round" />
	<path id="change2_5" d="M 0 437.5 c 2.5 35 31.7 62.5 67.3 62.5 H 70 v -15 h -2.7 C 38.4 485 15 461.6 15 432.7 V 429 H 0 v 3.7 C 0 434.3 -0.1 435.9 0 437.5 z" style="stroke: none; stroke-width: 1; stroke-dasharray: none; stroke-linecap: butt; stroke-linejoin: miter; stroke-miterlimit: 4; fill: rgb(255,255,255); fill-rule: nonzero; opacity: 1;" transform="translate(-215.02 214.5) translate(-34.97777777777778, -464.5) " stroke-linecap="round" />
	<rect id="change1_7" x="-183.5" y="-31.5" rx="0" ry="0" width="367" height="63" style="stroke: none; stroke-width: 1; stroke-dasharray: none; stroke-linecap: butt; stroke-linejoin: miter; stroke-miterlimit: 4; fill: rgb(125,134,147); fill-rule: nonzero; opacity: 1;" transform="translate(-0.5 -212.5)"/>
	<rect id="change2_6" x="-182.5" y="-7.5" rx="0" ry="0" width="365" height="15" style="stroke: none; stroke-width: 1; stroke-dasharray: none; stroke-linecap: butt; stroke-linejoin: miter; stroke-miterlimit: 4; fill: rgb(255,255,255); fill-rule: nonzero; opacity: 1;" transform="translate(-0.5 -242.5)"/>
	<path id="change1_8" d="M 434.2 6 H 431 v 63 h 63 v -3.2 C 494 32.6 467.4 6 434.2 6 z" style="stroke: none; stroke-width: 1; stroke-dasharray: none; stroke-linecap: butt; stroke-linejoin: miter; stroke-miterlimit: 4; fill: rgb(125,134,147); fill-rule: nonzero; opacity: 1;" transform="translate(212.5 -212.5) translate(-462.5, -37.5) " stroke-linecap="round" />
	<path id="change2_7" d="M 485 67.3 V 71 h 15 v -3.7 C 500 30.1 469.9 0 432.7 0 H 429 v 15 h 3.7 C 461.6 15 485 38.4 485 67.3 z" style="stroke: none; stroke-width: 1; stroke-dasharray: none; stroke-linecap: butt; stroke-linejoin: miter; stroke-miterlimit: 4; fill: rgb(255,255,255); fill-rule: nonzero; opacity: 1;" transform="translate(214.5 -214.5) translate(-464.5, -35.5) " stroke-linecap="round" />
	<path id="change1_9" d="M 6 65.8 V 69 h 62 V 6 h -2.2 C 32.6 6 6 32.6 6 65.8 z" style="stroke: none; stroke-width: 1; stroke-dasharray: none; stroke-linecap: butt; stroke-linejoin: miter; stroke-miterlimit: 4; fill: rgb(125,134,147); fill-rule: nonzero; opacity: 1;" transform="translate(-213 -212.5) translate(-37, -37.5) " stroke-linecap="round" />
	<path id="change2_8" d="M 15 67.3 C 15 38.4 38.4 15 67.3 15 H 70 V 0 h -2.7 C 31.7 0 2.5 27.5 0 62.5 V 71 h 15 V 67.3 z" style="stroke: none; stroke-width: 1; stroke-dasharray: none; stroke-linecap: butt; stroke-linejoin: miter; stroke-miterlimit: 4; fill: rgb(255,255,255); fill-rule: nonzero; opacity: 1;" transform="translate(-215 -214.5) translate(-35, -35.5) " stroke-linecap="round" />
</g>
<g transform="translate(1401 1401)" style="">
	<rect id="change1_1" x="-197.8" y="-196.8" rx="0" ry="0" width="395.6" height="393.6" style="stroke: none; stroke-width: 1; stroke-dasharray: none; stroke-linecap: butt; stroke-linejoin: miter; stroke-miterlimit: 4; fill: rgb(125,134,147); fill-rule: nonzero; opacity: 1;" transform="translate(-0.6 -0.5)"/>
	<rect id="change1_2" x="-190.05" y="-17.5" rx="0" ry="0" width="380.1" height="35" style="stroke: none; stroke-width: 1; stroke-dasharray: none; stroke-linecap: butt; stroke-linejoin: miter; stroke-miterlimit: 4; fill: rgb(125,134,147); fill-rule: nonzero; opacity: 1;" transform="translate(-0.05 207.1)"/>
	<rect id="change2_1" x="-190" y="-14.5" rx="0" ry="0" width="380" height="29" style="stroke: none; stroke-width: 1; stroke-dasharray: none; stroke-linecap: butt; stroke-linejoin: miter; stroke-miterlimit: 4; fill: rgb(255,255,255); fill-rule: nonzero; opacity: 1;" transform="translate(0 235.5)"/>
	<rect id="change1_3" x="-17.5" y="-18" rx="0" ry="0" width="35" height="36" style="stroke: none; stroke-width: 1; stroke-dasharray: none; stroke-linecap: butt; stroke-linejoin: miter; stroke-miterlimit: 4; fill: rgb(125,134,147); fill-rule: nonzero; opacity: 1;" transform="translate(207 206.5)"/>
	<polygon id="change2_2" points="31,-30.5 2,-30.5 2,1.5 -31,1.5 -31,30.5 31,30.5 " style="stroke: none; stroke-width: 1; stroke-dasharray: none; stroke-linecap: butt; stroke-linejoin: miter; stroke-miterlimit: 4; fill: rgb(255,255,255); fill-rule: nonzero; opacity: 1;" transform="translate(219 219.5) "/>
	<rect id="change1_4" x="-17.3" y="-190.3" rx="0" ry="0" width="34.6" height="380.6" style="stroke: none; stroke-width: 1; stroke-dasharray: none; stroke-linecap: butt; stroke-linejoin: miter; stroke-miterlimit: 4; fill: rgb(125,134,147); fill-rule: nonzero; opacity: 1;" transform="translate(-207.2 0.3)"/>
	<rect id="change2_3" x="-14.5" y="-189.5" rx="0" ry="0" width="29" height="379" style="stroke: none; stroke-width: 1; stroke-dasharray: none; stroke-linecap: butt; stroke-linejoin: miter; stroke-miterlimit: 4; fill: rgb(255,255,255); fill-rule: nonzero; opacity: 1;" transform="translate(-235.5 -0.5)"/>
	<rect id="change1_5" x="-17.5" y="-17.5" rx="0" ry="0" width="35" height="35" style="stroke: none; stroke-width: 1; stroke-dasharray: none; stroke-linecap: butt; stroke-linejoin: miter; stroke-miterlimit: 4; fill: rgb(125,134,147); fill-rule: nonzero; opacity: 1;" transform="translate(-207 207)"/>
	<polygon id="change2_4" points="-2,2 -2,-31 -31,-31 -31,31 31,31 31,2 " style="stroke: none; stroke-width: 1; stroke-dasharray: none; stroke-linecap: butt; stroke-linejoin: miter; stroke-miterlimit: 4; fill: rgb(255,255,255); fill-rule: nonzero; opacity: 1;" transform="translate(-219 219) "/>
	<rect id="change1_6" x="-17.05" y="-189.8" rx="0" ry="0" width="34.1" height="379.6" style="stroke: none; stroke-width: 1; stroke-dasharray: none; stroke-linecap: butt; stroke-linejoin: miter; stroke-miterlimit: 4; fill: rgb(125,134,147); fill-rule: nonzero; opacity: 1;" transform="translate(207.45 -0.3)"/>
	<rect id="change2_5" x="-14.5" y="-190" rx="0" ry="0" width="29" height="380" style="stroke: none; stroke-width: 1; stroke-dasharray: none; stroke-linecap: butt; stroke-linejoin: miter; stroke-miterlimit: 4; fill: rgb(255,255,255); fill-rule: nonzero; opacity: 1;" transform="translate(235.5 0)"/>
	<rect id="change1_7" x="-17.85" y="-17.85" rx="0" ry="0" width="35.7" height="35.7" style="stroke: none; stroke-width: 1; stroke-dasharray: none; stroke-linecap: butt; stroke-linejoin: miter; stroke-miterlimit: 4; fill: rgb(125,134,147); fill-rule: nonzero; opacity: 1;" transform="translate(206.65 -206.65)"/>
	<polygon id="change2_6" points="-30.5,-31 -30.5,-2 1.5,-2 1.5,31 30.5,31 30.5,-31 " style="stroke: none; stroke-width: 1; stroke-dasharray: none; stroke-linecap: butt; stroke-linejoin: miter; stroke-miterlimit: 4; fill: rgb(255,255,255); fill-rule: nonzero; opacity: 1;" transform="translate(219.5 -219) "/>
	<rect id="change1_8" x="-189.95" y="-17.3" rx="0" ry="0" width="379.9" height="34.6" style="stroke: none; stroke-width: 1; stroke-dasharray: none; stroke-linecap: butt; stroke-linejoin: miter; stroke-miterlimit: 4; fill: rgb(125,134,147); fill-rule: nonzero; opacity: 1;" transform="translate(-0.15 -207.2)"/>
	<rect id="change2_7" x="-190" y="-14.5" rx="0" ry="0" width="380" height="29" style="stroke: none; stroke-width: 1; stroke-dasharray: none; stroke-linecap: butt; stroke-linejoin: miter; stroke-miterlimit: 4; fill: rgb(255,255,255); fill-rule: nonzero; opacity: 1;" transform="translate(0 -235.5)"/>
	<rect id="change1_9" x="-17.25" y="-17.75" rx="0" ry="0" width="34.5" height="35.5" style="stroke: none; stroke-width: 1; stroke-dasharray: none; stroke-linecap: butt; stroke-linejoin: miter; stroke-miterlimit: 4; fill: rgb(125,134,147); fill-rule: nonzero; opacity: 1;" transform="translate(-207.25 -206.75)"/>
	<polygon id="change2_8" points="-1.5,-2 30.5,-2 30.5,-31 -30.5,-31 -30.5,31 -1.5,31 " style="stroke: none; stroke-width: 1; stroke-dasharray: none; stroke-linecap: butt; stroke-linejoin: miter; stroke-miterlimit: 4; fill: rgb(255,255,255); fill-rule: nonzero; opacity: 1;" transform="translate(-219.5 -219) "/>
</g>
</svg>