<?xml version="1.0" encoding="UTF-8" standalone="no" ?>
<!DOCTYPE svg PUBLIC "-//W3C//DTD SVG 1.1//EN" "http://www.w3.org/Graphics/SVG/1.1/DTD/svg11.dtd">
<svg xmlns="http://www.w3.org/2000/svg" xmlns:xlink="http://www.w3.org/1999/xlink" version="1.1" width="1772" height="1772" viewBox="0 0 1436.53 1436.53" xml:space="preserve">
<desc>Created with Fabric.js 2.3.3</desc>
<defs>
</defs>
<polygon id="Change1" points="-125,216.5 -250,0 -125,-216.5 125,-216.5 250,0 125,216.5 " style="stroke: none; stroke-width: 1; stroke-dasharray: none; stroke-linecap: butt; stroke-linejoin: miter; stroke-miterlimit: 4; fill: rgb(204,50,75); fill-rule: nonzero; opacity: 1;" transform="translate(170.8 103.76) scale(0.31 0.31) "/>
<path d="M 0 0 l 4 0 l 0 4 l -4 0 l 0 -4 z M 4 0 l 4 0 l 0 4 l -4 0 l 0 -4 z M 8 0 l 4 0 l 0 4 l -4 0 l 0 -4 z M 12 0 l 4 0 l 0 4 l -4 0 l 0 -4 z M 16 0 l 4 0 l 0 4 l -4 0 l 0 -4 z M 20 0 l 4 0 l 0 4 l -4 0 l 0 -4 z M 24 0 l 4 0 l 0 4 l -4 0 l 0 -4 z M 32 0 l 4 0 l 0 4 l -4 0 l 0 -4 z M 36 0 l 4 0 l 0 4 l -4 0 l 0 -4 z M 40 0 l 4 0 l 0 4 l -4 0 l 0 -4 z M 48 0 l 4 0 l 0 4 l -4 0 l 0 -4 z M 68 0 l 4 0 l 0 4 l -4 0 l 0 -4 z M 76 0 l 4 0 l 0 4 l -4 0 l 0 -4 z M 80 0 l 4 0 l 0 4 l -4 0 l 0 -4 z M 84 0 l 4 0 l 0 4 l -4 0 l 0 -4 z M 88 0 l 4 0 l 0 4 l -4 0 l 0 -4 z M 96 0 l 4 0 l 0 4 l -4 0 l 0 -4 z M 104 0 l 4 0 l 0 4 l -4 0 l 0 -4 z M 108 0 l 4 0 l 0 4 l -4 0 l 0 -4 z M 112 0 l 4 0 l 0 4 l -4 0 l 0 -4 z M 116 0 l 4 0 l 0 4 l -4 0 l 0 -4 z M 120 0 l 4 0 l 0 4 l -4 0 l 0 -4 z M 124 0 l 4 0 l 0 4 l -4 0 l 0 -4 z M 128 0 l 4 0 l 0 4 l -4 0 l 0 -4 z M 0 4 l 4 0 l 0 4 l -4 0 l 0 -4 z M 24 4 l 4 0 l 0 4 l -4 0 l 0 -4 z M 32 4 l 4 0 l 0 4 l -4 0 l 0 -4 z M 36 4 l 4 0 l 0 4 l -4 0 l 0 -4 z M 40 4 l 4 0 l 0 4 l -4 0 l 0 -4 z M 64 4 l 4 0 l 0 4 l -4 0 l 0 -4 z M 68 4 l 4 0 l 0 4 l -4 0 l 0 -4 z M 76 4 l 4 0 l 0 4 l -4 0 l 0 -4 z M 84 4 l 4 0 l 0 4 l -4 0 l 0 -4 z M 88 4 l 4 0 l 0 4 l -4 0 l 0 -4 z M 104 4 l 4 0 l 0 4 l -4 0 l 0 -4 z M 128 4 l 4 0 l 0 4 l -4 0 l 0 -4 z M 0 8 l 4 0 l 0 4 l -4 0 l 0 -4 z M 8 8 l 4 0 l 0 4 l -4 0 l 0 -4 z M 12 8 l 4 0 l 0 4 l -4 0 l 0 -4 z M 16 8 l 4 0 l 0 4 l -4 0 l 0 -4 z M 24 8 l 4 0 l 0 4 l -4 0 l 0 -4 z M 32 8 l 4 0 l 0 4 l -4 0 l 0 -4 z M 40 8 l 4 0 l 0 4 l -4 0 l 0 -4 z M 44 8 l 4 0 l 0 4 l -4 0 l 0 -4 z M 52 8 l 4 0 l 0 4 l -4 0 l 0 -4 z M 60 8 l 4 0 l 0 4 l -4 0 l 0 -4 z M 64 8 l 4 0 l 0 4 l -4 0 l 0 -4 z M 88 8 l 4 0 l 0 4 l -4 0 l 0 -4 z M 92 8 l 4 0 l 0 4 l -4 0 l 0 -4 z M 104 8 l 4 0 l 0 4 l -4 0 l 0 -4 z M 112 8 l 4 0 l 0 4 l -4 0 l 0 -4 z M 116 8 l 4 0 l 0 4 l -4 0 l 0 -4 z M 120 8 l 4 0 l 0 4 l -4 0 l 0 -4 z M 128 8 l 4 0 l 0 4 l -4 0 l 0 -4 z M 0 12 l 4 0 l 0 4 l -4 0 l 0 -4 z M 8 12 l 4 0 l 0 4 l -4 0 l 0 -4 z M 12 12 l 4 0 l 0 4 l -4 0 l 0 -4 z M 16 12 l 4 0 l 0 4 l -4 0 l 0 -4 z M 24 12 l 4 0 l 0 4 l -4 0 l 0 -4 z M 32 12 l 4 0 l 0 4 l -4 0 l 0 -4 z M 36 12 l 4 0 l 0 4 l -4 0 l 0 -4 z M 44 12 l 4 0 l 0 4 l -4 0 l 0 -4 z M 56 12 l 4 0 l 0 4 l -4 0 l 0 -4 z M 60 12 l 4 0 l 0 4 l -4 0 l 0 -4 z M 64 12 l 4 0 l 0 4 l -4 0 l 0 -4 z M 68 12 l 4 0 l 0 4 l -4 0 l 0 -4 z M 72 12 l 4 0 l 0 4 l -4 0 l 0 -4 z M 84 12 l 4 0 l 0 4 l -4 0 l 0 -4 z M 92 12 l 4 0 l 0 4 l -4 0 l 0 -4 z M 104 12 l 4 0 l 0 4 l -4 0 l 0 -4 z M 112 12 l 4 0 l 0 4 l -4 0 l 0 -4 z M 116 12 l 4 0 l 0 4 l -4 0 l 0 -4 z M 120 12 l 4 0 l 0 4 l -4 0 l 0 -4 z M 128 12 l 4 0 l 0 4 l -4 0 l 0 -4 z M 0 16 l 4 0 l 0 4 l -4 0 l 0 -4 z M 8 16 l 4 0 l 0 4 l -4 0 l 0 -4 z M 12 16 l 4 0 l 0 4 l -4 0 l 0 -4 z M 16 16 l 4 0 l 0 4 l -4 0 l 0 -4 z M 24 16 l 4 0 l 0 4 l -4 0 l 0 -4 z M 52 16 l 4 0 l 0 4 l -4 0 l 0 -4 z M 56 16 l 4 0 l 0 4 l -4 0 l 0 -4 z M 64 16 l 4 0 l 0 4 l -4 0 l 0 -4 z M 72 16 l 4 0 l 0 4 l -4 0 l 0 -4 z M 76 16 l 4 0 l 0 4 l -4 0 l 0 -4 z M 104 16 l 4 0 l 0 4 l -4 0 l 0 -4 z M 112 16 l 4 0 l 0 4 l -4 0 l 0 -4 z M 116 16 l 4 0 l 0 4 l -4 0 l 0 -4 z M 120 16 l 4 0 l 0 4 l -4 0 l 0 -4 z M 128 16 l 4 0 l 0 4 l -4 0 l 0 -4 z M 0 20 l 4 0 l 0 4 l -4 0 l 0 -4 z M 24 20 l 4 0 l 0 4 l -4 0 l 0 -4 z M 32 20 l 4 0 l 0 4 l -4 0 l 0 -4 z M 44 20 l 4 0 l 0 4 l -4 0 l 0 -4 z M 48 20 l 4 0 l 0 4 l -4 0 l 0 -4 z M 52 20 l 4 0 l 0 4 l -4 0 l 0 -4 z M 56 20 l 4 0 l 0 4 l -4 0 l 0 -4 z M 60 20 l 4 0 l 0 4 l -4 0 l 0 -4 z M 72 20 l 4 0 l 0 4 l -4 0 l 0 -4 z M 80 20 l 4 0 l 0 4 l -4 0 l 0 -4 z M 92 20 l 4 0 l 0 4 l -4 0 l 0 -4 z M 96 20 l 4 0 l 0 4 l -4 0 l 0 -4 z M 104 20 l 4 0 l 0 4 l -4 0 l 0 -4 z M 128 20 l 4 0 l 0 4 l -4 0 l 0 -4 z M 0 24 l 4 0 l 0 4 l -4 0 l 0 -4 z M 4 24 l 4 0 l 0 4 l -4 0 l 0 -4 z M 8 24 l 4 0 l 0 4 l -4 0 l 0 -4 z M 12 24 l 4 0 l 0 4 l -4 0 l 0 -4 z M 16 24 l 4 0 l 0 4 l -4 0 l 0 -4 z M 20 24 l 4 0 l 0 4 l -4 0 l 0 -4 z M 24 24 l 4 0 l 0 4 l -4 0 l 0 -4 z M 32 24 l 4 0 l 0 4 l -4 0 l 0 -4 z M 40 24 l 4 0 l 0 4 l -4 0 l 0 -4 z M 48 24 l 4 0 l 0 4 l -4 0 l 0 -4 z M 56 24 l 4 0 l 0 4 l -4 0 l 0 -4 z M 64 24 l 4 0 l 0 4 l -4 0 l 0 -4 z M 72 24 l 4 0 l 0 4 l -4 0 l 0 -4 z M 80 24 l 4 0 l 0 4 l -4 0 l 0 -4 z M 88 24 l 4 0 l 0 4 l -4 0 l 0 -4 z M 96 24 l 4 0 l 0 4 l -4 0 l 0 -4 z M 104 24 l 4 0 l 0 4 l -4 0 l 0 -4 z M 108 24 l 4 0 l 0 4 l -4 0 l 0 -4 z M 112 24 l 4 0 l 0 4 l -4 0 l 0 -4 z M 116 24 l 4 0 l 0 4 l -4 0 l 0 -4 z M 120 24 l 4 0 l 0 4 l -4 0 l 0 -4 z M 124 24 l 4 0 l 0 4 l -4 0 l 0 -4 z M 128 24 l 4 0 l 0 4 l -4 0 l 0 -4 z M 36 28 l 4 0 l 0 4 l -4 0 l 0 -4 z M 48 28 l 4 0 l 0 4 l -4 0 l 0 -4 z M 56 28 l 4 0 l 0 4 l -4 0 l 0 -4 z M 68 28 l 4 0 l 0 4 l -4 0 l 0 -4 z M 72 28 l 4 0 l 0 4 l -4 0 l 0 -4 z M 76 28 l 4 0 l 0 4 l -4 0 l 0 -4 z M 80 28 l 4 0 l 0 4 l -4 0 l 0 -4 z M 84 28 l 4 0 l 0 4 l -4 0 l 0 -4 z M 96 28 l 4 0 l 0 4 l -4 0 l 0 -4 z M 0 32 l 4 0 l 0 4 l -4 0 l 0 -4 z M 4 32 l 4 0 l 0 4 l -4 0 l 0 -4 z M 16 32 l 4 0 l 0 4 l -4 0 l 0 -4 z M 20 32 l 4 0 l 0 4 l -4 0 l 0 -4 z M 24 32 l 4 0 l 0 4 l -4 0 l 0 -4 z M 44 32 l 4 0 l 0 4 l -4 0 l 0 -4 z M 52 32 l 4 0 l 0 4 l -4 0 l 0 -4 z M 56 32 l 4 0 l 0 4 l -4 0 l 0 -4 z M 60 32 l 4 0 l 0 4 l -4 0 l 0 -4 z M 64 32 l 4 0 l 0 4 l -4 0 l 0 -4 z M 72 32 l 4 0 l 0 4 l -4 0 l 0 -4 z M 92 32 l 4 0 l 0 4 l -4 0 l 0 -4 z M 108 32 l 4 0 l 0 4 l -4 0 l 0 -4 z M 116 32 l 4 0 l 0 4 l -4 0 l 0 -4 z M 120 32 l 4 0 l 0 4 l -4 0 l 0 -4 z M 124 32 l 4 0 l 0 4 l -4 0 l 0 -4 z M 128 32 l 4 0 l 0 4 l -4 0 l 0 -4 z M 12 36 l 4 0 l 0 4 l -4 0 l 0 -4 z M 20 36 l 4 0 l 0 4 l -4 0 l 0 -4 z M 28 36 l 4 0 l 0 4 l -4 0 l 0 -4 z M 36 36 l 4 0 l 0 4 l -4 0 l 0 -4 z M 40 36 l 4 0 l 0 4 l -4 0 l 0 -4 z M 48 36 l 4 0 l 0 4 l -4 0 l 0 -4 z M 68 36 l 4 0 l 0 4 l -4 0 l 0 -4 z M 76 36 l 4 0 l 0 4 l -4 0 l 0 -4 z M 80 36 l 4 0 l 0 4 l -4 0 l 0 -4 z M 84 36 l 4 0 l 0 4 l -4 0 l 0 -4 z M 88 36 l 4 0 l 0 4 l -4 0 l 0 -4 z M 96 36 l 4 0 l 0 4 l -4 0 l 0 -4 z M 104 36 l 4 0 l 0 4 l -4 0 l 0 -4 z M 120 36 l 4 0 l 0 4 l -4 0 l 0 -4 z M 124 36 l 4 0 l 0 4 l -4 0 l 0 -4 z M 128 36 l 4 0 l 0 4 l -4 0 l 0 -4 z M 16 40 l 4 0 l 0 4 l -4 0 l 0 -4 z M 20 40 l 4 0 l 0 4 l -4 0 l 0 -4 z M 24 40 l 4 0 l 0 4 l -4 0 l 0 -4 z M 44 40 l 4 0 l 0 4 l -4 0 l 0 -4 z M 48 40 l 4 0 l 0 4 l -4 0 l 0 -4 z M 52 40 l 4 0 l 0 4 l -4 0 l 0 -4 z M 56 40 l 4 0 l 0 4 l -4 0 l 0 -4 z M 60 40 l 4 0 l 0 4 l -4 0 l 0 -4 z M 72 40 l 4 0 l 0 4 l -4 0 l 0 -4 z M 80 40 l 4 0 l 0 4 l -4 0 l 0 -4 z M 92 40 l 4 0 l 0 4 l -4 0 l 0 -4 z M 96 40 l 4 0 l 0 4 l -4 0 l 0 -4 z M 100 40 l 4 0 l 0 4 l -4 0 l 0 -4 z M 104 40 l 4 0 l 0 4 l -4 0 l 0 -4 z M 112 40 l 4 0 l 0 4 l -4 0 l 0 -4 z M 124 40 l 4 0 l 0 4 l -4 0 l 0 -4 z M 128 40 l 4 0 l 0 4 l -4 0 l 0 -4 z M 0 44 l 4 0 l 0 4 l -4 0 l 0 -4 z M 4 44 l 4 0 l 0 4 l -4 0 l 0 -4 z M 8 44 l 4 0 l 0 4 l -4 0 l 0 -4 z M 16 44 l 4 0 l 0 4 l -4 0 l 0 -4 z M 40 44 l 4 0 l 0 4 l -4 0 l 0 -4 z M 44 44 l 4 0 l 0 4 l -4 0 l 0 -4 z M 52 44 l 4 0 l 0 4 l -4 0 l 0 -4 z M 60 44 l 4 0 l 0 4 l -4 0 l 0 -4 z M 64 44 l 4 0 l 0 4 l -4 0 l 0 -4 z M 88 44 l 4 0 l 0 4 l -4 0 l 0 -4 z M 92 44 l 4 0 l 0 4 l -4 0 l 0 -4 z M 104 44 l 4 0 l 0 4 l -4 0 l 0 -4 z M 108 44 l 4 0 l 0 4 l -4 0 l 0 -4 z M 112 44 l 4 0 l 0 4 l -4 0 l 0 -4 z M 116 44 l 4 0 l 0 4 l -4 0 l 0 -4 z M 128 44 l 4 0 l 0 4 l -4 0 l 0 -4 z M 4 48 l 4 0 l 0 4 l -4 0 l 0 -4 z M 8 48 l 4 0 l 0 4 l -4 0 l 0 -4 z M 20 48 l 4 0 l 0 4 l -4 0 l 0 -4 z M 24 48 l 4 0 l 0 4 l -4 0 l 0 -4 z M 28 48 l 4 0 l 0 4 l -4 0 l 0 -4 z M 32 48 l 4 0 l 0 4 l -4 0 l 0 -4 z M 40 48 l 4 0 l 0 4 l -4 0 l 0 -4 z M 48 48 l 4 0 l 0 4 l -4 0 l 0 -4 z M 52 48 l 4 0 l 0 4 l -4 0 l 0 -4 z M 76 48 l 4 0 l 0 4 l -4 0 l 0 -4 z M 80 48 l 4 0 l 0 4 l -4 0 l 0 -4 z M 88 48 l 4 0 l 0 4 l -4 0 l 0 -4 z M 96 48 l 4 0 l 0 4 l -4 0 l 0 -4 z M 116 48 l 4 0 l 0 4 l -4 0 l 0 -4 z M 120 48 l 4 0 l 0 4 l -4 0 l 0 -4 z M 0 52 l 4 0 l 0 4 l -4 0 l 0 -4 z M 8 52 l 4 0 l 0 4 l -4 0 l 0 -4 z M 12 52 l 4 0 l 0 4 l -4 0 l 0 -4 z M 20 52 l 4 0 l 0 4 l -4 0 l 0 -4 z M 36 52 l 4 0 l 0 4 l -4 0 l 0 -4 z M 52 52 l 4 0 l 0 4 l -4 0 l 0 -4 z M 56 52 l 4 0 l 0 4 l -4 0 l 0 -4 z M 64 52 l 4 0 l 0 4 l -4 0 l 0 -4 z M 72 52 l 4 0 l 0 4 l -4 0 l 0 -4 z M 76 52 l 4 0 l 0 4 l -4 0 l 0 -4 z M 100 52 l 4 0 l 0 4 l -4 0 l 0 -4 z M 104 52 l 4 0 l 0 4 l -4 0 l 0 -4 z M 108 52 l 4 0 l 0 4 l -4 0 l 0 -4 z M 112 52 l 4 0 l 0 4 l -4 0 l 0 -4 z M 116 52 l 4 0 l 0 4 l -4 0 l 0 -4 z M 128 52 l 4 0 l 0 4 l -4 0 l 0 -4 z M 8 56 l 4 0 l 0 4 l -4 0 l 0 -4 z M 12 56 l 4 0 l 0 4 l -4 0 l 0 -4 z M 20 56 l 4 0 l 0 4 l -4 0 l 0 -4 z M 24 56 l 4 0 l 0 4 l -4 0 l 0 -4 z M 32 56 l 4 0 l 0 4 l -4 0 l 0 -4 z M 36 56 l 4 0 l 0 4 l -4 0 l 0 -4 z M 64 56 l 4 0 l 0 4 l -4 0 l 0 -4 z M 68 56 l 4 0 l 0 4 l -4 0 l 0 -4 z M 76 56 l 4 0 l 0 4 l -4 0 l 0 -4 z M 84 56 l 4 0 l 0 4 l -4 0 l 0 -4 z M 88 56 l 4 0 l 0 4 l -4 0 l 0 -4 z M 108 56 l 4 0 l 0 4 l -4 0 l 0 -4 z M 116 56 l 4 0 l 0 4 l -4 0 l 0 -4 z M 120 56 l 4 0 l 0 4 l -4 0 l 0 -4 z M 12 60 l 4 0 l 0 4 l -4 0 l 0 -4 z M 20 60 l 4 0 l 0 4 l -4 0 l 0 -4 z M 28 60 l 4 0 l 0 4 l -4 0 l 0 -4 z M 36 60 l 4 0 l 0 4 l -4 0 l 0 -4 z M 40 60 l 4 0 l 0 4 l -4 0 l 0 -4 z M 48 60 l 4 0 l 0 4 l -4 0 l 0 -4 z M 56 60 l 4 0 l 0 4 l -4 0 l 0 -4 z M 68 60 l 4 0 l 0 4 l -4 0 l 0 -4 z M 72 60 l 4 0 l 0 4 l -4 0 l 0 -4 z M 76 60 l 4 0 l 0 4 l -4 0 l 0 -4 z M 80 60 l 4 0 l 0 4 l -4 0 l 0 -4 z M 84 60 l 4 0 l 0 4 l -4 0 l 0 -4 z M 96 60 l 4 0 l 0 4 l -4 0 l 0 -4 z M 100 60 l 4 0 l 0 4 l -4 0 l 0 -4 z M 120 60 l 4 0 l 0 4 l -4 0 l 0 -4 z M 124 60 l 4 0 l 0 4 l -4 0 l 0 -4 z M 0 64 l 4 0 l 0 4 l -4 0 l 0 -4 z M 12 64 l 4 0 l 0 4 l -4 0 l 0 -4 z M 16 64 l 4 0 l 0 4 l -4 0 l 0 -4 z M 24 64 l 4 0 l 0 4 l -4 0 l 0 -4 z M 28 64 l 4 0 l 0 4 l -4 0 l 0 -4 z M 36 64 l 4 0 l 0 4 l -4 0 l 0 -4 z M 44 64 l 4 0 l 0 4 l -4 0 l 0 -4 z M 52 64 l 4 0 l 0 4 l -4 0 l 0 -4 z M 56 64 l 4 0 l 0 4 l -4 0 l 0 -4 z M 60 64 l 4 0 l 0 4 l -4 0 l 0 -4 z M 64 64 l 4 0 l 0 4 l -4 0 l 0 -4 z M 72 64 l 4 0 l 0 4 l -4 0 l 0 -4 z M 92 64 l 4 0 l 0 4 l -4 0 l 0 -4 z M 100 64 l 4 0 l 0 4 l -4 0 l 0 -4 z M 104 64 l 4 0 l 0 4 l -4 0 l 0 -4 z M 108 64 l 4 0 l 0 4 l -4 0 l 0 -4 z M 120 64 l 4 0 l 0 4 l -4 0 l 0 -4 z M 124 64 l 4 0 l 0 4 l -4 0 l 0 -4 z M 128 64 l 4 0 l 0 4 l -4 0 l 0 -4 z M 0 68 l 4 0 l 0 4 l -4 0 l 0 -4 z M 4 68 l 4 0 l 0 4 l -4 0 l 0 -4 z M 36 68 l 4 0 l 0 4 l -4 0 l 0 -4 z M 40 68 l 4 0 l 0 4 l -4 0 l 0 -4 z M 48 68 l 4 0 l 0 4 l -4 0 l 0 -4 z M 68 68 l 4 0 l 0 4 l -4 0 l 0 -4 z M 76 68 l 4 0 l 0 4 l -4 0 l 0 -4 z M 80 68 l 4 0 l 0 4 l -4 0 l 0 -4 z M 84 68 l 4 0 l 0 4 l -4 0 l 0 -4 z M 88 68 l 4 0 l 0 4 l -4 0 l 0 -4 z M 96 68 l 4 0 l 0 4 l -4 0 l 0 -4 z M 104 68 l 4 0 l 0 4 l -4 0 l 0 -4 z M 120 68 l 4 0 l 0 4 l -4 0 l 0 -4 z M 124 68 l 4 0 l 0 4 l -4 0 l 0 -4 z M 128 68 l 4 0 l 0 4 l -4 0 l 0 -4 z M 0 72 l 4 0 l 0 4 l -4 0 l 0 -4 z M 8 72 l 4 0 l 0 4 l -4 0 l 0 -4 z M 16 72 l 4 0 l 0 4 l -4 0 l 0 -4 z M 24 72 l 4 0 l 0 4 l -4 0 l 0 -4 z M 32 72 l 4 0 l 0 4 l -4 0 l 0 -4 z M 36 72 l 4 0 l 0 4 l -4 0 l 0 -4 z M 40 72 l 4 0 l 0 4 l -4 0 l 0 -4 z M 44 72 l 4 0 l 0 4 l -4 0 l 0 -4 z M 48 72 l 4 0 l 0 4 l -4 0 l 0 -4 z M 52 72 l 4 0 l 0 4 l -4 0 l 0 -4 z M 56 72 l 4 0 l 0 4 l -4 0 l 0 -4 z M 60 72 l 4 0 l 0 4 l -4 0 l 0 -4 z M 72 72 l 4 0 l 0 4 l -4 0 l 0 -4 z M 80 72 l 4 0 l 0 4 l -4 0 l 0 -4 z M 92 72 l 4 0 l 0 4 l -4 0 l 0 -4 z M 96 72 l 4 0 l 0 4 l -4 0 l 0 -4 z M 100 72 l 4 0 l 0 4 l -4 0 l 0 -4 z M 104 72 l 4 0 l 0 4 l -4 0 l 0 -4 z M 112 72 l 4 0 l 0 4 l -4 0 l 0 -4 z M 124 72 l 4 0 l 0 4 l -4 0 l 0 -4 z M 128 72 l 4 0 l 0 4 l -4 0 l 0 -4 z M 0 76 l 4 0 l 0 4 l -4 0 l 0 -4 z M 28 76 l 4 0 l 0 4 l -4 0 l 0 -4 z M 32 76 l 4 0 l 0 4 l -4 0 l 0 -4 z M 36 76 l 4 0 l 0 4 l -4 0 l 0 -4 z M 40 76 l 4 0 l 0 4 l -4 0 l 0 -4 z M 44 76 l 4 0 l 0 4 l -4 0 l 0 -4 z M 52 76 l 4 0 l 0 4 l -4 0 l 0 -4 z M 60 76 l 4 0 l 0 4 l -4 0 l 0 -4 z M 64 76 l 4 0 l 0 4 l -4 0 l 0 -4 z M 88 76 l 4 0 l 0 4 l -4 0 l 0 -4 z M 92 76 l 4 0 l 0 4 l -4 0 l 0 -4 z M 104 76 l 4 0 l 0 4 l -4 0 l 0 -4 z M 108 76 l 4 0 l 0 4 l -4 0 l 0 -4 z M 112 76 l 4 0 l 0 4 l -4 0 l 0 -4 z M 116 76 l 4 0 l 0 4 l -4 0 l 0 -4 z M 128 76 l 4 0 l 0 4 l -4 0 l 0 -4 z M 0 80 l 4 0 l 0 4 l -4 0 l 0 -4 z M 12 80 l 4 0 l 0 4 l -4 0 l 0 -4 z M 16 80 l 4 0 l 0 4 l -4 0 l 0 -4 z M 20 80 l 4 0 l 0 4 l -4 0 l 0 -4 z M 24 80 l 4 0 l 0 4 l -4 0 l 0 -4 z M 28 80 l 4 0 l 0 4 l -4 0 l 0 -4 z M 48 80 l 4 0 l 0 4 l -4 0 l 0 -4 z M 52 80 l 4 0 l 0 4 l -4 0 l 0 -4 z M 76 80 l 4 0 l 0 4 l -4 0 l 0 -4 z M 80 80 l 4 0 l 0 4 l -4 0 l 0 -4 z M 88 80 l 4 0 l 0 4 l -4 0 l 0 -4 z M 96 80 l 4 0 l 0 4 l -4 0 l 0 -4 z M 116 80 l 4 0 l 0 4 l -4 0 l 0 -4 z M 120 80 l 4 0 l 0 4 l -4 0 l 0 -4 z M 0 84 l 4 0 l 0 4 l -4 0 l 0 -4 z M 12 84 l 4 0 l 0 4 l -4 0 l 0 -4 z M 16 84 l 4 0 l 0 4 l -4 0 l 0 -4 z M 32 84 l 4 0 l 0 4 l -4 0 l 0 -4 z M 36 84 l 4 0 l 0 4 l -4 0 l 0 -4 z M 40 84 l 4 0 l 0 4 l -4 0 l 0 -4 z M 52 84 l 4 0 l 0 4 l -4 0 l 0 -4 z M 56 84 l 4 0 l 0 4 l -4 0 l 0 -4 z M 64 84 l 4 0 l 0 4 l -4 0 l 0 -4 z M 72 84 l 4 0 l 0 4 l -4 0 l 0 -4 z M 76 84 l 4 0 l 0 4 l -4 0 l 0 -4 z M 100 84 l 4 0 l 0 4 l -4 0 l 0 -4 z M 104 84 l 4 0 l 0 4 l -4 0 l 0 -4 z M 108 84 l 4 0 l 0 4 l -4 0 l 0 -4 z M 112 84 l 4 0 l 0 4 l -4 0 l 0 -4 z M 116 84 l 4 0 l 0 4 l -4 0 l 0 -4 z M 124 84 l 4 0 l 0 4 l -4 0 l 0 -4 z M 128 84 l 4 0 l 0 4 l -4 0 l 0 -4 z M 20 88 l 4 0 l 0 4 l -4 0 l 0 -4 z M 24 88 l 4 0 l 0 4 l -4 0 l 0 -4 z M 64 88 l 4 0 l 0 4 l -4 0 l 0 -4 z M 68 88 l 4 0 l 0 4 l -4 0 l 0 -4 z M 76 88 l 4 0 l 0 4 l -4 0 l 0 -4 z M 84 88 l 4 0 l 0 4 l -4 0 l 0 -4 z M 88 88 l 4 0 l 0 4 l -4 0 l 0 -4 z M 108 88 l 4 0 l 0 4 l -4 0 l 0 -4 z M 116 88 l 4 0 l 0 4 l -4 0 l 0 -4 z M 120 88 l 4 0 l 0 4 l -4 0 l 0 -4 z M 8 92 l 4 0 l 0 4 l -4 0 l 0 -4 z M 16 92 l 4 0 l 0 4 l -4 0 l 0 -4 z M 20 92 l 4 0 l 0 4 l -4 0 l 0 -4 z M 32 92 l 4 0 l 0 4 l -4 0 l 0 -4 z M 48 92 l 4 0 l 0 4 l -4 0 l 0 -4 z M 56 92 l 4 0 l 0 4 l -4 0 l 0 -4 z M 68 92 l 4 0 l 0 4 l -4 0 l 0 -4 z M 72 92 l 4 0 l 0 4 l -4 0 l 0 -4 z M 76 92 l 4 0 l 0 4 l -4 0 l 0 -4 z M 80 92 l 4 0 l 0 4 l -4 0 l 0 -4 z M 84 92 l 4 0 l 0 4 l -4 0 l 0 -4 z M 96 92 l 4 0 l 0 4 l -4 0 l 0 -4 z M 100 92 l 4 0 l 0 4 l -4 0 l 0 -4 z M 120 92 l 4 0 l 0 4 l -4 0 l 0 -4 z M 0 96 l 4 0 l 0 4 l -4 0 l 0 -4 z M 4 96 l 4 0 l 0 4 l -4 0 l 0 -4 z M 12 96 l 4 0 l 0 4 l -4 0 l 0 -4 z M 20 96 l 4 0 l 0 4 l -4 0 l 0 -4 z M 24 96 l 4 0 l 0 4 l -4 0 l 0 -4 z M 32 96 l 4 0 l 0 4 l -4 0 l 0 -4 z M 40 96 l 4 0 l 0 4 l -4 0 l 0 -4 z M 44 96 l 4 0 l 0 4 l -4 0 l 0 -4 z M 52 96 l 4 0 l 0 4 l -4 0 l 0 -4 z M 56 96 l 4 0 l 0 4 l -4 0 l 0 -4 z M 60 96 l 4 0 l 0 4 l -4 0 l 0 -4 z M 64 96 l 4 0 l 0 4 l -4 0 l 0 -4 z M 72 96 l 4 0 l 0 4 l -4 0 l 0 -4 z M 92 96 l 4 0 l 0 4 l -4 0 l 0 -4 z M 96 96 l 4 0 l 0 4 l -4 0 l 0 -4 z M 100 96 l 4 0 l 0 4 l -4 0 l 0 -4 z M 104 96 l 4 0 l 0 4 l -4 0 l 0 -4 z M 108 96 l 4 0 l 0 4 l -4 0 l 0 -4 z M 112 96 l 4 0 l 0 4 l -4 0 l 0 -4 z M 120 96 l 4 0 l 0 4 l -4 0 l 0 -4 z M 128 96 l 4 0 l 0 4 l -4 0 l 0 -4 z M 32 100 l 4 0 l 0 4 l -4 0 l 0 -4 z M 36 100 l 4 0 l 0 4 l -4 0 l 0 -4 z M 40 100 l 4 0 l 0 4 l -4 0 l 0 -4 z M 48 100 l 4 0 l 0 4 l -4 0 l 0 -4 z M 68 100 l 4 0 l 0 4 l -4 0 l 0 -4 z M 76 100 l 4 0 l 0 4 l -4 0 l 0 -4 z M 80 100 l 4 0 l 0 4 l -4 0 l 0 -4 z M 84 100 l 4 0 l 0 4 l -4 0 l 0 -4 z M 88 100 l 4 0 l 0 4 l -4 0 l 0 -4 z M 92 100 l 4 0 l 0 4 l -4 0 l 0 -4 z M 96 100 l 4 0 l 0 4 l -4 0 l 0 -4 z M 112 100 l 4 0 l 0 4 l -4 0 l 0 -4 z M 120 100 l 4 0 l 0 4 l -4 0 l 0 -4 z M 0 104 l 4 0 l 0 4 l -4 0 l 0 -4 z M 4 104 l 4 0 l 0 4 l -4 0 l 0 -4 z M 8 104 l 4 0 l 0 4 l -4 0 l 0 -4 z M 12 104 l 4 0 l 0 4 l -4 0 l 0 -4 z M 16 104 l 4 0 l 0 4 l -4 0 l 0 -4 z M 20 104 l 4 0 l 0 4 l -4 0 l 0 -4 z M 24 104 l 4 0 l 0 4 l -4 0 l 0 -4 z M 36 104 l 4 0 l 0 4 l -4 0 l 0 -4 z M 44 104 l 4 0 l 0 4 l -4 0 l 0 -4 z M 48 104 l 4 0 l 0 4 l -4 0 l 0 -4 z M 52 104 l 4 0 l 0 4 l -4 0 l 0 -4 z M 56 104 l 4 0 l 0 4 l -4 0 l 0 -4 z M 60 104 l 4 0 l 0 4 l -4 0 l 0 -4 z M 72 104 l 4 0 l 0 4 l -4 0 l 0 -4 z M 80 104 l 4 0 l 0 4 l -4 0 l 0 -4 z M 92 104 l 4 0 l 0 4 l -4 0 l 0 -4 z M 96 104 l 4 0 l 0 4 l -4 0 l 0 -4 z M 104 104 l 4 0 l 0 4 l -4 0 l 0 -4 z M 112 104 l 4 0 l 0 4 l -4 0 l 0 -4 z M 124 104 l 4 0 l 0 4 l -4 0 l 0 -4 z M 0 108 l 4 0 l 0 4 l -4 0 l 0 -4 z M 24 108 l 4 0 l 0 4 l -4 0 l 0 -4 z M 32 108 l 4 0 l 0 4 l -4 0 l 0 -4 z M 40 108 l 4 0 l 0 4 l -4 0 l 0 -4 z M 44 108 l 4 0 l 0 4 l -4 0 l 0 -4 z M 52 108 l 4 0 l 0 4 l -4 0 l 0 -4 z M 60 108 l 4 0 l 0 4 l -4 0 l 0 -4 z M 64 108 l 4 0 l 0 4 l -4 0 l 0 -4 z M 88 108 l 4 0 l 0 4 l -4 0 l 0 -4 z M 92 108 l 4 0 l 0 4 l -4 0 l 0 -4 z M 96 108 l 4 0 l 0 4 l -4 0 l 0 -4 z M 112 108 l 4 0 l 0 4 l -4 0 l 0 -4 z M 116 108 l 4 0 l 0 4 l -4 0 l 0 -4 z M 124 108 l 4 0 l 0 4 l -4 0 l 0 -4 z M 0 112 l 4 0 l 0 4 l -4 0 l 0 -4 z M 8 112 l 4 0 l 0 4 l -4 0 l 0 -4 z M 12 112 l 4 0 l 0 4 l -4 0 l 0 -4 z M 16 112 l 4 0 l 0 4 l -4 0 l 0 -4 z M 24 112 l 4 0 l 0 4 l -4 0 l 0 -4 z M 32 112 l 4 0 l 0 4 l -4 0 l 0 -4 z M 48 112 l 4 0 l 0 4 l -4 0 l 0 -4 z M 52 112 l 4 0 l 0 4 l -4 0 l 0 -4 z M 76 112 l 4 0 l 0 4 l -4 0 l 0 -4 z M 80 112 l 4 0 l 0 4 l -4 0 l 0 -4 z M 88 112 l 4 0 l 0 4 l -4 0 l 0 -4 z M 96 112 l 4 0 l 0 4 l -4 0 l 0 -4 z M 100 112 l 4 0 l 0 4 l -4 0 l 0 -4 z M 104 112 l 4 0 l 0 4 l -4 0 l 0 -4 z M 108 112 l 4 0 l 0 4 l -4 0 l 0 -4 z M 112 112 l 4 0 l 0 4 l -4 0 l 0 -4 z M 116 112 l 4 0 l 0 4 l -4 0 l 0 -4 z M 120 112 l 4 0 l 0 4 l -4 0 l 0 -4 z M 124 112 l 4 0 l 0 4 l -4 0 l 0 -4 z M 128 112 l 4 0 l 0 4 l -4 0 l 0 -4 z M 0 116 l 4 0 l 0 4 l -4 0 l 0 -4 z M 8 116 l 4 0 l 0 4 l -4 0 l 0 -4 z M 12 116 l 4 0 l 0 4 l -4 0 l 0 -4 z M 16 116 l 4 0 l 0 4 l -4 0 l 0 -4 z M 24 116 l 4 0 l 0 4 l -4 0 l 0 -4 z M 36 116 l 4 0 l 0 4 l -4 0 l 0 -4 z M 52 116 l 4 0 l 0 4 l -4 0 l 0 -4 z M 56 116 l 4 0 l 0 4 l -4 0 l 0 -4 z M 64 116 l 4 0 l 0 4 l -4 0 l 0 -4 z M 72 116 l 4 0 l 0 4 l -4 0 l 0 -4 z M 76 116 l 4 0 l 0 4 l -4 0 l 0 -4 z M 92 116 l 4 0 l 0 4 l -4 0 l 0 -4 z M 96 116 l 4 0 l 0 4 l -4 0 l 0 -4 z M 100 116 l 4 0 l 0 4 l -4 0 l 0 -4 z M 104 116 l 4 0 l 0 4 l -4 0 l 0 -4 z M 108 116 l 4 0 l 0 4 l -4 0 l 0 -4 z M 116 116 l 4 0 l 0 4 l -4 0 l 0 -4 z M 124 116 l 4 0 l 0 4 l -4 0 l 0 -4 z M 128 116 l 4 0 l 0 4 l -4 0 l 0 -4 z M 0 120 l 4 0 l 0 4 l -4 0 l 0 -4 z M 8 120 l 4 0 l 0 4 l -4 0 l 0 -4 z M 12 120 l 4 0 l 0 4 l -4 0 l 0 -4 z M 16 120 l 4 0 l 0 4 l -4 0 l 0 -4 z M 24 120 l 4 0 l 0 4 l -4 0 l 0 -4 z M 40 120 l 4 0 l 0 4 l -4 0 l 0 -4 z M 64 120 l 4 0 l 0 4 l -4 0 l 0 -4 z M 68 120 l 4 0 l 0 4 l -4 0 l 0 -4 z M 76 120 l 4 0 l 0 4 l -4 0 l 0 -4 z M 84 120 l 4 0 l 0 4 l -4 0 l 0 -4 z M 88 120 l 4 0 l 0 4 l -4 0 l 0 -4 z M 92 120 l 4 0 l 0 4 l -4 0 l 0 -4 z M 100 120 l 4 0 l 0 4 l -4 0 l 0 -4 z M 108 120 l 4 0 l 0 4 l -4 0 l 0 -4 z M 112 120 l 4 0 l 0 4 l -4 0 l 0 -4 z M 116 120 l 4 0 l 0 4 l -4 0 l 0 -4 z M 120 120 l 4 0 l 0 4 l -4 0 l 0 -4 z M 0 124 l 4 0 l 0 4 l -4 0 l 0 -4 z M 24 124 l 4 0 l 0 4 l -4 0 l 0 -4 z M 32 124 l 4 0 l 0 4 l -4 0 l 0 -4 z M 40 124 l 4 0 l 0 4 l -4 0 l 0 -4 z M 48 124 l 4 0 l 0 4 l -4 0 l 0 -4 z M 56 124 l 4 0 l 0 4 l -4 0 l 0 -4 z M 68 124 l 4 0 l 0 4 l -4 0 l 0 -4 z M 72 124 l 4 0 l 0 4 l -4 0 l 0 -4 z M 76 124 l 4 0 l 0 4 l -4 0 l 0 -4 z M 80 124 l 4 0 l 0 4 l -4 0 l 0 -4 z M 84 124 l 4 0 l 0 4 l -4 0 l 0 -4 z M 92 124 l 4 0 l 0 4 l -4 0 l 0 -4 z M 100 124 l 4 0 l 0 4 l -4 0 l 0 -4 z M 104 124 l 4 0 l 0 4 l -4 0 l 0 -4 z M 112 124 l 4 0 l 0 4 l -4 0 l 0 -4 z M 120 124 l 4 0 l 0 4 l -4 0 l 0 -4 z M 0 128 l 4 0 l 0 4 l -4 0 l 0 -4 z M 4 128 l 4 0 l 0 4 l -4 0 l 0 -4 z M 8 128 l 4 0 l 0 4 l -4 0 l 0 -4 z M 12 128 l 4 0 l 0 4 l -4 0 l 0 -4 z M 16 128 l 4 0 l 0 4 l -4 0 l 0 -4 z M 20 128 l 4 0 l 0 4 l -4 0 l 0 -4 z M 24 128 l 4 0 l 0 4 l -4 0 l 0 -4 z M 32 128 l 4 0 l 0 4 l -4 0 l 0 -4 z M 36 128 l 4 0 l 0 4 l -4 0 l 0 -4 z M 44 128 l 4 0 l 0 4 l -4 0 l 0 -4 z M 52 128 l 4 0 l 0 4 l -4 0 l 0 -4 z M 56 128 l 4 0 l 0 4 l -4 0 l 0 -4 z M 60 128 l 4 0 l 0 4 l -4 0 l 0 -4 z M 64 128 l 4 0 l 0 4 l -4 0 l 0 -4 z M 72 128 l 4 0 l 0 4 l -4 0 l 0 -4 z M 92 128 l 4 0 l 0 4 l -4 0 l 0 -4 z M 100 128 l 4 0 l 0 4 l -4 0 l 0 -4 z M 120 128 l 4 0 l 0 4 l -4 0 l 0 -4 z M 128 128 l 4 0 l 0 4 l -4 0 l 0 -4 z" style="stroke: rgb(255,255,255); stroke-opacity: 0; stroke-width: 1; stroke-dasharray: none; stroke-linecap: butt; stroke-linejoin: miter; stroke-miterlimit: 4; fill: rgb(0,0,0); fill-rule: nonzero; opacity: 1;" transform="translate(171.2 102.61) scale(0.76 0.76) translate(-66, -66) " stroke-linecap="round" />
<g transform="translate(310.5 120.5)" style="">
	<ellipse cx="0" cy="0" rx="24.56" ry="21.8" style="stroke: none; stroke-width: 1; stroke-dasharray: none; stroke-linecap: butt; stroke-linejoin: round; stroke-miterlimit: 1.41; fill: rgb(237,175,6); fill-rule: evenodd; opacity: 1;" transform="translate(-1.03 0.15)"/>
	<ellipse cx="0" cy="0" rx="24.56" ry="21.8" style="stroke: none; stroke-width: 1; stroke-dasharray: none; stroke-linecap: butt; stroke-linejoin: round; stroke-miterlimit: 1.41; fill: rgb(250,201,64); fill-rule: evenodd; opacity: 1;" transform="translate(-0.09 -0.97)"/>
	<path d="M 42.95 31.75 a 9.78 9.78 0 0 1 -2.32 6.79 a 11.72 11.72 0 0 1 -3.82 3.07 a 13.57 13.57 0 0 1 -4.08 1.32 a 13.8 13.8 0 0 1 -4.26 -0.06 a 12.98 12.98 0 0 1 -5.03 -2.08 a 11.85 11.85 0 0 1 -2.3 -2.12 a 10.81 10.81 0 0 1 -1.97 -3.6 a 9.86 9.86 0 0 1 -0.42 -3.25 v -0.07 l 0.2 -0.2 l 0.21 0.2 a 13.42 13.42 0 0 0 0.03 0.4 a 9.36 9.36 0 0 0 2.2 5.2 a 10.45 10.45 0 0 0 2.54 2.21 a 11.8 11.8 0 0 0 4.15 1.67 a 12.7 12.7 0 0 0 3.23 0.29 a 12.43 12.43 0 0 0 2.42 -0.28 a 12.54 12.54 0 0 0 4.04 -1.62 a 11.2 11.2 0 0 0 2.73 -2.45 a 9.68 9.68 0 0 0 1.95 -4.43 c 0.05 -0.33 0.08 -0.66 0.1 -0.99 l 0.2 -0.2 l 0.2 0.2 z" style="stroke: none; stroke-width: 1; stroke-dasharray: none; stroke-linecap: butt; stroke-linejoin: round; stroke-miterlimit: 1.41; fill: rgb(46,13,25); fill-rule: nonzero; opacity: 1;" transform="translate(-1.15 5.31) translate(-30.85161937927562, -37.30837823877215) " stroke-linecap="round" />
	<path d="M 37.36 42.5 c -0.78 -1.43 0.06 -3.5 1.85 -3.75 c -0.19 -0.73 1.92 -2.13 3.58 -0.8 c 5.44 4.38 3.98 7.42 2.37 8.7 c -4.8 3.82 -7.75 -3.83 -7.8 -4.16 z" style="stroke: none; stroke-width: 1; stroke-dasharray: none; stroke-linecap: butt; stroke-linejoin: round; stroke-miterlimit: 1.41; fill: rgb(224,46,77); fill-rule: evenodd; opacity: 1;" transform="translate(9.85 10.56) translate(-41.849104195297016, -42.55712219019437) " stroke-linecap="round" />
	<path d="M 37.05 42.03 c -0.8 -1.42 0.05 -3.5 1.84 -3.74 c -0.19 -0.74 1.92 -2.14 3.58 -0.8 c 5.44 4.38 3.99 7.42 2.37 8.7 c -4.8 3.82 -7.75 -3.83 -7.8 -4.16 z" style="stroke: none; stroke-width: 1; stroke-dasharray: none; stroke-linecap: butt; stroke-linejoin: round; stroke-miterlimit: 1.41; fill: rgb(241,74,103); fill-rule: evenodd; opacity: 1;" transform="translate(9.53 10.09) translate(-41.531036550799385, -42.09397219462026) " stroke-linecap="round" />
	<path d="M 38.42 38.67 c 0.32 -0.23 2.33 1.3 3.5 3.02 c 0.04 -0.04 -1.56 -2.94 -3.09 -3.2 l -0.4 0.18 z" style="stroke: none; stroke-width: 1; stroke-dasharray: none; stroke-linecap: butt; stroke-linejoin: round; stroke-miterlimit: 1.41; fill: rgb(224,46,77); fill-rule: evenodd; opacity: 1;" transform="translate(8.17 8.09) translate(-40.17036741932639, -40.09) " stroke-linecap="round" />
	<radialGradient id="SVGID_4" gradientUnits="userSpaceOnUse" gradientTransform="matrix(4.08642 0 0 4.08642 19.29 28.04)"  cx="-1.7763568394002505e-15" cy="-3.552713678800501e-15" r="1" fx="-1.7763568394002505e-15" fy="-3.552713678800501e-15">
<stop offset="0%" style="stop-color:rgb(29,29,29);stop-opacity: 1"/>
<stop offset="100%" style="stop-color:rgb(0,0,0);stop-opacity: 1"/>
</radialGradient>
<path d="M 19.29 23.95 a 4.09 4.09 0 0 1 4.08 4.09 c 0 2.25 -1.84 0.62 -4.1 0.62 c -2.25 0 -4.07 1.63 -4.07 -0.62 a 4.09 4.09 0 0 1 4.08 -4.09 z" style="stroke: none; stroke-width: 1; stroke-dasharray: none; stroke-linecap: butt; stroke-linejoin: round; stroke-miterlimit: 1.41; fill: url(#SVGID_4); fill-rule: evenodd; opacity: 1;" transform="translate(-12.72 -5.41) translate(-19.284999999999997, -26.590292011554638) " stroke-linecap="round" />
	<path d="M 18.45 26.2 a 1.11 1.11 0 1 1 -1.12 1.93 a 1.11 1.11 0 0 1 1.12 -1.93 z m 1.42 -0.6 a 0.56 0.56 0 1 1 -0.56 0.96 a 0.56 0.56 0 0 1 0.56 -0.97 z" style="stroke: none; stroke-width: 1; stroke-dasharray: none; stroke-linecap: butt; stroke-linejoin: round; stroke-miterlimit: 1.41; fill: rgb(255,255,255); fill-rule: evenodd; opacity: 1;" transform="translate(-13.51 -5.1) translate(-18.491972511086693, -26.897892699335152) " stroke-linecap="round" />
	<radialGradient id="SVGID_5" gradientUnits="userSpaceOnUse" gradientTransform="matrix(4.08642 0 0 4.08642 42.42 28.04)"  cx="7.105427357601002e-15" cy="-3.552713678800501e-15" r="1" fx="7.105427357601002e-15" fy="-3.552713678800501e-15">
<stop offset="0%" style="stop-color:rgb(29,29,29);stop-opacity: 1"/>
<stop offset="100%" style="stop-color:rgb(0,0,0);stop-opacity: 1"/>
</radialGradient>
<path d="M 42.42 23.95 a 4.09 4.09 0 0 1 4.09 4.09 c 0 2.25 -1.84 0.62 -4.1 0.62 c -2.25 0 -4.07 1.63 -4.07 -0.62 a 4.09 4.09 0 0 1 4.08 -4.09 z" style="stroke: none; stroke-width: 1; stroke-dasharray: none; stroke-linecap: butt; stroke-linejoin: round; stroke-miterlimit: 1.41; fill: url(#SVGID_5); fill-rule: evenodd; opacity: 1;" transform="translate(10.42 -5.41) translate(-42.424999999990675, -26.590292011554638) " stroke-linecap="round" />
	<path d="M 41.58 26.2 a 1.11 1.11 0 1 1 -1.12 1.93 a 1.11 1.11 0 0 1 1.12 -1.93 z m 1.42 -0.6 a 0.56 0.56 0 1 1 -0.56 0.96 a 0.56 0.56 0 0 1 0.56 -0.97 z" style="stroke: none; stroke-width: 1; stroke-dasharray: none; stroke-linecap: butt; stroke-linejoin: round; stroke-miterlimit: 1.41; fill: rgb(255,255,255); fill-rule: evenodd; opacity: 1;" transform="translate(9.62 -5.1) translate(-41.621972511086696, -26.897800709251086) " stroke-linecap="round" />
</g>
</svg>