<?xml version="1.0" encoding="UTF-8" standalone="no" ?>
<!DOCTYPE svg PUBLIC "-//W3C//DTD SVG 1.1//EN" "http://www.w3.org/Graphics/SVG/1.1/DTD/svg11.dtd">
<svg xmlns="http://www.w3.org/2000/svg" xmlns:xlink="http://www.w3.org/1999/xlink" version="1.1" width="1772" height="1772" viewBox="0 0 1616.57 1616.57" xml:space="preserve">
<desc>Created with Fabric.js 2.3.3</desc>
<defs>
</defs>
<path d="M 0 0 l 4 0 l 0 4 l -4 0 l 0 -4 z M 4 0 l 4 0 l 0 4 l -4 0 l 0 -4 z M 8 0 l 4 0 l 0 4 l -4 0 l 0 -4 z M 12 0 l 4 0 l 0 4 l -4 0 l 0 -4 z M 16 0 l 4 0 l 0 4 l -4 0 l 0 -4 z M 20 0 l 4 0 l 0 4 l -4 0 l 0 -4 z M 24 0 l 4 0 l 0 4 l -4 0 l 0 -4 z M 32 0 l 4 0 l 0 4 l -4 0 l 0 -4 z M 52 0 l 4 0 l 0 4 l -4 0 l 0 -4 z M 56 0 l 4 0 l 0 4 l -4 0 l 0 -4 z M 64 0 l 4 0 l 0 4 l -4 0 l 0 -4 z M 72 0 l 4 0 l 0 4 l -4 0 l 0 -4 z M 76 0 l 4 0 l 0 4 l -4 0 l 0 -4 z M 104 0 l 4 0 l 0 4 l -4 0 l 0 -4 z M 108 0 l 4 0 l 0 4 l -4 0 l 0 -4 z M 112 0 l 4 0 l 0 4 l -4 0 l 0 -4 z M 116 0 l 4 0 l 0 4 l -4 0 l 0 -4 z M 120 0 l 4 0 l 0 4 l -4 0 l 0 -4 z M 124 0 l 4 0 l 0 4 l -4 0 l 0 -4 z M 128 0 l 4 0 l 0 4 l -4 0 l 0 -4 z M 0 4 l 4 0 l 0 4 l -4 0 l 0 -4 z M 24 4 l 4 0 l 0 4 l -4 0 l 0 -4 z M 32 4 l 4 0 l 0 4 l -4 0 l 0 -4 z M 44 4 l 4 0 l 0 4 l -4 0 l 0 -4 z M 48 4 l 4 0 l 0 4 l -4 0 l 0 -4 z M 52 4 l 4 0 l 0 4 l -4 0 l 0 -4 z M 56 4 l 4 0 l 0 4 l -4 0 l 0 -4 z M 60 4 l 4 0 l 0 4 l -4 0 l 0 -4 z M 72 4 l 4 0 l 0 4 l -4 0 l 0 -4 z M 80 4 l 4 0 l 0 4 l -4 0 l 0 -4 z M 92 4 l 4 0 l 0 4 l -4 0 l 0 -4 z M 96 4 l 4 0 l 0 4 l -4 0 l 0 -4 z M 104 4 l 4 0 l 0 4 l -4 0 l 0 -4 z M 128 4 l 4 0 l 0 4 l -4 0 l 0 -4 z M 0 8 l 4 0 l 0 4 l -4 0 l 0 -4 z M 8 8 l 4 0 l 0 4 l -4 0 l 0 -4 z M 12 8 l 4 0 l 0 4 l -4 0 l 0 -4 z M 16 8 l 4 0 l 0 4 l -4 0 l 0 -4 z M 24 8 l 4 0 l 0 4 l -4 0 l 0 -4 z M 32 8 l 4 0 l 0 4 l -4 0 l 0 -4 z M 36 8 l 4 0 l 0 4 l -4 0 l 0 -4 z M 48 8 l 4 0 l 0 4 l -4 0 l 0 -4 z M 56 8 l 4 0 l 0 4 l -4 0 l 0 -4 z M 68 8 l 4 0 l 0 4 l -4 0 l 0 -4 z M 72 8 l 4 0 l 0 4 l -4 0 l 0 -4 z M 76 8 l 4 0 l 0 4 l -4 0 l 0 -4 z M 80 8 l 4 0 l 0 4 l -4 0 l 0 -4 z M 84 8 l 4 0 l 0 4 l -4 0 l 0 -4 z M 96 8 l 4 0 l 0 4 l -4 0 l 0 -4 z M 104 8 l 4 0 l 0 4 l -4 0 l 0 -4 z M 112 8 l 4 0 l 0 4 l -4 0 l 0 -4 z M 116 8 l 4 0 l 0 4 l -4 0 l 0 -4 z M 120 8 l 4 0 l 0 4 l -4 0 l 0 -4 z M 128 8 l 4 0 l 0 4 l -4 0 l 0 -4 z M 0 12 l 4 0 l 0 4 l -4 0 l 0 -4 z M 8 12 l 4 0 l 0 4 l -4 0 l 0 -4 z M 12 12 l 4 0 l 0 4 l -4 0 l 0 -4 z M 16 12 l 4 0 l 0 4 l -4 0 l 0 -4 z M 24 12 l 4 0 l 0 4 l -4 0 l 0 -4 z M 32 12 l 4 0 l 0 4 l -4 0 l 0 -4 z M 36 12 l 4 0 l 0 4 l -4 0 l 0 -4 z M 40 12 l 4 0 l 0 4 l -4 0 l 0 -4 z M 48 12 l 4 0 l 0 4 l -4 0 l 0 -4 z M 68 12 l 4 0 l 0 4 l -4 0 l 0 -4 z M 76 12 l 4 0 l 0 4 l -4 0 l 0 -4 z M 80 12 l 4 0 l 0 4 l -4 0 l 0 -4 z M 84 12 l 4 0 l 0 4 l -4 0 l 0 -4 z M 88 12 l 4 0 l 0 4 l -4 0 l 0 -4 z M 96 12 l 4 0 l 0 4 l -4 0 l 0 -4 z M 104 12 l 4 0 l 0 4 l -4 0 l 0 -4 z M 112 12 l 4 0 l 0 4 l -4 0 l 0 -4 z M 116 12 l 4 0 l 0 4 l -4 0 l 0 -4 z M 120 12 l 4 0 l 0 4 l -4 0 l 0 -4 z M 128 12 l 4 0 l 0 4 l -4 0 l 0 -4 z M 0 16 l 4 0 l 0 4 l -4 0 l 0 -4 z M 8 16 l 4 0 l 0 4 l -4 0 l 0 -4 z M 12 16 l 4 0 l 0 4 l -4 0 l 0 -4 z M 16 16 l 4 0 l 0 4 l -4 0 l 0 -4 z M 24 16 l 4 0 l 0 4 l -4 0 l 0 -4 z M 36 16 l 4 0 l 0 4 l -4 0 l 0 -4 z M 40 16 l 4 0 l 0 4 l -4 0 l 0 -4 z M 48 16 l 4 0 l 0 4 l -4 0 l 0 -4 z M 68 16 l 4 0 l 0 4 l -4 0 l 0 -4 z M 76 16 l 4 0 l 0 4 l -4 0 l 0 -4 z M 80 16 l 4 0 l 0 4 l -4 0 l 0 -4 z M 84 16 l 4 0 l 0 4 l -4 0 l 0 -4 z M 88 16 l 4 0 l 0 4 l -4 0 l 0 -4 z M 96 16 l 4 0 l 0 4 l -4 0 l 0 -4 z M 104 16 l 4 0 l 0 4 l -4 0 l 0 -4 z M 112 16 l 4 0 l 0 4 l -4 0 l 0 -4 z M 116 16 l 4 0 l 0 4 l -4 0 l 0 -4 z M 120 16 l 4 0 l 0 4 l -4 0 l 0 -4 z M 128 16 l 4 0 l 0 4 l -4 0 l 0 -4 z M 0 20 l 4 0 l 0 4 l -4 0 l 0 -4 z M 24 20 l 4 0 l 0 4 l -4 0 l 0 -4 z M 32 20 l 4 0 l 0 4 l -4 0 l 0 -4 z M 36 20 l 4 0 l 0 4 l -4 0 l 0 -4 z M 40 20 l 4 0 l 0 4 l -4 0 l 0 -4 z M 64 20 l 4 0 l 0 4 l -4 0 l 0 -4 z M 68 20 l 4 0 l 0 4 l -4 0 l 0 -4 z M 76 20 l 4 0 l 0 4 l -4 0 l 0 -4 z M 84 20 l 4 0 l 0 4 l -4 0 l 0 -4 z M 88 20 l 4 0 l 0 4 l -4 0 l 0 -4 z M 104 20 l 4 0 l 0 4 l -4 0 l 0 -4 z M 128 20 l 4 0 l 0 4 l -4 0 l 0 -4 z M 0 24 l 4 0 l 0 4 l -4 0 l 0 -4 z M 4 24 l 4 0 l 0 4 l -4 0 l 0 -4 z M 8 24 l 4 0 l 0 4 l -4 0 l 0 -4 z M 12 24 l 4 0 l 0 4 l -4 0 l 0 -4 z M 16 24 l 4 0 l 0 4 l -4 0 l 0 -4 z M 20 24 l 4 0 l 0 4 l -4 0 l 0 -4 z M 24 24 l 4 0 l 0 4 l -4 0 l 0 -4 z M 32 24 l 4 0 l 0 4 l -4 0 l 0 -4 z M 40 24 l 4 0 l 0 4 l -4 0 l 0 -4 z M 48 24 l 4 0 l 0 4 l -4 0 l 0 -4 z M 56 24 l 4 0 l 0 4 l -4 0 l 0 -4 z M 64 24 l 4 0 l 0 4 l -4 0 l 0 -4 z M 72 24 l 4 0 l 0 4 l -4 0 l 0 -4 z M 80 24 l 4 0 l 0 4 l -4 0 l 0 -4 z M 88 24 l 4 0 l 0 4 l -4 0 l 0 -4 z M 96 24 l 4 0 l 0 4 l -4 0 l 0 -4 z M 104 24 l 4 0 l 0 4 l -4 0 l 0 -4 z M 108 24 l 4 0 l 0 4 l -4 0 l 0 -4 z M 112 24 l 4 0 l 0 4 l -4 0 l 0 -4 z M 116 24 l 4 0 l 0 4 l -4 0 l 0 -4 z M 120 24 l 4 0 l 0 4 l -4 0 l 0 -4 z M 124 24 l 4 0 l 0 4 l -4 0 l 0 -4 z M 128 24 l 4 0 l 0 4 l -4 0 l 0 -4 z M 40 28 l 4 0 l 0 4 l -4 0 l 0 -4 z M 44 28 l 4 0 l 0 4 l -4 0 l 0 -4 z M 52 28 l 4 0 l 0 4 l -4 0 l 0 -4 z M 60 28 l 4 0 l 0 4 l -4 0 l 0 -4 z M 64 28 l 4 0 l 0 4 l -4 0 l 0 -4 z M 88 28 l 4 0 l 0 4 l -4 0 l 0 -4 z M 92 28 l 4 0 l 0 4 l -4 0 l 0 -4 z M 0 32 l 4 0 l 0 4 l -4 0 l 0 -4 z M 4 32 l 4 0 l 0 4 l -4 0 l 0 -4 z M 16 32 l 4 0 l 0 4 l -4 0 l 0 -4 z M 20 32 l 4 0 l 0 4 l -4 0 l 0 -4 z M 24 32 l 4 0 l 0 4 l -4 0 l 0 -4 z M 40 32 l 4 0 l 0 4 l -4 0 l 0 -4 z M 48 32 l 4 0 l 0 4 l -4 0 l 0 -4 z M 52 32 l 4 0 l 0 4 l -4 0 l 0 -4 z M 76 32 l 4 0 l 0 4 l -4 0 l 0 -4 z M 80 32 l 4 0 l 0 4 l -4 0 l 0 -4 z M 88 32 l 4 0 l 0 4 l -4 0 l 0 -4 z M 96 32 l 4 0 l 0 4 l -4 0 l 0 -4 z M 108 32 l 4 0 l 0 4 l -4 0 l 0 -4 z M 116 32 l 4 0 l 0 4 l -4 0 l 0 -4 z M 120 32 l 4 0 l 0 4 l -4 0 l 0 -4 z M 124 32 l 4 0 l 0 4 l -4 0 l 0 -4 z M 128 32 l 4 0 l 0 4 l -4 0 l 0 -4 z M 4 36 l 4 0 l 0 4 l -4 0 l 0 -4 z M 8 36 l 4 0 l 0 4 l -4 0 l 0 -4 z M 28 36 l 4 0 l 0 4 l -4 0 l 0 -4 z M 52 36 l 4 0 l 0 4 l -4 0 l 0 -4 z M 56 36 l 4 0 l 0 4 l -4 0 l 0 -4 z M 64 36 l 4 0 l 0 4 l -4 0 l 0 -4 z M 72 36 l 4 0 l 0 4 l -4 0 l 0 -4 z M 76 36 l 4 0 l 0 4 l -4 0 l 0 -4 z M 100 36 l 4 0 l 0 4 l -4 0 l 0 -4 z M 104 36 l 4 0 l 0 4 l -4 0 l 0 -4 z M 108 36 l 4 0 l 0 4 l -4 0 l 0 -4 z M 112 36 l 4 0 l 0 4 l -4 0 l 0 -4 z M 116 36 l 4 0 l 0 4 l -4 0 l 0 -4 z M 120 36 l 4 0 l 0 4 l -4 0 l 0 -4 z M 124 36 l 4 0 l 0 4 l -4 0 l 0 -4 z M 0 40 l 4 0 l 0 4 l -4 0 l 0 -4 z M 8 40 l 4 0 l 0 4 l -4 0 l 0 -4 z M 12 40 l 4 0 l 0 4 l -4 0 l 0 -4 z M 20 40 l 4 0 l 0 4 l -4 0 l 0 -4 z M 24 40 l 4 0 l 0 4 l -4 0 l 0 -4 z M 28 40 l 4 0 l 0 4 l -4 0 l 0 -4 z M 36 40 l 4 0 l 0 4 l -4 0 l 0 -4 z M 40 40 l 4 0 l 0 4 l -4 0 l 0 -4 z M 64 40 l 4 0 l 0 4 l -4 0 l 0 -4 z M 68 40 l 4 0 l 0 4 l -4 0 l 0 -4 z M 76 40 l 4 0 l 0 4 l -4 0 l 0 -4 z M 84 40 l 4 0 l 0 4 l -4 0 l 0 -4 z M 88 40 l 4 0 l 0 4 l -4 0 l 0 -4 z M 108 40 l 4 0 l 0 4 l -4 0 l 0 -4 z M 124 40 l 4 0 l 0 4 l -4 0 l 0 -4 z M 0 44 l 4 0 l 0 4 l -4 0 l 0 -4 z M 12 44 l 4 0 l 0 4 l -4 0 l 0 -4 z M 16 44 l 4 0 l 0 4 l -4 0 l 0 -4 z M 36 44 l 4 0 l 0 4 l -4 0 l 0 -4 z M 48 44 l 4 0 l 0 4 l -4 0 l 0 -4 z M 56 44 l 4 0 l 0 4 l -4 0 l 0 -4 z M 68 44 l 4 0 l 0 4 l -4 0 l 0 -4 z M 72 44 l 4 0 l 0 4 l -4 0 l 0 -4 z M 76 44 l 4 0 l 0 4 l -4 0 l 0 -4 z M 80 44 l 4 0 l 0 4 l -4 0 l 0 -4 z M 84 44 l 4 0 l 0 4 l -4 0 l 0 -4 z M 96 44 l 4 0 l 0 4 l -4 0 l 0 -4 z M 100 44 l 4 0 l 0 4 l -4 0 l 0 -4 z M 128 44 l 4 0 l 0 4 l -4 0 l 0 -4 z M 0 48 l 4 0 l 0 4 l -4 0 l 0 -4 z M 4 48 l 4 0 l 0 4 l -4 0 l 0 -4 z M 24 48 l 4 0 l 0 4 l -4 0 l 0 -4 z M 32 48 l 4 0 l 0 4 l -4 0 l 0 -4 z M 44 48 l 4 0 l 0 4 l -4 0 l 0 -4 z M 52 48 l 4 0 l 0 4 l -4 0 l 0 -4 z M 56 48 l 4 0 l 0 4 l -4 0 l 0 -4 z M 60 48 l 4 0 l 0 4 l -4 0 l 0 -4 z M 64 48 l 4 0 l 0 4 l -4 0 l 0 -4 z M 72 48 l 4 0 l 0 4 l -4 0 l 0 -4 z M 92 48 l 4 0 l 0 4 l -4 0 l 0 -4 z M 100 48 l 4 0 l 0 4 l -4 0 l 0 -4 z M 104 48 l 4 0 l 0 4 l -4 0 l 0 -4 z M 108 48 l 4 0 l 0 4 l -4 0 l 0 -4 z M 116 48 l 4 0 l 0 4 l -4 0 l 0 -4 z M 0 52 l 4 0 l 0 4 l -4 0 l 0 -4 z M 4 52 l 4 0 l 0 4 l -4 0 l 0 -4 z M 12 52 l 4 0 l 0 4 l -4 0 l 0 -4 z M 16 52 l 4 0 l 0 4 l -4 0 l 0 -4 z M 28 52 l 4 0 l 0 4 l -4 0 l 0 -4 z M 32 52 l 4 0 l 0 4 l -4 0 l 0 -4 z M 36 52 l 4 0 l 0 4 l -4 0 l 0 -4 z M 40 52 l 4 0 l 0 4 l -4 0 l 0 -4 z M 48 52 l 4 0 l 0 4 l -4 0 l 0 -4 z M 68 52 l 4 0 l 0 4 l -4 0 l 0 -4 z M 76 52 l 4 0 l 0 4 l -4 0 l 0 -4 z M 80 52 l 4 0 l 0 4 l -4 0 l 0 -4 z M 84 52 l 4 0 l 0 4 l -4 0 l 0 -4 z M 88 52 l 4 0 l 0 4 l -4 0 l 0 -4 z M 96 52 l 4 0 l 0 4 l -4 0 l 0 -4 z M 104 52 l 4 0 l 0 4 l -4 0 l 0 -4 z M 116 52 l 4 0 l 0 4 l -4 0 l 0 -4 z M 120 52 l 4 0 l 0 4 l -4 0 l 0 -4 z M 124 52 l 4 0 l 0 4 l -4 0 l 0 -4 z M 0 56 l 4 0 l 0 4 l -4 0 l 0 -4 z M 12 56 l 4 0 l 0 4 l -4 0 l 0 -4 z M 24 56 l 4 0 l 0 4 l -4 0 l 0 -4 z M 28 56 l 4 0 l 0 4 l -4 0 l 0 -4 z M 40 56 l 4 0 l 0 4 l -4 0 l 0 -4 z M 44 56 l 4 0 l 0 4 l -4 0 l 0 -4 z M 48 56 l 4 0 l 0 4 l -4 0 l 0 -4 z M 52 56 l 4 0 l 0 4 l -4 0 l 0 -4 z M 56 56 l 4 0 l 0 4 l -4 0 l 0 -4 z M 60 56 l 4 0 l 0 4 l -4 0 l 0 -4 z M 72 56 l 4 0 l 0 4 l -4 0 l 0 -4 z M 80 56 l 4 0 l 0 4 l -4 0 l 0 -4 z M 92 56 l 4 0 l 0 4 l -4 0 l 0 -4 z M 96 56 l 4 0 l 0 4 l -4 0 l 0 -4 z M 100 56 l 4 0 l 0 4 l -4 0 l 0 -4 z M 104 56 l 4 0 l 0 4 l -4 0 l 0 -4 z M 112 56 l 4 0 l 0 4 l -4 0 l 0 -4 z M 116 56 l 4 0 l 0 4 l -4 0 l 0 -4 z M 124 56 l 4 0 l 0 4 l -4 0 l 0 -4 z M 12 60 l 4 0 l 0 4 l -4 0 l 0 -4 z M 20 60 l 4 0 l 0 4 l -4 0 l 0 -4 z M 44 60 l 4 0 l 0 4 l -4 0 l 0 -4 z M 52 60 l 4 0 l 0 4 l -4 0 l 0 -4 z M 60 60 l 4 0 l 0 4 l -4 0 l 0 -4 z M 64 60 l 4 0 l 0 4 l -4 0 l 0 -4 z M 88 60 l 4 0 l 0 4 l -4 0 l 0 -4 z M 92 60 l 4 0 l 0 4 l -4 0 l 0 -4 z M 104 60 l 4 0 l 0 4 l -4 0 l 0 -4 z M 108 60 l 4 0 l 0 4 l -4 0 l 0 -4 z M 112 60 l 4 0 l 0 4 l -4 0 l 0 -4 z M 116 60 l 4 0 l 0 4 l -4 0 l 0 -4 z M 124 60 l 4 0 l 0 4 l -4 0 l 0 -4 z M 4 64 l 4 0 l 0 4 l -4 0 l 0 -4 z M 8 64 l 4 0 l 0 4 l -4 0 l 0 -4 z M 12 64 l 4 0 l 0 4 l -4 0 l 0 -4 z M 24 64 l 4 0 l 0 4 l -4 0 l 0 -4 z M 32 64 l 4 0 l 0 4 l -4 0 l 0 -4 z M 36 64 l 4 0 l 0 4 l -4 0 l 0 -4 z M 48 64 l 4 0 l 0 4 l -4 0 l 0 -4 z M 52 64 l 4 0 l 0 4 l -4 0 l 0 -4 z M 76 64 l 4 0 l 0 4 l -4 0 l 0 -4 z M 80 64 l 4 0 l 0 4 l -4 0 l 0 -4 z M 88 64 l 4 0 l 0 4 l -4 0 l 0 -4 z M 96 64 l 4 0 l 0 4 l -4 0 l 0 -4 z M 120 64 l 4 0 l 0 4 l -4 0 l 0 -4 z M 124 64 l 4 0 l 0 4 l -4 0 l 0 -4 z M 128 64 l 4 0 l 0 4 l -4 0 l 0 -4 z M 0 68 l 4 0 l 0 4 l -4 0 l 0 -4 z M 4 68 l 4 0 l 0 4 l -4 0 l 0 -4 z M 8 68 l 4 0 l 0 4 l -4 0 l 0 -4 z M 20 68 l 4 0 l 0 4 l -4 0 l 0 -4 z M 40 68 l 4 0 l 0 4 l -4 0 l 0 -4 z M 52 68 l 4 0 l 0 4 l -4 0 l 0 -4 z M 56 68 l 4 0 l 0 4 l -4 0 l 0 -4 z M 64 68 l 4 0 l 0 4 l -4 0 l 0 -4 z M 72 68 l 4 0 l 0 4 l -4 0 l 0 -4 z M 76 68 l 4 0 l 0 4 l -4 0 l 0 -4 z M 100 68 l 4 0 l 0 4 l -4 0 l 0 -4 z M 104 68 l 4 0 l 0 4 l -4 0 l 0 -4 z M 108 68 l 4 0 l 0 4 l -4 0 l 0 -4 z M 112 68 l 4 0 l 0 4 l -4 0 l 0 -4 z M 116 68 l 4 0 l 0 4 l -4 0 l 0 -4 z M 124 68 l 4 0 l 0 4 l -4 0 l 0 -4 z M 4 72 l 4 0 l 0 4 l -4 0 l 0 -4 z M 12 72 l 4 0 l 0 4 l -4 0 l 0 -4 z M 24 72 l 4 0 l 0 4 l -4 0 l 0 -4 z M 36 72 l 4 0 l 0 4 l -4 0 l 0 -4 z M 40 72 l 4 0 l 0 4 l -4 0 l 0 -4 z M 64 72 l 4 0 l 0 4 l -4 0 l 0 -4 z M 68 72 l 4 0 l 0 4 l -4 0 l 0 -4 z M 76 72 l 4 0 l 0 4 l -4 0 l 0 -4 z M 84 72 l 4 0 l 0 4 l -4 0 l 0 -4 z M 88 72 l 4 0 l 0 4 l -4 0 l 0 -4 z M 108 72 l 4 0 l 0 4 l -4 0 l 0 -4 z M 116 72 l 4 0 l 0 4 l -4 0 l 0 -4 z M 120 72 l 4 0 l 0 4 l -4 0 l 0 -4 z M 124 72 l 4 0 l 0 4 l -4 0 l 0 -4 z M 4 76 l 4 0 l 0 4 l -4 0 l 0 -4 z M 32 76 l 4 0 l 0 4 l -4 0 l 0 -4 z M 36 76 l 4 0 l 0 4 l -4 0 l 0 -4 z M 48 76 l 4 0 l 0 4 l -4 0 l 0 -4 z M 56 76 l 4 0 l 0 4 l -4 0 l 0 -4 z M 68 76 l 4 0 l 0 4 l -4 0 l 0 -4 z M 72 76 l 4 0 l 0 4 l -4 0 l 0 -4 z M 76 76 l 4 0 l 0 4 l -4 0 l 0 -4 z M 80 76 l 4 0 l 0 4 l -4 0 l 0 -4 z M 84 76 l 4 0 l 0 4 l -4 0 l 0 -4 z M 96 76 l 4 0 l 0 4 l -4 0 l 0 -4 z M 100 76 l 4 0 l 0 4 l -4 0 l 0 -4 z M 120 76 l 4 0 l 0 4 l -4 0 l 0 -4 z M 4 80 l 4 0 l 0 4 l -4 0 l 0 -4 z M 24 80 l 4 0 l 0 4 l -4 0 l 0 -4 z M 32 80 l 4 0 l 0 4 l -4 0 l 0 -4 z M 44 80 l 4 0 l 0 4 l -4 0 l 0 -4 z M 52 80 l 4 0 l 0 4 l -4 0 l 0 -4 z M 56 80 l 4 0 l 0 4 l -4 0 l 0 -4 z M 60 80 l 4 0 l 0 4 l -4 0 l 0 -4 z M 64 80 l 4 0 l 0 4 l -4 0 l 0 -4 z M 72 80 l 4 0 l 0 4 l -4 0 l 0 -4 z M 92 80 l 4 0 l 0 4 l -4 0 l 0 -4 z M 100 80 l 4 0 l 0 4 l -4 0 l 0 -4 z M 104 80 l 4 0 l 0 4 l -4 0 l 0 -4 z M 108 80 l 4 0 l 0 4 l -4 0 l 0 -4 z M 120 80 l 4 0 l 0 4 l -4 0 l 0 -4 z M 0 84 l 4 0 l 0 4 l -4 0 l 0 -4 z M 8 84 l 4 0 l 0 4 l -4 0 l 0 -4 z M 12 84 l 4 0 l 0 4 l -4 0 l 0 -4 z M 28 84 l 4 0 l 0 4 l -4 0 l 0 -4 z M 32 84 l 4 0 l 0 4 l -4 0 l 0 -4 z M 36 84 l 4 0 l 0 4 l -4 0 l 0 -4 z M 48 84 l 4 0 l 0 4 l -4 0 l 0 -4 z M 68 84 l 4 0 l 0 4 l -4 0 l 0 -4 z M 76 84 l 4 0 l 0 4 l -4 0 l 0 -4 z M 80 84 l 4 0 l 0 4 l -4 0 l 0 -4 z M 84 84 l 4 0 l 0 4 l -4 0 l 0 -4 z M 88 84 l 4 0 l 0 4 l -4 0 l 0 -4 z M 96 84 l 4 0 l 0 4 l -4 0 l 0 -4 z M 104 84 l 4 0 l 0 4 l -4 0 l 0 -4 z M 120 84 l 4 0 l 0 4 l -4 0 l 0 -4 z M 124 84 l 4 0 l 0 4 l -4 0 l 0 -4 z M 8 88 l 4 0 l 0 4 l -4 0 l 0 -4 z M 20 88 l 4 0 l 0 4 l -4 0 l 0 -4 z M 24 88 l 4 0 l 0 4 l -4 0 l 0 -4 z M 28 88 l 4 0 l 0 4 l -4 0 l 0 -4 z M 32 88 l 4 0 l 0 4 l -4 0 l 0 -4 z M 40 88 l 4 0 l 0 4 l -4 0 l 0 -4 z M 44 88 l 4 0 l 0 4 l -4 0 l 0 -4 z M 48 88 l 4 0 l 0 4 l -4 0 l 0 -4 z M 52 88 l 4 0 l 0 4 l -4 0 l 0 -4 z M 56 88 l 4 0 l 0 4 l -4 0 l 0 -4 z M 60 88 l 4 0 l 0 4 l -4 0 l 0 -4 z M 72 88 l 4 0 l 0 4 l -4 0 l 0 -4 z M 80 88 l 4 0 l 0 4 l -4 0 l 0 -4 z M 92 88 l 4 0 l 0 4 l -4 0 l 0 -4 z M 96 88 l 4 0 l 0 4 l -4 0 l 0 -4 z M 100 88 l 4 0 l 0 4 l -4 0 l 0 -4 z M 104 88 l 4 0 l 0 4 l -4 0 l 0 -4 z M 112 88 l 4 0 l 0 4 l -4 0 l 0 -4 z M 124 88 l 4 0 l 0 4 l -4 0 l 0 -4 z M 20 92 l 4 0 l 0 4 l -4 0 l 0 -4 z M 32 92 l 4 0 l 0 4 l -4 0 l 0 -4 z M 40 92 l 4 0 l 0 4 l -4 0 l 0 -4 z M 44 92 l 4 0 l 0 4 l -4 0 l 0 -4 z M 52 92 l 4 0 l 0 4 l -4 0 l 0 -4 z M 60 92 l 4 0 l 0 4 l -4 0 l 0 -4 z M 64 92 l 4 0 l 0 4 l -4 0 l 0 -4 z M 88 92 l 4 0 l 0 4 l -4 0 l 0 -4 z M 92 92 l 4 0 l 0 4 l -4 0 l 0 -4 z M 104 92 l 4 0 l 0 4 l -4 0 l 0 -4 z M 108 92 l 4 0 l 0 4 l -4 0 l 0 -4 z M 112 92 l 4 0 l 0 4 l -4 0 l 0 -4 z M 116 92 l 4 0 l 0 4 l -4 0 l 0 -4 z M 0 96 l 4 0 l 0 4 l -4 0 l 0 -4 z M 4 96 l 4 0 l 0 4 l -4 0 l 0 -4 z M 12 96 l 4 0 l 0 4 l -4 0 l 0 -4 z M 16 96 l 4 0 l 0 4 l -4 0 l 0 -4 z M 24 96 l 4 0 l 0 4 l -4 0 l 0 -4 z M 32 96 l 4 0 l 0 4 l -4 0 l 0 -4 z M 36 96 l 4 0 l 0 4 l -4 0 l 0 -4 z M 48 96 l 4 0 l 0 4 l -4 0 l 0 -4 z M 52 96 l 4 0 l 0 4 l -4 0 l 0 -4 z M 76 96 l 4 0 l 0 4 l -4 0 l 0 -4 z M 80 96 l 4 0 l 0 4 l -4 0 l 0 -4 z M 88 96 l 4 0 l 0 4 l -4 0 l 0 -4 z M 96 96 l 4 0 l 0 4 l -4 0 l 0 -4 z M 100 96 l 4 0 l 0 4 l -4 0 l 0 -4 z M 104 96 l 4 0 l 0 4 l -4 0 l 0 -4 z M 108 96 l 4 0 l 0 4 l -4 0 l 0 -4 z M 112 96 l 4 0 l 0 4 l -4 0 l 0 -4 z M 116 96 l 4 0 l 0 4 l -4 0 l 0 -4 z M 120 96 l 4 0 l 0 4 l -4 0 l 0 -4 z M 124 96 l 4 0 l 0 4 l -4 0 l 0 -4 z M 128 96 l 4 0 l 0 4 l -4 0 l 0 -4 z M 32 100 l 4 0 l 0 4 l -4 0 l 0 -4 z M 36 100 l 4 0 l 0 4 l -4 0 l 0 -4 z M 52 100 l 4 0 l 0 4 l -4 0 l 0 -4 z M 56 100 l 4 0 l 0 4 l -4 0 l 0 -4 z M 64 100 l 4 0 l 0 4 l -4 0 l 0 -4 z M 72 100 l 4 0 l 0 4 l -4 0 l 0 -4 z M 76 100 l 4 0 l 0 4 l -4 0 l 0 -4 z M 96 100 l 4 0 l 0 4 l -4 0 l 0 -4 z M 112 100 l 4 0 l 0 4 l -4 0 l 0 -4 z M 116 100 l 4 0 l 0 4 l -4 0 l 0 -4 z M 0 104 l 4 0 l 0 4 l -4 0 l 0 -4 z M 4 104 l 4 0 l 0 4 l -4 0 l 0 -4 z M 8 104 l 4 0 l 0 4 l -4 0 l 0 -4 z M 12 104 l 4 0 l 0 4 l -4 0 l 0 -4 z M 16 104 l 4 0 l 0 4 l -4 0 l 0 -4 z M 20 104 l 4 0 l 0 4 l -4 0 l 0 -4 z M 24 104 l 4 0 l 0 4 l -4 0 l 0 -4 z M 36 104 l 4 0 l 0 4 l -4 0 l 0 -4 z M 40 104 l 4 0 l 0 4 l -4 0 l 0 -4 z M 64 104 l 4 0 l 0 4 l -4 0 l 0 -4 z M 68 104 l 4 0 l 0 4 l -4 0 l 0 -4 z M 76 104 l 4 0 l 0 4 l -4 0 l 0 -4 z M 84 104 l 4 0 l 0 4 l -4 0 l 0 -4 z M 88 104 l 4 0 l 0 4 l -4 0 l 0 -4 z M 92 104 l 4 0 l 0 4 l -4 0 l 0 -4 z M 96 104 l 4 0 l 0 4 l -4 0 l 0 -4 z M 104 104 l 4 0 l 0 4 l -4 0 l 0 -4 z M 112 104 l 4 0 l 0 4 l -4 0 l 0 -4 z M 116 104 l 4 0 l 0 4 l -4 0 l 0 -4 z M 120 104 l 4 0 l 0 4 l -4 0 l 0 -4 z M 124 104 l 4 0 l 0 4 l -4 0 l 0 -4 z M 0 108 l 4 0 l 0 4 l -4 0 l 0 -4 z M 24 108 l 4 0 l 0 4 l -4 0 l 0 -4 z M 32 108 l 4 0 l 0 4 l -4 0 l 0 -4 z M 36 108 l 4 0 l 0 4 l -4 0 l 0 -4 z M 40 108 l 4 0 l 0 4 l -4 0 l 0 -4 z M 48 108 l 4 0 l 0 4 l -4 0 l 0 -4 z M 56 108 l 4 0 l 0 4 l -4 0 l 0 -4 z M 68 108 l 4 0 l 0 4 l -4 0 l 0 -4 z M 72 108 l 4 0 l 0 4 l -4 0 l 0 -4 z M 76 108 l 4 0 l 0 4 l -4 0 l 0 -4 z M 80 108 l 4 0 l 0 4 l -4 0 l 0 -4 z M 84 108 l 4 0 l 0 4 l -4 0 l 0 -4 z M 96 108 l 4 0 l 0 4 l -4 0 l 0 -4 z M 112 108 l 4 0 l 0 4 l -4 0 l 0 -4 z M 120 108 l 4 0 l 0 4 l -4 0 l 0 -4 z M 128 108 l 4 0 l 0 4 l -4 0 l 0 -4 z M 0 112 l 4 0 l 0 4 l -4 0 l 0 -4 z M 8 112 l 4 0 l 0 4 l -4 0 l 0 -4 z M 12 112 l 4 0 l 0 4 l -4 0 l 0 -4 z M 16 112 l 4 0 l 0 4 l -4 0 l 0 -4 z M 24 112 l 4 0 l 0 4 l -4 0 l 0 -4 z M 32 112 l 4 0 l 0 4 l -4 0 l 0 -4 z M 36 112 l 4 0 l 0 4 l -4 0 l 0 -4 z M 44 112 l 4 0 l 0 4 l -4 0 l 0 -4 z M 52 112 l 4 0 l 0 4 l -4 0 l 0 -4 z M 56 112 l 4 0 l 0 4 l -4 0 l 0 -4 z M 60 112 l 4 0 l 0 4 l -4 0 l 0 -4 z M 64 112 l 4 0 l 0 4 l -4 0 l 0 -4 z M 72 112 l 4 0 l 0 4 l -4 0 l 0 -4 z M 92 112 l 4 0 l 0 4 l -4 0 l 0 -4 z M 96 112 l 4 0 l 0 4 l -4 0 l 0 -4 z M 100 112 l 4 0 l 0 4 l -4 0 l 0 -4 z M 104 112 l 4 0 l 0 4 l -4 0 l 0 -4 z M 108 112 l 4 0 l 0 4 l -4 0 l 0 -4 z M 112 112 l 4 0 l 0 4 l -4 0 l 0 -4 z M 120 112 l 4 0 l 0 4 l -4 0 l 0 -4 z M 128 112 l 4 0 l 0 4 l -4 0 l 0 -4 z M 0 116 l 4 0 l 0 4 l -4 0 l 0 -4 z M 8 116 l 4 0 l 0 4 l -4 0 l 0 -4 z M 12 116 l 4 0 l 0 4 l -4 0 l 0 -4 z M 16 116 l 4 0 l 0 4 l -4 0 l 0 -4 z M 24 116 l 4 0 l 0 4 l -4 0 l 0 -4 z M 40 116 l 4 0 l 0 4 l -4 0 l 0 -4 z M 48 116 l 4 0 l 0 4 l -4 0 l 0 -4 z M 68 116 l 4 0 l 0 4 l -4 0 l 0 -4 z M 76 116 l 4 0 l 0 4 l -4 0 l 0 -4 z M 80 116 l 4 0 l 0 4 l -4 0 l 0 -4 z M 84 116 l 4 0 l 0 4 l -4 0 l 0 -4 z M 88 116 l 4 0 l 0 4 l -4 0 l 0 -4 z M 120 116 l 4 0 l 0 4 l -4 0 l 0 -4 z M 124 116 l 4 0 l 0 4 l -4 0 l 0 -4 z M 128 116 l 4 0 l 0 4 l -4 0 l 0 -4 z M 0 120 l 4 0 l 0 4 l -4 0 l 0 -4 z M 8 120 l 4 0 l 0 4 l -4 0 l 0 -4 z M 12 120 l 4 0 l 0 4 l -4 0 l 0 -4 z M 16 120 l 4 0 l 0 4 l -4 0 l 0 -4 z M 24 120 l 4 0 l 0 4 l -4 0 l 0 -4 z M 36 120 l 4 0 l 0 4 l -4 0 l 0 -4 z M 44 120 l 4 0 l 0 4 l -4 0 l 0 -4 z M 48 120 l 4 0 l 0 4 l -4 0 l 0 -4 z M 52 120 l 4 0 l 0 4 l -4 0 l 0 -4 z M 56 120 l 4 0 l 0 4 l -4 0 l 0 -4 z M 60 120 l 4 0 l 0 4 l -4 0 l 0 -4 z M 72 120 l 4 0 l 0 4 l -4 0 l 0 -4 z M 80 120 l 4 0 l 0 4 l -4 0 l 0 -4 z M 96 120 l 4 0 l 0 4 l -4 0 l 0 -4 z M 0 124 l 4 0 l 0 4 l -4 0 l 0 -4 z M 24 124 l 4 0 l 0 4 l -4 0 l 0 -4 z M 32 124 l 4 0 l 0 4 l -4 0 l 0 -4 z M 44 124 l 4 0 l 0 4 l -4 0 l 0 -4 z M 52 124 l 4 0 l 0 4 l -4 0 l 0 -4 z M 60 124 l 4 0 l 0 4 l -4 0 l 0 -4 z M 64 124 l 4 0 l 0 4 l -4 0 l 0 -4 z M 88 124 l 4 0 l 0 4 l -4 0 l 0 -4 z M 108 124 l 4 0 l 0 4 l -4 0 l 0 -4 z M 116 124 l 4 0 l 0 4 l -4 0 l 0 -4 z M 0 128 l 4 0 l 0 4 l -4 0 l 0 -4 z M 4 128 l 4 0 l 0 4 l -4 0 l 0 -4 z M 8 128 l 4 0 l 0 4 l -4 0 l 0 -4 z M 12 128 l 4 0 l 0 4 l -4 0 l 0 -4 z M 16 128 l 4 0 l 0 4 l -4 0 l 0 -4 z M 20 128 l 4 0 l 0 4 l -4 0 l 0 -4 z M 24 128 l 4 0 l 0 4 l -4 0 l 0 -4 z M 32 128 l 4 0 l 0 4 l -4 0 l 0 -4 z M 48 128 l 4 0 l 0 4 l -4 0 l 0 -4 z M 52 128 l 4 0 l 0 4 l -4 0 l 0 -4 z M 76 128 l 4 0 l 0 4 l -4 0 l 0 -4 z M 80 128 l 4 0 l 0 4 l -4 0 l 0 -4 z M 88 128 l 4 0 l 0 4 l -4 0 l 0 -4 z M 96 128 l 4 0 l 0 4 l -4 0 l 0 -4 z M 104 128 l 4 0 l 0 4 l -4 0 l 0 -4 z M 108 128 l 4 0 l 0 4 l -4 0 l 0 -4 z M 112 128 l 4 0 l 0 4 l -4 0 l 0 -4 z M 116 128 l 4 0 l 0 4 l -4 0 l 0 -4 z M 120 128 l 4 0 l 0 4 l -4 0 l 0 -4 z M 128 128 l 4 0 l 0 4 l -4 0 l 0 -4 z" style="stroke: rgb(255,255,255); stroke-opacity: 0; stroke-width: 1; stroke-dasharray: none; stroke-linecap: butt; stroke-linejoin: miter; stroke-miterlimit: 4; fill: rgb(0,0,0); fill-rule: nonzero; opacity: 1;" transform="translate(808.5 808.5) translate(-66, -66) " stroke-linecap="round" />
<path d="M 0 0 l 4 0 l 0 4 l -4 0 l 0 -4 z M 4 0 l 4 0 l 0 4 l -4 0 l 0 -4 z M 8 0 l 4 0 l 0 4 l -4 0 l 0 -4 z M 12 0 l 4 0 l 0 4 l -4 0 l 0 -4 z M 16 0 l 4 0 l 0 4 l -4 0 l 0 -4 z M 20 0 l 4 0 l 0 4 l -4 0 l 0 -4 z M 24 0 l 4 0 l 0 4 l -4 0 l 0 -4 z M 32 0 l 4 0 l 0 4 l -4 0 l 0 -4 z M 52 0 l 4 0 l 0 4 l -4 0 l 0 -4 z M 56 0 l 4 0 l 0 4 l -4 0 l 0 -4 z M 64 0 l 4 0 l 0 4 l -4 0 l 0 -4 z M 72 0 l 4 0 l 0 4 l -4 0 l 0 -4 z M 76 0 l 4 0 l 0 4 l -4 0 l 0 -4 z M 104 0 l 4 0 l 0 4 l -4 0 l 0 -4 z M 108 0 l 4 0 l 0 4 l -4 0 l 0 -4 z M 112 0 l 4 0 l 0 4 l -4 0 l 0 -4 z M 116 0 l 4 0 l 0 4 l -4 0 l 0 -4 z M 120 0 l 4 0 l 0 4 l -4 0 l 0 -4 z M 124 0 l 4 0 l 0 4 l -4 0 l 0 -4 z M 128 0 l 4 0 l 0 4 l -4 0 l 0 -4 z M 0 4 l 4 0 l 0 4 l -4 0 l 0 -4 z M 24 4 l 4 0 l 0 4 l -4 0 l 0 -4 z M 32 4 l 4 0 l 0 4 l -4 0 l 0 -4 z M 44 4 l 4 0 l 0 4 l -4 0 l 0 -4 z M 48 4 l 4 0 l 0 4 l -4 0 l 0 -4 z M 52 4 l 4 0 l 0 4 l -4 0 l 0 -4 z M 56 4 l 4 0 l 0 4 l -4 0 l 0 -4 z M 60 4 l 4 0 l 0 4 l -4 0 l 0 -4 z M 72 4 l 4 0 l 0 4 l -4 0 l 0 -4 z M 80 4 l 4 0 l 0 4 l -4 0 l 0 -4 z M 92 4 l 4 0 l 0 4 l -4 0 l 0 -4 z M 96 4 l 4 0 l 0 4 l -4 0 l 0 -4 z M 104 4 l 4 0 l 0 4 l -4 0 l 0 -4 z M 128 4 l 4 0 l 0 4 l -4 0 l 0 -4 z M 0 8 l 4 0 l 0 4 l -4 0 l 0 -4 z M 8 8 l 4 0 l 0 4 l -4 0 l 0 -4 z M 12 8 l 4 0 l 0 4 l -4 0 l 0 -4 z M 16 8 l 4 0 l 0 4 l -4 0 l 0 -4 z M 24 8 l 4 0 l 0 4 l -4 0 l 0 -4 z M 32 8 l 4 0 l 0 4 l -4 0 l 0 -4 z M 36 8 l 4 0 l 0 4 l -4 0 l 0 -4 z M 48 8 l 4 0 l 0 4 l -4 0 l 0 -4 z M 56 8 l 4 0 l 0 4 l -4 0 l 0 -4 z M 68 8 l 4 0 l 0 4 l -4 0 l 0 -4 z M 72 8 l 4 0 l 0 4 l -4 0 l 0 -4 z M 76 8 l 4 0 l 0 4 l -4 0 l 0 -4 z M 80 8 l 4 0 l 0 4 l -4 0 l 0 -4 z M 84 8 l 4 0 l 0 4 l -4 0 l 0 -4 z M 96 8 l 4 0 l 0 4 l -4 0 l 0 -4 z M 104 8 l 4 0 l 0 4 l -4 0 l 0 -4 z M 112 8 l 4 0 l 0 4 l -4 0 l 0 -4 z M 116 8 l 4 0 l 0 4 l -4 0 l 0 -4 z M 120 8 l 4 0 l 0 4 l -4 0 l 0 -4 z M 128 8 l 4 0 l 0 4 l -4 0 l 0 -4 z M 0 12 l 4 0 l 0 4 l -4 0 l 0 -4 z M 8 12 l 4 0 l 0 4 l -4 0 l 0 -4 z M 12 12 l 4 0 l 0 4 l -4 0 l 0 -4 z M 16 12 l 4 0 l 0 4 l -4 0 l 0 -4 z M 24 12 l 4 0 l 0 4 l -4 0 l 0 -4 z M 32 12 l 4 0 l 0 4 l -4 0 l 0 -4 z M 36 12 l 4 0 l 0 4 l -4 0 l 0 -4 z M 40 12 l 4 0 l 0 4 l -4 0 l 0 -4 z M 48 12 l 4 0 l 0 4 l -4 0 l 0 -4 z M 68 12 l 4 0 l 0 4 l -4 0 l 0 -4 z M 76 12 l 4 0 l 0 4 l -4 0 l 0 -4 z M 80 12 l 4 0 l 0 4 l -4 0 l 0 -4 z M 84 12 l 4 0 l 0 4 l -4 0 l 0 -4 z M 88 12 l 4 0 l 0 4 l -4 0 l 0 -4 z M 96 12 l 4 0 l 0 4 l -4 0 l 0 -4 z M 104 12 l 4 0 l 0 4 l -4 0 l 0 -4 z M 112 12 l 4 0 l 0 4 l -4 0 l 0 -4 z M 116 12 l 4 0 l 0 4 l -4 0 l 0 -4 z M 120 12 l 4 0 l 0 4 l -4 0 l 0 -4 z M 128 12 l 4 0 l 0 4 l -4 0 l 0 -4 z M 0 16 l 4 0 l 0 4 l -4 0 l 0 -4 z M 8 16 l 4 0 l 0 4 l -4 0 l 0 -4 z M 12 16 l 4 0 l 0 4 l -4 0 l 0 -4 z M 16 16 l 4 0 l 0 4 l -4 0 l 0 -4 z M 24 16 l 4 0 l 0 4 l -4 0 l 0 -4 z M 36 16 l 4 0 l 0 4 l -4 0 l 0 -4 z M 40 16 l 4 0 l 0 4 l -4 0 l 0 -4 z M 48 16 l 4 0 l 0 4 l -4 0 l 0 -4 z M 68 16 l 4 0 l 0 4 l -4 0 l 0 -4 z M 76 16 l 4 0 l 0 4 l -4 0 l 0 -4 z M 80 16 l 4 0 l 0 4 l -4 0 l 0 -4 z M 84 16 l 4 0 l 0 4 l -4 0 l 0 -4 z M 88 16 l 4 0 l 0 4 l -4 0 l 0 -4 z M 96 16 l 4 0 l 0 4 l -4 0 l 0 -4 z M 104 16 l 4 0 l 0 4 l -4 0 l 0 -4 z M 112 16 l 4 0 l 0 4 l -4 0 l 0 -4 z M 116 16 l 4 0 l 0 4 l -4 0 l 0 -4 z M 120 16 l 4 0 l 0 4 l -4 0 l 0 -4 z M 128 16 l 4 0 l 0 4 l -4 0 l 0 -4 z M 0 20 l 4 0 l 0 4 l -4 0 l 0 -4 z M 24 20 l 4 0 l 0 4 l -4 0 l 0 -4 z M 32 20 l 4 0 l 0 4 l -4 0 l 0 -4 z M 36 20 l 4 0 l 0 4 l -4 0 l 0 -4 z M 40 20 l 4 0 l 0 4 l -4 0 l 0 -4 z M 64 20 l 4 0 l 0 4 l -4 0 l 0 -4 z M 68 20 l 4 0 l 0 4 l -4 0 l 0 -4 z M 76 20 l 4 0 l 0 4 l -4 0 l 0 -4 z M 84 20 l 4 0 l 0 4 l -4 0 l 0 -4 z M 88 20 l 4 0 l 0 4 l -4 0 l 0 -4 z M 104 20 l 4 0 l 0 4 l -4 0 l 0 -4 z M 128 20 l 4 0 l 0 4 l -4 0 l 0 -4 z M 0 24 l 4 0 l 0 4 l -4 0 l 0 -4 z M 4 24 l 4 0 l 0 4 l -4 0 l 0 -4 z M 8 24 l 4 0 l 0 4 l -4 0 l 0 -4 z M 12 24 l 4 0 l 0 4 l -4 0 l 0 -4 z M 16 24 l 4 0 l 0 4 l -4 0 l 0 -4 z M 20 24 l 4 0 l 0 4 l -4 0 l 0 -4 z M 24 24 l 4 0 l 0 4 l -4 0 l 0 -4 z M 32 24 l 4 0 l 0 4 l -4 0 l 0 -4 z M 40 24 l 4 0 l 0 4 l -4 0 l 0 -4 z M 48 24 l 4 0 l 0 4 l -4 0 l 0 -4 z M 56 24 l 4 0 l 0 4 l -4 0 l 0 -4 z M 64 24 l 4 0 l 0 4 l -4 0 l 0 -4 z M 72 24 l 4 0 l 0 4 l -4 0 l 0 -4 z M 80 24 l 4 0 l 0 4 l -4 0 l 0 -4 z M 88 24 l 4 0 l 0 4 l -4 0 l 0 -4 z M 96 24 l 4 0 l 0 4 l -4 0 l 0 -4 z M 104 24 l 4 0 l 0 4 l -4 0 l 0 -4 z M 108 24 l 4 0 l 0 4 l -4 0 l 0 -4 z M 112 24 l 4 0 l 0 4 l -4 0 l 0 -4 z M 116 24 l 4 0 l 0 4 l -4 0 l 0 -4 z M 120 24 l 4 0 l 0 4 l -4 0 l 0 -4 z M 124 24 l 4 0 l 0 4 l -4 0 l 0 -4 z M 128 24 l 4 0 l 0 4 l -4 0 l 0 -4 z M 40 28 l 4 0 l 0 4 l -4 0 l 0 -4 z M 44 28 l 4 0 l 0 4 l -4 0 l 0 -4 z M 52 28 l 4 0 l 0 4 l -4 0 l 0 -4 z M 60 28 l 4 0 l 0 4 l -4 0 l 0 -4 z M 64 28 l 4 0 l 0 4 l -4 0 l 0 -4 z M 88 28 l 4 0 l 0 4 l -4 0 l 0 -4 z M 92 28 l 4 0 l 0 4 l -4 0 l 0 -4 z M 0 32 l 4 0 l 0 4 l -4 0 l 0 -4 z M 4 32 l 4 0 l 0 4 l -4 0 l 0 -4 z M 16 32 l 4 0 l 0 4 l -4 0 l 0 -4 z M 20 32 l 4 0 l 0 4 l -4 0 l 0 -4 z M 24 32 l 4 0 l 0 4 l -4 0 l 0 -4 z M 40 32 l 4 0 l 0 4 l -4 0 l 0 -4 z M 48 32 l 4 0 l 0 4 l -4 0 l 0 -4 z M 52 32 l 4 0 l 0 4 l -4 0 l 0 -4 z M 76 32 l 4 0 l 0 4 l -4 0 l 0 -4 z M 80 32 l 4 0 l 0 4 l -4 0 l 0 -4 z M 88 32 l 4 0 l 0 4 l -4 0 l 0 -4 z M 96 32 l 4 0 l 0 4 l -4 0 l 0 -4 z M 108 32 l 4 0 l 0 4 l -4 0 l 0 -4 z M 116 32 l 4 0 l 0 4 l -4 0 l 0 -4 z M 120 32 l 4 0 l 0 4 l -4 0 l 0 -4 z M 124 32 l 4 0 l 0 4 l -4 0 l 0 -4 z M 128 32 l 4 0 l 0 4 l -4 0 l 0 -4 z M 4 36 l 4 0 l 0 4 l -4 0 l 0 -4 z M 8 36 l 4 0 l 0 4 l -4 0 l 0 -4 z M 28 36 l 4 0 l 0 4 l -4 0 l 0 -4 z M 52 36 l 4 0 l 0 4 l -4 0 l 0 -4 z M 56 36 l 4 0 l 0 4 l -4 0 l 0 -4 z M 64 36 l 4 0 l 0 4 l -4 0 l 0 -4 z M 72 36 l 4 0 l 0 4 l -4 0 l 0 -4 z M 76 36 l 4 0 l 0 4 l -4 0 l 0 -4 z M 100 36 l 4 0 l 0 4 l -4 0 l 0 -4 z M 104 36 l 4 0 l 0 4 l -4 0 l 0 -4 z M 108 36 l 4 0 l 0 4 l -4 0 l 0 -4 z M 112 36 l 4 0 l 0 4 l -4 0 l 0 -4 z M 116 36 l 4 0 l 0 4 l -4 0 l 0 -4 z M 120 36 l 4 0 l 0 4 l -4 0 l 0 -4 z M 124 36 l 4 0 l 0 4 l -4 0 l 0 -4 z M 0 40 l 4 0 l 0 4 l -4 0 l 0 -4 z M 8 40 l 4 0 l 0 4 l -4 0 l 0 -4 z M 12 40 l 4 0 l 0 4 l -4 0 l 0 -4 z M 20 40 l 4 0 l 0 4 l -4 0 l 0 -4 z M 24 40 l 4 0 l 0 4 l -4 0 l 0 -4 z M 28 40 l 4 0 l 0 4 l -4 0 l 0 -4 z M 36 40 l 4 0 l 0 4 l -4 0 l 0 -4 z M 40 40 l 4 0 l 0 4 l -4 0 l 0 -4 z M 64 40 l 4 0 l 0 4 l -4 0 l 0 -4 z M 68 40 l 4 0 l 0 4 l -4 0 l 0 -4 z M 76 40 l 4 0 l 0 4 l -4 0 l 0 -4 z M 84 40 l 4 0 l 0 4 l -4 0 l 0 -4 z M 88 40 l 4 0 l 0 4 l -4 0 l 0 -4 z M 108 40 l 4 0 l 0 4 l -4 0 l 0 -4 z M 124 40 l 4 0 l 0 4 l -4 0 l 0 -4 z M 0 44 l 4 0 l 0 4 l -4 0 l 0 -4 z M 12 44 l 4 0 l 0 4 l -4 0 l 0 -4 z M 16 44 l 4 0 l 0 4 l -4 0 l 0 -4 z M 36 44 l 4 0 l 0 4 l -4 0 l 0 -4 z M 48 44 l 4 0 l 0 4 l -4 0 l 0 -4 z M 56 44 l 4 0 l 0 4 l -4 0 l 0 -4 z M 68 44 l 4 0 l 0 4 l -4 0 l 0 -4 z M 72 44 l 4 0 l 0 4 l -4 0 l 0 -4 z M 76 44 l 4 0 l 0 4 l -4 0 l 0 -4 z M 80 44 l 4 0 l 0 4 l -4 0 l 0 -4 z M 84 44 l 4 0 l 0 4 l -4 0 l 0 -4 z M 96 44 l 4 0 l 0 4 l -4 0 l 0 -4 z M 100 44 l 4 0 l 0 4 l -4 0 l 0 -4 z M 128 44 l 4 0 l 0 4 l -4 0 l 0 -4 z M 0 48 l 4 0 l 0 4 l -4 0 l 0 -4 z M 4 48 l 4 0 l 0 4 l -4 0 l 0 -4 z M 24 48 l 4 0 l 0 4 l -4 0 l 0 -4 z M 32 48 l 4 0 l 0 4 l -4 0 l 0 -4 z M 44 48 l 4 0 l 0 4 l -4 0 l 0 -4 z M 52 48 l 4 0 l 0 4 l -4 0 l 0 -4 z M 56 48 l 4 0 l 0 4 l -4 0 l 0 -4 z M 60 48 l 4 0 l 0 4 l -4 0 l 0 -4 z M 64 48 l 4 0 l 0 4 l -4 0 l 0 -4 z M 72 48 l 4 0 l 0 4 l -4 0 l 0 -4 z M 92 48 l 4 0 l 0 4 l -4 0 l 0 -4 z M 100 48 l 4 0 l 0 4 l -4 0 l 0 -4 z M 104 48 l 4 0 l 0 4 l -4 0 l 0 -4 z M 108 48 l 4 0 l 0 4 l -4 0 l 0 -4 z M 116 48 l 4 0 l 0 4 l -4 0 l 0 -4 z M 0 52 l 4 0 l 0 4 l -4 0 l 0 -4 z M 4 52 l 4 0 l 0 4 l -4 0 l 0 -4 z M 12 52 l 4 0 l 0 4 l -4 0 l 0 -4 z M 16 52 l 4 0 l 0 4 l -4 0 l 0 -4 z M 28 52 l 4 0 l 0 4 l -4 0 l 0 -4 z M 32 52 l 4 0 l 0 4 l -4 0 l 0 -4 z M 36 52 l 4 0 l 0 4 l -4 0 l 0 -4 z M 40 52 l 4 0 l 0 4 l -4 0 l 0 -4 z M 48 52 l 4 0 l 0 4 l -4 0 l 0 -4 z M 68 52 l 4 0 l 0 4 l -4 0 l 0 -4 z M 76 52 l 4 0 l 0 4 l -4 0 l 0 -4 z M 80 52 l 4 0 l 0 4 l -4 0 l 0 -4 z M 84 52 l 4 0 l 0 4 l -4 0 l 0 -4 z M 88 52 l 4 0 l 0 4 l -4 0 l 0 -4 z M 96 52 l 4 0 l 0 4 l -4 0 l 0 -4 z M 104 52 l 4 0 l 0 4 l -4 0 l 0 -4 z M 116 52 l 4 0 l 0 4 l -4 0 l 0 -4 z M 120 52 l 4 0 l 0 4 l -4 0 l 0 -4 z M 124 52 l 4 0 l 0 4 l -4 0 l 0 -4 z M 0 56 l 4 0 l 0 4 l -4 0 l 0 -4 z M 12 56 l 4 0 l 0 4 l -4 0 l 0 -4 z M 24 56 l 4 0 l 0 4 l -4 0 l 0 -4 z M 28 56 l 4 0 l 0 4 l -4 0 l 0 -4 z M 40 56 l 4 0 l 0 4 l -4 0 l 0 -4 z M 44 56 l 4 0 l 0 4 l -4 0 l 0 -4 z M 48 56 l 4 0 l 0 4 l -4 0 l 0 -4 z M 52 56 l 4 0 l 0 4 l -4 0 l 0 -4 z M 56 56 l 4 0 l 0 4 l -4 0 l 0 -4 z M 60 56 l 4 0 l 0 4 l -4 0 l 0 -4 z M 72 56 l 4 0 l 0 4 l -4 0 l 0 -4 z M 80 56 l 4 0 l 0 4 l -4 0 l 0 -4 z M 92 56 l 4 0 l 0 4 l -4 0 l 0 -4 z M 96 56 l 4 0 l 0 4 l -4 0 l 0 -4 z M 100 56 l 4 0 l 0 4 l -4 0 l 0 -4 z M 104 56 l 4 0 l 0 4 l -4 0 l 0 -4 z M 112 56 l 4 0 l 0 4 l -4 0 l 0 -4 z M 116 56 l 4 0 l 0 4 l -4 0 l 0 -4 z M 124 56 l 4 0 l 0 4 l -4 0 l 0 -4 z M 12 60 l 4 0 l 0 4 l -4 0 l 0 -4 z M 20 60 l 4 0 l 0 4 l -4 0 l 0 -4 z M 44 60 l 4 0 l 0 4 l -4 0 l 0 -4 z M 52 60 l 4 0 l 0 4 l -4 0 l 0 -4 z M 60 60 l 4 0 l 0 4 l -4 0 l 0 -4 z M 64 60 l 4 0 l 0 4 l -4 0 l 0 -4 z M 88 60 l 4 0 l 0 4 l -4 0 l 0 -4 z M 92 60 l 4 0 l 0 4 l -4 0 l 0 -4 z M 104 60 l 4 0 l 0 4 l -4 0 l 0 -4 z M 108 60 l 4 0 l 0 4 l -4 0 l 0 -4 z M 112 60 l 4 0 l 0 4 l -4 0 l 0 -4 z M 116 60 l 4 0 l 0 4 l -4 0 l 0 -4 z M 124 60 l 4 0 l 0 4 l -4 0 l 0 -4 z M 4 64 l 4 0 l 0 4 l -4 0 l 0 -4 z M 8 64 l 4 0 l 0 4 l -4 0 l 0 -4 z M 12 64 l 4 0 l 0 4 l -4 0 l 0 -4 z M 24 64 l 4 0 l 0 4 l -4 0 l 0 -4 z M 32 64 l 4 0 l 0 4 l -4 0 l 0 -4 z M 36 64 l 4 0 l 0 4 l -4 0 l 0 -4 z M 48 64 l 4 0 l 0 4 l -4 0 l 0 -4 z M 52 64 l 4 0 l 0 4 l -4 0 l 0 -4 z M 76 64 l 4 0 l 0 4 l -4 0 l 0 -4 z M 80 64 l 4 0 l 0 4 l -4 0 l 0 -4 z M 88 64 l 4 0 l 0 4 l -4 0 l 0 -4 z M 96 64 l 4 0 l 0 4 l -4 0 l 0 -4 z M 120 64 l 4 0 l 0 4 l -4 0 l 0 -4 z M 124 64 l 4 0 l 0 4 l -4 0 l 0 -4 z M 128 64 l 4 0 l 0 4 l -4 0 l 0 -4 z M 0 68 l 4 0 l 0 4 l -4 0 l 0 -4 z M 4 68 l 4 0 l 0 4 l -4 0 l 0 -4 z M 8 68 l 4 0 l 0 4 l -4 0 l 0 -4 z M 20 68 l 4 0 l 0 4 l -4 0 l 0 -4 z M 40 68 l 4 0 l 0 4 l -4 0 l 0 -4 z M 52 68 l 4 0 l 0 4 l -4 0 l 0 -4 z M 56 68 l 4 0 l 0 4 l -4 0 l 0 -4 z M 64 68 l 4 0 l 0 4 l -4 0 l 0 -4 z M 72 68 l 4 0 l 0 4 l -4 0 l 0 -4 z M 76 68 l 4 0 l 0 4 l -4 0 l 0 -4 z M 100 68 l 4 0 l 0 4 l -4 0 l 0 -4 z M 104 68 l 4 0 l 0 4 l -4 0 l 0 -4 z M 108 68 l 4 0 l 0 4 l -4 0 l 0 -4 z M 112 68 l 4 0 l 0 4 l -4 0 l 0 -4 z M 116 68 l 4 0 l 0 4 l -4 0 l 0 -4 z M 124 68 l 4 0 l 0 4 l -4 0 l 0 -4 z M 4 72 l 4 0 l 0 4 l -4 0 l 0 -4 z M 12 72 l 4 0 l 0 4 l -4 0 l 0 -4 z M 24 72 l 4 0 l 0 4 l -4 0 l 0 -4 z M 36 72 l 4 0 l 0 4 l -4 0 l 0 -4 z M 40 72 l 4 0 l 0 4 l -4 0 l 0 -4 z M 64 72 l 4 0 l 0 4 l -4 0 l 0 -4 z M 68 72 l 4 0 l 0 4 l -4 0 l 0 -4 z M 76 72 l 4 0 l 0 4 l -4 0 l 0 -4 z M 84 72 l 4 0 l 0 4 l -4 0 l 0 -4 z M 88 72 l 4 0 l 0 4 l -4 0 l 0 -4 z M 108 72 l 4 0 l 0 4 l -4 0 l 0 -4 z M 116 72 l 4 0 l 0 4 l -4 0 l 0 -4 z M 120 72 l 4 0 l 0 4 l -4 0 l 0 -4 z M 124 72 l 4 0 l 0 4 l -4 0 l 0 -4 z M 4 76 l 4 0 l 0 4 l -4 0 l 0 -4 z M 32 76 l 4 0 l 0 4 l -4 0 l 0 -4 z M 36 76 l 4 0 l 0 4 l -4 0 l 0 -4 z M 48 76 l 4 0 l 0 4 l -4 0 l 0 -4 z M 56 76 l 4 0 l 0 4 l -4 0 l 0 -4 z M 68 76 l 4 0 l 0 4 l -4 0 l 0 -4 z M 72 76 l 4 0 l 0 4 l -4 0 l 0 -4 z M 76 76 l 4 0 l 0 4 l -4 0 l 0 -4 z M 80 76 l 4 0 l 0 4 l -4 0 l 0 -4 z M 84 76 l 4 0 l 0 4 l -4 0 l 0 -4 z M 96 76 l 4 0 l 0 4 l -4 0 l 0 -4 z M 100 76 l 4 0 l 0 4 l -4 0 l 0 -4 z M 120 76 l 4 0 l 0 4 l -4 0 l 0 -4 z M 4 80 l 4 0 l 0 4 l -4 0 l 0 -4 z M 24 80 l 4 0 l 0 4 l -4 0 l 0 -4 z M 32 80 l 4 0 l 0 4 l -4 0 l 0 -4 z M 44 80 l 4 0 l 0 4 l -4 0 l 0 -4 z M 52 80 l 4 0 l 0 4 l -4 0 l 0 -4 z M 56 80 l 4 0 l 0 4 l -4 0 l 0 -4 z M 60 80 l 4 0 l 0 4 l -4 0 l 0 -4 z M 64 80 l 4 0 l 0 4 l -4 0 l 0 -4 z M 72 80 l 4 0 l 0 4 l -4 0 l 0 -4 z M 92 80 l 4 0 l 0 4 l -4 0 l 0 -4 z M 100 80 l 4 0 l 0 4 l -4 0 l 0 -4 z M 104 80 l 4 0 l 0 4 l -4 0 l 0 -4 z M 108 80 l 4 0 l 0 4 l -4 0 l 0 -4 z M 120 80 l 4 0 l 0 4 l -4 0 l 0 -4 z M 0 84 l 4 0 l 0 4 l -4 0 l 0 -4 z M 8 84 l 4 0 l 0 4 l -4 0 l 0 -4 z M 12 84 l 4 0 l 0 4 l -4 0 l 0 -4 z M 28 84 l 4 0 l 0 4 l -4 0 l 0 -4 z M 32 84 l 4 0 l 0 4 l -4 0 l 0 -4 z M 36 84 l 4 0 l 0 4 l -4 0 l 0 -4 z M 48 84 l 4 0 l 0 4 l -4 0 l 0 -4 z M 68 84 l 4 0 l 0 4 l -4 0 l 0 -4 z M 76 84 l 4 0 l 0 4 l -4 0 l 0 -4 z M 80 84 l 4 0 l 0 4 l -4 0 l 0 -4 z M 84 84 l 4 0 l 0 4 l -4 0 l 0 -4 z M 88 84 l 4 0 l 0 4 l -4 0 l 0 -4 z M 96 84 l 4 0 l 0 4 l -4 0 l 0 -4 z M 104 84 l 4 0 l 0 4 l -4 0 l 0 -4 z M 120 84 l 4 0 l 0 4 l -4 0 l 0 -4 z M 124 84 l 4 0 l 0 4 l -4 0 l 0 -4 z M 8 88 l 4 0 l 0 4 l -4 0 l 0 -4 z M 20 88 l 4 0 l 0 4 l -4 0 l 0 -4 z M 24 88 l 4 0 l 0 4 l -4 0 l 0 -4 z M 28 88 l 4 0 l 0 4 l -4 0 l 0 -4 z M 32 88 l 4 0 l 0 4 l -4 0 l 0 -4 z M 40 88 l 4 0 l 0 4 l -4 0 l 0 -4 z M 44 88 l 4 0 l 0 4 l -4 0 l 0 -4 z M 48 88 l 4 0 l 0 4 l -4 0 l 0 -4 z M 52 88 l 4 0 l 0 4 l -4 0 l 0 -4 z M 56 88 l 4 0 l 0 4 l -4 0 l 0 -4 z M 60 88 l 4 0 l 0 4 l -4 0 l 0 -4 z M 72 88 l 4 0 l 0 4 l -4 0 l 0 -4 z M 80 88 l 4 0 l 0 4 l -4 0 l 0 -4 z M 92 88 l 4 0 l 0 4 l -4 0 l 0 -4 z M 96 88 l 4 0 l 0 4 l -4 0 l 0 -4 z M 100 88 l 4 0 l 0 4 l -4 0 l 0 -4 z M 104 88 l 4 0 l 0 4 l -4 0 l 0 -4 z M 112 88 l 4 0 l 0 4 l -4 0 l 0 -4 z M 124 88 l 4 0 l 0 4 l -4 0 l 0 -4 z M 20 92 l 4 0 l 0 4 l -4 0 l 0 -4 z M 32 92 l 4 0 l 0 4 l -4 0 l 0 -4 z M 40 92 l 4 0 l 0 4 l -4 0 l 0 -4 z M 44 92 l 4 0 l 0 4 l -4 0 l 0 -4 z M 52 92 l 4 0 l 0 4 l -4 0 l 0 -4 z M 60 92 l 4 0 l 0 4 l -4 0 l 0 -4 z M 64 92 l 4 0 l 0 4 l -4 0 l 0 -4 z M 88 92 l 4 0 l 0 4 l -4 0 l 0 -4 z M 92 92 l 4 0 l 0 4 l -4 0 l 0 -4 z M 104 92 l 4 0 l 0 4 l -4 0 l 0 -4 z M 108 92 l 4 0 l 0 4 l -4 0 l 0 -4 z M 112 92 l 4 0 l 0 4 l -4 0 l 0 -4 z M 116 92 l 4 0 l 0 4 l -4 0 l 0 -4 z M 0 96 l 4 0 l 0 4 l -4 0 l 0 -4 z M 4 96 l 4 0 l 0 4 l -4 0 l 0 -4 z M 12 96 l 4 0 l 0 4 l -4 0 l 0 -4 z M 16 96 l 4 0 l 0 4 l -4 0 l 0 -4 z M 24 96 l 4 0 l 0 4 l -4 0 l 0 -4 z M 32 96 l 4 0 l 0 4 l -4 0 l 0 -4 z M 36 96 l 4 0 l 0 4 l -4 0 l 0 -4 z M 48 96 l 4 0 l 0 4 l -4 0 l 0 -4 z M 52 96 l 4 0 l 0 4 l -4 0 l 0 -4 z M 76 96 l 4 0 l 0 4 l -4 0 l 0 -4 z M 80 96 l 4 0 l 0 4 l -4 0 l 0 -4 z M 88 96 l 4 0 l 0 4 l -4 0 l 0 -4 z M 96 96 l 4 0 l 0 4 l -4 0 l 0 -4 z M 100 96 l 4 0 l 0 4 l -4 0 l 0 -4 z M 104 96 l 4 0 l 0 4 l -4 0 l 0 -4 z M 108 96 l 4 0 l 0 4 l -4 0 l 0 -4 z M 112 96 l 4 0 l 0 4 l -4 0 l 0 -4 z M 116 96 l 4 0 l 0 4 l -4 0 l 0 -4 z M 120 96 l 4 0 l 0 4 l -4 0 l 0 -4 z M 124 96 l 4 0 l 0 4 l -4 0 l 0 -4 z M 128 96 l 4 0 l 0 4 l -4 0 l 0 -4 z M 32 100 l 4 0 l 0 4 l -4 0 l 0 -4 z M 36 100 l 4 0 l 0 4 l -4 0 l 0 -4 z M 52 100 l 4 0 l 0 4 l -4 0 l 0 -4 z M 56 100 l 4 0 l 0 4 l -4 0 l 0 -4 z M 64 100 l 4 0 l 0 4 l -4 0 l 0 -4 z M 72 100 l 4 0 l 0 4 l -4 0 l 0 -4 z M 76 100 l 4 0 l 0 4 l -4 0 l 0 -4 z M 96 100 l 4 0 l 0 4 l -4 0 l 0 -4 z M 112 100 l 4 0 l 0 4 l -4 0 l 0 -4 z M 116 100 l 4 0 l 0 4 l -4 0 l 0 -4 z M 0 104 l 4 0 l 0 4 l -4 0 l 0 -4 z M 4 104 l 4 0 l 0 4 l -4 0 l 0 -4 z M 8 104 l 4 0 l 0 4 l -4 0 l 0 -4 z M 12 104 l 4 0 l 0 4 l -4 0 l 0 -4 z M 16 104 l 4 0 l 0 4 l -4 0 l 0 -4 z M 20 104 l 4 0 l 0 4 l -4 0 l 0 -4 z M 24 104 l 4 0 l 0 4 l -4 0 l 0 -4 z M 36 104 l 4 0 l 0 4 l -4 0 l 0 -4 z M 40 104 l 4 0 l 0 4 l -4 0 l 0 -4 z M 64 104 l 4 0 l 0 4 l -4 0 l 0 -4 z M 68 104 l 4 0 l 0 4 l -4 0 l 0 -4 z M 76 104 l 4 0 l 0 4 l -4 0 l 0 -4 z M 84 104 l 4 0 l 0 4 l -4 0 l 0 -4 z M 88 104 l 4 0 l 0 4 l -4 0 l 0 -4 z M 92 104 l 4 0 l 0 4 l -4 0 l 0 -4 z M 96 104 l 4 0 l 0 4 l -4 0 l 0 -4 z M 104 104 l 4 0 l 0 4 l -4 0 l 0 -4 z M 112 104 l 4 0 l 0 4 l -4 0 l 0 -4 z M 116 104 l 4 0 l 0 4 l -4 0 l 0 -4 z M 120 104 l 4 0 l 0 4 l -4 0 l 0 -4 z M 124 104 l 4 0 l 0 4 l -4 0 l 0 -4 z M 0 108 l 4 0 l 0 4 l -4 0 l 0 -4 z M 24 108 l 4 0 l 0 4 l -4 0 l 0 -4 z M 32 108 l 4 0 l 0 4 l -4 0 l 0 -4 z M 36 108 l 4 0 l 0 4 l -4 0 l 0 -4 z M 40 108 l 4 0 l 0 4 l -4 0 l 0 -4 z M 48 108 l 4 0 l 0 4 l -4 0 l 0 -4 z M 56 108 l 4 0 l 0 4 l -4 0 l 0 -4 z M 68 108 l 4 0 l 0 4 l -4 0 l 0 -4 z M 72 108 l 4 0 l 0 4 l -4 0 l 0 -4 z M 76 108 l 4 0 l 0 4 l -4 0 l 0 -4 z M 80 108 l 4 0 l 0 4 l -4 0 l 0 -4 z M 84 108 l 4 0 l 0 4 l -4 0 l 0 -4 z M 96 108 l 4 0 l 0 4 l -4 0 l 0 -4 z M 112 108 l 4 0 l 0 4 l -4 0 l 0 -4 z M 120 108 l 4 0 l 0 4 l -4 0 l 0 -4 z M 128 108 l 4 0 l 0 4 l -4 0 l 0 -4 z M 0 112 l 4 0 l 0 4 l -4 0 l 0 -4 z M 8 112 l 4 0 l 0 4 l -4 0 l 0 -4 z M 12 112 l 4 0 l 0 4 l -4 0 l 0 -4 z M 16 112 l 4 0 l 0 4 l -4 0 l 0 -4 z M 24 112 l 4 0 l 0 4 l -4 0 l 0 -4 z M 32 112 l 4 0 l 0 4 l -4 0 l 0 -4 z M 36 112 l 4 0 l 0 4 l -4 0 l 0 -4 z M 44 112 l 4 0 l 0 4 l -4 0 l 0 -4 z M 52 112 l 4 0 l 0 4 l -4 0 l 0 -4 z M 56 112 l 4 0 l 0 4 l -4 0 l 0 -4 z M 60 112 l 4 0 l 0 4 l -4 0 l 0 -4 z M 64 112 l 4 0 l 0 4 l -4 0 l 0 -4 z M 72 112 l 4 0 l 0 4 l -4 0 l 0 -4 z M 92 112 l 4 0 l 0 4 l -4 0 l 0 -4 z M 96 112 l 4 0 l 0 4 l -4 0 l 0 -4 z M 100 112 l 4 0 l 0 4 l -4 0 l 0 -4 z M 104 112 l 4 0 l 0 4 l -4 0 l 0 -4 z M 108 112 l 4 0 l 0 4 l -4 0 l 0 -4 z M 112 112 l 4 0 l 0 4 l -4 0 l 0 -4 z M 120 112 l 4 0 l 0 4 l -4 0 l 0 -4 z M 128 112 l 4 0 l 0 4 l -4 0 l 0 -4 z M 0 116 l 4 0 l 0 4 l -4 0 l 0 -4 z M 8 116 l 4 0 l 0 4 l -4 0 l 0 -4 z M 12 116 l 4 0 l 0 4 l -4 0 l 0 -4 z M 16 116 l 4 0 l 0 4 l -4 0 l 0 -4 z M 24 116 l 4 0 l 0 4 l -4 0 l 0 -4 z M 40 116 l 4 0 l 0 4 l -4 0 l 0 -4 z M 48 116 l 4 0 l 0 4 l -4 0 l 0 -4 z M 68 116 l 4 0 l 0 4 l -4 0 l 0 -4 z M 76 116 l 4 0 l 0 4 l -4 0 l 0 -4 z M 80 116 l 4 0 l 0 4 l -4 0 l 0 -4 z M 84 116 l 4 0 l 0 4 l -4 0 l 0 -4 z M 88 116 l 4 0 l 0 4 l -4 0 l 0 -4 z M 120 116 l 4 0 l 0 4 l -4 0 l 0 -4 z M 124 116 l 4 0 l 0 4 l -4 0 l 0 -4 z M 128 116 l 4 0 l 0 4 l -4 0 l 0 -4 z M 0 120 l 4 0 l 0 4 l -4 0 l 0 -4 z M 8 120 l 4 0 l 0 4 l -4 0 l 0 -4 z M 12 120 l 4 0 l 0 4 l -4 0 l 0 -4 z M 16 120 l 4 0 l 0 4 l -4 0 l 0 -4 z M 24 120 l 4 0 l 0 4 l -4 0 l 0 -4 z M 36 120 l 4 0 l 0 4 l -4 0 l 0 -4 z M 44 120 l 4 0 l 0 4 l -4 0 l 0 -4 z M 48 120 l 4 0 l 0 4 l -4 0 l 0 -4 z M 52 120 l 4 0 l 0 4 l -4 0 l 0 -4 z M 56 120 l 4 0 l 0 4 l -4 0 l 0 -4 z M 60 120 l 4 0 l 0 4 l -4 0 l 0 -4 z M 72 120 l 4 0 l 0 4 l -4 0 l 0 -4 z M 80 120 l 4 0 l 0 4 l -4 0 l 0 -4 z M 96 120 l 4 0 l 0 4 l -4 0 l 0 -4 z M 0 124 l 4 0 l 0 4 l -4 0 l 0 -4 z M 24 124 l 4 0 l 0 4 l -4 0 l 0 -4 z M 32 124 l 4 0 l 0 4 l -4 0 l 0 -4 z M 44 124 l 4 0 l 0 4 l -4 0 l 0 -4 z M 52 124 l 4 0 l 0 4 l -4 0 l 0 -4 z M 60 124 l 4 0 l 0 4 l -4 0 l 0 -4 z M 64 124 l 4 0 l 0 4 l -4 0 l 0 -4 z M 88 124 l 4 0 l 0 4 l -4 0 l 0 -4 z M 108 124 l 4 0 l 0 4 l -4 0 l 0 -4 z M 116 124 l 4 0 l 0 4 l -4 0 l 0 -4 z M 0 128 l 4 0 l 0 4 l -4 0 l 0 -4 z M 4 128 l 4 0 l 0 4 l -4 0 l 0 -4 z M 8 128 l 4 0 l 0 4 l -4 0 l 0 -4 z M 12 128 l 4 0 l 0 4 l -4 0 l 0 -4 z M 16 128 l 4 0 l 0 4 l -4 0 l 0 -4 z M 20 128 l 4 0 l 0 4 l -4 0 l 0 -4 z M 24 128 l 4 0 l 0 4 l -4 0 l 0 -4 z M 32 128 l 4 0 l 0 4 l -4 0 l 0 -4 z M 48 128 l 4 0 l 0 4 l -4 0 l 0 -4 z M 52 128 l 4 0 l 0 4 l -4 0 l 0 -4 z M 76 128 l 4 0 l 0 4 l -4 0 l 0 -4 z M 80 128 l 4 0 l 0 4 l -4 0 l 0 -4 z M 88 128 l 4 0 l 0 4 l -4 0 l 0 -4 z M 96 128 l 4 0 l 0 4 l -4 0 l 0 -4 z M 104 128 l 4 0 l 0 4 l -4 0 l 0 -4 z M 108 128 l 4 0 l 0 4 l -4 0 l 0 -4 z M 112 128 l 4 0 l 0 4 l -4 0 l 0 -4 z M 116 128 l 4 0 l 0 4 l -4 0 l 0 -4 z M 120 128 l 4 0 l 0 4 l -4 0 l 0 -4 z M 128 128 l 4 0 l 0 4 l -4 0 l 0 -4 z" style="stroke: rgb(255,255,255); stroke-opacity: 0; stroke-width: 1; stroke-dasharray: none; stroke-linecap: butt; stroke-linejoin: miter; stroke-miterlimit: 4; fill: rgb(0,0,0); fill-rule: nonzero; opacity: 1;" transform="translate(808.5 808.5) translate(-66, -66) " stroke-linecap="round" />
<g transform="translate(808.5 810.52) scale(0.36 0.3)" style="">
	<path d="M 77.7 167.4 c 0.3 0.1 0.6 0.3 0.6 0.4 C 78.8 167.5 78.9 167.4 77.7 167.4 z" style="stroke: none; stroke-width: 1; stroke-dasharray: none; stroke-linecap: butt; stroke-linejoin: miter; stroke-miterlimit: 10; fill: rgb(64,71,98); fill-rule: nonzero; opacity: 1;" transform="translate(-196.82 69.2) translate(-78.17583361756829, -167.60000000000002) " stroke-linecap="round" />
	<path d="M 78.4 167.7 c -0.1 0 -0.1 0 -0.3 0.1 C 78.3 167.8 78.3 167.8 78.4 167.7 C 78.4 167.8 78.4 167.8 78.4 167.7 z" style="stroke: none; stroke-width: 1; stroke-dasharray: none; stroke-linecap: butt; stroke-linejoin: miter; stroke-miterlimit: 10; fill: rgb(64,71,98); fill-rule: nonzero; opacity: 1;" transform="translate(-196.75 69.35) translate(-78.25, -167.75) " stroke-linecap="round" />
	<path d="M 101.4 174.3 c 1.3 -0.4 2.1 -0.1 3.2 -0.4 l 0.6 0.6 c 1.3 -0.3 0.6 -0.5 1.5 -0.9 c 1.2 0.4 3.7 0 4.2 0 c 0.4 0.3 -0.5 0.4 -0.6 0.6 c 1.5 -0.3 1.4 -0.9 3.3 -0.9 v 0.1 c 4.6 -0.9 10.4 -0.8 15.4 -1.3 c -0.4 0 -0.3 -0.1 -0.4 -0.3 c 5.4 -0.3 11.6 -0.3 15.8 -1.9 c -3 0.1 -7.8 -0.9 -10.8 0.3 c -1 -0.5 -2.8 0.3 -3.2 -0.5 c -4.2 -0.3 -5.9 0.9 -10 0.9 c -0.6 -0.1 -0.3 -0.5 -0.5 -0.8 l 3.2 -0.4 l -1.8 0.1 c 0.9 -0.3 3 -0.1 3.1 -0.6 c -2.8 0.8 -7.3 0.1 -9.8 1 c 1.2 0.1 2.6 0 4 0 c 0.6 0.3 1.5 0.4 1.4 0.6 c -3.9 0.9 -7.1 0.5 -11.2 0.8 c -1 0.1 -2.3 0 -2.6 -0.3 c 0.6 -0.1 0.1 -0.4 0.6 -0.5 c -1.4 0.3 -0.1 1.2 -2.2 1 l 0.3 -1.2 c -0.8 1.2 -2.6 -0.3 -4 0.5 c -0.5 -0.4 0.4 -0.8 1.5 -0.8 c -1.3 -0.3 -1.4 0.5 -2.4 0.4 l 1 -0.9 c -1 0.9 -1.9 -0.1 -2.6 -0.5 c -0.1 0.3 0.5 0.9 -0.9 0.9 c -0.6 -0.1 -0.3 -0.4 -0.4 -0.5 c -0.1 0.3 -0.5 0.6 -1.4 0.6 c -0.1 -0.3 0.6 -0.5 0.6 -0.8 c -0.6 0 -1.3 0.1 -1.7 -0.1 c -1.2 0.3 0.1 0.5 -0.6 0.8 c -1.8 -0.3 -0.1 -1.2 -0.9 -1.8 c 1.4 -0.5 3.2 -0.6 3.9 -0.9 l -2.7 0.3 c 0.1 -0.4 -1.8 -0.6 -0.4 -1 c -2.7 -0.4 -5.8 0.1 -8.4 0.4 c 0.4 0.1 0.8 0.3 0.8 0.4 c -1.3 0.3 -1.2 -0.3 -1.4 -0.5 c -1 0.3 -0.9 0.9 -1.4 1.4 c -2.1 -0.5 -2.3 -0.3 -4 -1 l 0.1 0.6 c -1.2 -0.5 -1.4 0.5 -2.7 0.1 c -0.1 -0.1 0.4 -0.3 0.8 -0.5 c -1.2 0.3 -1 -0.5 -2.2 -0.3 l 0.9 -0.8 c -0.9 0 -2.2 0.3 -1.8 -0.4 c -1.5 0.8 -4.4 0.4 -6.3 0.9 l 0.1 -0.5 c -1 0.6 -3.7 0 -4.6 0.8 l -0.1 -0.3 l -2.1 0.8 c -0.9 -0.1 -0.6 -0.9 -0.6 -0.6 c -2.1 0.1 -3.6 0.3 -4.9 -0.1 c -0.4 0.8 -2.4 0.9 -4.1 1 c -8.1 -0.5 -16.7 0.3 -24.3 1.2 c -1.2 0 -2.7 0.9 -4.1 1.3 c 1.7 0.1 1.9 -0.1 3.6 -0.3 c 1.3 0.3 1.8 1 2.8 1.4 l -0.5 -0.6 c 1.7 -0.5 1.2 0.4 2.6 -0.3 v 1 c 0.5 -0.5 1.7 -0.1 2.2 0.1 l 0.4 -0.6 c 1 0.4 1.8 0.5 2.1 1.2 l -0.1 -0.6 c 0.4 0.4 4.1 -0.1 2.8 1 c 0.3 -0.1 0.6 -0.5 1.3 -0.4 l 0.1 0.6 c 1 -0.1 2.1 -0.3 2.4 0.1 c -0.5 0.1 -0.8 0.4 -0.9 0.8 c 4.2 0.1 0.9 -2.1 4.6 -2.2 v 0.4 l 0.9 -0.4 l 1 0.5 c 1.3 -1.4 5.1 0.1 7.5 -0.6 c 0.9 -0.1 2.1 0.8 3.7 0.6 l -0.1 -0.6 c 1.3 0.6 6.4 1 7.6 2.6 c 1.3 -0.5 -0.1 -0.1 -0.1 -0.6 c 2.4 -0.6 2.7 0.4 4 0.8 c 1.5 -0.4 -1.2 -0.3 -0.4 -0.8 c 2.3 0.5 1.9 -0.8 4.8 -0.4 c 0.3 0.4 -0.8 0.3 -1 0.5 c 2.1 -0.6 5.8 -0.3 8.9 -0.4 c 3.5 0.5 8.6 0.6 12.6 1.2 l 0.1 -0.3 c 1.7 0.6 3.5 0 5.4 0.3 L 101.4 174.3 z" style="stroke: none; stroke-width: 1; stroke-dasharray: none; stroke-linecap: butt; stroke-linejoin: miter; stroke-miterlimit: 10; fill: rgb(64,71,98); fill-rule: nonzero; opacity: 1;" transform="translate(-191 71.8) translate(-83.99999999999997, -170.19999999999996) " stroke-linecap="round" />
	<path d="M 125.5 168.3 l -0.3 -0.5 l -1.8 0.4 C 124.1 168.6 124.4 168.2 125.5 168.3 z" style="stroke: none; stroke-width: 1; stroke-dasharray: none; stroke-linecap: butt; stroke-linejoin: miter; stroke-miterlimit: 10; fill: rgb(64,71,98); fill-rule: nonzero; opacity: 1;" transform="translate(-150.55 69.69) translate(-124.45, -168.09086936058088) " stroke-linecap="round" />
	<polygon points="-0.1,0.15 0.8,-0.15 -0.8,-0.15 " style="stroke: none; stroke-width: 1; stroke-dasharray: none; stroke-linecap: butt; stroke-linejoin: miter; stroke-miterlimit: 10; fill: rgb(64,71,98); fill-rule: nonzero; opacity: 1;" transform="translate(-149.8 71.45) "/>
	<polygon points="-1.95,0.15 -1.65,0.25 1.95,-0.25 " style="stroke: none; stroke-width: 1; stroke-dasharray: none; stroke-linecap: butt; stroke-linejoin: miter; stroke-miterlimit: 10; fill: rgb(64,71,98); fill-rule: nonzero; opacity: 1;" transform="translate(-171.55 70.55) "/>
	<path d="M 77.9 166.8 c 0.4 -0.3 1 -0.1 1.4 -0.4 l -1.7 0.3 L 77.9 166.8 z" style="stroke: none; stroke-width: 1; stroke-dasharray: none; stroke-linecap: butt; stroke-linejoin: miter; stroke-miterlimit: 10; fill: rgb(64,71,98); fill-rule: nonzero; opacity: 1;" transform="translate(-196.55 68.2) translate(-78.45000000000002, -166.60000000000002) " stroke-linecap="round" />
	<path d="M 62.1 164.6 c -0.6 1 -1.3 0 -0.4 0.9 C 62.6 165.3 61.7 165 62.1 164.6 z" style="stroke: none; stroke-width: 1; stroke-dasharray: none; stroke-linecap: butt; stroke-linejoin: miter; stroke-miterlimit: 10; fill: rgb(64,71,98); fill-rule: nonzero; opacity: 1;" transform="translate(-213.31 66.65) translate(-61.69342000956135, -165.05) " stroke-linecap="round" />
	<path d="M 58.3 166 c 0.5 0 0.9 -0.1 1.2 -0.3 C 58.7 165.3 58.7 165.9 58.3 166 z" style="stroke: none; stroke-width: 1; stroke-dasharray: none; stroke-linecap: butt; stroke-linejoin: miter; stroke-miterlimit: 10; fill: rgb(64,71,98); fill-rule: nonzero; opacity: 1;" transform="translate(-216.1 67.38) translate(-58.9, -165.78200790541624) " stroke-linecap="round" />
	<path d="M 465.1 171.9 c -0.3 -0.1 -0.6 -0.3 -0.6 -0.4 C 464.2 171.8 464.1 171.9 465.1 171.9 z" style="stroke: none; stroke-width: 1; stroke-dasharray: none; stroke-linecap: butt; stroke-linejoin: miter; stroke-miterlimit: 10; fill: rgb(64,71,98); fill-rule: nonzero; opacity: 1;" transform="translate(189.7 73.3) translate(-464.6967892651262, -171.7) " stroke-linecap="round" />
	<path d="M 464.5 171.5 c 0.1 0 0.1 0 0.3 -0.1 C 464.7 171.5 464.6 171.5 464.5 171.5 z" style="stroke: none; stroke-width: 1; stroke-dasharray: none; stroke-linecap: butt; stroke-linejoin: miter; stroke-miterlimit: 10; fill: rgb(64,71,98); fill-rule: nonzero; opacity: 1;" transform="translate(189.65 73.05) translate(-464.65, -171.45) " stroke-linecap="round" />
	<path d="M 441.6 165 c -1.3 0.4 -2.1 0.1 -3.2 0.4 l -0.6 -0.6 c -1.3 0.3 -0.6 0.5 -1.5 0.9 c -1.2 -0.4 -3.7 0 -4.2 0 c -0.4 -0.3 0.5 -0.4 0.6 -0.6 c -1.5 0.3 -1.4 0.9 -3.3 0.9 v -0.1 c -4.6 0.9 -10.4 0.8 -15.4 1.3 c 0.4 0 0.3 0.1 0.4 0.3 c -5.4 0.3 -11.6 0.3 -15.8 1.9 c 3 -0.1 7.8 0.9 10.8 -0.3 c 1 0.5 2.8 -0.3 3.2 0.5 c 4.2 0.3 5.9 -0.9 10 -0.9 c 0.6 0.1 0.3 0.5 0.5 0.8 l -3.2 0.4 l 1.9 0.3 c -0.9 0.3 -3 0.1 -3.1 0.6 c 2.8 -0.8 7.3 -0.1 9.8 -1 c -1.2 -0.1 -2.6 0 -4 0 c -0.6 -0.3 -1.5 -0.4 -1.4 -0.6 c 3.9 -0.9 7.1 -0.5 11.2 -0.8 c 1 -0.1 2.3 0 2.6 0.3 c -0.6 0.1 -0.1 0.4 -0.6 0.5 c 1.4 -0.3 0.1 -1.2 2.2 -1 l -0.3 1.2 c 0.8 -1.2 2.6 0.3 4 -0.5 c 0.5 0.4 -0.4 0.8 -1.5 0.8 c 1.3 0.3 1.4 -0.5 2.4 -0.4 l -1 0.9 c 1 -0.9 1.9 0.1 2.6 0.5 c 0.1 -0.3 -0.5 -0.9 0.9 -0.9 c 0.6 0.1 0.3 0.4 0.4 0.5 c 0.1 -0.3 0.5 -0.6 1.4 -0.6 c 0.1 0.3 -0.6 0.5 -0.6 0.8 c 0.6 0 1.3 -0.1 1.7 0.1 c 1.2 -0.3 -0.1 -0.5 0.6 -0.8 c 1.8 0.3 0.1 1.2 0.9 1.8 c -1.4 0.5 -3.2 0.6 -3.9 0.9 l 2.7 -0.3 c -0.1 0.4 1.8 0.6 0.4 1 c 2.7 0.4 5.8 -0.1 8.4 -0.4 c -0.4 -0.1 -0.8 -0.3 -0.8 -0.4 c 1.3 -0.3 1.2 0.3 1.4 0.5 c 1 -0.3 0.9 -0.9 1.4 -1.4 c 2.1 0.5 2.3 0.3 4 1 l -0.1 -0.6 c 1.2 0.5 1.4 -0.5 2.7 -0.1 c 0.1 0.1 -0.4 0.3 -0.8 0.5 c 1.2 -0.3 1 0.5 2.2 0.3 l -0.9 0.8 c 0.9 0 2.2 -0.3 1.8 0.4 c 1.5 -0.8 4.4 -0.4 6.3 -0.9 l -0.1 0.5 c 1 -0.6 3.7 0 4.6 -0.8 l 0.1 0.3 l 2.1 -0.8 c 0.9 0.1 0.6 0.9 0.6 0.6 c 2.1 -0.1 3.6 -0.3 4.9 0.1 c 0.4 -0.8 2.4 -0.9 4.1 -1 c 8.1 0.5 16.7 -0.3 24.3 -1.2 c 1.2 0 2.7 -0.9 4.1 -1.3 c -1.7 -0.1 -1.9 0.1 -3.6 0.3 c -1.3 -0.3 -1.8 -1 -2.8 -1.4 l 0.5 0.6 c -1.7 0.5 -1.2 -0.4 -2.6 0.3 v -1 c -0.5 0.5 -1.7 0.1 -2.2 -0.1 l -0.4 0.6 c -1 -0.4 -1.8 -0.5 -2.1 -1.2 l 0.1 0.6 c -0.4 -0.4 -4.1 0.1 -2.8 -1 c -0.3 0.1 -0.6 0.5 -1.3 0.4 l -0.1 -0.6 c -1 0.1 -2.1 0.3 -2.4 -0.1 c 0.5 -0.1 0.8 -0.4 0.9 -0.8 c -4.2 -0.1 -0.9 2.1 -4.6 2.2 v -0.4 l -0.9 0.4 l -1 -0.5 c -1.3 1.4 -5.1 -0.1 -7.5 0.6 c -0.9 0.1 -2.1 -0.8 -3.7 -0.6 l 0.1 0.6 c -1.3 -0.6 -6.4 -1 -7.6 -2.6 c -1.3 0.5 0.1 0.1 0.1 0.6 c -2.4 0.6 -2.7 -0.4 -4 -0.8 c -1.5 0.4 1.2 0.3 0.4 0.8 c -2.3 -0.5 -1.9 0.8 -4.8 0.4 c -0.3 -0.4 0.8 -0.3 1 -0.5 c -2.1 0.6 -5.8 0.3 -8.9 0.4 c -3.5 -0.5 -8.6 -0.6 -12.6 -1.2 l -0.1 0.3 c -1.7 -0.6 -3.5 0 -5.4 -0.3 L 441.6 165 z" style="stroke: none; stroke-width: 1; stroke-dasharray: none; stroke-linecap: butt; stroke-linejoin: miter; stroke-miterlimit: 10; fill: rgb(64,71,98); fill-rule: nonzero; opacity: 1;" transform="translate(184.05 70.9) translate(-459.04999999999995, -169.30000000000007) " stroke-linecap="round" />
	<path d="M 417.5 171 l 0.3 0.5 l 1.8 -0.4 C 418.9 170.7 418.5 171.1 417.5 171 z" style="stroke: none; stroke-width: 1; stroke-dasharray: none; stroke-linecap: butt; stroke-linejoin: miter; stroke-miterlimit: 10; fill: rgb(64,71,98); fill-rule: nonzero; opacity: 1;" transform="translate(143.55 72.81) translate(-418.55, -171.20913063941913) " stroke-linecap="round" />
	<polygon points="0.25,-0.15 -0.75,0.15 0.75,0.15 " style="stroke: none; stroke-width: 1; stroke-dasharray: none; stroke-linecap: butt; stroke-linejoin: miter; stroke-miterlimit: 10; fill: rgb(64,71,98); fill-rule: nonzero; opacity: 1;" transform="translate(142.65 71.05) "/>
	<polygon points="1.85,-0.15 1.65,-0.25 -1.85,0.25 " style="stroke: none; stroke-width: 1; stroke-dasharray: none; stroke-linecap: butt; stroke-linejoin: miter; stroke-miterlimit: 10; fill: rgb(64,71,98); fill-rule: nonzero; opacity: 1;" transform="translate(164.45 71.95) "/>
	<path d="M 465 172.4 c -0.4 0.3 -1 0.1 -1.4 0.4 l 1.7 -0.3 L 465 172.4 z" style="stroke: none; stroke-width: 1; stroke-dasharray: none; stroke-linecap: butt; stroke-linejoin: miter; stroke-miterlimit: 10; fill: rgb(64,71,98); fill-rule: nonzero; opacity: 1;" transform="translate(189.45 74.2) translate(-464.45000000000005, -172.60000000000002) " stroke-linecap="round" />
	<path d="M 480.9 174.7 c 0.6 -1 1.3 0 0.4 -0.9 C 480.4 174 481.2 174.3 480.9 174.7 z" style="stroke: none; stroke-width: 1; stroke-dasharray: none; stroke-linecap: butt; stroke-linejoin: miter; stroke-miterlimit: 10; fill: rgb(64,71,98); fill-rule: nonzero; opacity: 1;" transform="translate(206.29 75.85) translate(-481.29330348842234, -174.25) " stroke-linecap="round" />
	<path d="M 484.7 173.2 c -0.5 0 -0.9 0.1 -1.2 0.3 C 484.2 174 484.3 173.4 484.7 173.2 z" style="stroke: none; stroke-width: 1; stroke-dasharray: none; stroke-linecap: butt; stroke-linejoin: miter; stroke-miterlimit: 10; fill: rgb(64,71,98); fill-rule: nonzero; opacity: 1;" transform="translate(209.1 75.05) translate(-484.1, -173.44710541298832) " stroke-linecap="round" />
</g>
	<g transform="translate(807.99 804.45) scale(2.33 2.33)">
		<text xml:space="preserve" font-family="Fredoka One" font-size="20" font-style="normal" font-weight="normal" style="stroke: none; stroke-width: 1; stroke-dasharray: none; stroke-linecap: butt; stroke-linejoin: miter; stroke-miterlimit: 10; fill: rgb(64,71,98); fill-rule: nonzero; opacity: 1; white-space: pre;" ><tspan x="-39.6" y="6.28" >MEXICO</tspan></text>
	</g>
	<g transform="translate(808.49 831.26) scale(0.43 0.43)">
		<text xml:space="preserve" font-family="Special Elite" font-size="20" font-style="normal" font-weight="normal" style="stroke: none; stroke-width: 1; stroke-dasharray: none; stroke-linecap: butt; stroke-linejoin: miter; stroke-miterlimit: 10; fill: rgb(64,71,98); fill-rule: nonzero; opacity: 1; white-space: pre;" ><tspan x="-71.63" y="6.28" >THE LOW-DOWN</tspan></text>
	</g>
<g transform="translate(808.5 813.15) scale(0.4 0.45)" style="">
</g>
	<g transform="translate(808.48 836.59) scale(0.59 0.59)">
		<text xml:space="preserve" font-family="Hammersmith One" font-size="20" font-style="normal" font-weight="normal" style="stroke: none; stroke-width: 1; stroke-dasharray: none; stroke-linecap: butt; stroke-linejoin: miter; stroke-miterlimit: 10; fill: rgb(64,71,98); fill-rule: nonzero; opacity: 1; white-space: pre;" ><tspan x="-46.68" y="6.28" >SINCE 1611</tspan></text>
	</g>
	<g transform="translate(809.16 799.55) scale(2.59 2.59)">
		<text xml:space="preserve" font-family="UnifrakturMaguntia" font-size="20" font-style="normal" font-weight="normal" style="stroke: none; stroke-width: 1; stroke-dasharray: none; stroke-linecap: butt; stroke-linejoin: miter; stroke-miterlimit: 10; fill: rgb(64,71,98); fill-rule: nonzero; opacity: 1; white-space: pre;" ><tspan x="-37.42" y="6.28" >Medieval</tspan></text>
	</g>
</svg>