<?xml version="1.0" encoding="UTF-8" standalone="no" ?>
<!DOCTYPE svg PUBLIC "-//W3C//DTD SVG 1.1//EN" "http://www.w3.org/Graphics/SVG/1.1/DTD/svg11.dtd">
<svg xmlns="http://www.w3.org/2000/svg" xmlns:xlink="http://www.w3.org/1999/xlink" version="1.1" width="1772" height="1772" viewBox="0 0 2077.91 2077.91" xml:space="preserve">
<desc>Created with Fabric.js 2.3.3</desc>
<defs>
</defs>
	<g transform="translate(1039 1039)">
		<text xml:space="preserve" font-family="Roboto" font-size="42" font-style="normal" font-weight="normal" style="stroke: none; stroke-width: 1; stroke-dasharray: none; stroke-linecap: butt; stroke-linejoin: miter; stroke-miterlimit: 4; fill: rgb(204,50,75); fill-rule: nonzero; opacity: 1; white-space: pre;" ><tspan x="-77.83" y="13.19" >Heading</tspan></text>
	</g>
	<g transform="translate(1039 1039)">
		<text xml:space="preserve" font-family="Roboto" font-size="42" font-style="normal" font-weight="normal" style="stroke: none; stroke-width: 1; stroke-dasharray: none; stroke-linecap: butt; stroke-linejoin: miter; stroke-miterlimit: 4; fill: rgb(204,50,75); fill-rule: nonzero; opacity: 1; white-space: pre;" ><tspan x="-77.83" y="13.19" >Heading</tspan></text>
	</g>
	<g transform="translate(1039 1066.53)">
		<text xml:space="preserve" font-family="Roboto" font-size="42" font-style="normal" font-weight="normal" style="stroke: none; stroke-width: 1; stroke-dasharray: none; stroke-linecap: butt; stroke-linejoin: miter; stroke-miterlimit: 4; fill: rgb(204,50,75); fill-rule: nonzero; opacity: 1; white-space: pre;" ><tspan x="-68.36" y="-14.33" >Noman</tspan><tspan x="-46.48" y="40.72" >Ayub</tspan></text>
	</g>
<path d="M 221.965 138.75 Q 222 138.75 222.5 138.75 Q 223 138.75 232 138.25 Q 241 137.75 268.5 146.25 Q 296 154.75 320 166.25 Q 344 177.75 349 182.75 Q 354 187.75 360 195.25 Q 366 202.75 369.5 208.75 Q 373 214.75 376 221.25 Q 379 227.75 380.5 233.25 Q 382 238.75 383 241.75 Q 384 244.75 384.5 247.25 Q 385 249.75 385 250.75 Q 385 251.75 386 254.25 Q 387 256.75 387.5 258.75 Q 388 260.75 388.5 262.75 Q 389 264.75 390 267.25 Q 391 269.75 393 274.75 Q 395 279.75 395.5 282.25 Q 396 284.75 398 287.75 Q 400 290.75 400.5 292.25 Q 401 293.75 401 295.25 Q 401 296.75 401.5 298.25 Q 402 299.75 402 301.75 Q 402 303.75 402 304.25 Q 402 304.75 402 305.75 Q 402 306.75 402 307.25 Q 402 307.75 401.5 308.25 Q 401 308.75 400 309.25 Q 399 309.75 398 309.75 Q 397 309.75 396 309.75 Q 395 309.75 393.5 309.75 Q 392 309.75 390.5 309.75 Q 389 309.75 386 309.75 Q 383 309.75 382.5 309.75 Q 382 309.75 378.5 309.75 Q 375 309.75 369.5 309.25 Q 364 308.75 361 307.75 Q 358 306.75 350.5 303.75 Q 343 300.75 336 296.75 Q 329 292.75 318 287.75 Q 307 282.75 303 281.25 Q 299 279.75 295.5 278.75 Q 292 277.75 289.5 276.25 Q 287 274.75 283 271.75 Q 279 268.75 275.5 266.25 Q 272 263.75 269 261.75 Q 266 259.75 263.5 258.75 Q 261 257.75 259 256.25 Q 257 254.75 255.5 253.25 Q 254 251.75 252.5 250.75 Q 251 249.75 250.5 248.25 Q 250 246.75 250 245.25 Q 250 243.75 250 242.25 Q 250 240.75 250.5 239.25 Q 251 237.75 252.5 236.25 Q 254 234.75 256 233.75 Q 258 232.75 259 231.75 Q 260 230.75 260.5 230.75 L 261.035 230.75" style="stroke: rgb(255,189,74); stroke-width: 35; stroke-dasharray: none; stroke-linecap: round; stroke-linejoin: round; stroke-miterlimit: 10; fill: none; fill-rule: nonzero; opacity: 1;" transform="translate(311.98 223.91) translate(-311.9825, -223.91192813352444) " stroke-linecap="round" />
</svg>