<?xml version="1.0" encoding="UTF-8" standalone="no" ?>
<!DOCTYPE svg PUBLIC "-//W3C//DTD SVG 1.1//EN" "http://www.w3.org/Graphics/SVG/1.1/DTD/svg11.dtd">
<svg xmlns="http://www.w3.org/2000/svg" xmlns:xlink="http://www.w3.org/1999/xlink" version="1.1" width="1771.653543328125" height="1771.653543328125" viewBox="0 0 2748.75 2748.75" xml:space="preserve">
<desc>Created with Fabric.js 2.3.3</desc>
<defs>
</defs>
<g transform="translate(1374.375 1379.03) scale(0.4 0.45)" style="">
</g>
	<g transform="translate(1374.351015625 1402.4695) scale(0.59 0.59)">
		<text xml:space="preserve" font-family="Hammersmith One" font-size="20" font-style="normal" font-weight="normal" style="stroke: none; stroke-width: 1; stroke-dasharray: none; stroke-linecap: butt; stroke-linejoin: miter; stroke-miterlimit: 10; fill: rgb(64,71,98); fill-rule: nonzero; opacity: 1; white-space: pre;" ><tspan x="-46.6796875" y="6.2828" >SINCE 1611</tspan></text>
	</g>
	<g transform="translate(1375.0300097656 1365.4295) scale(2.59 2.59)">
		<text xml:space="preserve" font-family="UnifrakturMaguntia" font-size="20" font-style="normal" font-weight="normal" style="stroke: none; stroke-width: 1; stroke-dasharray: none; stroke-linecap: butt; stroke-linejoin: miter; stroke-miterlimit: 10; fill: rgb(64,71,98); fill-rule: nonzero; opacity: 1; white-space: pre;" ><tspan x="-37.4169921875" y="6.2828" >Medieval</tspan></text>
	</g>
	<g transform="translate(1374.351015625 1402.4695) scale(0.59 0.59)">
		<text xml:space="preserve" font-family="Hammersmith One" font-size="20" font-style="normal" font-weight="normal" style="stroke: none; stroke-width: 1; stroke-dasharray: none; stroke-linecap: butt; stroke-linejoin: miter; stroke-miterlimit: 10; fill: rgb(64,71,98); fill-rule: nonzero; opacity: 1; white-space: pre;" ><tspan x="-46.6796875" y="6.2828" >SINCE 1611</tspan></text>
	</g>
	<g transform="translate(1375.0300097656 1365.4295) scale(2.59 2.59)">
		<text xml:space="preserve" font-family="UnifrakturMaguntia" font-size="20" font-style="normal" font-weight="normal" style="stroke: none; stroke-width: 1; stroke-dasharray: none; stroke-linecap: butt; stroke-linejoin: miter; stroke-miterlimit: 10; fill: rgb(64,71,98); fill-rule: nonzero; opacity: 1; white-space: pre;" ><tspan x="-37.4169921875" y="6.2828" >Medieval</tspan></text>
	</g>
<g transform="translate(1374.375 1379.03) scale(0.4 0.45)" style="">
</g>
<g transform="translate(1374.375 1374.375) scale(0.54 0.57)" style="">
	<path d="M -104.9 1201.7 c -5 0 -9.3 3.2 -11 7.6 c -1.7 -4.4 -6 -7.6 -11 -7.6 c -6.5 0 -11.8 5.3 -11.8 11.8 c 0 12.7 22.8 28.2 22.8 28.2 s 22.7 -15.6 22.8 -28.2 C -93.1 1207 -98.4 1201.7 -104.9 1201.7 z" style="stroke: none; stroke-width: 1; stroke-dasharray: none; stroke-linecap: butt; stroke-linejoin: miter; stroke-miterlimit: 10; fill: rgb(64,71,98); fill-rule: nonzero; opacity: 1;" transform="translate(0.7 -7.35) translate(115.9, -1221.7) " stroke-linecap="round" />
</g>
	<g transform="translate(1312.8177991943 1370.7065) scale(1.32 1.32)">
		<text xml:space="preserve" font-family="Josefin Sans" font-size="20" font-style="normal" font-weight="normal" style="stroke: none; stroke-width: 1; stroke-dasharray: none; stroke-linecap: butt; stroke-linejoin: miter; stroke-miterlimit: 10; fill: rgb(64,71,98); fill-rule: nonzero; opacity: 1; white-space: pre;" ><tspan x="-26.4899993896" y="6.2828" >ALEX</tspan></text>
	</g>
	<g transform="translate(1438.8418022156 1370.7065) scale(1.32 1.32)">
		<text xml:space="preserve" font-family="Josefin Sans" font-size="20" font-style="normal" font-weight="normal" style="stroke: none; stroke-width: 1; stroke-dasharray: none; stroke-linecap: butt; stroke-linejoin: miter; stroke-miterlimit: 10; fill: rgb(64,71,98); fill-rule: nonzero; opacity: 1; white-space: pre;" ><tspan x="-26.4400016785" y="6.2828" >SARA</tspan></text>
	</g>
<g transform="translate(1374.375 1374.375)" style="">
	<g transform="translate(0 0) scale(0.4 0.39)" style="">
	<path d="M 312 246.9 h -500 v -3.6 h 500 V 246.9 z M -186.8 245.7 h 497.6 v -1.2 h -497.6 V 245.7 z" style="stroke: none; stroke-width: 1; stroke-dasharray: none; stroke-linecap: butt; stroke-linejoin: miter; stroke-miterlimit: 10; fill: rgb(64,71,98); fill-rule: nonzero; opacity: 1;" transform="translate(0 -56.45) translate(-62, -245.10000000000002) " stroke-linecap="round" />
	<path d="M 312 359.9 h -500 v -3.6 h 500 V 359.9 z M -186.8 358.7 h 497.6 v -1.2 h -497.6 V 358.7 z" style="stroke: none; stroke-width: 1; stroke-dasharray: none; stroke-linecap: butt; stroke-linejoin: miter; stroke-miterlimit: 10; fill: rgb(64,71,98); fill-rule: nonzero; opacity: 1;" transform="translate(0 56.55) translate(-62, -358.09999999999997) " stroke-linecap="round" />
</g>
		<g transform="translate(-1.9700011444 0.2825)">
		<text xml:space="preserve" font-family="Playfair Display" font-size="20" font-style="normal" font-weight="normal" style="stroke: none; stroke-width: 1; stroke-dasharray: none; stroke-linecap: butt; stroke-linejoin: miter; stroke-miterlimit: 10; fill: rgb(64,71,98); fill-rule: nonzero; opacity: 1; white-space: pre;" ><tspan x="-66.8999988556" y="6.2828" >THE NEW YOU</tspan></text>
	</g>
</g>
<g transform="translate(1374.375 1374.375)">
	<image xlink:href="http://solution.cmsmart.net/wp_printshop/printshop_boxed/wp-content/uploads/nbdesigner/temp/2019/05/11/1557607140f72f78a3.jpg" x="-350" y="-242.5" style="stroke: none; stroke-width: 0; stroke-dasharray: none; stroke-linecap: butt; stroke-linejoin: miter; stroke-miterlimit: 4; fill: rgb(255,0,0); fill-rule: nonzero; opacity: 1;" width="700" height="485"></image>
</g>
<path d="M 187.4478403819918 191.32378308321964 Q 187.4488403819918 191.32278308321963 188.94843110504775 184.82455661664392 Q 190.44802182810366 178.3263301500682 198.44583901773532 167.32933151432468 Q 206.44365620736698 156.33233287858116 255.9301500682128 145.83519781718962 Q 305.41664392905864 135.3380627557981 312.41473396998634 136.33778990450205 Q 319.41282401091405 137.337517053206 323.91159618008186 139.8368349249659 Q 328.41036834924967 142.33615279672577 328.41036834924967 143.33587994542972 Q 328.41036834924967 144.33560709413368 329.41009549795365 154.33287858117325 Q 330.4098226466576 164.33015006821282 330.4098226466576 171.8281036834925 Q 330.4098226466576 179.32605729877216 327.9105047748977 187.82373806275578 Q 325.4111869031378 196.3214188267394 322.9118690313779 201.81991814461117 Q 320.412551159618 207.31841746248293 316.41364256480216 213.81664392905864 Q 312.41473396998634 220.31487039563436 307.91596180081854 226.81309686221007 Q 303.41718963165073 233.3113233287858 298.9184174624829 237.31023192360163 Q 294.4196452933151 241.30914051841745 291.92032742155527 243.80845839017735 Q 289.4210095497954 246.30777626193722 288.9211459754434 247.80736698499317 Q 288.4212824010914 249.3069577080491 287.4215552523874 252.80600272851296 Q 286.4218281036835 256.3050477489768 286.4218281036835 257.8046384720327 Q 286.4218281036835 259.3042291950887 286.4218281036835 260.3039563437926 Q 286.4218281036835 261.3036834924966 286.4218281036835 262.8032742155525 Q 286.4218281036835 264.3028649386084 286.4218281036835 266.8021828103683 Q 286.4218281036835 269.3015006821282 288.9211459754434 273.80027285129603 Q 291.4204638472033 278.29904502046384 295.4193724420191 282.79781718963164 Q 299.4182810368349 287.29658935879945 304.41691678035465 293.2949522510232 Q 309.41555252387445 299.2933151432469 314.41418826739425 305.2916780354707 Q 319.41282401091405 311.2900409276944 324.41145975443385 315.2889495225102 Q 329.4100954979536 319.28785811732604 332.4092769440655 323.28676671214185 Q 335.4084583901773 327.28567530695767 337.9077762619372 330.7847203274215 Q 340.4070941336971 334.2837653478854 340.9069577080491 337.78281036834926 Q 341.4068212824011 341.2818553888131 342.4065484311051 345.7806275579809 Q 343.406275579809 350.2793997271487 344.40600272851293 355.7778990450205 Q 345.4057298772169 361.2763983628922 346.4054570259209 364.77544338335605 Q 347.4051841746248 368.2744884038199 347.4051841746248 369.7740791268758 Q 347.4051841746248 371.27366984993176 347.9050477489768 371.77353342428376 Q 348.40491132332875 372.27339699863575 348.40491132332875 373.2731241473397 Q 348.40491132332875 374.27285129604365 348.40491132332875 375.77244201909957 Q 348.40491132332875 377.2720327421555 348.40491132332875 379.7713506139154 Q 348.40491132332875 382.2706684856753 348.40491132332875 382.7705320600273 L 348.40491132332875 383.27139563437925" style="stroke: rgb(204,50,75); stroke-width: 1; stroke-dasharray: none; stroke-linecap: round; stroke-linejoin: round; stroke-miterlimit: 10; fill: none; fill-rule: nonzero; opacity: 1;" transform="translate(267.9263758527 259.5966286012) translate(-267.92637585266027, -259.596628601166) " stroke-linecap="round" />
<path d="M 428.38208321964527 198.31987312414734 Q 428.38308321964524 198.32087312414734 428.88294679399723 199.3206002728513 Q 429.3828103683492 200.32032742155525 429.8826739427012 204.31923601637106 Q 430.3825375170532 208.31814461118688 430.3825375170532 218.31541609822645 Q 430.3825375170532 228.31268758526602 430.3825375170532 242.3088676671214 Q 430.3825375170532 256.3050477489768 421.8848567530696 286.29686221009547 Q 413.3871759890859 316.28867667121415 408.3885402455661 336.7830832196453 Q 403.38990450204636 357.2774897680764 400.89058663028646 370.27394270122784 Q 398.39126875852656 383.27039563437927 398.39126875852656 392.7678035470668 Q 398.39126875852656 402.2652114597544 398.39126875852656 404.76452933151427 Q 398.39126875852656 407.26384720327417 398.39126875852656 410.26302864938606 Q 398.39126875852656 413.26221009549795 398.89113233287856 414.26193724420193 Q 399.39099590723055 415.26166439290586 400.3907230559345 417.26111869031377 Q 401.39045020463846 419.2605729877217 401.8903137789904 419.76043656207366 Q 402.3901773533424 420.2603001364256 402.8900409276944 420.7601637107776 Q 403.38990450204636 421.2600272851296 403.38990450204636 421.7598908594816 Q 403.38990450204636 422.25975443383356 403.38990450204636 423.25948158253755 Q 403.38990450204636 424.2592087312415 403.38990450204636 425.2589358799454 Q 403.38990450204636 426.2586630286494 403.38990450204636 426.7585266030013 Q 403.38990450204636 427.2583901773533 403.38990450204636 427.7582537517053 Q 403.38990450204636 428.2581173260573 402.8900409276944 428.7579809004093 Q 402.3901773533424 429.2578444747612 402.3901773533424 429.7577080491132 L 402.3901773533424 430.2585716234652" style="stroke: rgb(204,50,75); stroke-width: 1; stroke-dasharray: none; stroke-linecap: round; stroke-linejoin: round; stroke-miterlimit: 10; fill: none; fill-rule: nonzero; opacity: 1;" transform="translate(414.3869031378 314.2892223738) translate(-414.3869031377899, -314.28922237380624) " stroke-linecap="round" />
</svg>