<?xml version="1.0" encoding="UTF-8" standalone="no" ?>
<!DOCTYPE svg PUBLIC "-//W3C//DTD SVG 1.1//EN" "http://www.w3.org/Graphics/SVG/1.1/DTD/svg11.dtd">
<svg xmlns="http://www.w3.org/2000/svg" xmlns:xlink="http://www.w3.org/1999/xlink" version="1.1" width="2937" height="2937" viewBox="0 0 2937 2937" xml:space="preserve">
<desc>Created with Fabric.js 2.3.3</desc>
<defs>
</defs>
<g transform="translate(1468.5 1468.5) scale(0.53 0.53)" style="">
	<circle cx="0" cy="0" r="190" style="stroke: none; stroke-width: 1; stroke-dasharray: none; stroke-linecap: butt; stroke-linejoin: miter; stroke-miterlimit: 10; fill: rgb(255,255,255); fill-rule: nonzero; opacity: 1;" transform="translate(0 0) "/>
	<path d="m -487.2 927.5 c -91.6 0 -166.2 -74.6 -166.2 -166.2 s 74.6 -166.2 166.2 -166.2 s 166.2 74.6 166.2 166.2 s -74.6 166.2 -166.2 166.2 z m 0 -330.4 c -90.5 0 -164.2 73.7 -164.2 164.2 s 73.7 164.2 164.2 164.2 s 164.2 -73.7 164.2 -164.2 s -73.7 -164.2 -164.2 -164.2 z" style="stroke: none; stroke-width: 1; stroke-dasharray: none; stroke-linecap: butt; stroke-linejoin: miter; stroke-miterlimit: 10; fill: rgb(39,44,51); fill-rule: nonzero; opacity: 1;" transform="translate(0.2 0.2) translate(487.2, -761.3) " stroke-linecap="round" />
	<path d="m -322 761.1 c 0 -13.9 -2.5 -27.9 -5.6 -40.6 h -319.3 c -2.1 9.6 -5.6 26.7 -5.6 40.6 c 0 15.3 3.1 29.1 6.3 44.4 h 317.8 c 3.6 -14.7 6.4 -29.1 6.4 -44.4 z" style="stroke: none; stroke-width: 1; stroke-dasharray: none; stroke-linecap: butt; stroke-linejoin: miter; stroke-miterlimit: 10; fill: rgb(39,44,51); fill-rule: nonzero; opacity: 1;" transform="translate(0.15 1.9) translate(487.25000000000006, -763) " stroke-linecap="round" />
	<polygon points="2.85,-3.2 9.45,-2.3 4.75,2.4 5.95,8.9 0.05,5.8 -5.75,9 -4.65,2.5 -9.45,-2.1 -2.95,-3.1 -0.05,-9 " style="stroke: none; stroke-width: 1; stroke-dasharray: none; stroke-linecap: butt; stroke-linejoin: miter; stroke-miterlimit: 10; fill: rgb(39,44,51); fill-rule: nonzero; opacity: 1;" transform="translate(-0.45 -81.9) "/>
	<circle cx="0" cy="0" r="2.2" style="stroke: none; stroke-width: 1; stroke-dasharray: none; stroke-linecap: butt; stroke-linejoin: miter; stroke-miterlimit: 10; fill: rgb(39,44,51); fill-rule: nonzero; opacity: 1;" transform="translate(109.6 86.7) "/>
	<circle cx="0" cy="0" r="2.2" style="stroke: none; stroke-width: 1; stroke-dasharray: none; stroke-linecap: butt; stroke-linejoin: miter; stroke-miterlimit: 10; fill: rgb(39,44,51); fill-rule: nonzero; opacity: 1;" transform="translate(-102.4 86.7) "/>
</g>
	<g transform="translate(1467.74 1468.67) scale(1.77 1.77)">
		<text xml:space="preserve" font-family="Teko" font-size="20" font-style="normal" font-weight="normal" style="stroke: none; stroke-width: 1; stroke-dasharray: none; stroke-linecap: butt; stroke-linejoin: miter; stroke-miterlimit: 10; fill: rgb(255,255,255); fill-rule: nonzero; opacity: 1; white-space: pre;" ><tspan x="-37.02" y="6.28" >PADDINGTON</tspan></text>
	</g>
	<g transform="translate(1498.8 1423.3)">
		<text xml:space="preserve" font-family="Teko" font-size="20" font-style="normal" font-weight="normal" style="stroke: none; stroke-width: 1; stroke-dasharray: none; stroke-linecap: butt; stroke-linejoin: miter; stroke-miterlimit: 10; fill: rgb(39,44,51); fill-rule: nonzero; opacity: 1; white-space: pre;" ><tspan x="-12.93" y="6.28" >1978</tspan></text>
	</g>
	<g transform="translate(1467.8 1514.3)">
		<text xml:space="preserve" font-family="Teko" font-size="20" font-style="normal" font-weight="normal" style="stroke: none; stroke-width: 1; stroke-dasharray: none; stroke-linecap: butt; stroke-linejoin: miter; stroke-miterlimit: 10; fill: rgb(39,44,51); fill-rule: nonzero; opacity: 1; white-space: pre;" ><tspan x="-41.79" y="6.28" >HANDCRAFTED</tspan></text>
	</g>
	<g transform="translate(1434.8 1423.3)">
		<text xml:space="preserve" font-family="Teko" font-size="20" font-style="normal" font-weight="normal" style="stroke: none; stroke-width: 1; stroke-dasharray: none; stroke-linecap: butt; stroke-linejoin: miter; stroke-miterlimit: 10; fill: rgb(39,44,51); fill-rule: nonzero; opacity: 1; white-space: pre;" ><tspan x="-11.79" y="6.28" >EST.</tspan></text>
	</g>
</svg>