<?xml version="1.0" encoding="UTF-8" standalone="no" ?>
<!DOCTYPE svg PUBLIC "-//W3C//DTD SVG 1.1//EN" "http://www.w3.org/Graphics/SVG/1.1/DTD/svg11.dtd">
<svg xmlns="http://www.w3.org/2000/svg" xmlns:xlink="http://www.w3.org/1999/xlink" version="1.1" width="1771.653543328125" height="1771.653543328125" viewBox="0 0 2085 2085" xml:space="preserve">
<desc>Created with Fabric.js 2.3.3</desc>
<defs>
</defs>
<g transform="translate(1042.5 1031.556) scale(0.4 0.42)" style="">
</g>
	<g transform="translate(1042.498 995.917) scale(1.28 1.28)">
		<text xml:space="preserve" font-family="Muli" font-size="20" font-style="normal" font-weight="bold" style="stroke: none; stroke-width: 1; stroke-dasharray: none; stroke-linecap: butt; stroke-linejoin: miter; stroke-miterlimit: 10; fill: rgb(64,71,98); fill-rule: nonzero; opacity: 1; white-space: pre;" ><tspan x="-32.85" y="6.2828" >FLASH</tspan></text>
	</g>
	<g transform="translate(1042.716798584 1049.435) scale(4.64 4.64)">
		<text xml:space="preserve" font-family="Francois One" font-size="20" font-style="normal" font-weight="normal" style="stroke: none; stroke-width: 1; stroke-dasharray: none; stroke-linecap: butt; stroke-linejoin: miter; stroke-miterlimit: 10; fill: rgb(64,71,98); fill-rule: nonzero; opacity: 1; white-space: pre;" ><tspan x="-20.3699996948" y="6.2828" >SALE</tspan></text>
	</g>
<g transform="translate(1044.395 1042.5) scale(0.4 0.34)" style="">
</g>
	<g transform="translate(1042.1414967155 1037.651) scale(6.15 6.15)">
		<text xml:space="preserve" font-family="Oswald" font-size="20" font-style="normal" font-weight="bold" style="stroke: none; stroke-width: 1; stroke-dasharray: none; stroke-linecap: butt; stroke-linejoin: miter; stroke-miterlimit: 10; fill: rgb(64,71,98); fill-rule: nonzero; opacity: 1; white-space: pre;" ><tspan x="-16.0099994659" y="6.2828" >NYC</tspan></text>
	</g>
	<g transform="translate(1043.1157973022 1097.949) scale(1.36 1.36)">
		<text xml:space="preserve" font-family="Montserrat" font-size="20" font-style="normal" font-weight="bold" style="stroke: none; stroke-width: 1; stroke-dasharray: none; stroke-linecap: butt; stroke-linejoin: miter; stroke-miterlimit: 10; fill: rgb(64,71,98); fill-rule: nonzero; opacity: 1; white-space: pre;" ><tspan x="-68.5299980164" y="6.2828" >MANHATTAN</tspan></text>
	</g>
<g transform="translate(1042.5 1044.005) scale(0.47 0.64)" style="">
</g>
	<g transform="translate(1043.1391113281 988.721) scale(4.05 4.05)">
		<text xml:space="preserve" font-family="Roboto Condensed" font-size="20" font-style="normal" font-weight="bold" style="stroke: none; stroke-width: 1; stroke-dasharray: none; stroke-linecap: butt; stroke-linejoin: miter; stroke-miterlimit: 10; fill: rgb(64,71,98); fill-rule: nonzero; opacity: 1; white-space: pre;" ><tspan x="-22.9541015625" y="6.2828" >SODA</tspan></text>
	</g>
	<g transform="translate(1051.9169335937 1062.421) scale(4.05 4.05)">
		<text xml:space="preserve" font-family="Roboto Condensed" font-size="20" font-style="normal" font-weight="bold" style="stroke: none; stroke-width: 1; stroke-dasharray: none; stroke-linecap: butt; stroke-linejoin: miter; stroke-miterlimit: 10; fill: rgb(64,71,98); fill-rule: nonzero; opacity: 1; white-space: pre;" ><tspan x="-21.044921875" y="6.2828" >-POP</tspan></text>
	</g>
	<g transform="translate(1078.8141014557 1111.573) scale(1.59 1.59)">
		<text xml:space="preserve" font-family="Libre Baskerville" font-size="20" font-style="italic" font-weight="normal" style="stroke: none; stroke-width: 1; stroke-dasharray: none; stroke-linecap: butt; stroke-linejoin: miter; stroke-miterlimit: 10; fill: rgb(64,71,98); fill-rule: nonzero; opacity: 1; white-space: pre;" ><tspan x="-34.4900009155" y="6.2828" >specials</tspan></text>
	</g>
<g transform="translate(1042.5 1042.5) scale(0.4 0.4)" style="">
	<path d="m 7.1 0 h 485.9 c 3.9 0 7.1 3.2 7.1 7.1 v 485.9 c 0 3.9 -3.2 7.1 -7.1 7.1 h -485.9 c -3.9 0 -7.1 -3.2 -7.1 -7.1 v -485.9 c 0 -3.9 3.2 -7.1 7.1 -7.1 z" style="stroke: none; stroke-width: 1; stroke-dasharray: none; stroke-linecap: butt; stroke-linejoin: miter; stroke-miterlimit: 4; fill: rgb(255,255,255); fill-rule: nonzero; opacity: 1;" transform="translate(0.05 0.05) translate(-250.05000000000004, -250.05) " stroke-linecap="round" />
</g>
	<g transform="translate(1042.5040018463 1056.81) scale(1.1 1.1)">
		<text xml:space="preserve" font-family="Playfair Display" font-size="20" font-style="normal" font-weight="normal" style="stroke: none; stroke-width: 1; stroke-dasharray: none; stroke-linecap: butt; stroke-linejoin: miter; stroke-miterlimit: 4; fill: rgb(39,44,51); fill-rule: nonzero; opacity: 1; white-space: pre;" ><tspan x="-48.1400016785" y="6.2828" >DESSERTS</tspan></text>
	</g>
	<g transform="translate(1042.4385 1030.904) scale(1.33 1.33)">
		<text xml:space="preserve" font-family="Playfair Display" font-size="20" font-style="normal" font-weight="bold" style="stroke: none; stroke-width: 1; stroke-dasharray: none; stroke-linecap: butt; stroke-linejoin: miter; stroke-miterlimit: 4; fill: rgb(39,44,51); fill-rule: nonzero; opacity: 1; white-space: pre;" ><tspan x="-63.95" y="6.2828" >NEAPOLITAN</tspan></text>
	</g>
<g transform="translate(1042.5 1042.5) scale(0.67 0.67)" style="">
	<path d="m 281.5 300 h -263 c -10.2 0 -18.5 -8.3 -18.5 -18.5 v -263 c 0 -10.2 8.3 -18.5 18.5 -18.5 h 263 c 10.2 0 18.5 8.3 18.5 18.5 v 263 c 0 10.2 -8.3 18.5 -18.5 18.5 z" style="stroke: none; stroke-width: 1; stroke-dasharray: none; stroke-linecap: butt; stroke-linejoin: miter; stroke-miterlimit: 10; fill: rgb(255,255,255); fill-rule: nonzero; opacity: 1;" transform="translate(0 0) translate(-150, -150) " stroke-linecap="round" />
	<rect x="-143.35" y="-40.15" rx="0" ry="0" width="286.7" height="80.3" style="stroke: none; stroke-width: 1; stroke-dasharray: none; stroke-linecap: butt; stroke-linejoin: miter; stroke-miterlimit: 10; fill: rgb(39,44,51); fill-rule: nonzero; opacity: 1;" transform="translate(-0.05 0.05)"/>
</g>
	<g transform="translate(1041.3456011581 998.538) scale(0.66 0.66)">
		<text xml:space="preserve" font-family="Montserrat" font-size="20" font-style="normal" font-weight="bold" style="stroke: none; stroke-width: 1; stroke-dasharray: none; stroke-linecap: butt; stroke-linejoin: miter; stroke-miterlimit: 10; fill: rgb(39,44,51); fill-rule: nonzero; opacity: 1; white-space: pre;" ><tspan x="-130.1600017548" y="6.2828" >PREMIUM CLOTHING CO.</tspan></text>
	</g>
	<g transform="translate(1047.5287994461 1081.208) scale(0.66 0.66)">
		<text xml:space="preserve" font-family="Montserrat" font-size="20" font-style="normal" font-weight="bold" style="stroke: none; stroke-width: 1; stroke-dasharray: none; stroke-linecap: butt; stroke-linejoin: miter; stroke-miterlimit: 10; fill: rgb(39,44,51); fill-rule: nonzero; opacity: 1; white-space: pre;" ><tspan x="-121.1799991608" y="6.2828" >REGD. SAN FERNANDO</tspan></text>
	</g>
	<g transform="translate(1046.3259997482 1099.538) scale(0.66 0.66)">
		<text xml:space="preserve" font-family="Montserrat" font-size="20" font-style="normal" font-weight="bold" style="stroke: none; stroke-width: 1; stroke-dasharray: none; stroke-linecap: butt; stroke-linejoin: miter; stroke-miterlimit: 10; fill: rgb(39,44,51); fill-rule: nonzero; opacity: 1; white-space: pre;" ><tspan x="-103.0999996185" y="6.2828" >PAMPANGA,PH 1571</tspan></text>
	</g>
	<g transform="translate(1042.2050195312 1038.49) scale(1.95 1.95)">
		<text xml:space="preserve" font-family="Vast Shadow" font-size="20" font-style="normal" font-weight="normal" style="stroke: none; stroke-width: 1; stroke-dasharray: none; stroke-linecap: butt; stroke-linejoin: miter; stroke-miterlimit: 10; fill: rgb(255,255,255); fill-rule: nonzero; opacity: 1; white-space: pre;" ><tspan x="-47.958984375" y="6.2828" >UNION</tspan></text>
	</g>
<g transform="translate(1042.5 1042.5) scale(0.41 0.41)" style="">
	<rect x="-237.9" y="-242.8" rx="0" ry="0" width="475.8" height="485.6" style="stroke: none; stroke-width: 1; stroke-dasharray: none; stroke-linecap: butt; stroke-linejoin: miter; stroke-miterlimit: 4; fill: rgb(39,44,51); fill-rule: nonzero; opacity: 1;" transform="translate(0.05 0)"/>
	<path d="m 495.1 500 h -490.2 v -500 h 490.1 v 500 z m -475.8 -14.4 h 461.4 v -471.2 h -461.4 v 471.2 z" style="stroke: none; stroke-width: 1; stroke-dasharray: none; stroke-linecap: butt; stroke-linejoin: miter; stroke-miterlimit: 4; fill: rgb(255,255,255); fill-rule: nonzero; opacity: 1;" transform="translate(0.05 0) translate(-250.00000000000003, -250) " stroke-linecap="round" />
</g>
	<g transform="translate(1042.0344996567 977.505)">
		<text xml:space="preserve" font-family="Libre Baskerville" font-size="15" font-style="normal" font-weight="normal" style="stroke: none; stroke-width: 1; stroke-dasharray: none; stroke-linecap: butt; stroke-linejoin: miter; stroke-miterlimit: 4; fill: rgb(255,255,255); fill-rule: nonzero; opacity: 1; white-space: pre;" ><tspan x="-26.0849996567" y="4.7121" >SINCE</tspan></text>
	</g>
	<g transform="translate(1042.0319993706 1105.505)">
		<text xml:space="preserve" font-family="Libre Baskerville" font-size="15" font-style="normal" font-weight="normal" style="stroke: none; stroke-width: 1; stroke-dasharray: none; stroke-linecap: butt; stroke-linejoin: miter; stroke-miterlimit: 4; fill: rgb(255,255,255); fill-rule: nonzero; opacity: 1; white-space: pre;" ><tspan x="-51.4724993706" y="4.7121" >WE HUSTLE</tspan></text>
	</g>
	<g transform="translate(1041.7855002136 1041.46) scale(2.8 2.8)">
		<text xml:space="preserve" font-family="Libre Baskerville" font-size="20" font-style="normal" font-weight="normal" style="stroke: none; stroke-width: 1; stroke-dasharray: none; stroke-linecap: butt; stroke-linejoin: miter; stroke-miterlimit: 4; fill: rgb(255,255,255); fill-rule: nonzero; opacity: 1; white-space: pre;" ><tspan x="-23.8200000763" y="6.2828" >2018</tspan></text>
	</g>
<g transform="translate(1042.5 1042.5) scale(0.4 0.4)" style="">
	<rect x="-247" y="-135.15" rx="0" ry="0" width="494" height="270.3" style="stroke: none; stroke-width: 1; stroke-dasharray: none; stroke-linecap: butt; stroke-linejoin: miter; stroke-miterlimit: 10; fill: rgb(39,44,51); fill-rule: nonzero; opacity: 1;" transform="translate(0 -0.05)"/>
	<path d="m 0 111.8 v 276.4 h 500 v -276.4 h -500 z m 494 6 v 184.9 h -488 v -184.9 h 488 z m -488 190.9 h 125.1 v 73.5 h -125.1 v -73.5 z m 131 73.4 v -73.5 h 357 v 73.5 h -357 z" style="stroke: none; stroke-width: 1; stroke-dasharray: none; stroke-linecap: butt; stroke-linejoin: miter; stroke-miterlimit: 10; fill: rgb(255,255,255); fill-rule: nonzero; opacity: 1;" transform="translate(0 0) translate(-250, -250) " stroke-linecap="round" />
</g>
	<g transform="translate(1038.5354003906 1025.642) scale(2.59 2.59)">
		<text xml:space="preserve" font-family="Yellowtail" font-size="20" font-style="normal" font-weight="normal" style="stroke: none; stroke-width: 1; stroke-dasharray: none; stroke-linecap: butt; stroke-linejoin: miter; stroke-miterlimit: 10; fill: rgb(255,255,255); fill-rule: nonzero; opacity: 1; white-space: pre;" ><tspan x="-24.0966796875" y="6.2828" >Kinetic</tspan></text>
	</g>
	<g transform="translate(1072.0099966431 1081.05)">
		<text xml:space="preserve" font-family="Montserrat" font-size="20" font-style="normal" font-weight="bold" style="stroke: none; stroke-width: 1; stroke-dasharray: none; stroke-linecap: butt; stroke-linejoin: miter; stroke-miterlimit: 10; fill: rgb(255,255,255); fill-rule: nonzero; opacity: 1; white-space: pre;" ><tspan x="-54.6699966431" y="6.2828" >CYCLE CO.</tspan></text>
	</g>
	<g transform="translate(967.9022997971 1081.044) scale(1.33 1.33)">
		<text xml:space="preserve" font-family="Teko" font-size="20" font-style="normal" font-weight="normal" style="stroke: none; stroke-width: 1; stroke-dasharray: none; stroke-linecap: butt; stroke-linejoin: miter; stroke-miterlimit: 10; fill: rgb(255,255,255); fill-rule: nonzero; opacity: 1; white-space: pre;" ><tspan x="-6.8099998474" y="6.2828" >07</tspan></text>
	</g>
<g transform="translate(1042.5 1042.5) scale(0.42 0.42)" style="">
	<path d="m 404.6 -109.6 c -113.3 0 -205.6 92.2 -205.6 205.6 s 92.2 205.6 205.6 205.6 s 205.7 -92.2 205.7 -205.6 c 0 -113.4 -92.3 -205.6 -205.7 -205.6 z" style="stroke: none; stroke-width: 1; stroke-dasharray: none; stroke-linecap: butt; stroke-linejoin: miter; stroke-miterlimit: 10; fill: rgb(255,255,255); fill-rule: nonzero; opacity: 1;" transform="translate(0 0.05) translate(-404.65, -96.00000000000003) " stroke-linecap="round" />
	<path d="m 403.7 335.9 h 1.8 v -22.2 h -1.8 v 22.2 z" style="stroke: none; stroke-width: 1; stroke-dasharray: none; stroke-linecap: butt; stroke-linejoin: miter; stroke-miterlimit: 10; fill: rgb(255,255,255); fill-rule: nonzero; opacity: 1;" transform="translate(-0.05 228.85) translate(-404.6, -324.79999999999995) " stroke-linecap="round" />
	<path d="m 405.6 -144 h -1.8 v 22.2 h 1.8 v -22.2 z" style="stroke: none; stroke-width: 1; stroke-dasharray: none; stroke-linecap: butt; stroke-linejoin: miter; stroke-miterlimit: 10; fill: rgb(255,255,255); fill-rule: nonzero; opacity: 1;" transform="translate(0.05 -228.85) translate(-404.70000000000005, 132.9) " stroke-linecap="round" />
	<path d="m 386.2 -121 h 0.4 l -1.9 -22.1 l -1.8 0.2 l 1.9 22.1 c 0.4 -0.1 0.9 -0.2 1.4 -0.2 z" style="stroke: none; stroke-width: 1; stroke-dasharray: none; stroke-linecap: butt; stroke-linejoin: miter; stroke-miterlimit: 10; fill: rgb(255,255,255); fill-rule: nonzero; opacity: 1;" transform="translate(-19.9 -227.9) translate(-384.75, 131.95) " stroke-linecap="round" />
	<path d="m 423.1 312.9 h -0.4 l 1.9 22.1 l 1.8 -0.2 l -1.9 -22.1 c -0.4 0.2 -0.9 0.2 -1.4 0.2 z" style="stroke: none; stroke-width: 1; stroke-dasharray: none; stroke-linecap: butt; stroke-linejoin: miter; stroke-miterlimit: 10; fill: rgb(255,255,255); fill-rule: nonzero; opacity: 1;" transform="translate(19.9 227.9) translate(-424.55000000000007, -323.85) " stroke-linecap="round" />
	<path d="m 367.7 -118.6 l -3.9 -21.9 l -1.8 0.3 l 3.9 21.9 l 1.8 -0.3 z" style="stroke: none; stroke-width: 1; stroke-dasharray: none; stroke-linecap: butt; stroke-linejoin: miter; stroke-miterlimit: 10; fill: rgb(255,255,255); fill-rule: nonzero; opacity: 1;" transform="translate(-39.8 -225.35) translate(-364.85, 129.39999999999998) " stroke-linecap="round" />
	<path d="m 441.6 310.6 l 3.9 21.9 l 1.8 -0.3 l -3.9 -21.9 l -1.8 0.3 z" style="stroke: none; stroke-width: 1; stroke-dasharray: none; stroke-linecap: butt; stroke-linejoin: miter; stroke-miterlimit: 10; fill: rgb(255,255,255); fill-rule: nonzero; opacity: 1;" transform="translate(39.8 225.45) translate(-444.45000000000005, -321.4) " stroke-linecap="round" />
	<path d="m 347.9 -114.3 c 0.4 -0.1 0.8 -0.2 1.3 -0.4 l -5.7 -21.4 l -1.8 0.5 l 5.7 21.4 c 0.2 0 0.3 -0.1 0.5 -0.1 z" style="stroke: none; stroke-width: 1; stroke-dasharray: none; stroke-linecap: butt; stroke-linejoin: miter; stroke-miterlimit: 10; fill: rgb(255,255,255); fill-rule: nonzero; opacity: 1;" transform="translate(-59.2 -221.1) translate(-345.45, 125.14999999999999) " stroke-linecap="round" />
	<path d="m 461.4 306.2 c -0.4 0.1 -0.9 0.3 -1.3 0.4 l 5.7 21.4 l 1.8 -0.5 l -5.7 -21.4 c -0.2 0.1 -0.3 0.1 -0.5 0.1 z" style="stroke: none; stroke-width: 1; stroke-dasharray: none; stroke-linecap: butt; stroke-linejoin: miter; stroke-miterlimit: 10; fill: rgb(255,255,255); fill-rule: nonzero; opacity: 1;" transform="translate(59.2 221.1) translate(-463.84999999999997, -317.04999999999995) " stroke-linecap="round" />
	<path d="m 478.3 301 l 7.6 20.8 l 1.7 -0.6 l -7.6 -20.8 c -0.6 0.1 -1.1 0.4 -1.7 0.6 z" style="stroke: none; stroke-width: 1; stroke-dasharray: none; stroke-linecap: butt; stroke-linejoin: miter; stroke-miterlimit: 10; fill: rgb(255,255,255); fill-rule: nonzero; opacity: 1;" transform="translate(78.3 215.15) translate(-482.95000000000005, -311.1) " stroke-linecap="round" />
	<path d="m 331 -109 l -7.6 -20.8 l -1.7 0.6 l 7.6 20.8 c 0.6 -0.2 1.1 -0.4 1.7 -0.6 z" style="stroke: none; stroke-width: 1; stroke-dasharray: none; stroke-linecap: butt; stroke-linejoin: miter; stroke-miterlimit: 10; fill: rgb(255,255,255); fill-rule: nonzero; opacity: 1;" transform="translate(-78.3 -215.05) translate(-326.35, 119.10000000000002) " stroke-linecap="round" />
	<path d="m 496.2 293.6 c -0.1 0.1 -0.3 0.1 -0.4 0.2 l 9.4 20.1 l 1.7 -0.8 l -9.4 -20.1 c -0.4 0.2 -0.8 0.4 -1.3 0.6 z" style="stroke: none; stroke-width: 1; stroke-dasharray: none; stroke-linecap: butt; stroke-linejoin: miter; stroke-miterlimit: 10; fill: rgb(255,255,255); fill-rule: nonzero; opacity: 1;" transform="translate(96.7 207.5) translate(-501.35, -303.45000000000005) " stroke-linecap="round" />
	<path d="m 313 -101.6 c 0.1 -0.1 0.3 -0.1 0.4 -0.2 l -9.4 -20.1 l -1.7 0.8 l 9.4 20.1 c 0.5 -0.2 0.9 -0.4 1.3 -0.6 z" style="stroke: none; stroke-width: 1; stroke-dasharray: none; stroke-linecap: butt; stroke-linejoin: miter; stroke-miterlimit: 10; fill: rgb(255,255,255); fill-rule: nonzero; opacity: 1;" transform="translate(-96.8 -207.4) translate(-307.85, 111.45) " stroke-linecap="round" />
	<path d="m 512.7 285 l 11.1 19.2 l 1.6 -0.9 l -11.1 -19.2 c -0.5 0.3 -1 0.6 -1.6 0.9 z" style="stroke: none; stroke-width: 1; stroke-dasharray: none; stroke-linecap: butt; stroke-linejoin: miter; stroke-miterlimit: 10; fill: rgb(255,255,255); fill-rule: nonzero; opacity: 1;" transform="translate(114.4 198.2) translate(-519.0500000000001, -294.15) " stroke-linecap="round" />
	<path d="m 296.6 -93.1 l -11.1 -19.2 l -1.6 0.9 l 11.1 19.2 c 0.5 -0.3 1 -0.6 1.6 -0.9 z" style="stroke: none; stroke-width: 1; stroke-dasharray: none; stroke-linecap: butt; stroke-linejoin: miter; stroke-miterlimit: 10; fill: rgb(255,255,255); fill-rule: nonzero; opacity: 1;" transform="translate(-114.4 -198.2) translate(-290.25, 102.25) " stroke-linecap="round" />
	<path d="m 528.8 274.9 l 12.7 18.2 l 1.5 -1.1 l -12.7 -18.2 c -0.5 0.4 -1 0.7 -1.5 1.1 z" style="stroke: none; stroke-width: 1; stroke-dasharray: none; stroke-linecap: butt; stroke-linejoin: miter; stroke-miterlimit: 10; fill: rgb(255,255,255); fill-rule: nonzero; opacity: 1;" transform="translate(131.25 187.5) translate(-535.9, -283.44999999999993) " stroke-linecap="round" />
	<path d="m 280.5 -82.9 l -12.7 -18.2 l -1.5 1.1 l 12.7 18.1 c 0.5 -0.3 1 -0.7 1.5 -1 z" style="stroke: none; stroke-width: 1; stroke-dasharray: none; stroke-linecap: butt; stroke-linejoin: miter; stroke-miterlimit: 10; fill: rgb(255,255,255); fill-rule: nonzero; opacity: 1;" transform="translate(-131.25 -187.45) translate(-273.4, 91.5) " stroke-linecap="round" />
	<path d="m 264.4 -70.6 c 0.3 -0.3 0.7 -0.6 1 -0.9 l -14.3 -17 l -1.4 1.2 l 14.3 17 c 0.1 0 0.2 -0.2 0.4 -0.3 z" style="stroke: none; stroke-width: 1; stroke-dasharray: none; stroke-linecap: butt; stroke-linejoin: miter; stroke-miterlimit: 10; fill: rgb(255,255,255); fill-rule: nonzero; opacity: 1;" transform="translate(-147.1 -175.35) translate(-257.54999999999995, 79.4) " stroke-linecap="round" />
	<path d="m 544.9 262.5 c -0.3 0.3 -0.7 0.6 -1 0.9 l 14.3 17 l 1.4 -1.2 l -14.3 -17 c -0.1 0.1 -0.2 0.2 -0.4 0.3 z" style="stroke: none; stroke-width: 1; stroke-dasharray: none; stroke-linecap: butt; stroke-linejoin: miter; stroke-miterlimit: 10; fill: rgb(255,255,255); fill-rule: nonzero; opacity: 1;" transform="translate(147.1 175.35) translate(-551.75, -271.29999999999995) " stroke-linecap="round" />
	<path d="m 235.6 -74.4 l -1.3 1.3 l 15.7 15.8 l 1.3 -1.3 l -15.7 -15.8 z" style="stroke: none; stroke-width: 1; stroke-dasharray: none; stroke-linecap: butt; stroke-linejoin: miter; stroke-miterlimit: 10; fill: rgb(255,255,255); fill-rule: nonzero; opacity: 1;" transform="translate(-161.85 -161.8) translate(-242.79999999999998, 65.85000000000001) " stroke-linecap="round" />
	<path d="m 573.7 266.3 l 1.3 -1.3 l -15.7 -15.7 l -1.3 1.3 l 15.7 15.7 z" style="stroke: none; stroke-width: 1; stroke-dasharray: none; stroke-linecap: butt; stroke-linejoin: miter; stroke-miterlimit: 10; fill: rgb(255,255,255); fill-rule: nonzero; opacity: 1;" transform="translate(161.85 161.85) translate(-566.5, -257.8) " stroke-linecap="round" />
	<path d="m 587.9 250.9 l 1.2 -1.4 l -17 -14.3 c -0.3 0.3 -0.6 0.6 -0.9 1 c -0.1 0.1 -0.2 0.3 -0.4 0.4 l 17.1 14.3 z" style="stroke: none; stroke-width: 1; stroke-dasharray: none; stroke-linecap: butt; stroke-linejoin: miter; stroke-miterlimit: 10; fill: rgb(255,255,255); fill-rule: nonzero; opacity: 1;" transform="translate(175.3 147.1) translate(-579.95, -243.05) " stroke-linecap="round" />
	<path d="m 221.4 -59 l -1.2 1.4 l 17 14.3 c 0.3 -0.3 0.6 -0.7 0.9 -1 c 0.1 -0.1 0.2 -0.3 0.3 -0.4 l -17 -14.3 z" style="stroke: none; stroke-width: 1; stroke-dasharray: none; stroke-linecap: butt; stroke-linejoin: miter; stroke-miterlimit: 10; fill: rgb(255,255,255); fill-rule: nonzero; opacity: 1;" transform="translate(-175.35 -147.1) translate(-229.3, 51.15) " stroke-linecap="round" />
	<path d="m 600.7 234.4 l 1.1 -1.5 l -18.2 -12.7 c -0.3 0.5 -0.7 0.9 -1 1.4 l -0.1 0.1 l 18.2 12.7 z" style="stroke: none; stroke-width: 1; stroke-dasharray: none; stroke-linecap: butt; stroke-linejoin: miter; stroke-miterlimit: 10; fill: rgb(255,255,255); fill-rule: nonzero; opacity: 1;" transform="translate(187.5 131.35) translate(-592.1500000000001, -227.3) " stroke-linecap="round" />
	<path d="m 208.6 -42.4 l -1.1 1.5 l 18.2 12.7 c 0.3 -0.5 0.7 -1 1.1 -1.5 l -18.2 -12.7 z" style="stroke: none; stroke-width: 1; stroke-dasharray: none; stroke-linecap: butt; stroke-linejoin: miter; stroke-miterlimit: 10; fill: rgb(255,255,255); fill-rule: nonzero; opacity: 1;" transform="translate(-187.5 -131.25) translate(-217.14999999999998, 35.3) " stroke-linecap="round" />
	<path d="m 197.3 -24.8 l -0.9 1.6 l 19.2 11.1 c 0.3 -0.5 0.6 -1.1 0.9 -1.6 l -19.2 -11.1 z" style="stroke: none; stroke-width: 1; stroke-dasharray: none; stroke-linecap: butt; stroke-linejoin: miter; stroke-miterlimit: 10; fill: rgb(255,255,255); fill-rule: nonzero; opacity: 1;" transform="translate(-198.2 -114.4) translate(-206.45, 18.45) " stroke-linecap="round" />
	<path d="m 612 216.8 l 0.9 -1.6 l -19.2 -11.1 c -0.3 0.5 -0.6 1.1 -0.9 1.6 l 19.2 11.1 z" style="stroke: none; stroke-width: 1; stroke-dasharray: none; stroke-linecap: butt; stroke-linejoin: miter; stroke-miterlimit: 10; fill: rgb(255,255,255); fill-rule: nonzero; opacity: 1;" transform="translate(198.2 114.5) translate(-602.8499999999999, -210.45000000000002) " stroke-linecap="round" />
	<path d="m 187.6 -6.3 l -0.8 1.7 l 20.1 9.4 c 0.1 -0.1 0.1 -0.3 0.2 -0.4 c 0.2 -0.4 0.4 -0.9 0.6 -1.3 l -20.1 -9.4 z" style="stroke: none; stroke-width: 1; stroke-dasharray: none; stroke-linecap: butt; stroke-linejoin: miter; stroke-miterlimit: 10; fill: rgb(255,255,255); fill-rule: nonzero; opacity: 1;" transform="translate(-207.4 -96.7) translate(-197.24999999999997, 0.7499999999999991) " stroke-linecap="round" />
	<path d="m 621.7 198.2 l 0.8 -1.7 l -20.1 -9.4 c -0.1 0.1 -0.1 0.3 -0.2 0.4 c -0.2 0.4 -0.4 0.9 -0.6 1.3 l 20.1 9.4 z" style="stroke: none; stroke-width: 1; stroke-dasharray: none; stroke-linecap: butt; stroke-linejoin: miter; stroke-miterlimit: 10; fill: rgb(255,255,255); fill-rule: nonzero; opacity: 1;" transform="translate(207.4 96.7) translate(-612.05, -192.65) " stroke-linecap="round" />
	<path d="m 179.5 13 l -0.6 1.7 l 20.8 7.6 c 0.2 -0.6 0.4 -1.2 0.6 -1.7 l -20.8 -7.6 z" style="stroke: none; stroke-width: 1; stroke-dasharray: none; stroke-linecap: butt; stroke-linejoin: miter; stroke-miterlimit: 10; fill: rgb(255,255,255); fill-rule: nonzero; opacity: 1;" transform="translate(-215.05 -78.3) translate(-189.60000000000002, -17.65) " stroke-linecap="round" />
	<path d="m 629.8 178.9 l 0.6 -1.7 l -20.8 -7.6 c -0.2 0.6 -0.4 1.2 -0.6 1.7 l 20.8 7.6 z" style="stroke: none; stroke-width: 1; stroke-dasharray: none; stroke-linecap: butt; stroke-linejoin: miter; stroke-miterlimit: 10; fill: rgb(255,255,255); fill-rule: nonzero; opacity: 1;" transform="translate(215.05 78.3) translate(-619.7, -174.25) " stroke-linecap="round" />
	<path d="m 172.6 34.8 l 21.4 5.7 c 0.1 -0.4 0.2 -0.8 0.4 -1.3 c 0.1 -0.2 0.1 -0.3 0.2 -0.5 l -21.5 -5.7 l -0.5 1.8 z" style="stroke: none; stroke-width: 1; stroke-dasharray: none; stroke-linecap: butt; stroke-linejoin: miter; stroke-miterlimit: 10; fill: rgb(255,255,255); fill-rule: nonzero; opacity: 1;" transform="translate(-221.05 -59.2) translate(-183.6, -36.75) " stroke-linecap="round" />
	<path d="m 636.7 157.2 l -21.4 -5.7 c -0.1 0.4 -0.2 0.9 -0.4 1.3 c 0 0.2 -0.1 0.3 -0.1 0.5 l 21.4 5.7 l 0.5 -1.8 z" style="stroke: none; stroke-width: 1; stroke-dasharray: none; stroke-linecap: butt; stroke-linejoin: miter; stroke-miterlimit: 10; fill: rgb(255,255,255); fill-rule: nonzero; opacity: 1;" transform="translate(221.1 59.3) translate(-625.75, -155.25) " stroke-linecap="round" />
	<path d="m 618.9 134.7 l 21.9 3.9 l 0.3 -1.8 l -21.9 -3.9 c 0 0.6 -0.1 1.2 -0.3 1.8 z" style="stroke: none; stroke-width: 1; stroke-dasharray: none; stroke-linecap: butt; stroke-linejoin: miter; stroke-miterlimit: 10; fill: rgb(255,255,255); fill-rule: nonzero; opacity: 1;" transform="translate(225.35 39.8) translate(-630, -135.75) " stroke-linecap="round" />
	<path d="m 190.4 57.3 l -21.9 -3.9 l -0.3 1.8 l 21.9 3.9 c 0 -0.6 0.1 -1.2 0.3 -1.8 z" style="stroke: none; stroke-width: 1; stroke-dasharray: none; stroke-linecap: butt; stroke-linejoin: miter; stroke-miterlimit: 10; fill: rgb(255,255,255); fill-rule: nonzero; opacity: 1;" transform="translate(-225.35 -39.7) translate(-179.3, -56.25) " stroke-linecap="round" />
	<path d="m 621.6 114.3 c 0 0.5 -0.1 1 -0.1 1.5 l 22.1 1.9 l 0.2 -1.8 l -22.1 -1.9 l -0.1 0.3 z" style="stroke: none; stroke-width: 1; stroke-dasharray: none; stroke-linecap: butt; stroke-linejoin: miter; stroke-miterlimit: 10; fill: rgb(255,255,255); fill-rule: nonzero; opacity: 1;" transform="translate(228 19.9) translate(-632.6500000000001, -115.85) " stroke-linecap="round" />
	<path d="m 187.7 77.6 c 0 -0.5 0.1 -1 0.1 -1.5 l -22.1 -1.9 l -0.2 1.8 l 22.1 1.9 c 0.1 -0.1 0.1 -0.2 0.1 -0.3 z" style="stroke: none; stroke-width: 1; stroke-dasharray: none; stroke-linecap: butt; stroke-linejoin: miter; stroke-miterlimit: 10; fill: rgb(255,255,255); fill-rule: nonzero; opacity: 1;" transform="translate(-228 -19.9) translate(-176.64999999999998, -76.04999999999998) " stroke-linecap="round" />
	<path d="m 644.6 96.9 v -1.8 h -22.2 v 0.9 v 0.9 h 22.2 z" style="stroke: none; stroke-width: 1; stroke-dasharray: none; stroke-linecap: butt; stroke-linejoin: miter; stroke-miterlimit: 10; fill: rgb(255,255,255); fill-rule: nonzero; opacity: 1;" transform="translate(228.85 0.05) translate(-633.5, -96.00000000000001) " stroke-linecap="round" />
	<path d="m 186.9 95.1 h -22.2 v 1.8 h 22.2 v -0.9 v -0.9 z" style="stroke: none; stroke-width: 1; stroke-dasharray: none; stroke-linecap: butt; stroke-linejoin: miter; stroke-miterlimit: 10; fill: rgb(255,255,255); fill-rule: nonzero; opacity: 1;" transform="translate(-228.85 0.05) translate(-175.8, -95.99999999999999) " stroke-linecap="round" />
	<path d="m 187.7 114 l -22.1 1.9 l 0.2 1.8 l 22.1 -1.9 c 0 -0.5 -0.1 -1 -0.1 -1.4 c -0.1 -0.1 -0.1 -0.2 -0.1 -0.4 z" style="stroke: none; stroke-width: 1; stroke-dasharray: none; stroke-linecap: butt; stroke-linejoin: miter; stroke-miterlimit: 10; fill: rgb(255,255,255); fill-rule: nonzero; opacity: 1;" transform="translate(-227.9 19.9) translate(-176.75, -115.85) " stroke-linecap="round" />
	<path d="m 621.6 77.9 l 22.1 -1.9 l -0.2 -1.8 l -22.1 1.9 c 0 0.5 0.1 1 0.1 1.5 l 0.1 0.3 z" style="stroke: none; stroke-width: 1; stroke-dasharray: none; stroke-linecap: butt; stroke-linejoin: miter; stroke-miterlimit: 10; fill: rgb(255,255,255); fill-rule: nonzero; opacity: 1;" transform="translate(227.9 -19.9) translate(-632.55, -76.05000000000001) " stroke-linecap="round" />
	<path d="m 168.2 136.7 l 0.3 1.8 l 21.9 -3.9 l -0.3 -1.8 l -21.9 3.9 z" style="stroke: none; stroke-width: 1; stroke-dasharray: none; stroke-linecap: butt; stroke-linejoin: miter; stroke-miterlimit: 10; fill: rgb(255,255,255); fill-rule: nonzero; opacity: 1;" transform="translate(-225.35 39.7) translate(-179.3, -135.64999999999998) " stroke-linecap="round" />
	<path d="m 641.1 55.2 l -0.3 -1.8 l -21.9 3.9 l 0.3 1.8 l 21.9 -3.9 z" style="stroke: none; stroke-width: 1; stroke-dasharray: none; stroke-linecap: butt; stroke-linejoin: miter; stroke-miterlimit: 10; fill: rgb(255,255,255); fill-rule: nonzero; opacity: 1;" transform="translate(225.35 -39.7) translate(-630, -56.25) " stroke-linecap="round" />
	<path d="m 615.3 40.5 l 21.4 -5.7 l -0.5 -1.8 l -21.4 5.7 c 0 0.2 0.1 0.3 0.1 0.5 c 0.1 0.4 0.3 0.9 0.4 1.3 z" style="stroke: none; stroke-width: 1; stroke-dasharray: none; stroke-linecap: butt; stroke-linejoin: miter; stroke-miterlimit: 10; fill: rgb(255,255,255); fill-rule: nonzero; opacity: 1;" transform="translate(221.1 -59.2) translate(-625.75, -36.75) " stroke-linecap="round" />
	<path d="m 194 151.5 l -21.4 5.7 l 0.5 1.8 l 21.4 -5.7 c -0.1 -0.2 -0.1 -0.4 -0.2 -0.5 c -0.1 -0.5 -0.2 -0.9 -0.3 -1.3 z" style="stroke: none; stroke-width: 1; stroke-dasharray: none; stroke-linecap: butt; stroke-linejoin: miter; stroke-miterlimit: 10; fill: rgb(255,255,255); fill-rule: nonzero; opacity: 1;" transform="translate(-221.1 59.3) translate(-183.55, -155.25) " stroke-linecap="round" />
	<path d="m 178.9 177.2 l 0.6 1.7 l 20.8 -7.6 c -0.2 -0.6 -0.4 -1.1 -0.6 -1.7 l -20.8 7.6 z" style="stroke: none; stroke-width: 1; stroke-dasharray: none; stroke-linecap: butt; stroke-linejoin: miter; stroke-miterlimit: 10; fill: rgb(255,255,255); fill-rule: nonzero; opacity: 1;" transform="translate(-215.05 78.3) translate(-189.60000000000002, -174.25) " stroke-linecap="round" />
	<path d="m 630.5 14.8 l -0.6 -1.7 l -20.9 7.5 c 0.2 0.6 0.4 1.2 0.6 1.7 l 20.9 -7.5 z" style="stroke: none; stroke-width: 1; stroke-dasharray: none; stroke-linecap: butt; stroke-linejoin: miter; stroke-miterlimit: 10; fill: rgb(255,255,255); fill-rule: nonzero; opacity: 1;" transform="translate(215.1 -78.25) translate(-619.75, -17.700000000000003) " stroke-linecap="round" />
	<path d="m 206.9 187.2 l -20.1 9.4 l 0.8 1.7 l 20.1 -9.4 c -0.2 -0.4 -0.4 -0.9 -0.6 -1.3 c -0.1 -0.2 -0.2 -0.3 -0.2 -0.4 z" style="stroke: none; stroke-width: 1; stroke-dasharray: none; stroke-linecap: butt; stroke-linejoin: miter; stroke-miterlimit: 10; fill: rgb(255,255,255); fill-rule: nonzero; opacity: 1;" transform="translate(-207.4 96.8) translate(-197.25, -192.74999999999997) " stroke-linecap="round" />
	<path d="m 602.4 4.8 l 20.1 -9.4 l -0.8 -1.7 l -20.1 9.4 c 0.2 0.4 0.4 0.8 0.6 1.3 c 0.1 0.1 0.2 0.2 0.2 0.4 z" style="stroke: none; stroke-width: 1; stroke-dasharray: none; stroke-linecap: butt; stroke-linejoin: miter; stroke-miterlimit: 10; fill: rgb(255,255,255); fill-rule: nonzero; opacity: 1;" transform="translate(207.4 -96.7) translate(-612.05, 0.75) " stroke-linecap="round" />
	<path d="m 196.4 215.2 l 0.9 1.6 l 19.2 -11.1 c -0.3 -0.5 -0.6 -1.1 -0.9 -1.6 l -19.2 11.1 z" style="stroke: none; stroke-width: 1; stroke-dasharray: none; stroke-linecap: butt; stroke-linejoin: miter; stroke-miterlimit: 10; fill: rgb(255,255,255); fill-rule: nonzero; opacity: 1;" transform="translate(-198.2 114.5) translate(-206.45, -210.45) " stroke-linecap="round" />
	<path d="m 612.9 -23.2 l -0.9 -1.6 l -19.2 11.1 c 0.3 0.5 0.6 1.1 0.9 1.6 l 19.2 -11.1 z" style="stroke: none; stroke-width: 1; stroke-dasharray: none; stroke-linecap: butt; stroke-linejoin: miter; stroke-miterlimit: 10; fill: rgb(255,255,255); fill-rule: nonzero; opacity: 1;" transform="translate(198.2 -114.4) translate(-602.8499999999999, 18.450000000000003) " stroke-linecap="round" />
	<path d="m 207.6 232.9 l 1.1 1.5 l 18.2 -12.7 c -0.4 -0.5 -0.7 -1 -1.1 -1.5 l -18.2 12.7 z" style="stroke: none; stroke-width: 1; stroke-dasharray: none; stroke-linecap: butt; stroke-linejoin: miter; stroke-miterlimit: 10; fill: rgb(255,255,255); fill-rule: nonzero; opacity: 1;" transform="translate(-187.4 131.35) translate(-217.25, -227.3) " stroke-linecap="round" />
	<path d="m 601.7 -40.9 l -1.1 -1.5 l -18.2 12.7 l 0.1 0.1 c 0.3 0.5 0.7 0.9 1 1.4 l 18.2 -12.7 z" style="stroke: none; stroke-width: 1; stroke-dasharray: none; stroke-linecap: butt; stroke-linejoin: miter; stroke-miterlimit: 10; fill: rgb(255,255,255); fill-rule: nonzero; opacity: 1;" transform="translate(187.4 -131.25) translate(-592.05, 35.3) " stroke-linecap="round" />
	<path d="m 589.1 -57.6 l -1.2 -1.4 l -17 14.3 c 0.1 0.1 0.2 0.3 0.4 0.4 c 0.3 0.3 0.6 0.7 0.9 1 l 16.9 -14.3 z" style="stroke: none; stroke-width: 1; stroke-dasharray: none; stroke-linecap: butt; stroke-linejoin: miter; stroke-miterlimit: 10; fill: rgb(255,255,255); fill-rule: nonzero; opacity: 1;" transform="translate(175.35 -147.1) translate(-580, 51.150000000000006) " stroke-linecap="round" />
	<path d="m 220.2 249.5 l 1.2 1.4 l 17 -14.3 c -0.1 -0.1 -0.2 -0.3 -0.4 -0.4 c -0.3 -0.3 -0.6 -0.6 -0.9 -1 l -16.9 14.3 z" style="stroke: none; stroke-width: 1; stroke-dasharray: none; stroke-linecap: butt; stroke-linejoin: miter; stroke-miterlimit: 10; fill: rgb(255,255,255); fill-rule: nonzero; opacity: 1;" transform="translate(-175.35 147.1) translate(-229.29999999999995, -243.05) " stroke-linecap="round" />
	<path d="m 575 -73 l -1.3 -1.3 l -15.7 15.7 l 1.3 1.3 l 15.7 -15.7 z" style="stroke: none; stroke-width: 1; stroke-dasharray: none; stroke-linecap: butt; stroke-linejoin: miter; stroke-miterlimit: 10; fill: rgb(255,255,255); fill-rule: nonzero; opacity: 1;" transform="translate(161.85 -161.75) translate(-566.5, 65.8) " stroke-linecap="round" />
	<path d="m 234.3 265 l 1.3 1.3 l 15.7 -15.7 l -1.3 -1.3 l -15.7 15.7 z" style="stroke: none; stroke-width: 1; stroke-dasharray: none; stroke-linecap: butt; stroke-linejoin: miter; stroke-miterlimit: 10; fill: rgb(255,255,255); fill-rule: nonzero; opacity: 1;" transform="translate(-161.85 161.85) translate(-242.8, -257.8) " stroke-linecap="round" />
	<path d="m 558.2 -88.4 l -14.3 17 c 0.3 0.3 0.7 0.6 1 0.9 c 0.1 0.1 0.3 0.2 0.4 0.3 l 14.3 -17 l -1.4 -1.2 z" style="stroke: none; stroke-width: 1; stroke-dasharray: none; stroke-linecap: butt; stroke-linejoin: miter; stroke-miterlimit: 10; fill: rgb(255,255,255); fill-rule: nonzero; opacity: 1;" transform="translate(147.1 -175.25) translate(-551.75, 79.30000000000001) " stroke-linecap="round" />
	<path d="m 251.1 280.4 l 14.3 -17 c -0.3 -0.3 -0.7 -0.6 -1 -0.9 c -0.1 -0.1 -0.3 -0.2 -0.4 -0.3 l -14.3 17 l 1.4 1.2 z" style="stroke: none; stroke-width: 1; stroke-dasharray: none; stroke-linecap: butt; stroke-linejoin: miter; stroke-miterlimit: 10; fill: rgb(255,255,255); fill-rule: nonzero; opacity: 1;" transform="translate(-147.1 175.35) translate(-257.54999999999995, -271.29999999999995) " stroke-linecap="round" />
	<path d="m 541.5 -101.1 l -12.7 18.2 c 0.5 0.3 1 0.7 1.4 1 h 0.1 l 12.7 -18.2 l -1.5 -1 z" style="stroke: none; stroke-width: 1; stroke-dasharray: none; stroke-linecap: butt; stroke-linejoin: miter; stroke-miterlimit: 10; fill: rgb(255,255,255); fill-rule: nonzero; opacity: 1;" transform="translate(131.25 -187.45) translate(-535.9, 91.5) " stroke-linecap="round" />
	<path d="m 267.8 293.1 l 12.7 -18.2 c -0.5 -0.3 -0.9 -0.7 -1.4 -1 l -0.1 -0.1 l -12.7 18.2 l 1.5 1.1 z" style="stroke: none; stroke-width: 1; stroke-dasharray: none; stroke-linecap: butt; stroke-linejoin: miter; stroke-miterlimit: 10; fill: rgb(255,255,255); fill-rule: nonzero; opacity: 1;" transform="translate(-131.25 187.5) translate(-273.4, -283.45000000000005) " stroke-linecap="round" />
	<path d="m 523.8 -112.3 l -11.1 19.2 c 0.5 0.3 1.1 0.6 1.6 0.9 l 11.1 -19.2 l -1.6 -0.9 z" style="stroke: none; stroke-width: 1; stroke-dasharray: none; stroke-linecap: butt; stroke-linejoin: miter; stroke-miterlimit: 10; fill: rgb(255,255,255); fill-rule: nonzero; opacity: 1;" transform="translate(114.4 -198.2) translate(-519.05, 102.25) " stroke-linecap="round" />
	<path d="m 285.5 304.2 l 11.1 -19.2 c -0.5 -0.3 -1.1 -0.6 -1.6 -0.9 l -11.1 19.2 l 1.6 0.9 z" style="stroke: none; stroke-width: 1; stroke-dasharray: none; stroke-linecap: butt; stroke-linejoin: miter; stroke-miterlimit: 10; fill: rgb(255,255,255); fill-rule: nonzero; opacity: 1;" transform="translate(-114.4 198.2) translate(-290.25, -294.15) " stroke-linecap="round" />
	<path d="m 505.2 -121.9 l -9.4 20.1 c 0.1 0.1 0.3 0.1 0.4 0.2 c 0.4 0.2 0.9 0.4 1.3 0.6 l 9.4 -20.1 l -1.7 -0.8 z" style="stroke: none; stroke-width: 1; stroke-dasharray: none; stroke-linecap: butt; stroke-linejoin: miter; stroke-miterlimit: 10; fill: rgb(255,255,255); fill-rule: nonzero; opacity: 1;" transform="translate(96.7 -207.4) translate(-501.35, 111.45000000000002) " stroke-linecap="round" />
	<path d="m 304.1 313.8 l 9.4 -20.1 c -0.1 -0.1 -0.3 -0.1 -0.4 -0.2 c -0.4 -0.2 -0.8 -0.4 -1.3 -0.6 l -9.4 20.1 l 1.7 0.8 z" style="stroke: none; stroke-width: 1; stroke-dasharray: none; stroke-linecap: butt; stroke-linejoin: miter; stroke-miterlimit: 10; fill: rgb(255,255,255); fill-rule: nonzero; opacity: 1;" transform="translate(-96.7 207.4) translate(-307.95000000000005, -303.35) " stroke-linecap="round" />
	<path d="m 485.9 -129.8 l -7.6 20.8 c 0.6 0.2 1.2 0.4 1.7 0.6 l 7.6 -20.8 l -1.7 -0.6 z" style="stroke: none; stroke-width: 1; stroke-dasharray: none; stroke-linecap: butt; stroke-linejoin: miter; stroke-miterlimit: 10; fill: rgb(255,255,255); fill-rule: nonzero; opacity: 1;" transform="translate(78.3 -215.05) translate(-482.94999999999993, 119.10000000000002) " stroke-linecap="round" />
	<path d="m 323.4 321.8 l 7.6 -20.8 c -0.6 -0.2 -1.2 -0.4 -1.7 -0.6 l -7.6 20.8 l 1.7 0.6 z" style="stroke: none; stroke-width: 1; stroke-dasharray: none; stroke-linecap: butt; stroke-linejoin: miter; stroke-miterlimit: 10; fill: rgb(255,255,255); fill-rule: nonzero; opacity: 1;" transform="translate(-78.3 215.15) translate(-326.35, -311.1) " stroke-linecap="round" />
	<path d="m 343.4 328 l 5.7 -21.4 c -0.4 -0.1 -0.9 -0.2 -1.3 -0.4 c -0.2 0 -0.3 -0.1 -0.5 -0.1 l -5.7 21.4 l 1.8 0.5 z" style="stroke: none; stroke-width: 1; stroke-dasharray: none; stroke-linecap: butt; stroke-linejoin: miter; stroke-miterlimit: 10; fill: rgb(255,255,255); fill-rule: nonzero; opacity: 1;" transform="translate(-59.3 221.1) translate(-345.34999999999997, -317.05) " stroke-linecap="round" />
	<path d="m 465.9 -136 l -5.7 21.4 c 0.4 0.1 0.9 0.2 1.3 0.4 c 0.2 0 0.3 0.1 0.5 0.1 l 5.7 -21.4 l -1.8 -0.5 z" style="stroke: none; stroke-width: 1; stroke-dasharray: none; stroke-linecap: butt; stroke-linejoin: miter; stroke-miterlimit: 10; fill: rgb(255,255,255); fill-rule: nonzero; opacity: 1;" transform="translate(59.3 -221) translate(-463.95, 125.05) " stroke-linecap="round" />
	<path d="m 363.9 332.4 l 3.9 -21.9 l -1.8 -0.3 l -3.9 21.9 l 1.8 0.3 z" style="stroke: none; stroke-width: 1; stroke-dasharray: none; stroke-linecap: butt; stroke-linejoin: miter; stroke-miterlimit: 10; fill: rgb(255,255,255); fill-rule: nonzero; opacity: 1;" transform="translate(-39.7 225.35) translate(-364.94999999999993, -321.29999999999995) " stroke-linecap="round" />
	<path d="m 445.4 -140.5 l -3.9 21.8 l 1.8 0.3 l 3.9 -21.9 l -1.8 -0.2 z" style="stroke: none; stroke-width: 1; stroke-dasharray: none; stroke-linecap: butt; stroke-linejoin: miter; stroke-miterlimit: 10; fill: rgb(255,255,255); fill-rule: nonzero; opacity: 1;" transform="translate(39.7 -225.4) translate(-444.35, 129.45) " stroke-linecap="round" />
	<path d="m 424.6 -143.1 l -1.9 22.1 h 0.4 c 0.5 0 1 0.1 1.4 0.1 l 1.9 -22.1 l -1.8 -0.1 z" style="stroke: none; stroke-width: 1; stroke-dasharray: none; stroke-linecap: butt; stroke-linejoin: miter; stroke-miterlimit: 10; fill: rgb(255,255,255); fill-rule: nonzero; opacity: 1;" transform="translate(19.9 -227.95) translate(-424.55, 132) " stroke-linecap="round" />
	<path d="m 384.7 335.1 l 1.9 -22.1 h -0.2 c -0.5 0 -1.1 -0.1 -1.6 -0.1 l -1.9 22.1 l 1.8 0.1 z" style="stroke: none; stroke-width: 1; stroke-dasharray: none; stroke-linecap: butt; stroke-linejoin: miter; stroke-miterlimit: 10; fill: rgb(255,255,255); fill-rule: nonzero; opacity: 1;" transform="translate(-19.9 228.05) translate(-384.75, -324) " stroke-linecap="round" />
	<path d="m 408.4 175.1 l -0.5 -0.8 h -8.8 l -0.5 0.8 c -1.3 0.5 -2.2 1.7 -2.2 3.1 v 7.6 c 0 1.4 0.9 2.6 2.2 3.1 l 0.5 0.8 h 8.8 l 0.5 -0.8 c 1.3 -0.5 2.2 -1.7 2.2 -3.1 v -7.6 c 0 -1.4 -0.9 -2.6 -2.2 -3.1 z" style="stroke: none; stroke-width: 1; stroke-dasharray: none; stroke-linecap: butt; stroke-linejoin: miter; stroke-miterlimit: 10; fill: rgb(39,44,51); fill-rule: nonzero; opacity: 1;" transform="translate(-1.15 86.05) translate(-403.5, -182) " stroke-linecap="round" />
	<rect x="-72.45" y="-0.8" rx="0" ry="0" width="144.9" height="1.6" style="stroke: none; stroke-width: 1; stroke-dasharray: none; stroke-linecap: butt; stroke-linejoin: miter; stroke-miterlimit: 10; fill: rgb(39,44,51); fill-rule: nonzero; opacity: 1;" transform="translate(81.9 83.75)"/>
	<rect x="-45.5" y="-0.8" rx="0" ry="0" width="91" height="1.6" style="stroke: none; stroke-width: 1; stroke-dasharray: none; stroke-linecap: butt; stroke-linejoin: miter; stroke-miterlimit: 10; fill: rgb(39,44,51); fill-rule: nonzero; opacity: 1;" transform="translate(54.95 88.75)"/>
	<rect x="-72.45" y="-0.8" rx="0" ry="0" width="144.9" height="1.6" style="stroke: none; stroke-width: 1; stroke-dasharray: none; stroke-linecap: butt; stroke-linejoin: miter; stroke-miterlimit: 10; fill: rgb(39,44,51); fill-rule: nonzero; opacity: 1;" transform="translate(-83.4 83.75)"/>
	<rect x="-45.5" y="-0.8" rx="0" ry="0" width="91" height="1.6" style="stroke: none; stroke-width: 1; stroke-dasharray: none; stroke-linecap: butt; stroke-linejoin: miter; stroke-miterlimit: 10; fill: rgb(39,44,51); fill-rule: nonzero; opacity: 1;" transform="translate(-56.35 88.75)"/>
</g>
	<g transform="translate(1041.6569972992 1023.487) scale(1.77 1.77)">
		<text xml:space="preserve" font-family="Alfa Slab One" font-size="20" font-style="normal" font-weight="normal" style="stroke: none; stroke-width: 1; stroke-dasharray: none; stroke-linecap: butt; stroke-linejoin: miter; stroke-miterlimit: 10; fill: rgb(39,44,51); fill-rule: nonzero; opacity: 1; white-space: pre;" ><tspan x="-37.2999984741" y="6.2828" >GUEST</tspan></text>
	</g>
	<g transform="translate(1041.656 1058.917) scale(1.77 1.77)">
		<text xml:space="preserve" font-family="Alfa Slab One" font-size="20" font-style="normal" font-weight="normal" style="stroke: none; stroke-width: 1; stroke-dasharray: none; stroke-linecap: butt; stroke-linejoin: miter; stroke-miterlimit: 10; fill: rgb(39,44,51); fill-rule: nonzero; opacity: 1; white-space: pre;" ><tspan x="-38" y="6.2828" >HOUSE</tspan></text>
	</g>
	<g transform="translate(1041.8974003143 988.785) scale(1.03 1.03)">
		<text xml:space="preserve" font-family="Mr Dafoe" font-size="20" font-style="normal" font-weight="normal" style="stroke: none; stroke-width: 1; stroke-dasharray: none; stroke-linecap: butt; stroke-linejoin: miter; stroke-miterlimit: 10; fill: rgb(39,44,51); fill-rule: nonzero; opacity: 1; white-space: pre;" ><tspan x="-37.3800003052" y="6.2828" >La maison</tspan></text>
	</g>
	<g transform="translate(1041.8691005058 1090.443) scale(0.39 0.39)">
		<text xml:space="preserve" font-family="Nunito" font-size="20" font-style="normal" font-weight="normal" style="stroke: none; stroke-width: 1; stroke-dasharray: none; stroke-linecap: butt; stroke-linejoin: miter; stroke-miterlimit: 10; fill: rgb(39,44,51); fill-rule: nonzero; opacity: 1; white-space: pre;" ><tspan x="-55.290001297" y="6.2828" >SINCE 1972</tspan></text>
	</g>
</svg>