<?xml version="1.0" encoding="UTF-8" standalone="no" ?>
<!DOCTYPE svg PUBLIC "-//W3C//DTD SVG 1.1//EN" "http://www.w3.org/Graphics/SVG/1.1/DTD/svg11.dtd">
<svg xmlns="http://www.w3.org/2000/svg" xmlns:xlink="http://www.w3.org/1999/xlink" version="1.1" width="1772" height="1772" viewBox="0 0 1582.81 1582.81" xml:space="preserve">
<desc>Created with Fabric.js 2.3.3</desc>
<defs>
</defs>
<path d="M 154.001 110.25 Q 154 110.25 153.5 110.25 Q 153 110.25 152 109.75 Q 151 109.25 150.5 108.75 Q 150 108.25 149.5 108.25 Q 149 108.25 148.5 108.25 Q 148 108.25 147.5 108.25 Q 147 108.25 145.5 108.25 Q 144 108.25 142 107.25 Q 140 106.25 135 106.75 Q 130 107.25 127 108.25 Q 124 109.25 118.5 112.25 Q 113 115.25 107 118.25 Q 101 121.25 96.5 124.25 Q 92 127.25 90 130.25 Q 88 133.25 86 137.75 Q 84 142.25 84 144.75 Q 84 147.25 84.5 148.75 Q 85 150.25 87.5 151.75 Q 90 153.25 93.5 154.75 Q 97 156.25 107.5 158.75 Q 118 161.25 123 162.25 Q 128 163.25 133.5 165.25 Q 139 167.25 143.5 167.75 Q 148 168.25 155.5 173.25 Q 163 178.25 168.5 183.25 Q 174 188.25 177 192.25 Q 180 196.25 180 197.75 Q 180 199.25 180 200.75 Q 180 202.25 180 203.25 Q 180 204.25 180 205.25 Q 180 206.25 180.5 208.25 Q 181 210.25 181 210.75 Q 181 211.25 180.5 211.25 Q 180 211.25 179 211.25 Q 178 211.25 177.5 211.75 Q 177 212.25 176 213.25 Q 175 214.25 174 216.25 Q 173 218.25 172.5 219.25 Q 172 220.25 171 220.25 Q 170 220.25 168.5 219.75 Q 167 219.25 165.5 217.75 Q 164 216.25 164 212.75 Q 164 209.25 164.5 203.75 Q 165 198.25 167.5 192.25 Q 170 186.25 174 182.75 Q 178 179.25 185 174.25 Q 192 169.25 198 164.25 Q 204 159.25 215.5 153.25 Q 227 147.25 243 143.75 Q 259 140.25 268 139.75 Q 277 139.25 284 139.25 Q 291 139.25 297 136.75 Q 303 134.25 305 133.75 Q 307 133.25 308 132.75 Q 309 132.25 309.5 131.25 Q 310 130.25 310 129.25 Q 310 128.25 310 127.75 Q 310 127.25 308.5 126.75 Q 307 126.25 306 125.75 Q 305 125.25 303 125.25 Q 301 125.25 297.5 124.25 Q 294 123.25 290.5 121.75 Q 287 120.25 282.5 118.25 Q 278 116.25 272.5 114.75 Q 267 113.25 261 112.75 Q 255 112.25 253 112.25 Q 251 112.25 248 112.25 Q 245 112.25 243 111.75 Q 241 111.25 241 110.75 Q 241 110.25 242.5 110.25 Q 244 110.25 246 110.25 Q 248 110.25 249 110.25 Q 250 110.25 253.5 110.25 Q 257 110.25 261.5 107.75 Q 266 105.25 274 102.75 Q 282 100.25 291 97.25 Q 300 94.25 308.5 88.75 Q 317 83.25 328 70.75 Q 339 58.25 342 53.75 Q 345 49.25 345.5 46.25 Q 346 43.25 346 42.25 Q 346 41.25 346 40.75 Q 346 40.25 348 42.25 Q 350 44.25 352 48.25 Q 354 52.25 357.5 60.25 Q 361 68.25 362.5 73.25 Q 364 78.25 367 82.25 Q 370 86.25 370.5 87.75 Q 371 89.25 370 90.25 Q 369 91.25 369 91.75 Q 369 92.25 369 92.75 Q 369 93.25 369 93.75 Q 369 94.25 368.5 95.75 Q 368 97.25 365.5 99.25 Q 363 101.25 359.5 105.25 Q 356 109.25 353.5 111.25 Q 351 113.25 348.5 116.25 Q 346 119.25 340 123.75 Q 334 128.25 333.5 129.25 Q 333 130.25 332.5 130.75 Q 332 131.25 332 132.25 Q 332 133.25 332 136.25 Q 332 139.25 334 143.25 Q 336 147.25 340.5 154.75 Q 345 162.25 349.5 168.25 Q 354 174.25 358.5 179.75 Q 363 185.25 365 187.25 Q 367 189.25 369 190.25 Q 371 191.25 371.5 191.75 Q 372 192.25 372.5 192.75 Q 373 193.25 372.5 195.75 Q 372 198.25 370 200.75 Q 368 203.25 367 206.75 Q 366 210.25 365.5 213.75 L 364.999 217.251" style="stroke: rgb(204,50,75); stroke-width: 1; stroke-dasharray: none; stroke-linecap: round; stroke-linejoin: round; stroke-miterlimit: 10; fill: none; fill-rule: nonzero; opacity: 1;" transform="translate(228.44 130.36) translate(-228.4375, -130.36111111111111) " stroke-linecap="round" />
</svg>