<?xml version="1.0" encoding="UTF-8" standalone="no" ?>
<!DOCTYPE svg PUBLIC "-//W3C//DTD SVG 1.1//EN" "http://www.w3.org/Graphics/SVG/1.1/DTD/svg11.dtd">
<svg xmlns="http://www.w3.org/2000/svg" xmlns:xlink="http://www.w3.org/1999/xlink" version="1.1" width="1772" height="1772" viewBox="0 0 1530.3 1530.3" xml:space="preserve">
<desc>Created with Fabric.js 2.3.3</desc>
<defs>
</defs>
<g transform="translate(765 765) scale(0.54 0.57)" style="">
	<path d="M -104.9 1201.7 c -5 0 -9.3 3.2 -11 7.6 c -1.7 -4.4 -6 -7.6 -11 -7.6 c -6.5 0 -11.8 5.3 -11.8 11.8 c 0 12.7 22.8 28.2 22.8 28.2 s 22.7 -15.6 22.8 -28.2 C -93.1 1207 -98.4 1201.7 -104.9 1201.7 z" style="stroke: none; stroke-width: 1; stroke-dasharray: none; stroke-linecap: butt; stroke-linejoin: miter; stroke-miterlimit: 10; fill: rgb(64,71,98); fill-rule: nonzero; opacity: 1;" transform="translate(0.7 -7.35) translate(115.9, -1221.7) " stroke-linecap="round" />
</g>
	<g transform="translate(300.28 133.17)">
		<text xml:space="preserve" font-family="Josefin Sans" font-size="26.400000000000002" font-style="normal" font-weight="normal" style="stroke: none; stroke-width: 1; stroke-dasharray: none; stroke-linecap: butt; stroke-linejoin: miter; stroke-miterlimit: 10; fill: rgb(64,71,98); fill-rule: nonzero; opacity: 1; white-space: pre;" ><tspan x="-34.97" y="8.29" >ALEX</tspan></text>
	</g>
	<g transform="translate(829.47 761.33) scale(1.32 1.32)">
		<text xml:space="preserve" font-family="Josefin Sans" font-size="20" font-style="normal" font-weight="normal" style="stroke: none; stroke-width: 1; stroke-dasharray: none; stroke-linecap: butt; stroke-linejoin: miter; stroke-miterlimit: 10; fill: rgb(64,71,98); fill-rule: nonzero; opacity: 1; white-space: pre;" ><tspan x="-26.44" y="6.28" >SARA</tspan></text>
	</g>
<path d="M 55 132.02 Q 55 132 55 131.5 Q 55 131 54.5 131 Q 54 131 53 131 Q 52 131 51.5 130.5 Q 51 130 49.5 128.5 Q 48 127 46.5 124.5 Q 45 122 43.5 117.5 Q 42 113 42 110 Q 42 107 42 104 Q 42 101 42.5 98.5 Q 43 96 44 94 Q 45 92 46 91 Q 47 90 48.5 90 Q 50 90 52 90 Q 54 90 56.5 90 Q 59 90 62 91.5 Q 65 93 68 94.5 Q 71 96 73.5 98 Q 76 100 77.5 102.5 Q 79 105 80.5 107.5 Q 82 110 82 112 Q 82 114 82 115.5 Q 82 117 82 118.5 Q 82 120 82 121 Q 82 122 81 125 Q 80 128 80 129 Q 80 130 79.5 130.5 Q 79 131 79 131.5 Q 79 132 78.5 132 Q 78 132 77 132.5 Q 76 133 75 133.5 Q 74 134 73.5 134.5 Q 73 135 71 135 Q 69 135 68.5 135 Q 68 135 67.5 135 Q 67 135 66 135 Q 65 135 64.5 134.5 Q 64 134 63 133.5 Q 62 133 61 133 Q 60 133 59.5 132.5 Q 59 132 58 131.5 Q 57 131 54.5 130 Q 52 129 49.5 128 L 46.98 126.98" style="stroke: rgb(204,50,75); stroke-width: 20; stroke-dasharray: none; stroke-linecap: round; stroke-linejoin: round; stroke-miterlimit: 10; fill: none; fill-rule: nonzero; opacity: 1;" transform="translate(62 112.5) translate(-62, -112.5) " stroke-linecap="round" />
<g transform="translate(239 204.35) scale(0.37 0.22)" style="">
	<rect x="-254.5" y="-1.25" rx="0" ry="0" width="509" height="2.5" style="stroke: none; stroke-width: 1; stroke-dasharray: none; stroke-linecap: butt; stroke-linejoin: miter; stroke-miterlimit: 10; fill: rgb(64,71,98); fill-rule: nonzero; opacity: 1;" transform="translate(-1.4 17.6)"/>
</g>
	<g transform="translate(141.52 39.62)">
		<text xml:space="preserve" font-family="Josefin Sans" font-size="20" font-style="normal" font-weight="normal" style="stroke: none; stroke-width: 1; stroke-dasharray: none; stroke-linecap: butt; stroke-linejoin: miter; stroke-miterlimit: 10; fill: rgb(64,71,98); fill-rule: nonzero; opacity: 1; white-space: pre;" ><tspan x="-94.56" y="6.28" >UNIVERSITY PRESS</tspan></text>
	</g>
	<g transform="translate(309.97 68.74)">
		<text xml:space="preserve" font-family="Montserrat" font-size="25" font-style="normal" font-weight="bold" style="stroke: none; stroke-width: 1; stroke-dasharray: none; stroke-linecap: butt; stroke-linejoin: miter; stroke-miterlimit: 10; fill: rgb(64,71,98); fill-rule: nonzero; opacity: 1; white-space: pre;" ><tspan x="-94.71" y="7.85" >COPENHAGEN</tspan></text>
	</g>
</svg>