<?xml version="1.0" encoding="UTF-8" standalone="no" ?>
<!DOCTYPE svg PUBLIC "-//W3C//DTD SVG 1.1//EN" "http://www.w3.org/Graphics/SVG/1.1/DTD/svg11.dtd">
<svg xmlns="http://www.w3.org/2000/svg" xmlns:xlink="http://www.w3.org/1999/xlink" version="1.1" width="1772" height="1772" viewBox="0 0 2171.67 2171.67" xml:space="preserve">
<desc>Created with Fabric.js 2.3.3</desc>
<defs>
</defs>
<path d="M 54.999 151.624 Q 55 151.625 56 152.125 Q 57 152.625 80 165.125 Q 103 177.625 118.5 186.125 Q 134 194.625 150 204.625 Q 166 214.625 177 222.625 Q 188 230.625 198.5 237.625 Q 209 244.625 216.5 251.125 Q 224 257.625 229 261.125 Q 234 264.625 238 267.625 Q 242 270.625 243 271.625 Q 244 272.625 245.5 273.625 Q 247 274.625 248 275.625 Q 249 276.625 250 277.125 Q 251 277.625 252 278.125 Q 253 278.625 253.5 279.125 Q 254 279.625 254.5 280.125 Q 255 280.625 255.5 280.625 L 256.001 280.625" style="stroke: rgb(204,50,75); stroke-width: 1; stroke-dasharray: none; stroke-linecap: round; stroke-linejoin: round; stroke-miterlimit: 10; fill: none; fill-rule: nonzero; opacity: 1;" transform="translate(160.25 135.12) scale(1.29 1) translate(-155.5, -216.1245) " stroke-linecap="round" />
<path d="M 140.999 286.624 L 141.001 286.626" style="stroke: rgb(204,50,75); stroke-width: 1; stroke-dasharray: none; stroke-linecap: round; stroke-linejoin: round; stroke-miterlimit: 10; fill: none; fill-rule: nonzero; opacity: 1;" transform="translate(141 286.63) translate(-141, -286.625) " stroke-linecap="round" />
<g transform="translate(1086 1086)">
	<image xlink:href="http://solution.cmsmart.net/wp_printshop/printshop_boxed/wp-content/uploads/nbdesigner/temp/2019/03/16/15527070010e4ceef6.jpg" x="-480" y="-327" style="stroke: none; stroke-width: 0; stroke-dasharray: none; stroke-linecap: butt; stroke-linejoin: miter; stroke-miterlimit: 4; fill: rgb(255,0,0); fill-rule: nonzero; opacity: 1;" width="960" height="654"></image>
</g>
<g transform="translate(1086 1086)">
	<image xlink:href="http://solution.cmsmart.net/wp_printshop/printshop_boxed/wp-content/uploads/nbdesigner/temp/2019/03/16/15527070010e4ceef6.jpg" x="-480" y="-327" style="stroke: none; stroke-width: 0; stroke-dasharray: none; stroke-linecap: butt; stroke-linejoin: miter; stroke-miterlimit: 4; fill: rgb(255,0,0); fill-rule: nonzero; opacity: 1;" width="960" height="654"></image>
</g>
<g transform="translate(1086 1086)">
	<image xlink:href="http://solution.cmsmart.net/wp_printshop/printshop_boxed/wp-content/uploads/nbdesigner/temp/2019/03/16/15527070010e4ceef6.jpg" x="-480" y="-327" style="stroke: none; stroke-width: 0; stroke-dasharray: none; stroke-linecap: butt; stroke-linejoin: miter; stroke-miterlimit: 4; fill: rgb(255,0,0); fill-rule: nonzero; opacity: 1;" width="960" height="654"></image>
</g>
<g transform="translate(1086 1086)">
	<image xlink:href="http://solution.cmsmart.net/wp_printshop/printshop_boxed/wp-content/uploads/nbdesigner/temp/2019/03/16/15527070010e4ceef6.jpg" x="-480" y="-327" style="stroke: none; stroke-width: 0; stroke-dasharray: none; stroke-linecap: butt; stroke-linejoin: miter; stroke-miterlimit: 4; fill: rgb(255,0,0); fill-rule: nonzero; opacity: 1;" width="960" height="654"></image>
</g>
<g transform="translate(1086 1086)">
	<image xlink:href="http://solution.cmsmart.net/wp_printshop/printshop_boxed/wp-content/uploads/nbdesigner/temp/2019/03/16/15527070010e4ceef6.jpg" x="-480" y="-327" style="stroke: none; stroke-width: 0; stroke-dasharray: none; stroke-linecap: butt; stroke-linejoin: miter; stroke-miterlimit: 4; fill: rgb(255,0,0); fill-rule: nonzero; opacity: 1;" width="960" height="654"></image>
</g>
<g transform="translate(1086 1086)">
	<image xlink:href="http://solution.cmsmart.net/wp_printshop/printshop_boxed/wp-content/uploads/nbdesigner/temp/2019/03/16/15527070010e4ceef6.jpg" x="-480" y="-327" style="stroke: none; stroke-width: 0; stroke-dasharray: none; stroke-linecap: butt; stroke-linejoin: miter; stroke-miterlimit: 4; fill: rgb(255,0,0); fill-rule: nonzero; opacity: 1;" width="960" height="654"></image>
</g>
<g transform="translate(1086 1086) scale(0.3 0.3)" style="">
	<polygon points="-68.52,34.45 139.53,34.45 139.53,-34.45 131.84,-34.45 -68.51,-34.45 -139.53,-34.45 -139.53,34.45 " style="stroke: none; stroke-width: 1; stroke-dasharray: none; stroke-linecap: butt; stroke-linejoin: miter; stroke-miterlimit: 4; fill: rgb(255,255,255); fill-rule: nonzero; opacity: 1;" transform="translate(92.4 -1.03) "/>
	<path d="M 273.876 70.323 h -71.01 v 1.051 h 71.01 c 0 0 173.507 0 208.057 0 v -1.051 H 273.876 z" style="stroke: none; stroke-width: 1; stroke-dasharray: none; stroke-linecap: butt; stroke-linejoin: miter; stroke-miterlimit: 4; fill: rgb(153,184,60); fill-rule: nonzero; opacity: 1;" transform="translate(92.4 33.95) translate(-342.3995, -70.8485) " stroke-linecap="round" />
	<path d="M 151.013 44.377 c -0.056 -0.051 -0.114 -0.094 -0.169 -0.142 c 0.459 0.5 0.922 0.996 1.39 1.488 c -0.284 -0.312 -0.568 -0.625 -0.853 -0.939 C 151.261 44.651 151.015 44.379 151.013 44.377 z" style="stroke: none; stroke-width: 1; stroke-dasharray: none; stroke-linecap: butt; stroke-linejoin: miter; stroke-miterlimit: 4; fill: rgb(255,255,255); fill-rule: nonzero; opacity: 1;" transform="translate(-98.46 8.08) translate(-151.539, -44.979) " stroke-linecap="round" />
	<path d="M 80.138 1.418 h 14.341 c 9.072 0 17.007 3.217 24.29 8.257 c 6.57 4.547 12.61 10.578 18.472 17.078 c 0.955 1.059 1.903 2.134 2.851 3.213 c 1.712 1.952 3.415 3.928 5.12 5.906 c 1.697 1.977 3.398 3.953 5.107 5.904 c 0.77 0.88 1.539 1.755 2.312 2.621 c 4.81 5.392 9.712 10.481 14.906 14.703 c 5.622 4.568 11.585 8.118 18.146 9.918 c 3.071 0.842 6.272 1.306 9.631 1.306 h 7.555 V 1.418 h -7.556 c -16.612 0 -29.387 11.213 -41.484 24.588 c -4.925 3.918 -7.668 6.643 -14.501 0.721 c 0.021 0.025 0.042 0.05 0.062 0.075 c -0.015 -0.017 -0.031 -0.035 -0.047 -0.053 c -3.997 -4.433 -8.276 -8.667 -12.819 -12.373 c -9.382 -8.454 -19.654 -14.451 -32.046 -14.451 h -14.34 H 12.158 H 10.23 c 0 0 -1.896 -0.691 -6.995 2.169 l 6 -0.677 L 80.138 1.418 L 80.138 1.418 z" style="stroke: none; stroke-width: 1; stroke-dasharray: none; stroke-linecap: butt; stroke-linejoin: miter; stroke-miterlimit: 4; fill: rgb(255,255,255); fill-rule: nonzero; opacity: 1;" transform="translate(-146.95 -1.81) translate(-103.05200000000002, -35.08782899524545) " stroke-linecap="round" />
	<path d="M 195.312 70.323 c -3.358 0 -6.561 -0.465 -9.631 -1.307 c -6.561 -1.798 -12.523 -5.349 -18.146 -9.916 c -5.193 -4.222 -10.097 -9.312 -14.906 -14.703 c -0.773 -0.866 -1.543 -1.742 -2.312 -2.621 c -1.708 -1.951 -3.409 -3.928 -5.107 -5.905 c -1.705 -1.978 -3.407 -3.954 -5.12 -5.906 c -0.947 -1.08 -1.896 -2.154 -2.852 -3.213 c -5.859 -6.5 -11.899 -12.531 -18.471 -17.078 c -7.282 -5.039 -15.218 -8.256 -24.29 -8.256 h -14.34 H 63.176 C 63.12 1.417 63.065 1.41 63.008 1.41 H 5.953 C 2.665 1.41 0 4.075 0 7.363 v 57.055 c 0 3.287 2.666 5.953 5.953 5.953 h 57.056 c 0.244 0 0.482 -0.019 0.719 -0.048 h 16.41 h 14.341 c 17.502 0 30.777 -11.96 43.29 -25.914 c 3.715 -4.07 8.806 -3.917 13.076 -0.176 c 0.056 0.049 0.114 0.092 0.169 0.143 c 0.002 0.002 0.248 0.273 0.367 0.406 c 0.284 0.314 0.568 0.628 0.853 0.939 c 4.7 5.154 9.53 9.977 14.719 13.95 c 5.792 4.8 11.939 8.534 18.729 10.396 c 3.071 0.842 6.271 1.306 9.631 1.306 h 7.555 v -1.051 L 195.312 70.323 L 195.312 70.323 z" style="stroke: none; stroke-width: 1; stroke-dasharray: none; stroke-linecap: butt; stroke-linejoin: miter; stroke-miterlimit: 4; fill: rgb(153,184,60); fill-rule: nonzero; opacity: 1;" transform="translate(-148.57 -0.51) translate(-101.43400000000001, -36.3915) " stroke-linecap="round" />
	<path d="M 494.046 1.41 h -2.163 c -0.058 0 -0.111 0.007 -0.168 0.008 h -9.781 v 68.905 h 9.229 c 0.237 0.029 0.477 0.048 0.721 0.048 h 2.163 c 3.288 0 5.954 -2.665 5.954 -5.953 V 7.363 C 500 4.075 497.334 1.41 494.046 1.41 z" style="stroke: none; stroke-width: 1; stroke-dasharray: none; stroke-linecap: butt; stroke-linejoin: miter; stroke-miterlimit: 4; fill: rgb(255,255,255); fill-rule: nonzero; opacity: 1;" transform="translate(240.97 -1.01) translate(-490.9675, -35.8905) " stroke-linecap="round" />
	<path d="M 481.933 71.375 c 5.308 0 8.778 0 8.954 0 c 0.813 0 4.128 0.185 6.032 -1.722 c -0.965 0.344 -1.432 0.855 -5.705 0.67 c -2.581 0 -9.281 0 -9.281 0 V 71.375 L 481.933 71.375 z" style="stroke: none; stroke-width: 1; stroke-dasharray: none; stroke-linecap: butt; stroke-linejoin: miter; stroke-miterlimit: 4; fill: rgb(153,184,60); fill-rule: nonzero; opacity: 1;" transform="translate(239.43 33.62) translate(-489.426, -70.5164424130943) " stroke-linecap="round" />
</g>
	<g transform="translate(1104.09 1085.78) scale(0.7 0.7)">
		<text xml:space="preserve" font-family="Roboto" font-size="20" font-style="normal" font-weight="bold" style="stroke: none; stroke-width: 1; stroke-dasharray: none; stroke-linecap: butt; stroke-linejoin: miter; stroke-miterlimit: 4; fill: rgb(153,184,60); fill-rule: nonzero; opacity: 1; white-space: pre;" ><tspan x="-43.66" y="6.28" >dswerwer</tspan></text>
	</g>
</svg>