<?xml version="1.0" encoding="UTF-8" standalone="no" ?>
<!DOCTYPE svg PUBLIC "-//W3C//DTD SVG 1.1//EN" "http://www.w3.org/Graphics/SVG/1.1/DTD/svg11.dtd">
<svg xmlns="http://www.w3.org/2000/svg" xmlns:xlink="http://www.w3.org/1999/xlink" version="1.1" width="1772" height="1772" viewBox="0 0 2753.04 2753.04" xml:space="preserve">
<desc>Created with Fabric.js 2.3.3</desc>
<defs>
</defs>
<g transform="translate(1376.5 1381.15) scale(0.4 0.45)" style="">
</g>
	<g transform="translate(1376.48 1404.59) scale(0.59 0.59)">
		<text xml:space="preserve" font-family="Hammersmith One" font-size="20" font-style="normal" font-weight="normal" style="stroke: none; stroke-width: 1; stroke-dasharray: none; stroke-linecap: butt; stroke-linejoin: miter; stroke-miterlimit: 10; fill: rgb(64,71,98); fill-rule: nonzero; opacity: 1; white-space: pre;" ><tspan x="-46.68" y="6.28" >SINCE 1611</tspan></text>
	</g>
	<g transform="translate(1377.16 1367.55) scale(2.59 2.59)">
		<text xml:space="preserve" font-family="UnifrakturMaguntia" font-size="20" font-style="normal" font-weight="normal" style="stroke: none; stroke-width: 1; stroke-dasharray: none; stroke-linecap: butt; stroke-linejoin: miter; stroke-miterlimit: 10; fill: rgb(64,71,98); fill-rule: nonzero; opacity: 1; white-space: pre;" ><tspan x="-37.42" y="6.28" >Medieval</tspan></text>
	</g>
<path d="M 290.001 219.251 Q 290 219.25 288.5 218.25 Q 287 217.25 278.5 216.75 Q 270 216.25 232 223.75 Q 194 231.25 165 260.75 Q 136 290.25 133.5 300.25 Q 131 310.25 134 320.75 Q 137 331.25 161.5 336.75 Q 186 342.25 217 343.25 Q 248 344.25 272 343.25 Q 296 342.25 350 341.25 Q 404 340.25 417.5 342.25 Q 431 344.25 436.5 344.75 Q 442 345.25 445.5 349.25 Q 449 353.25 441.5 369.75 Q 434 386.25 400.5 412.25 Q 367 438.25 312.5 454.25 Q 258 470.25 225.5 471.75 Q 193 473.25 179.5 470.75 Q 166 468.25 159.5 464.75 Q 153 461.25 152.5 452.75 Q 152 444.25 170.5 408.25 Q 189 372.25 199 364.25 Q 209 356.25 221.5 350.25 Q 234 344.25 305 325.75 Q 376 307.25 397.5 305.75 Q 419 304.25 429 304.25 Q 439 304.25 450 306.25 Q 461 308.25 461 309.75 Q 461 311.25 460 307.75 Q 459 304.25 452.5 291.75 Q 446 279.25 437.5 261.25 Q 429 243.25 412 220.75 Q 395 198.25 385 187.75 Q 375 177.25 364 168.25 Q 353 159.25 335.5 151.75 Q 318 144.25 310.5 149.25 Q 303 154.25 295 163.25 Q 287 172.25 286 173.75 Q 285 175.25 290 175.25 Q 295 175.25 341.5 164.25 Q 388 153.25 413 146.75 Q 438 140.25 439.5 139.25 L 441.001 138.249" style="stroke: rgb(255,92,92); stroke-width: 1; stroke-dasharray: none; stroke-linecap: round; stroke-linejoin: round; stroke-miterlimit: 10; fill: none; fill-rule: nonzero; opacity: 1;" transform="translate(296.34 305.51) translate(-296.34161637422505, -305.51134377413894) " stroke-linecap="round" />
</svg>