<?xml version="1.0" encoding="UTF-8" standalone="no" ?>
<!DOCTYPE svg PUBLIC "-//W3C//DTD SVG 1.1//EN" "http://www.w3.org/Graphics/SVG/1.1/DTD/svg11.dtd">
<svg xmlns="http://www.w3.org/2000/svg" xmlns:xlink="http://www.w3.org/1999/xlink" version="1.1" width="1772" height="1772" viewBox="0 0 2936.82 2936.82" xml:space="preserve">
<desc>Created with Fabric.js 2.3.3</desc>
<defs>
</defs>
<g transform="translate(1468.5 1468.5) scale(0.53 0.53)" style="">
	<circle cx="0" cy="0" r="190" style="stroke: none; stroke-width: 1; stroke-dasharray: none; stroke-linecap: butt; stroke-linejoin: miter; stroke-miterlimit: 10; fill: rgb(255,255,255); fill-rule: nonzero; opacity: 1;" transform="translate(0 0) "/>
	<path d="m -487.2 927.5 c -91.6 0 -166.2 -74.6 -166.2 -166.2 s 74.6 -166.2 166.2 -166.2 s 166.2 74.6 166.2 166.2 s -74.6 166.2 -166.2 166.2 z m 0 -330.4 c -90.5 0 -164.2 73.7 -164.2 164.2 s 73.7 164.2 164.2 164.2 s 164.2 -73.7 164.2 -164.2 s -73.7 -164.2 -164.2 -164.2 z" style="stroke: none; stroke-width: 1; stroke-dasharray: none; stroke-linecap: butt; stroke-linejoin: miter; stroke-miterlimit: 10; fill: rgb(39,44,51); fill-rule: nonzero; opacity: 1;" transform="translate(0.2 0.2) translate(487.2, -761.3) " stroke-linecap="round" />
	<path d="m -322 761.1 c 0 -13.9 -2.5 -27.9 -5.6 -40.6 h -319.3 c -2.1 9.6 -5.6 26.7 -5.6 40.6 c 0 15.3 3.1 29.1 6.3 44.4 h 317.8 c 3.6 -14.7 6.4 -29.1 6.4 -44.4 z" style="stroke: none; stroke-width: 1; stroke-dasharray: none; stroke-linecap: butt; stroke-linejoin: miter; stroke-miterlimit: 10; fill: rgb(39,44,51); fill-rule: nonzero; opacity: 1;" transform="translate(0.15 1.9) translate(487.25000000000006, -763) " stroke-linecap="round" />
	<polygon points="2.85,-3.2 9.45,-2.3 4.75,2.4 5.95,8.9 0.05,5.8 -5.75,9 -4.65,2.5 -9.45,-2.1 -2.95,-3.1 -0.05,-9 " style="stroke: none; stroke-width: 1; stroke-dasharray: none; stroke-linecap: butt; stroke-linejoin: miter; stroke-miterlimit: 10; fill: rgb(39,44,51); fill-rule: nonzero; opacity: 1;" transform="translate(-0.45 -81.9) "/>
	<circle cx="0" cy="0" r="2.2" style="stroke: none; stroke-width: 1; stroke-dasharray: none; stroke-linecap: butt; stroke-linejoin: miter; stroke-miterlimit: 10; fill: rgb(39,44,51); fill-rule: nonzero; opacity: 1;" transform="translate(109.6 86.7) "/>
	<circle cx="0" cy="0" r="2.2" style="stroke: none; stroke-width: 1; stroke-dasharray: none; stroke-linecap: butt; stroke-linejoin: miter; stroke-miterlimit: 10; fill: rgb(39,44,51); fill-rule: nonzero; opacity: 1;" transform="translate(-102.4 86.7) "/>
</g>
	<g transform="translate(1467.74 1468.67) scale(1.77 1.77)">
		<text xml:space="preserve" font-family="Teko" font-size="20" font-style="normal" font-weight="normal" style="stroke: none; stroke-width: 1; stroke-dasharray: none; stroke-linecap: butt; stroke-linejoin: miter; stroke-miterlimit: 10; fill: rgb(255,255,255); fill-rule: nonzero; opacity: 1; white-space: pre;" ><tspan x="-37.02" y="6.28" >PADDINGTON</tspan></text>
	</g>
	<g transform="translate(1498.8 1423.3)">
		<text xml:space="preserve" font-family="Teko" font-size="20" font-style="normal" font-weight="normal" style="stroke: none; stroke-width: 1; stroke-dasharray: none; stroke-linecap: butt; stroke-linejoin: miter; stroke-miterlimit: 10; fill: rgb(39,44,51); fill-rule: nonzero; opacity: 1; white-space: pre;" ><tspan x="-12.93" y="6.28" >1978</tspan></text>
	</g>
	<g transform="translate(1467.8 1514.3)">
		<text xml:space="preserve" font-family="Teko" font-size="20" font-style="normal" font-weight="normal" style="stroke: none; stroke-width: 1; stroke-dasharray: none; stroke-linecap: butt; stroke-linejoin: miter; stroke-miterlimit: 10; fill: rgb(39,44,51); fill-rule: nonzero; opacity: 1; white-space: pre;" ><tspan x="-41.79" y="6.28" >HANDCRAFTED</tspan></text>
	</g>
	<g transform="translate(1434.8 1423.3)">
		<text xml:space="preserve" font-family="Teko" font-size="20" font-style="normal" font-weight="normal" style="stroke: none; stroke-width: 1; stroke-dasharray: none; stroke-linecap: butt; stroke-linejoin: miter; stroke-miterlimit: 10; fill: rgb(39,44,51); fill-rule: nonzero; opacity: 1; white-space: pre;" ><tspan x="-11.79" y="6.28" >EST.</tspan></text>
	</g>
<g transform="translate(1468.5 1467.85) scale(0.37 0.22)" style="">
	<rect x="-254.5" y="-1.25" rx="0" ry="0" width="509" height="2.5" style="stroke: none; stroke-width: 1; stroke-dasharray: none; stroke-linecap: butt; stroke-linejoin: miter; stroke-miterlimit: 10; fill: rgb(64,71,98); fill-rule: nonzero; opacity: 1;" transform="translate(-1.4 17.6)"/>
</g>
	<g transform="translate(1468.02 1488.12)">
		<text xml:space="preserve" font-family="Josefin Sans" font-size="20" font-style="normal" font-weight="normal" style="stroke: none; stroke-width: 1; stroke-dasharray: none; stroke-linecap: butt; stroke-linejoin: miter; stroke-miterlimit: 10; fill: rgb(64,71,98); fill-rule: nonzero; opacity: 1; white-space: pre;" ><tspan x="-94.56" y="6.28" >UNIVERSITY PRESS</tspan></text>
	</g>
	<g transform="translate(1467.59 1457.37) scale(1.25 1.25)">
		<text xml:space="preserve" font-family="Montserrat" font-size="20" font-style="normal" font-weight="bold" style="stroke: none; stroke-width: 1; stroke-dasharray: none; stroke-linecap: butt; stroke-linejoin: miter; stroke-miterlimit: 10; fill: rgb(64,71,98); fill-rule: nonzero; opacity: 1; white-space: pre;" ><tspan x="-75.77" y="6.28" >COPENHAGEN</tspan></text>
	</g>
	<g transform="translate(1468.5 1468.5)">
		<text xml:space="preserve" font-family="Roboto" font-size="36" font-style="normal" font-weight="normal" style="stroke: none; stroke-width: 1; stroke-dasharray: none; stroke-linecap: butt; stroke-linejoin: miter; stroke-miterlimit: 4; fill: rgb(204,50,75); fill-rule: nonzero; opacity: 1; white-space: pre;" ><tspan x="-94.49" y="11.31" >Subheading</tspan></text>
	</g>
	<g transform="translate(1468.5 1468.5)">
		<text xml:space="preserve" font-family="Roboto" font-size="36" font-style="normal" font-weight="normal" style="stroke: none; stroke-width: 1; stroke-dasharray: none; stroke-linecap: butt; stroke-linejoin: miter; stroke-miterlimit: 4; fill: rgb(204,50,75); fill-rule: nonzero; opacity: 1; white-space: pre;" ><tspan x="-94.49" y="11.31" >Subheading</tspan></text>
	</g>
	<g transform="translate(1468.5 1468.5)">
		<text xml:space="preserve" font-family="Roboto" font-size="16" font-style="normal" font-weight="normal" style="stroke: none; stroke-width: 1; stroke-dasharray: none; stroke-linecap: butt; stroke-linejoin: miter; stroke-miterlimit: 4; fill: rgb(204,50,75); fill-rule: nonzero; opacity: 1; white-space: pre;" ><tspan x="-92.93" y="5.03" >Add a little bit of body text</tspan></text>
	</g>
<path d="M 158.499 147.124 L 158.501 147.126" style="stroke: rgb(204,50,75); stroke-width: 1; stroke-dasharray: none; stroke-linecap: round; stroke-linejoin: round; stroke-miterlimit: 10; fill: none; fill-rule: nonzero; opacity: 1;" transform="translate(158.5 147.13) translate(-158.5, -147.125) " stroke-linecap="round" />
<path d="M 158.499 147.124 L 158.501 147.126" style="stroke: rgb(204,50,75); stroke-width: 1; stroke-dasharray: none; stroke-linecap: round; stroke-linejoin: round; stroke-miterlimit: 10; fill: none; fill-rule: nonzero; opacity: 1;" transform="translate(158.5 147.13) translate(-158.5, -147.125) " stroke-linecap="round" />
<path d="M 64.499 372.124 L 64.501 372.126" style="stroke: rgb(204,50,75); stroke-width: 1; stroke-dasharray: none; stroke-linecap: round; stroke-linejoin: round; stroke-miterlimit: 10; fill: none; fill-rule: nonzero; opacity: 1;" transform="translate(64.5 372.13) translate(-64.5, -372.125) " stroke-linecap="round" />
<path d="M 64.499 372.124 L 64.501 372.126" style="stroke: rgb(204,50,75); stroke-width: 1; stroke-dasharray: none; stroke-linecap: round; stroke-linejoin: round; stroke-miterlimit: 10; fill: none; fill-rule: nonzero; opacity: 1;" transform="translate(64.5 372.13) translate(-64.5, -372.125) " stroke-linecap="round" />
<path d="M 217.499 241.126 Q 217.5 241.125 265 200.625 Q 312.5 160.125 335.5 141.125 Q 358.5 122.125 335 135.625 Q 311.5 149.125 372 204.125 Q 432.5 259.125 422.5 227.125 Q 412.5 195.125 355 168.625 Q 297.5 142.125 237 116.125 Q 176.5 90.125 227 192.125 Q 277.5 294.125 290 325.625 Q 302.5 357.125 260 329.625 Q 217.5 302.125 163 261.625 Q 108.5 221.125 95.5 189.125 Q 82.5 157.125 81.5 156.625 Q 80.5 156.125 80 156.125 Q 79.5 156.125 72.5 179.125 Q 65.5 202.125 50.5 265.625 Q 35.5 329.125 39 329.625 Q 42.5 330.125 173.5 263.125 Q 304.5 196.125 342 167.125 Q 379.5 138.125 380 137.625 Q 380.5 137.125 380.5 138.125 L 380.5 139.126" style="stroke: rgb(204,50,75); stroke-width: 1; stroke-dasharray: none; stroke-linecap: round; stroke-linejoin: round; stroke-miterlimit: 10; fill: none; fill-rule: nonzero; opacity: 1;" transform="translate(232.27 225.69) translate(-232.26837391642823, -225.6906019941332) " stroke-linecap="round" />
<g transform="translate(173.5 146.63)" style="">
	<circle cx="0" cy="0" r="22" style="stroke: none; stroke-width: 1; stroke-dasharray: none; stroke-linecap: butt; stroke-linejoin: miter; stroke-miterlimit: 4; fill: rgb(204,50,75); fill-opacity: 0.08; fill-rule: nonzero; opacity: 1;" transform="translate(-108 -16.5) "/>
	<circle cx="0" cy="0" r="17.5" style="stroke: none; stroke-width: 1; stroke-dasharray: none; stroke-linecap: butt; stroke-linejoin: miter; stroke-miterlimit: 4; fill: rgb(204,50,75); fill-opacity: 0.09; fill-rule: nonzero; opacity: 1;" transform="translate(-106 -16.5) "/>
	<circle cx="0" cy="0" r="9" style="stroke: none; stroke-width: 1; stroke-dasharray: none; stroke-linecap: butt; stroke-linejoin: miter; stroke-miterlimit: 4; fill: rgb(204,50,75); fill-opacity: 0.1; fill-rule: nonzero; opacity: 1;" transform="translate(-17 -47.5) "/>
	<circle cx="0" cy="0" r="20" style="stroke: none; stroke-width: 1; stroke-dasharray: none; stroke-linecap: butt; stroke-linejoin: miter; stroke-miterlimit: 4; fill: rgb(204,50,75); fill-opacity: 0.39; fill-rule: nonzero; opacity: 1;" transform="translate(97 -122.5) "/>
	<circle cx="0" cy="0" r="9.5" style="stroke: none; stroke-width: 1; stroke-dasharray: none; stroke-linecap: butt; stroke-linejoin: miter; stroke-miterlimit: 4; fill: rgb(204,50,75); fill-opacity: 0.54; fill-rule: nonzero; opacity: 1;" transform="translate(64 -115.5) "/>
	<circle cx="0" cy="0" r="7" style="stroke: none; stroke-width: 1; stroke-dasharray: none; stroke-linecap: butt; stroke-linejoin: miter; stroke-miterlimit: 4; fill: rgb(204,50,75); fill-opacity: 0.6; fill-rule: nonzero; opacity: 1;" transform="translate(3 -82.5) "/>
	<circle cx="0" cy="0" r="15.5" style="stroke: none; stroke-width: 1; stroke-dasharray: none; stroke-linecap: butt; stroke-linejoin: miter; stroke-miterlimit: 4; fill: rgb(204,50,75); fill-opacity: 0.5; fill-rule: nonzero; opacity: 1;" transform="translate(-30 -56.5) "/>
	<circle cx="0" cy="0" r="16" style="stroke: none; stroke-width: 1; stroke-dasharray: none; stroke-linecap: butt; stroke-linejoin: miter; stroke-miterlimit: 4; fill: rgb(204,50,75); fill-opacity: 0.5; fill-rule: nonzero; opacity: 1;" transform="translate(-110 32.5) "/>
	<circle cx="0" cy="0" r="21.5" style="stroke: none; stroke-width: 1; stroke-dasharray: none; stroke-linecap: butt; stroke-linejoin: miter; stroke-miterlimit: 4; fill: rgb(204,50,75); fill-opacity: 0.01; fill-rule: nonzero; opacity: 1;" transform="translate(-110 37.5) "/>
	<circle cx="0" cy="0" r="16" style="stroke: none; stroke-width: 1; stroke-dasharray: none; stroke-linecap: butt; stroke-linejoin: miter; stroke-miterlimit: 4; fill: rgb(204,50,75); fill-rule: nonzero; opacity: 1;" transform="translate(-110 38.5) "/>
	<circle cx="0" cy="0" r="7" style="stroke: none; stroke-width: 1; stroke-dasharray: none; stroke-linecap: butt; stroke-linejoin: miter; stroke-miterlimit: 4; fill: rgb(204,50,75); fill-opacity: 0.39; fill-rule: nonzero; opacity: 1;" transform="translate(-95 30.5) "/>
	<circle cx="0" cy="0" r="21" style="stroke: none; stroke-width: 1; stroke-dasharray: none; stroke-linecap: butt; stroke-linejoin: miter; stroke-miterlimit: 4; fill: rgb(204,50,75); fill-opacity: 0.67; fill-rule: nonzero; opacity: 1;" transform="translate(66 -60.5) "/>
	<circle cx="0" cy="0" r="19" style="stroke: none; stroke-width: 1; stroke-dasharray: none; stroke-linecap: butt; stroke-linejoin: miter; stroke-miterlimit: 4; fill: rgb(204,50,75); fill-opacity: 0.78; fill-rule: nonzero; opacity: 1;" transform="translate(60 -53.5) "/>
	<circle cx="0" cy="0" r="18" style="stroke: none; stroke-width: 1; stroke-dasharray: none; stroke-linecap: butt; stroke-linejoin: miter; stroke-miterlimit: 4; fill: rgb(204,50,75); fill-opacity: 0.5; fill-rule: nonzero; opacity: 1;" transform="translate(-93 124.5) "/>
	<circle cx="0" cy="0" r="6.5" style="stroke: none; stroke-width: 1; stroke-dasharray: none; stroke-linecap: butt; stroke-linejoin: miter; stroke-miterlimit: 4; fill: rgb(204,50,75); fill-opacity: 0.16; fill-rule: nonzero; opacity: 1;" transform="translate(115 -52.5) "/>
	<circle cx="0" cy="0" r="10.5" style="stroke: none; stroke-width: 1; stroke-dasharray: none; stroke-linecap: butt; stroke-linejoin: miter; stroke-miterlimit: 4; fill: rgb(204,50,75); fill-opacity: 0.83; fill-rule: nonzero; opacity: 1;" transform="translate(121 -55.5) "/>
</g>
<g transform="translate(218.25 150.13)" style="">
	<circle cx="0" cy="0" r="21.5" style="stroke: none; stroke-width: 1; stroke-dasharray: none; stroke-linecap: butt; stroke-linejoin: miter; stroke-miterlimit: 4; fill: rgb(204,50,75); fill-opacity: 0.86; fill-rule: nonzero; opacity: 1;" transform="translate(-110.75 0) "/>
	<circle cx="0" cy="0" r="26.5" style="stroke: none; stroke-width: 1; stroke-dasharray: none; stroke-linecap: butt; stroke-linejoin: miter; stroke-miterlimit: 4; fill: rgb(204,50,75); fill-opacity: 0; fill-rule: nonzero; opacity: 1;" transform="translate(-109.75 1) "/>
	<circle cx="0" cy="0" r="11.5" style="stroke: none; stroke-width: 1; stroke-dasharray: none; stroke-linecap: butt; stroke-linejoin: miter; stroke-miterlimit: 4; fill: rgb(204,50,75); fill-opacity: 0.89; fill-rule: nonzero; opacity: 1;" transform="translate(-107.75 2) "/>
	<circle cx="0" cy="0" r="20.5" style="stroke: none; stroke-width: 1; stroke-dasharray: none; stroke-linecap: butt; stroke-linejoin: miter; stroke-miterlimit: 4; fill: rgb(204,50,75); fill-opacity: 0.66; fill-rule: nonzero; opacity: 1;" transform="translate(-7.75 87) "/>
	<circle cx="0" cy="0" r="21" style="stroke: none; stroke-width: 1; stroke-dasharray: none; stroke-linecap: butt; stroke-linejoin: miter; stroke-miterlimit: 4; fill: rgb(204,50,75); fill-opacity: 0.86; fill-rule: nonzero; opacity: 1;" transform="translate(115.25 38) "/>
	<circle cx="0" cy="0" r="17.5" style="stroke: none; stroke-width: 1; stroke-dasharray: none; stroke-linecap: butt; stroke-linejoin: miter; stroke-miterlimit: 4; fill: rgb(204,50,75); fill-opacity: 0.08; fill-rule: nonzero; opacity: 1;" transform="translate(35.25 -79) "/>
	<circle cx="0" cy="0" r="21.5" style="stroke: none; stroke-width: 1; stroke-dasharray: none; stroke-linecap: butt; stroke-linejoin: miter; stroke-miterlimit: 4; fill: rgb(204,50,75); fill-opacity: 0.63; fill-rule: nonzero; opacity: 1;" transform="translate(-79.75 -86) "/>
	<circle cx="0" cy="0" r="22" style="stroke: none; stroke-width: 1; stroke-dasharray: none; stroke-linecap: butt; stroke-linejoin: miter; stroke-miterlimit: 4; fill: rgb(204,50,75); fill-opacity: 0.88; fill-rule: nonzero; opacity: 1;" transform="translate(-79.75 -79) "/>
</g>
<g transform="translate(223 328.63)" style="">
	<circle cx="0" cy="0" r="22" style="stroke: none; stroke-width: 1; stroke-dasharray: none; stroke-linecap: butt; stroke-linejoin: miter; stroke-miterlimit: 4; fill: rgb(204,50,75); fill-opacity: 0.62; fill-rule: nonzero; opacity: 1;" transform="translate(-98.5 -61.5) "/>
	<circle cx="0" cy="0" r="12.5" style="stroke: none; stroke-width: 1; stroke-dasharray: none; stroke-linecap: butt; stroke-linejoin: miter; stroke-miterlimit: 4; fill: rgb(204,50,75); fill-opacity: 0.24; fill-rule: nonzero; opacity: 1;" transform="translate(-96.5 -61.5) "/>
	<circle cx="0" cy="0" r="9.5" style="stroke: none; stroke-width: 1; stroke-dasharray: none; stroke-linecap: butt; stroke-linejoin: miter; stroke-miterlimit: 4; fill: rgb(204,50,75); fill-opacity: 0.63; fill-rule: nonzero; opacity: 1;" transform="translate(-81.5 -61.5) "/>
	<circle cx="0" cy="0" r="15.5" style="stroke: none; stroke-width: 1; stroke-dasharray: none; stroke-linecap: butt; stroke-linejoin: miter; stroke-miterlimit: 4; fill: rgb(204,50,75); fill-opacity: 0.85; fill-rule: nonzero; opacity: 1;" transform="translate(83.5 -0.5) "/>
	<circle cx="0" cy="0" r="24" style="stroke: none; stroke-width: 1; stroke-dasharray: none; stroke-linecap: butt; stroke-linejoin: miter; stroke-miterlimit: 4; fill: rgb(204,50,75); fill-opacity: 0.61; fill-rule: nonzero; opacity: 1;" transform="translate(96.5 59.5) "/>
</g>
</svg>