<?xml version="1.0" encoding="UTF-8" standalone="no" ?>
<!DOCTYPE svg PUBLIC "-//W3C//DTD SVG 1.1//EN" "http://www.w3.org/Graphics/SVG/1.1/DTD/svg11.dtd">
<svg xmlns="http://www.w3.org/2000/svg" xmlns:xlink="http://www.w3.org/1999/xlink" version="1.1" width="1771.653543328125" height="1771.653543328125" viewBox="0 0 1698.75 1698.75" xml:space="preserve">
<desc>Created with Fabric.js 2.3.3</desc>
<defs>
</defs>
<path d="m -652.2 816.9 c 0 14.6 -13.7 27.5 -16.7 41.1 c -3.2 14.1 3.5 31.6 -2.7 44.3 c -6.2 12.9 -24.1 18.7 -32.9 29.8 c -9 11.2 -10.5 29.9 -21.7 38.7 c -11.1 8.8 -29.6 6.4 -42.7 12.6 c -12.8 6.1 -22.3 22.3 -36.3 25.5 c -13.7 3 -29.1 -7.3 -43.9 -7.3 c -14.7 0 -30.2 10.3 -43.9 7.3 c -14.1 -3.2 -23.7 -19.4 -36.3 -25.5 c -12.9 -6.2 -31.4 -3.6 -42.7 -12.6 s -12.8 -27.6 -21.7 -38.7 c -8.8 -11.1 -26.7 -16.9 -32.9 -29.8 c -6.1 -12.8 0.5 -30.2 -2.7 -44.3 c -3 -13.6 -16.7 -26.5 -16.7 -41.1 s 13.7 -27.5 16.7 -41.1 c 3.2 -14.1 -3.5 -31.6 2.7 -44.3 c 6.2 -12.9 24.1 -18.7 32.9 -29.8 c 9 -11.2 10.5 -29.9 21.7 -38.7 c 11.1 -8.8 29.6 -6.4 42.7 -12.6 c 12.8 -6.1 22.3 -22.3 36.3 -25.5 c 13.7 -3 29.1 7.3 43.9 7.3 c 14.6 0 30.2 -10.3 43.9 -7.3 c 14.1 3.2 23.7 19.4 36.3 25.5 c 12.9 6.2 31.4 3.6 42.7 12.6 c 11.2 9 12.8 27.6 21.7 38.7 c 8.8 11.1 26.7 16.9 32.9 29.8 c 6.1 12.8 -0.5 30.2 2.7 44.3 c 3 13.6 16.7 26.6 16.7 41.1 z" style="stroke: none; stroke-width: 1; stroke-dasharray: none; stroke-linecap: butt; stroke-linejoin: miter; stroke-miterlimit: 10; fill: rgb(125,134,147); fill-rule: nonzero; opacity: 1;" transform="translate(849.375 172.2047792494) scale(0.51 0.51) translate(849.1000000000001, -816.8999999999999) " stroke-linecap="round" />
<path d="m -657.4 858.7 c -3.3 14.3 -19.6 23.7 -25.7 36.3 c -6.4 13.1 -3.8 31.6 -12.8 42.5 c -9 11.2 -27.8 12.6 -38.9 21.4 c -11.2 8.8 -17 26.7 -29.9 32.8 s -30.4 -0.6 -44.3 2.6 c -13.8 3 -26.7 16.7 -41.1 16.5 c -14 -0.2 -26.9 -13.7 -41 -17 c -14.3 -3.3 -31.7 3.2 -44.3 -2.9 c -13.1 -6.4 -18.7 -24.3 -29.6 -33.1 c -11.2 -9 -29.8 -10.8 -38.6 -21.9 c -8.8 -11.2 -6.2 -29.8 -12.3 -42.7 c -6 -12.8 -22.1 -22.4 -25.2 -36.3 c -3 -13.8 7.3 -29.3 7.4 -43.7 c 0.2 -14 -10.3 -29.6 -7 -43.9 c 3.4 -14.3 19.6 -23.7 25.7 -36.3 c 6.4 -13.1 3.8 -31.6 12.8 -42.5 c 8.8 -11.2 27.5 -12.8 38.7 -21.6 s 17 -26.7 29.9 -32.8 s 30.4 0.6 44.3 -2.6 c 13.8 -3 26.7 -16.7 41.1 -16.5 c 14 0.2 26.9 13.7 41 17 c 14.3 3.3 31.7 -3.2 44.3 2.9 c 13.1 6.4 18.7 24.3 29.6 33.1 c 11.2 9 29.8 10.8 38.6 21.9 c 8.8 11.2 6.2 29.8 12.3 42.7 s 22.2 22.5 25.4 36.4 c 3 13.8 -7.3 29.3 -7.4 43.7 c -0.1 14.2 10.2 29.7 7 44 z" style="stroke: none; stroke-width: 1; stroke-dasharray: none; stroke-linecap: butt; stroke-linejoin: miter; stroke-miterlimit: 10; fill: rgb(255,255,255); fill-rule: nonzero; opacity: 1;" transform="translate(849.4005 170.6747792494) scale(0.51 0.51) translate(849.0500000000001, -813.9000000000001) " stroke-linecap="round" />
<path d="m -849.1 648.4 c 44.5 0 86.3 17.3 117.7 48.8 s 48.8 73.3 48.8 117.7 s -17.3 86.3 -48.8 117.7 s -73.3 48.8 -117.7 48.8 s -86.3 -17.3 -117.7 -48.8 c -31.4 -31.4 -48.8 -73.3 -48.8 -117.7 s 17.3 -86.3 48.8 -117.7 c 31.4 -31.5 73.2 -48.8 117.7 -48.8 m 0 -2 c -93.1 0 -168.5 75.4 -168.5 168.5 s 75.4 168.5 168.5 168.5 s 168.5 -75.4 168.5 -168.5 s -75.4 -168.5 -168.5 -168.5 z" style="stroke: none; stroke-width: 1; stroke-dasharray: none; stroke-linecap: butt; stroke-linejoin: miter; stroke-miterlimit: 10; fill: rgb(39,44,51); fill-rule: nonzero; opacity: 1;" transform="translate(849.375 171.1847792494) scale(0.51 0.51) translate(849.1, -814.9) " stroke-linecap="round" />
	<g transform="translate(905.0837989197 769.842) scale(1.77 1.77)">
		<text xml:space="preserve" font-family="Playfair Display" font-size="20" font-style="normal" font-weight="normal" style="stroke: none; stroke-width: 1; stroke-dasharray: none; stroke-linecap: butt; stroke-linejoin: miter; stroke-miterlimit: 10; fill: rgb(39,44,51); fill-rule: nonzero; opacity: 1; white-space: pre;" ><tspan x="-24.7600006104" y="6.2828" >CAFE</tspan></text>
	</g>
	<g transform="translate(878.64 769.842) scale(1.77 1.77)">
		<text xml:space="preserve" font-family="Playfair Display" font-size="20" font-style="normal" font-weight="normal" style="stroke: none; stroke-width: 1; stroke-dasharray: none; stroke-linecap: butt; stroke-linejoin: miter; stroke-miterlimit: 10; fill: rgb(39,44,51); fill-rule: nonzero; opacity: 1; white-space: pre;" ><tspan x="-39.7" y="6.2828" >FRENCH</tspan></text>
	</g>
</svg>