<?xml version="1.0" encoding="UTF-8" standalone="no" ?>
<!DOCTYPE svg PUBLIC "-//W3C//DTD SVG 1.1//EN" "http://www.w3.org/Graphics/SVG/1.1/DTD/svg11.dtd">
<svg xmlns="http://www.w3.org/2000/svg" xmlns:xlink="http://www.w3.org/1999/xlink" version="1.1" width="1772" height="1772" viewBox="0 0 1699.08 1699.08" xml:space="preserve">
<desc>Created with Fabric.js 2.3.3</desc>
<defs>
</defs>
<g transform="translate(849.5 854.15) scale(0.4 0.45)" style="">
</g>
	<g transform="translate(849.48 877.59) scale(0.59 0.59)">
		<text xml:space="preserve" font-family="Hammersmith One" font-size="20" font-style="normal" font-weight="normal" style="stroke: none; stroke-width: 1; stroke-dasharray: none; stroke-linecap: butt; stroke-linejoin: miter; stroke-miterlimit: 10; fill: rgb(64,71,98); fill-rule: nonzero; opacity: 1; white-space: pre;" ><tspan x="-46.68" y="6.28" >SINCE 1611</tspan></text>
	</g>
	<g transform="translate(850.16 840.55) scale(2.59 2.59)">
		<text xml:space="preserve" font-family="UnifrakturMaguntia" font-size="20" font-style="normal" font-weight="normal" style="stroke: none; stroke-width: 1; stroke-dasharray: none; stroke-linecap: butt; stroke-linejoin: miter; stroke-miterlimit: 10; fill: rgb(64,71,98); fill-rule: nonzero; opacity: 1; white-space: pre;" ><tspan x="-37.42" y="6.28" >Medieval</tspan></text>
	</g>
<g transform="translate(849.5 852.09) scale(0.33 0.35)" style="">
</g>
	<g transform="translate(848.38 871.44) scale(0.35 0.35)">
		<text xml:space="preserve" font-family="Montserrat" font-size="20" font-style="normal" font-weight="bold" style="stroke: none; stroke-width: 1; stroke-dasharray: none; stroke-linecap: butt; stroke-linejoin: miter; stroke-miterlimit: 10; fill: rgb(64,71,98); fill-rule: nonzero; opacity: 1; white-space: pre;" ><tspan x="-98.55" y="6.28" >ESTABLISHED 1856</tspan></text>
	</g>
	<g transform="translate(843.59 845.23) scale(2.57 2.57)">
		<text xml:space="preserve" font-family="Yellowtail" font-size="20" font-style="normal" font-weight="normal" style="stroke: none; stroke-width: 1; stroke-dasharray: none; stroke-linecap: butt; stroke-linejoin: miter; stroke-miterlimit: 10; fill: rgb(64,71,98); fill-rule: nonzero; opacity: 1; white-space: pre;" ><tspan x="-34.17" y="6.28" >Blackbird</tspan></text>
	</g>
<path d="M 134.499 126.374 L 134.501 126.376" style="stroke: rgb(204,50,75); stroke-width: 1; stroke-dasharray: none; stroke-linecap: round; stroke-linejoin: round; stroke-miterlimit: 10; fill: none; fill-rule: nonzero; opacity: 1;" transform="translate(189.75 181.63) scale(109.28 109.28) matrix(-1 0 0 1 0 0)  matrix(1 0 0 -1 0 0) translate(-134.5, -126.375) " stroke-linecap="round" />
<path d="M 187.499 99.374 Q 187.5 99.375 188 100.375 Q 188.5 101.375 188.5 101.875 Q 188.5 102.375 188.5 103.375 Q 188.5 104.375 188 105.875 Q 187.5 107.375 184 111.375 Q 180.5 115.375 178.5 117.375 Q 176.5 119.375 172.5 121.875 Q 168.5 124.375 165 126.875 Q 161.5 129.375 154 133.875 Q 146.5 138.375 143 140.375 Q 139.5 142.375 136 143.875 Q 132.5 145.375 124 148.875 Q 115.5 152.375 112 153.375 Q 108.5 154.375 107 154.875 Q 105.5 155.375 103 155.875 Q 100.5 156.375 99.5 156.875 Q 98.5 157.375 97 157.375 Q 95.5 157.375 92 157.375 Q 88.5 157.375 87.5 157.375 Q 86.5 157.375 85 157.375 Q 83.5 157.375 81.5 157.375 Q 79.5 157.375 79 157.375 Q 78.5 157.375 78 157.375 Q 77.5 157.375 77.5 156.875 L 77.5 156.374" style="stroke: rgb(204,50,75); stroke-width: 1; stroke-dasharray: none; stroke-linecap: round; stroke-linejoin: round; stroke-miterlimit: 10; fill: none; fill-rule: nonzero; opacity: 1;" transform="translate(267 84.37) translate(-133, -128.3745) " stroke-linecap="round" />
<g transform="translate(849.5 849.5) scale(0.4 0.39)" style="">
	<path d="M 312 246.9 h -500 v -3.6 h 500 V 246.9 z M -186.8 245.7 h 497.6 v -1.2 h -497.6 V 245.7 z" style="stroke: none; stroke-width: 1; stroke-dasharray: none; stroke-linecap: butt; stroke-linejoin: miter; stroke-miterlimit: 10; fill: rgb(64,71,98); fill-rule: nonzero; opacity: 1;" transform="translate(0 -56.45) translate(-62, -245.10000000000002) " stroke-linecap="round" />
	<path d="M 312 359.9 h -500 v -3.6 h 500 V 359.9 z M -186.8 358.7 h 497.6 v -1.2 h -497.6 V 358.7 z" style="stroke: none; stroke-width: 1; stroke-dasharray: none; stroke-linecap: butt; stroke-linejoin: miter; stroke-miterlimit: 10; fill: rgb(64,71,98); fill-rule: nonzero; opacity: 1;" transform="translate(0 56.55) translate(-62, -358.09999999999997) " stroke-linecap="round" />
</g>
	<g transform="translate(847.53 849.78)">
		<text xml:space="preserve" font-family="Playfair Display" font-size="20" font-style="normal" font-weight="normal" style="stroke: none; stroke-width: 1; stroke-dasharray: none; stroke-linecap: butt; stroke-linejoin: miter; stroke-miterlimit: 10; fill: rgb(64,71,98); fill-rule: nonzero; opacity: 1; white-space: pre;" ><tspan x="-66.9" y="6.28" >THE NEW YOU</tspan></text>
	</g>
</svg>