<?xml version="1.0" encoding="UTF-8" standalone="no" ?>
<!DOCTYPE svg PUBLIC "-//W3C//DTD SVG 1.1//EN" "http://www.w3.org/Graphics/SVG/1.1/DTD/svg11.dtd">
<svg xmlns="http://www.w3.org/2000/svg" xmlns:xlink="http://www.w3.org/1999/xlink" version="1.1" width="1772" height="1772" viewBox="0 0 1841.61 1841.61" xml:space="preserve">
<desc>Created with Fabric.js 2.3.3</desc>
<defs>
</defs>
<path d="M 125.499 112.626 Q 125.5 112.625 127 111.625 Q 128.5 110.625 132 108.625 Q 135.5 106.625 178.5 89.125 Q 221.5 71.625 235.5 87.625 Q 249.5 103.625 252 125.625 Q 254.5 147.625 247.5 150.625 Q 240.5 153.625 219.5 152.625 Q 198.5 151.625 174.5 150.625 Q 150.5 149.625 139.5 149.625 Q 128.5 149.625 121.5 149.125 Q 114.5 148.625 118 115.125 Q 121.5 81.625 133 63.625 Q 144.5 45.625 172 37.625 Q 199.5 29.625 222 37.125 Q 244.5 44.625 257 57.125 Q 269.5 69.625 279.5 78.125 Q 289.5 86.625 296 94.125 Q 302.5 101.625 307 110.125 Q 311.5 118.625 313.5 123.625 L 315.501 128.626" style="stroke: rgb(204,50,75); stroke-width: 1; stroke-dasharray: none; stroke-linecap: round; stroke-linejoin: round; stroke-miterlimit: 10; fill: none; fill-rule: nonzero; opacity: 1;" transform="translate(215.6 92.39) translate(-215.6010050633883, -92.39203192611654) " stroke-linecap="round" />
<path d="M 224.474 220.651 Q 224.5 220.625 225.5 220.125 Q 226.5 219.625 232.5 216.625 Q 238.5 213.625 258.5 202.625 Q 278.5 191.625 311 185.125 Q 343.5 178.625 352 184.625 Q 360.5 190.625 369.5 205.125 Q 378.5 219.625 379.5 227.625 Q 380.5 235.625 380.5 238.625 Q 380.5 241.625 370.5 246.125 Q 360.5 250.625 327.5 258.625 Q 294.5 266.625 258.5 270.125 Q 222.5 273.625 214.5 271.625 Q 206.5 269.625 202 280.125 Q 197.5 290.625 191.5 300.125 Q 185.5 309.625 183.5 311.125 Q 181.5 312.625 181 312.625 L 180.474 312.625" style="stroke: rgb(236,100,51); stroke-width: 26; stroke-dasharray: none; stroke-linecap: round; stroke-linejoin: round; stroke-miterlimit: 10; fill: none; fill-rule: nonzero; opacity: 1;" transform="translate(280.49 246.41) translate(-280.48699999999997, -246.40531224984989) " stroke-linecap="round" />
</svg>