<?xml version="1.0" encoding="UTF-8" standalone="no" ?>
<!DOCTYPE svg PUBLIC "-//W3C//DTD SVG 1.1//EN" "http://www.w3.org/Graphics/SVG/1.1/DTD/svg11.dtd">
<svg xmlns="http://www.w3.org/2000/svg" xmlns:xlink="http://www.w3.org/1999/xlink" version="1.1" width="1772" height="1772" viewBox="0 0 2280.45 2280.45" xml:space="preserve">
<desc>Created with Fabric.js 2.3.3</desc>
<defs>
</defs>
	<g transform="translate(1192.45 1167.53)">
		<text xml:space="preserve" font-family="Roboto" font-size="42" font-style="normal" font-weight="normal" style="stroke: none; stroke-width: 1; stroke-dasharray: none; stroke-linecap: butt; stroke-linejoin: miter; stroke-miterlimit: 4; fill: rgb(204,50,75); fill-rule: nonzero; opacity: 1; white-space: pre;" ><tspan x="-111.97" y="-14.33" >nmnm mnbj</tspan><tspan x="-16.68" y="40.72" >nl</tspan></text>
	</g>
<g transform="translate(1140 1140)" style="">
	<path id="change2" d="M 488.5 249.9 c 0 -11.9 12.1 -24.5 10.5 -35.9 c -1.7 -11.7 -16.8 -20.4 -20.1 -31.5 c -3.3 -11.3 4.7 -26.8 -0.1 -37.4 c -4.9 -10.7 -21.9 -14.8 -28.2 -24.6 c -6.4 -9.9 -3 -27 -10.7 -35.9 c -7.7 -8.8 -25.1 -8 -34 -15.6 c -8.8 -7.7 -10.4 -25.1 -20.3 -31.4 c -9.8 -6.3 -26.3 -0.6 -37 -5.5 c -10.6 -4.8 -17 -21.1 -28.3 -24.4 c -11.1 -3.3 -25.3 6.9 -37 5.2 C 271.8 11.3 261 -2.5 249.1 -2.5 c -11.9 0 -22.7 13.8 -34.1 15.4 c -11.7 1.7 -25.9 -8.5 -37 -5.2 c -11.3 3.3 -17.8 19.6 -28.3 24.4 c -10.7 4.9 -27.2 -0.9 -37 5.5 c -9.9 6.4 -11.5 23.8 -20.3 31.4 c -8.8 7.7 -26.3 6.8 -34 15.6 c -7.7 8.8 -4.3 26 -10.7 35.9 c -6.3 9.8 -23.3 13.9 -28.2 24.6 c -4.8 10.6 3.2 26.1 -0.1 37.4 C 16.1 193.6 0.9 202.3 -0.7 214 c -1.6 11.4 10.5 24 10.5 35.9 c 0 11.9 -12.1 24.5 -10.5 35.9 c 1.7 11.7 16.8 20.4 20.1 31.5 c 3.3 11.3 -4.7 26.8 0.1 37.4 c 4.9 10.7 21.9 14.8 28.2 24.6 c 6.4 9.9 3 27 10.7 35.9 c 7.7 8.8 25.1 8 34 15.6 c 8.8 7.7 10.4 25.1 20.3 31.4 c 9.8 6.3 26.3 0.6 37 5.5 c 10.6 4.8 17 21.1 28.3 24.4 c 11.1 3.3 25.3 -6.9 37 -5.2 c 11.4 1.6 22.2 15.4 34.1 15.4 c 11.9 0 22.7 -13.8 34.1 -15.4 c 11.7 -1.7 25.9 8.5 37 5.2 c 11.3 -3.3 17.8 -19.6 28.3 -24.4 c 10.7 -4.9 27.2 0.9 37 -5.5 c 9.9 -6.4 11.5 -23.8 20.3 -31.4 c 8.8 -7.7 26.3 -6.8 34 -15.6 c 7.7 -8.8 4.3 -26 10.7 -35.9 c 6.3 -9.8 23.3 -13.9 28.2 -24.6 c 4.8 -10.6 -3.2 -26.1 0.1 -37.4 c 3.3 -11.1 18.4 -19.8 20.1 -31.5 C 500.6 274.4 488.5 261.8 488.5 249.9 z" style="stroke: none; stroke-width: 1; stroke-dasharray: none; stroke-linecap: butt; stroke-linejoin: miter; stroke-miterlimit: 4; fill: rgb(125,134,147); fill-rule: nonzero; opacity: 1;" transform="translate(0.05 0) translate(-249.15, -249.89999999999998) " stroke-linecap="round" />
	<path id="change1" d="M 249.1 509.8 c -8.6 0 -16 -4.8 -22.5 -9.1 c -4.6 -3 -9 -5.9 -12.6 -6.4 c -3.9 -0.5 -9 1 -14.4 2.6 c -7.4 2.2 -15.7 4.8 -23.7 2.4 c -8.2 -2.4 -13.9 -9.1 -18.9 -15 c -3.6 -4.2 -7 -8.2 -10.4 -9.8 c -3.5 -1.6 -8.8 -1.6 -14.4 -1.5 c -7.7 0.1 -16.5 0.1 -23.5 -4.5 c -7.1 -4.6 -10.7 -12.6 -13.9 -19.7 c -2.3 -5.1 -4.4 -9.9 -7.3 -12.4 c -2.9 -2.5 -8 -3.9 -13.3 -5.5 c -7.4 -2.1 -15.9 -4.5 -21.4 -10.9 c -5.5 -6.4 -6.7 -15.1 -7.8 -22.7 c -0.8 -5.5 -1.5 -10.8 -3.5 -14 c -2 -3.2 -6.5 -6 -11.2 -8.9 c -6.6 -4.1 -14 -8.8 -17.5 -16.6 c -3.5 -7.6 -2.2 -16.3 -1 -23.9 c 0.8 -5.6 1.6 -10.8 0.5 -14.5 c -1 -3.6 -4.5 -7.5 -8.2 -11.7 c -5.1 -5.8 -11 -12.5 -12.2 -20.9 c -1.2 -8.2 2.5 -16.1 5.7 -23.1 c 2.4 -5.1 4.7 -10 4.7 -13.9 c 0 -3.9 -2.3 -8.8 -4.7 -13.9 c -3.2 -6.9 -6.9 -14.8 -5.7 -23.1 c 1.2 -8.5 7 -15.1 12.2 -20.9 c 3.7 -4.2 7.1 -8.1 8.2 -11.6 c 1.1 -3.7 0.3 -9 -0.5 -14.5 c -1.2 -7.6 -2.5 -16.2 1 -23.9 c 3.5 -7.7 11 -12.4 17.5 -16.6 c 4.7 -3 9.2 -5.8 11.2 -8.9 c 2.1 -3.2 2.8 -8.5 3.5 -14 c 1 -7.6 2.2 -16.3 7.8 -22.7 c 5.5 -6.4 14 -8.8 21.4 -10.9 c 5.4 -1.5 10.5 -3 13.3 -5.5 c 2.9 -2.5 5 -7.3 7.3 -12.4 c 3.2 -7.1 6.7 -15.1 13.9 -19.7 c 7.1 -4.6 15.8 -4.5 23.5 -4.5 c 5.6 0 10.9 0.1 14.4 -1.5 c 3.4 -1.6 6.8 -5.6 10.4 -9.8 c 5 -5.9 10.7 -12.6 18.9 -15 c 8 -2.4 16.4 0.2 23.7 2.4 c 5.4 1.6 10.5 3.2 14.4 2.6 c 3.7 -0.5 8 -3.4 12.6 -6.4 c 6.5 -4.3 13.9 -9.1 22.5 -9.1 s 16 4.8 22.5 9.1 c 4.6 3 9 5.9 12.6 6.4 c 3.9 0.6 9 -1 14.4 -2.6 c 7.4 -2.2 15.7 -4.8 23.7 -2.4 c 8.2 2.4 13.9 9.1 18.9 15 c 3.6 4.2 7 8.2 10.4 9.8 c 3.5 1.6 8.8 1.6 14.4 1.5 c 7.7 -0.1 16.5 -0.1 23.5 4.5 c 7.1 4.6 10.7 12.6 13.9 19.7 c 2.3 5.1 4.4 9.9 7.3 12.4 c 2.9 2.5 8 3.9 13.3 5.5 c 7.4 2.1 15.9 4.5 21.4 10.9 c 5.5 6.4 6.7 15.1 7.8 22.7 c 0.8 5.5 1.5 10.8 3.5 14 c 2 3.2 6.5 6 11.2 8.9 c 6.6 4.1 14 8.8 17.5 16.6 c 3.5 7.6 2.2 16.3 1 23.9 c -0.8 5.6 -1.6 10.8 -0.5 14.5 c 1 3.6 4.5 7.5 8.2 11.7 c 5.1 5.8 11 12.5 12.2 20.9 c 1.2 8.2 -2.5 16.1 -5.7 23.1 c -2.4 5.1 -4.7 10 -4.7 13.9 c 0 3.9 2.3 8.8 4.7 13.9 c 3.2 6.9 6.9 14.8 5.7 23.1 c -1.2 8.5 -7 15.1 -12.2 20.9 c -3.7 4.2 -7.1 8.1 -8.2 11.6 c -1.1 3.7 -0.3 9 0.5 14.5 c 1.2 7.6 2.5 16.2 -1 23.9 c -3.5 7.7 -11 12.4 -17.5 16.6 c -4.7 3 -9.2 5.8 -11.2 8.9 c -2.1 3.2 -2.8 8.5 -3.5 14 c -1 7.6 -2.2 16.3 -7.8 22.7 c -5.5 6.4 -14 8.8 -21.4 10.9 c -5.4 1.5 -10.5 3 -13.3 5.5 c -2.9 2.5 -5 7.3 -7.3 12.4 c -3.2 7.1 -6.7 15.1 -13.9 19.7 c -7.1 4.6 -15.8 4.5 -23.5 4.5 c -5.6 0 -10.9 -0.1 -14.4 1.5 c -3.4 1.6 -6.8 5.6 -10.4 9.8 c -5 5.9 -10.7 12.6 -18.9 15 c -8 2.4 -16.4 -0.2 -23.7 -2.4 c -5.4 -1.6 -10.5 -3.2 -14.4 -2.6 c -3.7 0.5 -8 3.4 -12.6 6.4 C 265.1 505 257.7 509.8 249.1 509.8 z M 212.3 479.2 c 1.3 0 2.5 0.1 3.8 0.3 c 7 1 12.9 4.9 18.7 8.7 c 5.2 3.4 10.2 6.7 14.3 6.7 c 4.1 0 9.1 -3.2 14.3 -6.7 c 5.8 -3.8 11.8 -7.7 18.7 -8.7 c 7.1 -1 14.1 1.1 20.8 3.1 c 5.6 1.7 11.4 3.5 15.2 2.4 c 3.9 -1.1 7.7 -5.6 11.7 -10.3 c 4.5 -5.3 9.2 -10.7 15.6 -13.7 c 6.5 -3 13.8 -2.9 20.7 -2.9 c 5.9 0 12 0.1 15.3 -2.1 c 3.4 -2.2 5.8 -7.5 8.3 -13.2 c 2.8 -6.4 5.8 -12.9 11.2 -17.6 c 5.4 -4.7 12.3 -6.7 19 -8.6 c 5.9 -1.7 11.6 -3.3 14.2 -6.3 c 2.6 -3 3.4 -8.8 4.2 -14.9 c 0.9 -6.9 1.9 -14.1 5.8 -20.1 c 3.8 -6 9.9 -9.8 15.8 -13.5 c 5.2 -3.3 10.2 -6.4 11.9 -10.1 c 1.6 -3.6 0.7 -9.6 -0.2 -15.4 c -1 -6.9 -2.1 -14.1 -0.1 -21 c 2 -6.8 6.7 -12.1 11.3 -17.3 c 4.1 -4.7 8 -9.1 8.6 -13.2 c 0.5 -3.8 -2 -9.3 -4.5 -14.6 c -3 -6.4 -6.1 -13 -6.1 -20.3 s 3.1 -13.9 6.1 -20.3 c 2.5 -5.3 5 -10.8 4.5 -14.6 c -0.6 -4.1 -4.5 -8.5 -8.6 -13.2 c -4.6 -5.2 -9.3 -10.6 -11.3 -17.3 c -2 -6.9 -0.9 -14.1 0.1 -21 c 0.9 -5.8 1.8 -11.8 0.2 -15.4 c -1.7 -3.7 -6.6 -6.8 -11.9 -10.1 c -5.9 -3.7 -12 -7.5 -15.8 -13.5 c -3.9 -6 -4.9 -13.2 -5.8 -20.1 c -0.8 -6.1 -1.6 -11.9 -4.2 -14.9 c -2.6 -3 -8.2 -4.6 -14.2 -6.3 c -6.7 -1.9 -13.7 -3.9 -19.1 -8.6 c -5.4 -4.7 -8.3 -11.3 -11.2 -17.6 c -2.5 -5.7 -4.9 -11 -8.3 -13.2 c -3.3 -2.1 -9.2 -2.1 -15.3 -2.1 c -7 0 -14.2 0.1 -20.7 -2.9 c -6.4 -2.9 -11.1 -8.4 -15.6 -13.7 c -4 -4.7 -7.8 -9.2 -11.7 -10.3 c -3.7 -1.1 -9.6 0.7 -15.2 2.4 c -6.7 2 -13.7 4.1 -20.8 3.1 c -7 -1 -12.9 -4.9 -18.7 -8.7 C 258.2 8.3 253.2 5 249.1 5 s -9.1 3.2 -14.3 6.7 c -5.8 3.8 -11.8 7.7 -18.7 8.7 c -7.2 1 -14.1 -1.1 -20.8 -3.1 c -5.6 -1.7 -11.4 -3.5 -15.2 -2.4 c -3.9 1.1 -7.7 5.6 -11.7 10.3 c -4.5 5.3 -9.2 10.7 -15.6 13.7 c -6.5 3 -13.8 2.9 -20.7 2.9 c -6.2 0 -12 -0.1 -15.3 2.1 c -3.4 2.2 -5.8 7.5 -8.3 13.2 c -2.8 6.4 -5.8 12.9 -11.2 17.6 c -5.4 4.7 -12.3 6.7 -19.1 8.6 c -5.9 1.7 -11.6 3.3 -14.2 6.3 c -2.6 3 -3.4 8.8 -4.2 14.9 c -0.9 6.9 -1.9 14.1 -5.8 20.1 c -3.8 6 -9.9 9.8 -15.8 13.5 c -5.2 3.3 -10.2 6.4 -11.9 10.1 c -1.6 3.6 -0.7 9.6 0.2 15.4 c 1 6.9 2.1 14.1 0.1 21 c -2 6.8 -6.7 12.1 -11.3 17.3 c -4.1 4.7 -8 9.1 -8.6 13.2 c -0.5 3.8 2 9.3 4.5 14.6 c 3 6.4 6.1 13 6.1 20.3 s -3.1 13.9 -6.1 20.3 c -2.5 5.3 -5 10.8 -4.5 14.6 c 0.6 4.1 4.5 8.5 8.6 13.2 c 4.6 5.2 9.3 10.6 11.3 17.3 c 2 6.9 0.9 14.1 -0.1 21 c -0.9 5.8 -1.8 11.8 -0.2 15.4 c 1.7 3.7 6.6 6.8 11.9 10.1 c 5.9 3.7 12 7.5 15.8 13.5 c 3.9 6 4.9 13.2 5.8 20.1 c 0.8 6.1 1.6 11.9 4.2 14.9 c 2.6 3 8.2 4.6 14.2 6.3 c 6.7 1.9 13.7 3.9 19.1 8.6 c 5.4 4.7 8.3 11.3 11.2 17.6 c 2.5 5.7 4.9 11 8.3 13.2 c 3.3 2.1 9.2 2.1 15.3 2.1 c 7 0 14.2 -0.1 20.7 2.9 c 6.4 2.9 11.1 8.4 15.6 13.7 c 4 4.7 7.8 9.2 11.7 10.3 c 3.8 1.1 9.6 -0.7 15.2 -2.4 C 200.8 480.9 206.4 479.2 212.3 479.2 z" style="stroke: none; stroke-width: 1; stroke-dasharray: none; stroke-linecap: butt; stroke-linejoin: miter; stroke-miterlimit: 4; fill: rgb(255,255,255); fill-rule: nonzero; opacity: 1;" transform="translate(0 -0.05) translate(-249.0999999999999, -249.85000000000008) " stroke-linecap="round" />
</g>
<g transform="translate(1140 1140)" style="">
	<path id="change2" d="M 488.5 249.9 c 0 -11.9 12.1 -24.5 10.5 -35.9 c -1.7 -11.7 -16.8 -20.4 -20.1 -31.5 c -3.3 -11.3 4.7 -26.8 -0.1 -37.4 c -4.9 -10.7 -21.9 -14.8 -28.2 -24.6 c -6.4 -9.9 -3 -27 -10.7 -35.9 c -7.7 -8.8 -25.1 -8 -34 -15.6 c -8.8 -7.7 -10.4 -25.1 -20.3 -31.4 c -9.8 -6.3 -26.3 -0.6 -37 -5.5 c -10.6 -4.8 -17 -21.1 -28.3 -24.4 c -11.1 -3.3 -25.3 6.9 -37 5.2 C 271.8 11.3 261 -2.5 249.1 -2.5 c -11.9 0 -22.7 13.8 -34.1 15.4 c -11.7 1.7 -25.9 -8.5 -37 -5.2 c -11.3 3.3 -17.8 19.6 -28.3 24.4 c -10.7 4.9 -27.2 -0.9 -37 5.5 c -9.9 6.4 -11.5 23.8 -20.3 31.4 c -8.8 7.7 -26.3 6.8 -34 15.6 c -7.7 8.8 -4.3 26 -10.7 35.9 c -6.3 9.8 -23.3 13.9 -28.2 24.6 c -4.8 10.6 3.2 26.1 -0.1 37.4 C 16.1 193.6 0.9 202.3 -0.7 214 c -1.6 11.4 10.5 24 10.5 35.9 c 0 11.9 -12.1 24.5 -10.5 35.9 c 1.7 11.7 16.8 20.4 20.1 31.5 c 3.3 11.3 -4.7 26.8 0.1 37.4 c 4.9 10.7 21.9 14.8 28.2 24.6 c 6.4 9.9 3 27 10.7 35.9 c 7.7 8.8 25.1 8 34 15.6 c 8.8 7.7 10.4 25.1 20.3 31.4 c 9.8 6.3 26.3 0.6 37 5.5 c 10.6 4.8 17 21.1 28.3 24.4 c 11.1 3.3 25.3 -6.9 37 -5.2 c 11.4 1.6 22.2 15.4 34.1 15.4 c 11.9 0 22.7 -13.8 34.1 -15.4 c 11.7 -1.7 25.9 8.5 37 5.2 c 11.3 -3.3 17.8 -19.6 28.3 -24.4 c 10.7 -4.9 27.2 0.9 37 -5.5 c 9.9 -6.4 11.5 -23.8 20.3 -31.4 c 8.8 -7.7 26.3 -6.8 34 -15.6 c 7.7 -8.8 4.3 -26 10.7 -35.9 c 6.3 -9.8 23.3 -13.9 28.2 -24.6 c 4.8 -10.6 -3.2 -26.1 0.1 -37.4 c 3.3 -11.1 18.4 -19.8 20.1 -31.5 C 500.6 274.4 488.5 261.8 488.5 249.9 z" style="stroke: none; stroke-width: 1; stroke-dasharray: none; stroke-linecap: butt; stroke-linejoin: miter; stroke-miterlimit: 4; fill: rgb(125,134,147); fill-rule: nonzero; opacity: 1;" transform="translate(0.05 0) translate(-249.15, -249.89999999999998) " stroke-linecap="round" />
	<path id="change1" d="M 249.1 509.8 c -8.6 0 -16 -4.8 -22.5 -9.1 c -4.6 -3 -9 -5.9 -12.6 -6.4 c -3.9 -0.5 -9 1 -14.4 2.6 c -7.4 2.2 -15.7 4.8 -23.7 2.4 c -8.2 -2.4 -13.9 -9.1 -18.9 -15 c -3.6 -4.2 -7 -8.2 -10.4 -9.8 c -3.5 -1.6 -8.8 -1.6 -14.4 -1.5 c -7.7 0.1 -16.5 0.1 -23.5 -4.5 c -7.1 -4.6 -10.7 -12.6 -13.9 -19.7 c -2.3 -5.1 -4.4 -9.9 -7.3 -12.4 c -2.9 -2.5 -8 -3.9 -13.3 -5.5 c -7.4 -2.1 -15.9 -4.5 -21.4 -10.9 c -5.5 -6.4 -6.7 -15.1 -7.8 -22.7 c -0.8 -5.5 -1.5 -10.8 -3.5 -14 c -2 -3.2 -6.5 -6 -11.2 -8.9 c -6.6 -4.1 -14 -8.8 -17.5 -16.6 c -3.5 -7.6 -2.2 -16.3 -1 -23.9 c 0.8 -5.6 1.6 -10.8 0.5 -14.5 c -1 -3.6 -4.5 -7.5 -8.2 -11.7 c -5.1 -5.8 -11 -12.5 -12.2 -20.9 c -1.2 -8.2 2.5 -16.1 5.7 -23.1 c 2.4 -5.1 4.7 -10 4.7 -13.9 c 0 -3.9 -2.3 -8.8 -4.7 -13.9 c -3.2 -6.9 -6.9 -14.8 -5.7 -23.1 c 1.2 -8.5 7 -15.1 12.2 -20.9 c 3.7 -4.2 7.1 -8.1 8.2 -11.6 c 1.1 -3.7 0.3 -9 -0.5 -14.5 c -1.2 -7.6 -2.5 -16.2 1 -23.9 c 3.5 -7.7 11 -12.4 17.5 -16.6 c 4.7 -3 9.2 -5.8 11.2 -8.9 c 2.1 -3.2 2.8 -8.5 3.5 -14 c 1 -7.6 2.2 -16.3 7.8 -22.7 c 5.5 -6.4 14 -8.8 21.4 -10.9 c 5.4 -1.5 10.5 -3 13.3 -5.5 c 2.9 -2.5 5 -7.3 7.3 -12.4 c 3.2 -7.1 6.7 -15.1 13.9 -19.7 c 7.1 -4.6 15.8 -4.5 23.5 -4.5 c 5.6 0 10.9 0.1 14.4 -1.5 c 3.4 -1.6 6.8 -5.6 10.4 -9.8 c 5 -5.9 10.7 -12.6 18.9 -15 c 8 -2.4 16.4 0.2 23.7 2.4 c 5.4 1.6 10.5 3.2 14.4 2.6 c 3.7 -0.5 8 -3.4 12.6 -6.4 c 6.5 -4.3 13.9 -9.1 22.5 -9.1 s 16 4.8 22.5 9.1 c 4.6 3 9 5.9 12.6 6.4 c 3.9 0.6 9 -1 14.4 -2.6 c 7.4 -2.2 15.7 -4.8 23.7 -2.4 c 8.2 2.4 13.9 9.1 18.9 15 c 3.6 4.2 7 8.2 10.4 9.8 c 3.5 1.6 8.8 1.6 14.4 1.5 c 7.7 -0.1 16.5 -0.1 23.5 4.5 c 7.1 4.6 10.7 12.6 13.9 19.7 c 2.3 5.1 4.4 9.9 7.3 12.4 c 2.9 2.5 8 3.9 13.3 5.5 c 7.4 2.1 15.9 4.5 21.4 10.9 c 5.5 6.4 6.7 15.1 7.8 22.7 c 0.8 5.5 1.5 10.8 3.5 14 c 2 3.2 6.5 6 11.2 8.9 c 6.6 4.1 14 8.8 17.5 16.6 c 3.5 7.6 2.2 16.3 1 23.9 c -0.8 5.6 -1.6 10.8 -0.5 14.5 c 1 3.6 4.5 7.5 8.2 11.7 c 5.1 5.8 11 12.5 12.2 20.9 c 1.2 8.2 -2.5 16.1 -5.7 23.1 c -2.4 5.1 -4.7 10 -4.7 13.9 c 0 3.9 2.3 8.8 4.7 13.9 c 3.2 6.9 6.9 14.8 5.7 23.1 c -1.2 8.5 -7 15.1 -12.2 20.9 c -3.7 4.2 -7.1 8.1 -8.2 11.6 c -1.1 3.7 -0.3 9 0.5 14.5 c 1.2 7.6 2.5 16.2 -1 23.9 c -3.5 7.7 -11 12.4 -17.5 16.6 c -4.7 3 -9.2 5.8 -11.2 8.9 c -2.1 3.2 -2.8 8.5 -3.5 14 c -1 7.6 -2.2 16.3 -7.8 22.7 c -5.5 6.4 -14 8.8 -21.4 10.9 c -5.4 1.5 -10.5 3 -13.3 5.5 c -2.9 2.5 -5 7.3 -7.3 12.4 c -3.2 7.1 -6.7 15.1 -13.9 19.7 c -7.1 4.6 -15.8 4.5 -23.5 4.5 c -5.6 0 -10.9 -0.1 -14.4 1.5 c -3.4 1.6 -6.8 5.6 -10.4 9.8 c -5 5.9 -10.7 12.6 -18.9 15 c -8 2.4 -16.4 -0.2 -23.7 -2.4 c -5.4 -1.6 -10.5 -3.2 -14.4 -2.6 c -3.7 0.5 -8 3.4 -12.6 6.4 C 265.1 505 257.7 509.8 249.1 509.8 z M 212.3 479.2 c 1.3 0 2.5 0.1 3.8 0.3 c 7 1 12.9 4.9 18.7 8.7 c 5.2 3.4 10.2 6.7 14.3 6.7 c 4.1 0 9.1 -3.2 14.3 -6.7 c 5.8 -3.8 11.8 -7.7 18.7 -8.7 c 7.1 -1 14.1 1.1 20.8 3.1 c 5.6 1.7 11.4 3.5 15.2 2.4 c 3.9 -1.1 7.7 -5.6 11.7 -10.3 c 4.5 -5.3 9.2 -10.7 15.6 -13.7 c 6.5 -3 13.8 -2.9 20.7 -2.9 c 5.9 0 12 0.1 15.3 -2.1 c 3.4 -2.2 5.8 -7.5 8.3 -13.2 c 2.8 -6.4 5.8 -12.9 11.2 -17.6 c 5.4 -4.7 12.3 -6.7 19 -8.6 c 5.9 -1.7 11.6 -3.3 14.2 -6.3 c 2.6 -3 3.4 -8.8 4.2 -14.9 c 0.9 -6.9 1.9 -14.1 5.8 -20.1 c 3.8 -6 9.9 -9.8 15.8 -13.5 c 5.2 -3.3 10.2 -6.4 11.9 -10.1 c 1.6 -3.6 0.7 -9.6 -0.2 -15.4 c -1 -6.9 -2.1 -14.1 -0.1 -21 c 2 -6.8 6.7 -12.1 11.3 -17.3 c 4.1 -4.7 8 -9.1 8.6 -13.2 c 0.5 -3.8 -2 -9.3 -4.5 -14.6 c -3 -6.4 -6.1 -13 -6.1 -20.3 s 3.1 -13.9 6.1 -20.3 c 2.5 -5.3 5 -10.8 4.5 -14.6 c -0.6 -4.1 -4.5 -8.5 -8.6 -13.2 c -4.6 -5.2 -9.3 -10.6 -11.3 -17.3 c -2 -6.9 -0.9 -14.1 0.1 -21 c 0.9 -5.8 1.8 -11.8 0.2 -15.4 c -1.7 -3.7 -6.6 -6.8 -11.9 -10.1 c -5.9 -3.7 -12 -7.5 -15.8 -13.5 c -3.9 -6 -4.9 -13.2 -5.8 -20.1 c -0.8 -6.1 -1.6 -11.9 -4.2 -14.9 c -2.6 -3 -8.2 -4.6 -14.2 -6.3 c -6.7 -1.9 -13.7 -3.9 -19.1 -8.6 c -5.4 -4.7 -8.3 -11.3 -11.2 -17.6 c -2.5 -5.7 -4.9 -11 -8.3 -13.2 c -3.3 -2.1 -9.2 -2.1 -15.3 -2.1 c -7 0 -14.2 0.1 -20.7 -2.9 c -6.4 -2.9 -11.1 -8.4 -15.6 -13.7 c -4 -4.7 -7.8 -9.2 -11.7 -10.3 c -3.7 -1.1 -9.6 0.7 -15.2 2.4 c -6.7 2 -13.7 4.1 -20.8 3.1 c -7 -1 -12.9 -4.9 -18.7 -8.7 C 258.2 8.3 253.2 5 249.1 5 s -9.1 3.2 -14.3 6.7 c -5.8 3.8 -11.8 7.7 -18.7 8.7 c -7.2 1 -14.1 -1.1 -20.8 -3.1 c -5.6 -1.7 -11.4 -3.5 -15.2 -2.4 c -3.9 1.1 -7.7 5.6 -11.7 10.3 c -4.5 5.3 -9.2 10.7 -15.6 13.7 c -6.5 3 -13.8 2.9 -20.7 2.9 c -6.2 0 -12 -0.1 -15.3 2.1 c -3.4 2.2 -5.8 7.5 -8.3 13.2 c -2.8 6.4 -5.8 12.9 -11.2 17.6 c -5.4 4.7 -12.3 6.7 -19.1 8.6 c -5.9 1.7 -11.6 3.3 -14.2 6.3 c -2.6 3 -3.4 8.8 -4.2 14.9 c -0.9 6.9 -1.9 14.1 -5.8 20.1 c -3.8 6 -9.9 9.8 -15.8 13.5 c -5.2 3.3 -10.2 6.4 -11.9 10.1 c -1.6 3.6 -0.7 9.6 0.2 15.4 c 1 6.9 2.1 14.1 0.1 21 c -2 6.8 -6.7 12.1 -11.3 17.3 c -4.1 4.7 -8 9.1 -8.6 13.2 c -0.5 3.8 2 9.3 4.5 14.6 c 3 6.4 6.1 13 6.1 20.3 s -3.1 13.9 -6.1 20.3 c -2.5 5.3 -5 10.8 -4.5 14.6 c 0.6 4.1 4.5 8.5 8.6 13.2 c 4.6 5.2 9.3 10.6 11.3 17.3 c 2 6.9 0.9 14.1 -0.1 21 c -0.9 5.8 -1.8 11.8 -0.2 15.4 c 1.7 3.7 6.6 6.8 11.9 10.1 c 5.9 3.7 12 7.5 15.8 13.5 c 3.9 6 4.9 13.2 5.8 20.1 c 0.8 6.1 1.6 11.9 4.2 14.9 c 2.6 3 8.2 4.6 14.2 6.3 c 6.7 1.9 13.7 3.9 19.1 8.6 c 5.4 4.7 8.3 11.3 11.2 17.6 c 2.5 5.7 4.9 11 8.3 13.2 c 3.3 2.1 9.2 2.1 15.3 2.1 c 7 0 14.2 -0.1 20.7 2.9 c 6.4 2.9 11.1 8.4 15.6 13.7 c 4 4.7 7.8 9.2 11.7 10.3 c 3.8 1.1 9.6 -0.7 15.2 -2.4 C 200.8 480.9 206.4 479.2 212.3 479.2 z" style="stroke: none; stroke-width: 1; stroke-dasharray: none; stroke-linecap: butt; stroke-linejoin: miter; stroke-miterlimit: 4; fill: rgb(255,255,255); fill-rule: nonzero; opacity: 1;" transform="translate(0 -0.05) translate(-249.0999999999999, -249.85000000000008) " stroke-linecap="round" />
</g>
</svg>