<?xml version="1.0" encoding="UTF-8" standalone="no" ?>
<!DOCTYPE svg PUBLIC "-//W3C//DTD SVG 1.1//EN" "http://www.w3.org/Graphics/SVG/1.1/DTD/svg11.dtd">
<svg xmlns="http://www.w3.org/2000/svg" xmlns:xlink="http://www.w3.org/1999/xlink" version="1.1" width="1772" height="1772" viewBox="0 0 2869.31 2869.31" xml:space="preserve">
<desc>Created with Fabric.js 2.3.3</desc>
<defs>
</defs>
<g transform="translate(1434.5 1437.09) scale(0.33 0.35)" style="">
</g>
	<g transform="translate(1433.38 1456.44) scale(0.35 0.35)">
		<text xml:space="preserve" font-family="Montserrat" font-size="20" font-style="normal" font-weight="bold" style="stroke: none; stroke-width: 1; stroke-dasharray: none; stroke-linecap: butt; stroke-linejoin: miter; stroke-miterlimit: 10; fill: rgb(64,71,98); fill-rule: nonzero; opacity: 1; white-space: pre;" ><tspan x="-98.55" y="6.28" >ESTABLISHED 1856</tspan></text>
	</g>
	<g transform="translate(1428.59 1430.23) scale(2.57 2.57)">
		<text xml:space="preserve" font-family="Yellowtail" font-size="20" font-style="normal" font-weight="normal" style="stroke: none; stroke-width: 1; stroke-dasharray: none; stroke-linecap: butt; stroke-linejoin: miter; stroke-miterlimit: 10; fill: rgb(64,71,98); fill-rule: nonzero; opacity: 1; white-space: pre;" ><tspan x="-34.17" y="6.28" >Blackbird</tspan></text>
	</g>
<path d="M 268.5 235.376 Q 268.5 235.375 268.5 234.375 Q 268.5 233.375 274 226.875 Q 279.5 220.375 288.5 212.875 Q 297.5 205.375 316 197.375 Q 334.5 189.375 348 186.375 Q 361.5 183.375 370 180.875 Q 378.5 178.375 387 176.875 Q 395.5 175.375 404.5 175.375 Q 413.5 175.375 423 176.875 Q 432.5 178.375 442 185.875 Q 451.5 193.375 463 203.875 Q 474.5 214.375 482.5 222.875 Q 490.5 231.375 499 242.375 Q 507.5 253.375 513.5 260.375 Q 519.5 267.375 523.5 273.875 Q 527.5 280.375 529 286.875 Q 530.5 293.375 532.5 306.375 Q 534.5 319.375 532.5 327.875 Q 530.5 336.375 524.5 345.875 Q 518.5 355.375 507.5 366.375 Q 496.5 377.375 480.5 386.375 Q 464.5 395.375 446.5 400.875 Q 428.5 406.375 411 407.875 Q 393.5 409.375 380.5 409.375 Q 367.5 409.375 359.5 405.375 Q 351.5 401.375 345.5 394.375 Q 339.5 387.375 334 374.375 Q 328.5 361.375 322.5 340.375 Q 316.5 319.375 316.5 293.375 Q 316.5 267.375 323.5 259.875 L 330.501 252.374" style="stroke: rgb(204,50,75); stroke-width: 1; stroke-dasharray: none; stroke-linecap: round; stroke-linejoin: round; stroke-miterlimit: 10; fill: none; fill-rule: nonzero; opacity: 1;" transform="translate(401.25 292.38) translate(-401.25, -292.375) " stroke-linecap="round" />
</svg>