<?xml version="1.0" encoding="UTF-8" standalone="no" ?>
<!DOCTYPE svg PUBLIC "-//W3C//DTD SVG 1.1//EN" "http://www.w3.org/Graphics/SVG/1.1/DTD/svg11.dtd">
<svg xmlns="http://www.w3.org/2000/svg" xmlns:xlink="http://www.w3.org/1999/xlink" version="1.1" width="1772" height="1772" viewBox="0 0 1176.23 1176.23" xml:space="preserve">
<desc>Created with Fabric.js 2.3.3</desc>
<defs>
</defs>
<g transform="translate(600.81 588) scale(0.1 0.11)" style="">
</g>
	<g transform="translate(576.9 562.5) scale(0.49 0.49)">
		<text xml:space="preserve" font-family="Montserrat" font-size="20" font-style="normal" font-weight="bold" style="stroke: none; stroke-width: 1; stroke-dasharray: none; stroke-linecap: butt; stroke-linejoin: miter; stroke-miterlimit: 10; fill: rgb(64,71,98); fill-rule: nonzero; opacity: 1; white-space: pre;" ><tspan x="-20.97" y="6.28" >THE</tspan></text>
	</g>
	<g transform="translate(576.6 612.89) scale(0.57 0.57)">
		<text xml:space="preserve" font-family="Montserrat" font-size="20" font-style="normal" font-weight="bold" style="stroke: none; stroke-width: 1; stroke-dasharray: none; stroke-linecap: butt; stroke-linejoin: miter; stroke-miterlimit: 10; fill: rgb(64,71,98); fill-rule: nonzero; opacity: 1; white-space: pre;" ><tspan x="-67.12" y="6.28" >YACHT CLUB</tspan></text>
	</g>
	<g transform="translate(575.29 590.03) scale(1.91 1.91)">
		<text xml:space="preserve" font-family="Oswald" font-size="20" font-style="normal" font-weight="bold" style="stroke: none; stroke-width: 1; stroke-dasharray: none; stroke-linecap: butt; stroke-linejoin: miter; stroke-miterlimit: 10; fill: rgb(64,71,98); fill-rule: nonzero; opacity: 1; white-space: pre;" ><tspan x="-51.77" y="6.28" >SAN MARINO</tspan></text>
	</g>
<g transform="translate(600.82 588) scale(0.1 0.11)" style="">
</g>
	<g transform="translate(576.9 562.5) scale(0.49 0.49)">
		<text xml:space="preserve" font-family="Montserrat" font-size="20" font-style="normal" font-weight="bold" style="stroke: none; stroke-width: 1; stroke-dasharray: none; stroke-linecap: butt; stroke-linejoin: miter; stroke-miterlimit: 10; fill: rgb(64,71,98); fill-rule: nonzero; opacity: 1; white-space: pre;" ><tspan x="-20.97" y="6.28" >THE</tspan></text>
	</g>
	<g transform="translate(576.6 612.89) scale(0.57 0.57)">
		<text xml:space="preserve" font-family="Montserrat" font-size="20" font-style="normal" font-weight="bold" style="stroke: none; stroke-width: 1; stroke-dasharray: none; stroke-linecap: butt; stroke-linejoin: miter; stroke-miterlimit: 10; fill: rgb(64,71,98); fill-rule: nonzero; opacity: 1; white-space: pre;" ><tspan x="-67.12" y="6.28" >YACHT CLUB</tspan></text>
	</g>
	<g transform="translate(575.29 590.03) scale(1.91 1.91)">
		<text xml:space="preserve" font-family="Oswald" font-size="20" font-style="normal" font-weight="bold" style="stroke: none; stroke-width: 1; stroke-dasharray: none; stroke-linecap: butt; stroke-linejoin: miter; stroke-miterlimit: 10; fill: rgb(64,71,98); fill-rule: nonzero; opacity: 1; white-space: pre;" ><tspan x="-51.77" y="6.28" >SAN MARINO</tspan></text>
	</g>
<g transform="translate(588 588)" style="">
	<ellipse cx="0" cy="0" rx="24.56" ry="21.8" style="stroke: none; stroke-width: 1; stroke-dasharray: none; stroke-linecap: butt; stroke-linejoin: round; stroke-miterlimit: 1.41; fill: rgb(237,175,6); fill-rule: evenodd; opacity: 1;" transform="translate(-0.84 1.89)"/>
	<ellipse cx="0" cy="0" rx="24.56" ry="21.8" style="stroke: none; stroke-width: 1; stroke-dasharray: none; stroke-linecap: butt; stroke-linejoin: round; stroke-miterlimit: 1.41; fill: rgb(250,201,64); fill-rule: evenodd; opacity: 1;" transform="translate(0.1 0.78)"/>
	<radialGradient id="SVGID_1" gradientUnits="userSpaceOnUse" gradientTransform="matrix(3.05961 0 0 3.05961 18.83 31.25)"  cx="-18.83" cy="-31.25" r="1" fx="-18.83" fy="-31.25">
<stop offset="0%" style="stop-color:rgb(29,29,29);stop-opacity: 1"/>
<stop offset="100%" style="stop-color:rgb(0,0,0);stop-opacity: 1"/>
</radialGradient>
<circle cx="0" cy="0" r="3.06" style="stroke: none; stroke-width: 1; stroke-dasharray: none; stroke-linecap: butt; stroke-linejoin: round; stroke-miterlimit: 1.41; fill: url(#SVGID_1); fill-rule: evenodd; opacity: 1;" transform="translate(-13.17 -0.75) "/>
	<circle cx="0" cy="0" r="1.33" style="stroke: none; stroke-width: 1; stroke-dasharray: none; stroke-linecap: butt; stroke-linejoin: round; stroke-miterlimit: 1.41; fill: rgb(255,255,255); fill-rule: evenodd; opacity: 1;" transform="translate(-14.5 0.86) "/>
	<circle cx="0" cy="0" r="0.67" style="stroke: none; stroke-width: 1; stroke-dasharray: none; stroke-linecap: butt; stroke-linejoin: round; stroke-miterlimit: 1.41; fill: rgb(255,255,255); fill-rule: evenodd; opacity: 1;" transform="translate(-13.4 -1.27) "/>
	<ellipse cx="0" cy="0" rx="3.19" ry="0.9" style="stroke: none; stroke-width: 1; stroke-dasharray: none; stroke-linecap: butt; stroke-linejoin: round; stroke-miterlimit: 1.41; fill: rgb(183,96,230); fill-rule: evenodd; opacity: 1;" transform="translate(-13.17 1.64)"/>
	<radialGradient id="SVGID_2" gradientUnits="userSpaceOnUse" gradientTransform="matrix(3.05961 0 0 3.05961 43.4 31.25)"  cx="-43.4" cy="-31.25" r="1" fx="-43.4" fy="-31.25">
<stop offset="0%" style="stop-color:rgb(29,29,29);stop-opacity: 1"/>
<stop offset="100%" style="stop-color:rgb(0,0,0);stop-opacity: 1"/>
</radialGradient>
<circle cx="0" cy="0" r="3.06" style="stroke: none; stroke-width: 1; stroke-dasharray: none; stroke-linecap: butt; stroke-linejoin: round; stroke-miterlimit: 1.41; fill: url(#SVGID_2); fill-rule: evenodd; opacity: 1;" transform="translate(11.4 -0.75) "/>
	<circle cx="0" cy="0" r="1.33" style="stroke: none; stroke-width: 1; stroke-dasharray: none; stroke-linecap: butt; stroke-linejoin: round; stroke-miterlimit: 1.41; fill: rgb(255,255,255); fill-rule: evenodd; opacity: 1;" transform="translate(10.07 0.86) "/>
	<circle cx="0" cy="0" r="0.67" style="stroke: none; stroke-width: 1; stroke-dasharray: none; stroke-linecap: butt; stroke-linejoin: round; stroke-miterlimit: 1.41; fill: rgb(255,255,255); fill-rule: evenodd; opacity: 1;" transform="translate(11.17 -1.27) "/>
	<ellipse cx="0" cy="0" rx="3.19" ry="0.9" style="stroke: none; stroke-width: 1; stroke-dasharray: none; stroke-linecap: butt; stroke-linejoin: round; stroke-miterlimit: 1.41; fill: rgb(183,96,230); fill-rule: evenodd; opacity: 1;" transform="translate(11.4 1.64)"/>
	<path d="M 31.1 38.65 a 13.23 13.23 0 0 1 0.7 0.02 l 0.32 0.02 a 12.94 12.94 0 0 1 1.17 0.17 l 0.29 0.05 a 13.82 13.82 0 0 1 2.3 0.72 a 8.23 8.23 0 0 1 1.64 0.98 a 5.21 5.21 0 0 1 0.74 0.78 a 2.53 2.53 0 0 1 0.39 0.86 a 1.85 1.85 0 0 1 0.04 0.5 v 0.04 l -0.2 0.21 l -0.21 -0.2 l -0.02 -0.1 a 1.48 1.48 0 0 0 -0.32 -0.7 a 2.83 2.83 0 0 0 -0.93 -0.76 a 5.36 5.36 0 0 0 -1.37 -0.55 a 10.31 10.31 0 0 0 -2.27 -0.42 l -0.18 -0.02 a 13.83 13.83 0 0 0 -1.15 -0.05 h -1.16 l -0.3 0.01 c -0.25 0 -0.5 0.02 -0.76 0.04 a 11.1 11.1 0 0 0 -0.84 0.07 l -0.25 0.03 a 13.74 13.74 0 0 0 -2.27 0.48 a 6.56 6.56 0 0 0 -1.4 0.66 a 3.3 3.3 0 0 0 -0.57 0.5 c -0.18 0.23 -0.31 0.49 -0.35 0.77 v 0.03 l -0.21 0.2 l -0.2 -0.2 a 1.61 1.61 0 0 1 0 -0.42 c 0.05 -0.36 0.2 -0.7 0.4 -1 a 3.1 3.1 0 0 1 0.46 -0.53 a 4.64 4.64 0 0 1 0.54 -0.45 a 7.4 7.4 0 0 1 1.03 -0.63 l 0.21 -0.1 a 10.46 10.46 0 0 1 2.1 -0.72 l 0.2 -0.04 a 12.99 12.99 0 0 1 2.18 -0.25 h 0.26 z m -9.5 -16.63 l 0.02 0.6 l -0.4 0.43 l -3.75 1.71 l -0.6 0.02 l -0.43 -0.4 l -0.02 -0.6 l 0.4 -0.43 l 3.75 -1.71 l 0.6 -0.02 l 0.43 0.4 z m 20.05 0.48 l 3.76 1.7 l 0.4 0.44 l -0.02 0.59 l -0.44 0.4 l -0.59 -0.01 l -3.75 -1.71 l -0.4 -0.44 l 0.01 -0.59 l 0.44 -0.4 l 0.59 0.01 z" style="stroke: none; stroke-width: 1; stroke-dasharray: none; stroke-linecap: butt; stroke-linejoin: round; stroke-miterlimit: 1.41; fill: rgb(46,13,25); fill-rule: nonzero; opacity: 1;" transform="translate(-0.88 0.31) translate(-31.115000000000002, -32.31) " stroke-linecap="round" />
	<path d="M 43.36 36.34 s -1.5 1.93 -1.5 2.77 a 1.5 1.5 0 0 0 3 0 c 0 -0.83 -1.5 -2.77 -1.5 -2.77 z" style="stroke: none; stroke-width: 1; stroke-dasharray: none; stroke-linecap: butt; stroke-linejoin: round; stroke-miterlimit: 1.41; fill: rgb(183,96,230); fill-rule: evenodd; opacity: 1;" transform="translate(11.36 6.48) translate(-43.36, -38.47500000000001) " stroke-linecap="round" />
	<path d="M 44.25 38.8 c 0.33 0.21 0.39 0.7 0.12 1.1 c -0.26 0.4 -0.73 0.54 -1.06 0.32 c -0.33 -0.22 -0.38 -0.71 -0.12 -1.1 c 0.26 -0.4 0.74 -0.54 1.06 -0.32 z" style="stroke: none; stroke-width: 1; stroke-dasharray: none; stroke-linecap: butt; stroke-linejoin: round; stroke-miterlimit: 1.41; fill: rgb(177,214,244); fill-rule: evenodd; opacity: 1;" transform="translate(11.78 7.51) translate(-43.78210322957706, -39.510000000000005) " stroke-linecap="round" />
	<path d="M 46.78 41.8 s -1.5 1.94 -1.5 2.77 a 1.5 1.5 0 0 0 3 0 c 0 -0.83 -1.5 -2.77 -1.5 -2.77 z" style="stroke: none; stroke-width: 1; stroke-dasharray: none; stroke-linecap: butt; stroke-linejoin: round; stroke-miterlimit: 1.41; fill: rgb(183,96,230); fill-rule: evenodd; opacity: 1;" transform="translate(14.78 11.93) translate(-46.78, -43.935) " stroke-linecap="round" />
	<path d="M 47.67 44.26 c 0.33 0.22 0.38 0.71 0.12 1.1 c -0.26 0.4 -0.74 0.54 -1.07 0.32 c -0.32 -0.22 -0.38 -0.71 -0.12 -1.1 c 0.26 -0.4 0.74 -0.54 1.07 -0.32 z" style="stroke: none; stroke-width: 1; stroke-dasharray: none; stroke-linecap: butt; stroke-linejoin: round; stroke-miterlimit: 1.41; fill: rgb(177,214,244); fill-rule: evenodd; opacity: 1;" transform="translate(15.2 12.97) translate(-47.196560815131335, -44.97) " stroke-linecap="round" />
	<path d="M 18.86 36.34 s 1.5 1.93 1.5 2.77 a 1.5 1.5 0 1 1 -3 0 c 0 -0.83 1.5 -2.77 1.5 -2.77 z" style="stroke: none; stroke-width: 1; stroke-dasharray: none; stroke-linecap: butt; stroke-linejoin: round; stroke-miterlimit: 1.41; fill: rgb(183,96,230); fill-rule: evenodd; opacity: 1;" transform="translate(-13.14 6.48) translate(-18.86, -38.47500000000001) " stroke-linecap="round" />
	<path d="M 17.97 38.8 c -0.33 0.21 -0.38 0.7 -0.12 1.1 c 0.26 0.4 0.74 0.54 1.07 0.32 c 0.32 -0.22 0.38 -0.71 0.12 -1.1 c -0.26 -0.4 -0.74 -0.54 -1.07 -0.32 z" style="stroke: none; stroke-width: 1; stroke-dasharray: none; stroke-linecap: butt; stroke-linejoin: round; stroke-miterlimit: 1.41; fill: rgb(177,214,244); fill-rule: evenodd; opacity: 1;" transform="translate(-13.56 7.51) translate(-18.443439184868666, -39.510000000000005) " stroke-linecap="round" />
	<path d="M 15.45 41.8 s 1.5 1.94 1.5 2.77 a 1.5 1.5 0 1 1 -3 0 c 0 -0.83 1.5 -2.77 1.5 -2.77 z" style="stroke: none; stroke-width: 1; stroke-dasharray: none; stroke-linecap: butt; stroke-linejoin: round; stroke-miterlimit: 1.41; fill: rgb(183,96,230); fill-rule: evenodd; opacity: 1;" transform="translate(-16.55 11.93) translate(-15.45, -43.935) " stroke-linecap="round" />
	<path d="M 14.56 44.26 c -0.33 0.22 -0.39 0.71 -0.12 1.1 c 0.26 0.4 0.73 0.54 1.06 0.32 c 0.33 -0.22 0.38 -0.71 0.12 -1.1 c -0.26 -0.4 -0.74 -0.54 -1.06 -0.32 z" style="stroke: none; stroke-width: 1; stroke-dasharray: none; stroke-linecap: butt; stroke-linejoin: round; stroke-miterlimit: 1.41; fill: rgb(177,214,244); fill-rule: evenodd; opacity: 1;" transform="translate(-16.97 12.97) translate(-15.027896770422931, -44.97) " stroke-linecap="round" />
	<path d="M 46.97 41.8 s -1.5 1.94 -1.5 2.77 a 1.5 1.5 0 0 0 3 0 c 0 -0.83 -1.5 -2.77 -1.5 -2.77 z" style="stroke: none; stroke-width: 1; stroke-dasharray: none; stroke-linecap: butt; stroke-linejoin: round; stroke-miterlimit: 1.41; fill: rgb(183,96,230); fill-rule: evenodd; opacity: 1;" transform="translate(14.97 11.93) translate(-46.97, -43.935) " stroke-linecap="round" />
	<path d="M 47.87 44.26 c 0.32 0.22 0.38 0.71 0.12 1.1 c -0.27 0.4 -0.74 0.54 -1.07 0.32 c -0.33 -0.22 -0.38 -0.71 -0.12 -1.1 c 0.26 -0.4 0.74 -0.54 1.07 -0.32 z" style="stroke: none; stroke-width: 1; stroke-dasharray: none; stroke-linecap: butt; stroke-linejoin: round; stroke-miterlimit: 1.41; fill: rgb(177,214,244); fill-rule: evenodd; opacity: 1;" transform="translate(15.39 12.97) translate(-47.39343918486867, -44.97) " stroke-linecap="round" />
</g>
</svg>