<?xml version="1.0" encoding="UTF-8" standalone="no" ?>
<!DOCTYPE svg PUBLIC "-//W3C//DTD SVG 1.1//EN" "http://www.w3.org/Graphics/SVG/1.1/DTD/svg11.dtd">
<svg xmlns="http://www.w3.org/2000/svg" xmlns:xlink="http://www.w3.org/1999/xlink" version="1.1" width="1772" height="1772" viewBox="0 0 2280.45 2280.45" xml:space="preserve">
<desc>Created with Fabric.js 2.3.3</desc>
<defs>
</defs>
<g transform="translate(1140 1142.03) scale(0.36 0.3)" style="">
	<path d="M 77.7 167.4 c 0.3 0.1 0.6 0.3 0.6 0.4 C 78.8 167.5 78.9 167.4 77.7 167.4 z" style="stroke: none; stroke-width: 1; stroke-dasharray: none; stroke-linecap: butt; stroke-linejoin: miter; stroke-miterlimit: 10; fill: rgb(64,71,98); fill-rule: nonzero; opacity: 1;" transform="translate(-196.82 69.2) translate(-78.17583361756829, -167.60000000000002) " stroke-linecap="round" />
	<path d="M 78.4 167.7 c -0.1 0 -0.1 0 -0.3 0.1 C 78.3 167.8 78.3 167.8 78.4 167.7 C 78.4 167.8 78.4 167.8 78.4 167.7 z" style="stroke: none; stroke-width: 1; stroke-dasharray: none; stroke-linecap: butt; stroke-linejoin: miter; stroke-miterlimit: 10; fill: rgb(64,71,98); fill-rule: nonzero; opacity: 1;" transform="translate(-196.75 69.35) translate(-78.25, -167.75) " stroke-linecap="round" />
	<path d="M 101.4 174.3 c 1.3 -0.4 2.1 -0.1 3.2 -0.4 l 0.6 0.6 c 1.3 -0.3 0.6 -0.5 1.5 -0.9 c 1.2 0.4 3.7 0 4.2 0 c 0.4 0.3 -0.5 0.4 -0.6 0.6 c 1.5 -0.3 1.4 -0.9 3.3 -0.9 v 0.1 c 4.6 -0.9 10.4 -0.8 15.4 -1.3 c -0.4 0 -0.3 -0.1 -0.4 -0.3 c 5.4 -0.3 11.6 -0.3 15.8 -1.9 c -3 0.1 -7.8 -0.9 -10.8 0.3 c -1 -0.5 -2.8 0.3 -3.2 -0.5 c -4.2 -0.3 -5.9 0.9 -10 0.9 c -0.6 -0.1 -0.3 -0.5 -0.5 -0.8 l 3.2 -0.4 l -1.8 0.1 c 0.9 -0.3 3 -0.1 3.1 -0.6 c -2.8 0.8 -7.3 0.1 -9.8 1 c 1.2 0.1 2.6 0 4 0 c 0.6 0.3 1.5 0.4 1.4 0.6 c -3.9 0.9 -7.1 0.5 -11.2 0.8 c -1 0.1 -2.3 0 -2.6 -0.3 c 0.6 -0.1 0.1 -0.4 0.6 -0.5 c -1.4 0.3 -0.1 1.2 -2.2 1 l 0.3 -1.2 c -0.8 1.2 -2.6 -0.3 -4 0.5 c -0.5 -0.4 0.4 -0.8 1.5 -0.8 c -1.3 -0.3 -1.4 0.5 -2.4 0.4 l 1 -0.9 c -1 0.9 -1.9 -0.1 -2.6 -0.5 c -0.1 0.3 0.5 0.9 -0.9 0.9 c -0.6 -0.1 -0.3 -0.4 -0.4 -0.5 c -0.1 0.3 -0.5 0.6 -1.4 0.6 c -0.1 -0.3 0.6 -0.5 0.6 -0.8 c -0.6 0 -1.3 0.1 -1.7 -0.1 c -1.2 0.3 0.1 0.5 -0.6 0.8 c -1.8 -0.3 -0.1 -1.2 -0.9 -1.8 c 1.4 -0.5 3.2 -0.6 3.9 -0.9 l -2.7 0.3 c 0.1 -0.4 -1.8 -0.6 -0.4 -1 c -2.7 -0.4 -5.8 0.1 -8.4 0.4 c 0.4 0.1 0.8 0.3 0.8 0.4 c -1.3 0.3 -1.2 -0.3 -1.4 -0.5 c -1 0.3 -0.9 0.9 -1.4 1.4 c -2.1 -0.5 -2.3 -0.3 -4 -1 l 0.1 0.6 c -1.2 -0.5 -1.4 0.5 -2.7 0.1 c -0.1 -0.1 0.4 -0.3 0.8 -0.5 c -1.2 0.3 -1 -0.5 -2.2 -0.3 l 0.9 -0.8 c -0.9 0 -2.2 0.3 -1.8 -0.4 c -1.5 0.8 -4.4 0.4 -6.3 0.9 l 0.1 -0.5 c -1 0.6 -3.7 0 -4.6 0.8 l -0.1 -0.3 l -2.1 0.8 c -0.9 -0.1 -0.6 -0.9 -0.6 -0.6 c -2.1 0.1 -3.6 0.3 -4.9 -0.1 c -0.4 0.8 -2.4 0.9 -4.1 1 c -8.1 -0.5 -16.7 0.3 -24.3 1.2 c -1.2 0 -2.7 0.9 -4.1 1.3 c 1.7 0.1 1.9 -0.1 3.6 -0.3 c 1.3 0.3 1.8 1 2.8 1.4 l -0.5 -0.6 c 1.7 -0.5 1.2 0.4 2.6 -0.3 v 1 c 0.5 -0.5 1.7 -0.1 2.2 0.1 l 0.4 -0.6 c 1 0.4 1.8 0.5 2.1 1.2 l -0.1 -0.6 c 0.4 0.4 4.1 -0.1 2.8 1 c 0.3 -0.1 0.6 -0.5 1.3 -0.4 l 0.1 0.6 c 1 -0.1 2.1 -0.3 2.4 0.1 c -0.5 0.1 -0.8 0.4 -0.9 0.8 c 4.2 0.1 0.9 -2.1 4.6 -2.2 v 0.4 l 0.9 -0.4 l 1 0.5 c 1.3 -1.4 5.1 0.1 7.5 -0.6 c 0.9 -0.1 2.1 0.8 3.7 0.6 l -0.1 -0.6 c 1.3 0.6 6.4 1 7.6 2.6 c 1.3 -0.5 -0.1 -0.1 -0.1 -0.6 c 2.4 -0.6 2.7 0.4 4 0.8 c 1.5 -0.4 -1.2 -0.3 -0.4 -0.8 c 2.3 0.5 1.9 -0.8 4.8 -0.4 c 0.3 0.4 -0.8 0.3 -1 0.5 c 2.1 -0.6 5.8 -0.3 8.9 -0.4 c 3.5 0.5 8.6 0.6 12.6 1.2 l 0.1 -0.3 c 1.7 0.6 3.5 0 5.4 0.3 L 101.4 174.3 z" style="stroke: none; stroke-width: 1; stroke-dasharray: none; stroke-linecap: butt; stroke-linejoin: miter; stroke-miterlimit: 10; fill: rgb(64,71,98); fill-rule: nonzero; opacity: 1;" transform="translate(-191 71.8) translate(-83.99999999999997, -170.19999999999996) " stroke-linecap="round" />
	<path d="M 125.5 168.3 l -0.3 -0.5 l -1.8 0.4 C 124.1 168.6 124.4 168.2 125.5 168.3 z" style="stroke: none; stroke-width: 1; stroke-dasharray: none; stroke-linecap: butt; stroke-linejoin: miter; stroke-miterlimit: 10; fill: rgb(64,71,98); fill-rule: nonzero; opacity: 1;" transform="translate(-150.55 69.69) translate(-124.45, -168.09086936058088) " stroke-linecap="round" />
	<polygon points="-0.1,0.15 0.8,-0.15 -0.8,-0.15 " style="stroke: none; stroke-width: 1; stroke-dasharray: none; stroke-linecap: butt; stroke-linejoin: miter; stroke-miterlimit: 10; fill: rgb(64,71,98); fill-rule: nonzero; opacity: 1;" transform="translate(-149.8 71.45) "/>
	<polygon points="-1.95,0.15 -1.65,0.25 1.95,-0.25 " style="stroke: none; stroke-width: 1; stroke-dasharray: none; stroke-linecap: butt; stroke-linejoin: miter; stroke-miterlimit: 10; fill: rgb(64,71,98); fill-rule: nonzero; opacity: 1;" transform="translate(-171.55 70.55) "/>
	<path d="M 77.9 166.8 c 0.4 -0.3 1 -0.1 1.4 -0.4 l -1.7 0.3 L 77.9 166.8 z" style="stroke: none; stroke-width: 1; stroke-dasharray: none; stroke-linecap: butt; stroke-linejoin: miter; stroke-miterlimit: 10; fill: rgb(64,71,98); fill-rule: nonzero; opacity: 1;" transform="translate(-196.55 68.2) translate(-78.45000000000002, -166.60000000000002) " stroke-linecap="round" />
	<path d="M 62.1 164.6 c -0.6 1 -1.3 0 -0.4 0.9 C 62.6 165.3 61.7 165 62.1 164.6 z" style="stroke: none; stroke-width: 1; stroke-dasharray: none; stroke-linecap: butt; stroke-linejoin: miter; stroke-miterlimit: 10; fill: rgb(64,71,98); fill-rule: nonzero; opacity: 1;" transform="translate(-213.31 66.65) translate(-61.69342000956135, -165.05) " stroke-linecap="round" />
	<path d="M 58.3 166 c 0.5 0 0.9 -0.1 1.2 -0.3 C 58.7 165.3 58.7 165.9 58.3 166 z" style="stroke: none; stroke-width: 1; stroke-dasharray: none; stroke-linecap: butt; stroke-linejoin: miter; stroke-miterlimit: 10; fill: rgb(64,71,98); fill-rule: nonzero; opacity: 1;" transform="translate(-216.1 67.38) translate(-58.9, -165.78200790541624) " stroke-linecap="round" />
	<path d="M 465.1 171.9 c -0.3 -0.1 -0.6 -0.3 -0.6 -0.4 C 464.2 171.8 464.1 171.9 465.1 171.9 z" style="stroke: none; stroke-width: 1; stroke-dasharray: none; stroke-linecap: butt; stroke-linejoin: miter; stroke-miterlimit: 10; fill: rgb(64,71,98); fill-rule: nonzero; opacity: 1;" transform="translate(189.7 73.3) translate(-464.6967892651262, -171.7) " stroke-linecap="round" />
	<path d="M 464.5 171.5 c 0.1 0 0.1 0 0.3 -0.1 C 464.7 171.5 464.6 171.5 464.5 171.5 z" style="stroke: none; stroke-width: 1; stroke-dasharray: none; stroke-linecap: butt; stroke-linejoin: miter; stroke-miterlimit: 10; fill: rgb(64,71,98); fill-rule: nonzero; opacity: 1;" transform="translate(189.65 73.05) translate(-464.65, -171.45) " stroke-linecap="round" />
	<path d="M 441.6 165 c -1.3 0.4 -2.1 0.1 -3.2 0.4 l -0.6 -0.6 c -1.3 0.3 -0.6 0.5 -1.5 0.9 c -1.2 -0.4 -3.7 0 -4.2 0 c -0.4 -0.3 0.5 -0.4 0.6 -0.6 c -1.5 0.3 -1.4 0.9 -3.3 0.9 v -0.1 c -4.6 0.9 -10.4 0.8 -15.4 1.3 c 0.4 0 0.3 0.1 0.4 0.3 c -5.4 0.3 -11.6 0.3 -15.8 1.9 c 3 -0.1 7.8 0.9 10.8 -0.3 c 1 0.5 2.8 -0.3 3.2 0.5 c 4.2 0.3 5.9 -0.9 10 -0.9 c 0.6 0.1 0.3 0.5 0.5 0.8 l -3.2 0.4 l 1.9 0.3 c -0.9 0.3 -3 0.1 -3.1 0.6 c 2.8 -0.8 7.3 -0.1 9.8 -1 c -1.2 -0.1 -2.6 0 -4 0 c -0.6 -0.3 -1.5 -0.4 -1.4 -0.6 c 3.9 -0.9 7.1 -0.5 11.2 -0.8 c 1 -0.1 2.3 0 2.6 0.3 c -0.6 0.1 -0.1 0.4 -0.6 0.5 c 1.4 -0.3 0.1 -1.2 2.2 -1 l -0.3 1.2 c 0.8 -1.2 2.6 0.3 4 -0.5 c 0.5 0.4 -0.4 0.8 -1.5 0.8 c 1.3 0.3 1.4 -0.5 2.4 -0.4 l -1 0.9 c 1 -0.9 1.9 0.1 2.6 0.5 c 0.1 -0.3 -0.5 -0.9 0.9 -0.9 c 0.6 0.1 0.3 0.4 0.4 0.5 c 0.1 -0.3 0.5 -0.6 1.4 -0.6 c 0.1 0.3 -0.6 0.5 -0.6 0.8 c 0.6 0 1.3 -0.1 1.7 0.1 c 1.2 -0.3 -0.1 -0.5 0.6 -0.8 c 1.8 0.3 0.1 1.2 0.9 1.8 c -1.4 0.5 -3.2 0.6 -3.9 0.9 l 2.7 -0.3 c -0.1 0.4 1.8 0.6 0.4 1 c 2.7 0.4 5.8 -0.1 8.4 -0.4 c -0.4 -0.1 -0.8 -0.3 -0.8 -0.4 c 1.3 -0.3 1.2 0.3 1.4 0.5 c 1 -0.3 0.9 -0.9 1.4 -1.4 c 2.1 0.5 2.3 0.3 4 1 l -0.1 -0.6 c 1.2 0.5 1.4 -0.5 2.7 -0.1 c 0.1 0.1 -0.4 0.3 -0.8 0.5 c 1.2 -0.3 1 0.5 2.2 0.3 l -0.9 0.8 c 0.9 0 2.2 -0.3 1.8 0.4 c 1.5 -0.8 4.4 -0.4 6.3 -0.9 l -0.1 0.5 c 1 -0.6 3.7 0 4.6 -0.8 l 0.1 0.3 l 2.1 -0.8 c 0.9 0.1 0.6 0.9 0.6 0.6 c 2.1 -0.1 3.6 -0.3 4.9 0.1 c 0.4 -0.8 2.4 -0.9 4.1 -1 c 8.1 0.5 16.7 -0.3 24.3 -1.2 c 1.2 0 2.7 -0.9 4.1 -1.3 c -1.7 -0.1 -1.9 0.1 -3.6 0.3 c -1.3 -0.3 -1.8 -1 -2.8 -1.4 l 0.5 0.6 c -1.7 0.5 -1.2 -0.4 -2.6 0.3 v -1 c -0.5 0.5 -1.7 0.1 -2.2 -0.1 l -0.4 0.6 c -1 -0.4 -1.8 -0.5 -2.1 -1.2 l 0.1 0.6 c -0.4 -0.4 -4.1 0.1 -2.8 -1 c -0.3 0.1 -0.6 0.5 -1.3 0.4 l -0.1 -0.6 c -1 0.1 -2.1 0.3 -2.4 -0.1 c 0.5 -0.1 0.8 -0.4 0.9 -0.8 c -4.2 -0.1 -0.9 2.1 -4.6 2.2 v -0.4 l -0.9 0.4 l -1 -0.5 c -1.3 1.4 -5.1 -0.1 -7.5 0.6 c -0.9 0.1 -2.1 -0.8 -3.7 -0.6 l 0.1 0.6 c -1.3 -0.6 -6.4 -1 -7.6 -2.6 c -1.3 0.5 0.1 0.1 0.1 0.6 c -2.4 0.6 -2.7 -0.4 -4 -0.8 c -1.5 0.4 1.2 0.3 0.4 0.8 c -2.3 -0.5 -1.9 0.8 -4.8 0.4 c -0.3 -0.4 0.8 -0.3 1 -0.5 c -2.1 0.6 -5.8 0.3 -8.9 0.4 c -3.5 -0.5 -8.6 -0.6 -12.6 -1.2 l -0.1 0.3 c -1.7 -0.6 -3.5 0 -5.4 -0.3 L 441.6 165 z" style="stroke: none; stroke-width: 1; stroke-dasharray: none; stroke-linecap: butt; stroke-linejoin: miter; stroke-miterlimit: 10; fill: rgb(64,71,98); fill-rule: nonzero; opacity: 1;" transform="translate(184.05 70.9) translate(-459.04999999999995, -169.30000000000007) " stroke-linecap="round" />
	<path d="M 417.5 171 l 0.3 0.5 l 1.8 -0.4 C 418.9 170.7 418.5 171.1 417.5 171 z" style="stroke: none; stroke-width: 1; stroke-dasharray: none; stroke-linecap: butt; stroke-linejoin: miter; stroke-miterlimit: 10; fill: rgb(64,71,98); fill-rule: nonzero; opacity: 1;" transform="translate(143.55 72.81) translate(-418.55, -171.20913063941913) " stroke-linecap="round" />
	<polygon points="0.25,-0.15 -0.75,0.15 0.75,0.15 " style="stroke: none; stroke-width: 1; stroke-dasharray: none; stroke-linecap: butt; stroke-linejoin: miter; stroke-miterlimit: 10; fill: rgb(64,71,98); fill-rule: nonzero; opacity: 1;" transform="translate(142.65 71.05) "/>
	<polygon points="1.85,-0.15 1.65,-0.25 -1.85,0.25 " style="stroke: none; stroke-width: 1; stroke-dasharray: none; stroke-linecap: butt; stroke-linejoin: miter; stroke-miterlimit: 10; fill: rgb(64,71,98); fill-rule: nonzero; opacity: 1;" transform="translate(164.45 71.95) "/>
	<path d="M 465 172.4 c -0.4 0.3 -1 0.1 -1.4 0.4 l 1.7 -0.3 L 465 172.4 z" style="stroke: none; stroke-width: 1; stroke-dasharray: none; stroke-linecap: butt; stroke-linejoin: miter; stroke-miterlimit: 10; fill: rgb(64,71,98); fill-rule: nonzero; opacity: 1;" transform="translate(189.45 74.2) translate(-464.45000000000005, -172.60000000000002) " stroke-linecap="round" />
	<path d="M 480.9 174.7 c 0.6 -1 1.3 0 0.4 -0.9 C 480.4 174 481.2 174.3 480.9 174.7 z" style="stroke: none; stroke-width: 1; stroke-dasharray: none; stroke-linecap: butt; stroke-linejoin: miter; stroke-miterlimit: 10; fill: rgb(64,71,98); fill-rule: nonzero; opacity: 1;" transform="translate(206.29 75.85) translate(-481.29330348842234, -174.25) " stroke-linecap="round" />
	<path d="M 484.7 173.2 c -0.5 0 -0.9 0.1 -1.2 0.3 C 484.2 174 484.3 173.4 484.7 173.2 z" style="stroke: none; stroke-width: 1; stroke-dasharray: none; stroke-linecap: butt; stroke-linejoin: miter; stroke-miterlimit: 10; fill: rgb(64,71,98); fill-rule: nonzero; opacity: 1;" transform="translate(209.1 75.05) translate(-484.1, -173.44710541298832) " stroke-linecap="round" />
</g>
	<g transform="translate(1139.49 1135.95) scale(2.33 2.33)">
		<text xml:space="preserve" font-family="Fredoka One" font-size="20" font-style="normal" font-weight="normal" style="stroke: none; stroke-width: 1; stroke-dasharray: none; stroke-linecap: butt; stroke-linejoin: miter; stroke-miterlimit: 10; fill: rgb(64,71,98); fill-rule: nonzero; opacity: 1; white-space: pre;" ><tspan x="-39.6" y="6.28" >MEXICO</tspan></text>
	</g>
	<g transform="translate(1139.99 1162.76) scale(0.43 0.43)">
		<text xml:space="preserve" font-family="Special Elite" font-size="20" font-style="normal" font-weight="normal" style="stroke: none; stroke-width: 1; stroke-dasharray: none; stroke-linecap: butt; stroke-linejoin: miter; stroke-miterlimit: 10; fill: rgb(64,71,98); fill-rule: nonzero; opacity: 1; white-space: pre;" ><tspan x="-71.63" y="6.28" >THE LOW-DOWN</tspan></text>
	</g>
<g transform="translate(1139.78 1140) scale(0.4 0.51)" style="">
</g>
	<g transform="translate(1140.24 1144.53) scale(3.45 3.45)">
		<text xml:space="preserve" font-family="Oswald" font-size="20" font-style="normal" font-weight="bold" style="stroke: none; stroke-width: 1; stroke-dasharray: none; stroke-linecap: butt; stroke-linejoin: miter; stroke-miterlimit: 10; fill: rgb(64,71,98); fill-rule: nonzero; opacity: 1; white-space: pre;" ><tspan x="-28.48" y="6.28" >ACORN</tspan></text>
	</g>
	<g transform="translate(1139.54 1178.12) scale(0.59 0.59)">
		<text xml:space="preserve" font-family="PT Sans Caption" font-size="20" font-style="normal" font-weight="bold" style="stroke: none; stroke-width: 1; stroke-dasharray: none; stroke-linecap: butt; stroke-linejoin: miter; stroke-miterlimit: 10; fill: rgb(64,71,98); fill-rule: nonzero; opacity: 1; white-space: pre;" ><tspan x="-41.55" y="6.28" >MFG. CO.</tspan></text>
	</g>
	<g transform="translate(1140.84 1102.18) scale(0.72 0.72)">
		<text xml:space="preserve" font-family="PT Sans Caption" font-size="20" font-style="normal" font-weight="bold" style="stroke: none; stroke-width: 1; stroke-dasharray: none; stroke-linecap: butt; stroke-linejoin: miter; stroke-miterlimit: 10; fill: rgb(64,71,98); fill-rule: nonzero; opacity: 1; white-space: pre;" ><tspan x="-78.92" y="6.28" >QUALITY GOODS</tspan></text>
	</g>
<g transform="translate(1140 1142.03) scale(0.36 0.3)" style="">
	<path d="M 77.7 167.4 c 0.3 0.1 0.6 0.3 0.6 0.4 C 78.8 167.5 78.9 167.4 77.7 167.4 z" style="stroke: none; stroke-width: 1; stroke-dasharray: none; stroke-linecap: butt; stroke-linejoin: miter; stroke-miterlimit: 10; fill: rgb(64,71,98); fill-rule: nonzero; opacity: 1;" transform="translate(-196.82 69.2) translate(-78.17583361756829, -167.60000000000002) " stroke-linecap="round" />
	<path d="M 78.4 167.7 c -0.1 0 -0.1 0 -0.3 0.1 C 78.3 167.8 78.3 167.8 78.4 167.7 C 78.4 167.8 78.4 167.8 78.4 167.7 z" style="stroke: none; stroke-width: 1; stroke-dasharray: none; stroke-linecap: butt; stroke-linejoin: miter; stroke-miterlimit: 10; fill: rgb(64,71,98); fill-rule: nonzero; opacity: 1;" transform="translate(-196.75 69.35) translate(-78.25, -167.75) " stroke-linecap="round" />
	<path d="M 101.4 174.3 c 1.3 -0.4 2.1 -0.1 3.2 -0.4 l 0.6 0.6 c 1.3 -0.3 0.6 -0.5 1.5 -0.9 c 1.2 0.4 3.7 0 4.2 0 c 0.4 0.3 -0.5 0.4 -0.6 0.6 c 1.5 -0.3 1.4 -0.9 3.3 -0.9 v 0.1 c 4.6 -0.9 10.4 -0.8 15.4 -1.3 c -0.4 0 -0.3 -0.1 -0.4 -0.3 c 5.4 -0.3 11.6 -0.3 15.8 -1.9 c -3 0.1 -7.8 -0.9 -10.8 0.3 c -1 -0.5 -2.8 0.3 -3.2 -0.5 c -4.2 -0.3 -5.9 0.9 -10 0.9 c -0.6 -0.1 -0.3 -0.5 -0.5 -0.8 l 3.2 -0.4 l -1.8 0.1 c 0.9 -0.3 3 -0.1 3.1 -0.6 c -2.8 0.8 -7.3 0.1 -9.8 1 c 1.2 0.1 2.6 0 4 0 c 0.6 0.3 1.5 0.4 1.4 0.6 c -3.9 0.9 -7.1 0.5 -11.2 0.8 c -1 0.1 -2.3 0 -2.6 -0.3 c 0.6 -0.1 0.1 -0.4 0.6 -0.5 c -1.4 0.3 -0.1 1.2 -2.2 1 l 0.3 -1.2 c -0.8 1.2 -2.6 -0.3 -4 0.5 c -0.5 -0.4 0.4 -0.8 1.5 -0.8 c -1.3 -0.3 -1.4 0.5 -2.4 0.4 l 1 -0.9 c -1 0.9 -1.9 -0.1 -2.6 -0.5 c -0.1 0.3 0.5 0.9 -0.9 0.9 c -0.6 -0.1 -0.3 -0.4 -0.4 -0.5 c -0.1 0.3 -0.5 0.6 -1.4 0.6 c -0.1 -0.3 0.6 -0.5 0.6 -0.8 c -0.6 0 -1.3 0.1 -1.7 -0.1 c -1.2 0.3 0.1 0.5 -0.6 0.8 c -1.8 -0.3 -0.1 -1.2 -0.9 -1.8 c 1.4 -0.5 3.2 -0.6 3.9 -0.9 l -2.7 0.3 c 0.1 -0.4 -1.8 -0.6 -0.4 -1 c -2.7 -0.4 -5.8 0.1 -8.4 0.4 c 0.4 0.1 0.8 0.3 0.8 0.4 c -1.3 0.3 -1.2 -0.3 -1.4 -0.5 c -1 0.3 -0.9 0.9 -1.4 1.4 c -2.1 -0.5 -2.3 -0.3 -4 -1 l 0.1 0.6 c -1.2 -0.5 -1.4 0.5 -2.7 0.1 c -0.1 -0.1 0.4 -0.3 0.8 -0.5 c -1.2 0.3 -1 -0.5 -2.2 -0.3 l 0.9 -0.8 c -0.9 0 -2.2 0.3 -1.8 -0.4 c -1.5 0.8 -4.4 0.4 -6.3 0.9 l 0.1 -0.5 c -1 0.6 -3.7 0 -4.6 0.8 l -0.1 -0.3 l -2.1 0.8 c -0.9 -0.1 -0.6 -0.9 -0.6 -0.6 c -2.1 0.1 -3.6 0.3 -4.9 -0.1 c -0.4 0.8 -2.4 0.9 -4.1 1 c -8.1 -0.5 -16.7 0.3 -24.3 1.2 c -1.2 0 -2.7 0.9 -4.1 1.3 c 1.7 0.1 1.9 -0.1 3.6 -0.3 c 1.3 0.3 1.8 1 2.8 1.4 l -0.5 -0.6 c 1.7 -0.5 1.2 0.4 2.6 -0.3 v 1 c 0.5 -0.5 1.7 -0.1 2.2 0.1 l 0.4 -0.6 c 1 0.4 1.8 0.5 2.1 1.2 l -0.1 -0.6 c 0.4 0.4 4.1 -0.1 2.8 1 c 0.3 -0.1 0.6 -0.5 1.3 -0.4 l 0.1 0.6 c 1 -0.1 2.1 -0.3 2.4 0.1 c -0.5 0.1 -0.8 0.4 -0.9 0.8 c 4.2 0.1 0.9 -2.1 4.6 -2.2 v 0.4 l 0.9 -0.4 l 1 0.5 c 1.3 -1.4 5.1 0.1 7.5 -0.6 c 0.9 -0.1 2.1 0.8 3.7 0.6 l -0.1 -0.6 c 1.3 0.6 6.4 1 7.6 2.6 c 1.3 -0.5 -0.1 -0.1 -0.1 -0.6 c 2.4 -0.6 2.7 0.4 4 0.8 c 1.5 -0.4 -1.2 -0.3 -0.4 -0.8 c 2.3 0.5 1.9 -0.8 4.8 -0.4 c 0.3 0.4 -0.8 0.3 -1 0.5 c 2.1 -0.6 5.8 -0.3 8.9 -0.4 c 3.5 0.5 8.6 0.6 12.6 1.2 l 0.1 -0.3 c 1.7 0.6 3.5 0 5.4 0.3 L 101.4 174.3 z" style="stroke: none; stroke-width: 1; stroke-dasharray: none; stroke-linecap: butt; stroke-linejoin: miter; stroke-miterlimit: 10; fill: rgb(64,71,98); fill-rule: nonzero; opacity: 1;" transform="translate(-191 71.8) translate(-83.99999999999997, -170.19999999999996) " stroke-linecap="round" />
	<path d="M 125.5 168.3 l -0.3 -0.5 l -1.8 0.4 C 124.1 168.6 124.4 168.2 125.5 168.3 z" style="stroke: none; stroke-width: 1; stroke-dasharray: none; stroke-linecap: butt; stroke-linejoin: miter; stroke-miterlimit: 10; fill: rgb(64,71,98); fill-rule: nonzero; opacity: 1;" transform="translate(-150.55 69.69) translate(-124.45, -168.09086936058088) " stroke-linecap="round" />
	<polygon points="-0.1,0.15 0.8,-0.15 -0.8,-0.15 " style="stroke: none; stroke-width: 1; stroke-dasharray: none; stroke-linecap: butt; stroke-linejoin: miter; stroke-miterlimit: 10; fill: rgb(64,71,98); fill-rule: nonzero; opacity: 1;" transform="translate(-149.8 71.45) "/>
	<polygon points="-1.95,0.15 -1.65,0.25 1.95,-0.25 " style="stroke: none; stroke-width: 1; stroke-dasharray: none; stroke-linecap: butt; stroke-linejoin: miter; stroke-miterlimit: 10; fill: rgb(64,71,98); fill-rule: nonzero; opacity: 1;" transform="translate(-171.55 70.55) "/>
	<path d="M 77.9 166.8 c 0.4 -0.3 1 -0.1 1.4 -0.4 l -1.7 0.3 L 77.9 166.8 z" style="stroke: none; stroke-width: 1; stroke-dasharray: none; stroke-linecap: butt; stroke-linejoin: miter; stroke-miterlimit: 10; fill: rgb(64,71,98); fill-rule: nonzero; opacity: 1;" transform="translate(-196.55 68.2) translate(-78.45000000000002, -166.60000000000002) " stroke-linecap="round" />
	<path d="M 62.1 164.6 c -0.6 1 -1.3 0 -0.4 0.9 C 62.6 165.3 61.7 165 62.1 164.6 z" style="stroke: none; stroke-width: 1; stroke-dasharray: none; stroke-linecap: butt; stroke-linejoin: miter; stroke-miterlimit: 10; fill: rgb(64,71,98); fill-rule: nonzero; opacity: 1;" transform="translate(-213.31 66.65) translate(-61.69342000956135, -165.05) " stroke-linecap="round" />
	<path d="M 58.3 166 c 0.5 0 0.9 -0.1 1.2 -0.3 C 58.7 165.3 58.7 165.9 58.3 166 z" style="stroke: none; stroke-width: 1; stroke-dasharray: none; stroke-linecap: butt; stroke-linejoin: miter; stroke-miterlimit: 10; fill: rgb(64,71,98); fill-rule: nonzero; opacity: 1;" transform="translate(-216.1 67.38) translate(-58.9, -165.78200790541624) " stroke-linecap="round" />
	<path d="M 465.1 171.9 c -0.3 -0.1 -0.6 -0.3 -0.6 -0.4 C 464.2 171.8 464.1 171.9 465.1 171.9 z" style="stroke: none; stroke-width: 1; stroke-dasharray: none; stroke-linecap: butt; stroke-linejoin: miter; stroke-miterlimit: 10; fill: rgb(64,71,98); fill-rule: nonzero; opacity: 1;" transform="translate(189.7 73.3) translate(-464.6967892651262, -171.7) " stroke-linecap="round" />
	<path d="M 464.5 171.5 c 0.1 0 0.1 0 0.3 -0.1 C 464.7 171.5 464.6 171.5 464.5 171.5 z" style="stroke: none; stroke-width: 1; stroke-dasharray: none; stroke-linecap: butt; stroke-linejoin: miter; stroke-miterlimit: 10; fill: rgb(64,71,98); fill-rule: nonzero; opacity: 1;" transform="translate(189.65 73.05) translate(-464.65, -171.45) " stroke-linecap="round" />
	<path d="M 441.6 165 c -1.3 0.4 -2.1 0.1 -3.2 0.4 l -0.6 -0.6 c -1.3 0.3 -0.6 0.5 -1.5 0.9 c -1.2 -0.4 -3.7 0 -4.2 0 c -0.4 -0.3 0.5 -0.4 0.6 -0.6 c -1.5 0.3 -1.4 0.9 -3.3 0.9 v -0.1 c -4.6 0.9 -10.4 0.8 -15.4 1.3 c 0.4 0 0.3 0.1 0.4 0.3 c -5.4 0.3 -11.6 0.3 -15.8 1.9 c 3 -0.1 7.8 0.9 10.8 -0.3 c 1 0.5 2.8 -0.3 3.2 0.5 c 4.2 0.3 5.9 -0.9 10 -0.9 c 0.6 0.1 0.3 0.5 0.5 0.8 l -3.2 0.4 l 1.9 0.3 c -0.9 0.3 -3 0.1 -3.1 0.6 c 2.8 -0.8 7.3 -0.1 9.8 -1 c -1.2 -0.1 -2.6 0 -4 0 c -0.6 -0.3 -1.5 -0.4 -1.4 -0.6 c 3.9 -0.9 7.1 -0.5 11.2 -0.8 c 1 -0.1 2.3 0 2.6 0.3 c -0.6 0.1 -0.1 0.4 -0.6 0.5 c 1.4 -0.3 0.1 -1.2 2.2 -1 l -0.3 1.2 c 0.8 -1.2 2.6 0.3 4 -0.5 c 0.5 0.4 -0.4 0.8 -1.5 0.8 c 1.3 0.3 1.4 -0.5 2.4 -0.4 l -1 0.9 c 1 -0.9 1.9 0.1 2.6 0.5 c 0.1 -0.3 -0.5 -0.9 0.9 -0.9 c 0.6 0.1 0.3 0.4 0.4 0.5 c 0.1 -0.3 0.5 -0.6 1.4 -0.6 c 0.1 0.3 -0.6 0.5 -0.6 0.8 c 0.6 0 1.3 -0.1 1.7 0.1 c 1.2 -0.3 -0.1 -0.5 0.6 -0.8 c 1.8 0.3 0.1 1.2 0.9 1.8 c -1.4 0.5 -3.2 0.6 -3.9 0.9 l 2.7 -0.3 c -0.1 0.4 1.8 0.6 0.4 1 c 2.7 0.4 5.8 -0.1 8.4 -0.4 c -0.4 -0.1 -0.8 -0.3 -0.8 -0.4 c 1.3 -0.3 1.2 0.3 1.4 0.5 c 1 -0.3 0.9 -0.9 1.4 -1.4 c 2.1 0.5 2.3 0.3 4 1 l -0.1 -0.6 c 1.2 0.5 1.4 -0.5 2.7 -0.1 c 0.1 0.1 -0.4 0.3 -0.8 0.5 c 1.2 -0.3 1 0.5 2.2 0.3 l -0.9 0.8 c 0.9 0 2.2 -0.3 1.8 0.4 c 1.5 -0.8 4.4 -0.4 6.3 -0.9 l -0.1 0.5 c 1 -0.6 3.7 0 4.6 -0.8 l 0.1 0.3 l 2.1 -0.8 c 0.9 0.1 0.6 0.9 0.6 0.6 c 2.1 -0.1 3.6 -0.3 4.9 0.1 c 0.4 -0.8 2.4 -0.9 4.1 -1 c 8.1 0.5 16.7 -0.3 24.3 -1.2 c 1.2 0 2.7 -0.9 4.1 -1.3 c -1.7 -0.1 -1.9 0.1 -3.6 0.3 c -1.3 -0.3 -1.8 -1 -2.8 -1.4 l 0.5 0.6 c -1.7 0.5 -1.2 -0.4 -2.6 0.3 v -1 c -0.5 0.5 -1.7 0.1 -2.2 -0.1 l -0.4 0.6 c -1 -0.4 -1.8 -0.5 -2.1 -1.2 l 0.1 0.6 c -0.4 -0.4 -4.1 0.1 -2.8 -1 c -0.3 0.1 -0.6 0.5 -1.3 0.4 l -0.1 -0.6 c -1 0.1 -2.1 0.3 -2.4 -0.1 c 0.5 -0.1 0.8 -0.4 0.9 -0.8 c -4.2 -0.1 -0.9 2.1 -4.6 2.2 v -0.4 l -0.9 0.4 l -1 -0.5 c -1.3 1.4 -5.1 -0.1 -7.5 0.6 c -0.9 0.1 -2.1 -0.8 -3.7 -0.6 l 0.1 0.6 c -1.3 -0.6 -6.4 -1 -7.6 -2.6 c -1.3 0.5 0.1 0.1 0.1 0.6 c -2.4 0.6 -2.7 -0.4 -4 -0.8 c -1.5 0.4 1.2 0.3 0.4 0.8 c -2.3 -0.5 -1.9 0.8 -4.8 0.4 c -0.3 -0.4 0.8 -0.3 1 -0.5 c -2.1 0.6 -5.8 0.3 -8.9 0.4 c -3.5 -0.5 -8.6 -0.6 -12.6 -1.2 l -0.1 0.3 c -1.7 -0.6 -3.5 0 -5.4 -0.3 L 441.6 165 z" style="stroke: none; stroke-width: 1; stroke-dasharray: none; stroke-linecap: butt; stroke-linejoin: miter; stroke-miterlimit: 10; fill: rgb(64,71,98); fill-rule: nonzero; opacity: 1;" transform="translate(184.05 70.9) translate(-459.04999999999995, -169.30000000000007) " stroke-linecap="round" />
	<path d="M 417.5 171 l 0.3 0.5 l 1.8 -0.4 C 418.9 170.7 418.5 171.1 417.5 171 z" style="stroke: none; stroke-width: 1; stroke-dasharray: none; stroke-linecap: butt; stroke-linejoin: miter; stroke-miterlimit: 10; fill: rgb(64,71,98); fill-rule: nonzero; opacity: 1;" transform="translate(143.55 72.81) translate(-418.55, -171.20913063941913) " stroke-linecap="round" />
	<polygon points="0.25,-0.15 -0.75,0.15 0.75,0.15 " style="stroke: none; stroke-width: 1; stroke-dasharray: none; stroke-linecap: butt; stroke-linejoin: miter; stroke-miterlimit: 10; fill: rgb(64,71,98); fill-rule: nonzero; opacity: 1;" transform="translate(142.65 71.05) "/>
	<polygon points="1.85,-0.15 1.65,-0.25 -1.85,0.25 " style="stroke: none; stroke-width: 1; stroke-dasharray: none; stroke-linecap: butt; stroke-linejoin: miter; stroke-miterlimit: 10; fill: rgb(64,71,98); fill-rule: nonzero; opacity: 1;" transform="translate(164.45 71.95) "/>
	<path d="M 465 172.4 c -0.4 0.3 -1 0.1 -1.4 0.4 l 1.7 -0.3 L 465 172.4 z" style="stroke: none; stroke-width: 1; stroke-dasharray: none; stroke-linecap: butt; stroke-linejoin: miter; stroke-miterlimit: 10; fill: rgb(64,71,98); fill-rule: nonzero; opacity: 1;" transform="translate(189.45 74.2) translate(-464.45000000000005, -172.60000000000002) " stroke-linecap="round" />
	<path d="M 480.9 174.7 c 0.6 -1 1.3 0 0.4 -0.9 C 480.4 174 481.2 174.3 480.9 174.7 z" style="stroke: none; stroke-width: 1; stroke-dasharray: none; stroke-linecap: butt; stroke-linejoin: miter; stroke-miterlimit: 10; fill: rgb(64,71,98); fill-rule: nonzero; opacity: 1;" transform="translate(206.29 75.85) translate(-481.29330348842234, -174.25) " stroke-linecap="round" />
	<path d="M 484.7 173.2 c -0.5 0 -0.9 0.1 -1.2 0.3 C 484.2 174 484.3 173.4 484.7 173.2 z" style="stroke: none; stroke-width: 1; stroke-dasharray: none; stroke-linecap: butt; stroke-linejoin: miter; stroke-miterlimit: 10; fill: rgb(64,71,98); fill-rule: nonzero; opacity: 1;" transform="translate(209.1 75.05) translate(-484.1, -173.44710541298832) " stroke-linecap="round" />
</g>
	<g transform="translate(1139.49 1135.95) scale(2.33 2.33)">
		<text xml:space="preserve" font-family="Fredoka One" font-size="20" font-style="normal" font-weight="normal" style="stroke: none; stroke-width: 1; stroke-dasharray: none; stroke-linecap: butt; stroke-linejoin: miter; stroke-miterlimit: 10; fill: rgb(64,71,98); fill-rule: nonzero; opacity: 1; white-space: pre;" ><tspan x="-39.6" y="6.28" >MEXICO</tspan></text>
	</g>
	<g transform="translate(1139.99 1162.76) scale(0.43 0.43)">
		<text xml:space="preserve" font-family="Special Elite" font-size="20" font-style="normal" font-weight="normal" style="stroke: none; stroke-width: 1; stroke-dasharray: none; stroke-linecap: butt; stroke-linejoin: miter; stroke-miterlimit: 10; fill: rgb(64,71,98); fill-rule: nonzero; opacity: 1; white-space: pre;" ><tspan x="-71.63" y="6.28" >THE LOW-DOWN</tspan></text>
	</g>
<g transform="translate(1140 1140)" style="">
	<g transform="translate(0 4.66) scale(0.4 0.45)" style="">
</g>
		<g transform="translate(-0.02 28.09) scale(0.59 0.59)">
		<text xml:space="preserve" font-family="Hammersmith One" font-size="20" font-style="normal" font-weight="normal" style="stroke: none; stroke-width: 1; stroke-dasharray: none; stroke-linecap: butt; stroke-linejoin: miter; stroke-miterlimit: 10; fill: rgb(64,71,98); fill-rule: nonzero; opacity: 1; white-space: pre;" ><tspan x="-46.68" y="6.28" >SINCE 1611</tspan></text>
	</g>
		<g transform="translate(0.66 -8.95) scale(2.59 2.59)">
		<text xml:space="preserve" font-family="UnifrakturMaguntia" font-size="20" font-style="normal" font-weight="normal" style="stroke: none; stroke-width: 1; stroke-dasharray: none; stroke-linecap: butt; stroke-linejoin: miter; stroke-miterlimit: 10; fill: rgb(64,71,98); fill-rule: nonzero; opacity: 1; white-space: pre;" ><tspan x="-37.42" y="6.28" >Medieval</tspan></text>
	</g>
</g>
<g transform="translate(1139.78 1140) scale(0.4 0.51)" style="">
</g>
	<g transform="translate(1140.23 1144.53) scale(3.45 3.45)">
		<text xml:space="preserve" font-family="Oswald" font-size="20" font-style="normal" font-weight="bold" style="stroke: none; stroke-width: 1; stroke-dasharray: none; stroke-linecap: butt; stroke-linejoin: miter; stroke-miterlimit: 10; fill: rgb(64,71,98); fill-rule: nonzero; opacity: 1; white-space: pre;" ><tspan x="-28.48" y="6.28" >ACORN</tspan></text>
	</g>
	<g transform="translate(1139.54 1178.12) scale(0.59 0.59)">
		<text xml:space="preserve" font-family="PT Sans Caption" font-size="20" font-style="normal" font-weight="bold" style="stroke: none; stroke-width: 1; stroke-dasharray: none; stroke-linecap: butt; stroke-linejoin: miter; stroke-miterlimit: 10; fill: rgb(64,71,98); fill-rule: nonzero; opacity: 1; white-space: pre;" ><tspan x="-41.55" y="6.28" >MFG. CO.</tspan></text>
	</g>
	<g transform="translate(1140.84 1102.18) scale(0.72 0.72)">
		<text xml:space="preserve" font-family="PT Sans Caption" font-size="20" font-style="normal" font-weight="bold" style="stroke: none; stroke-width: 1; stroke-dasharray: none; stroke-linecap: butt; stroke-linejoin: miter; stroke-miterlimit: 10; fill: rgb(64,71,98); fill-rule: nonzero; opacity: 1; white-space: pre;" ><tspan x="-78.92" y="6.28" >QUALITY GOODS</tspan></text>
	</g>
<g transform="translate(1140 1140)" style="">
	<path d="M 15.5 18.78 s -4.11 -6.57 2.95 -11.33 c 0 0 -2.14 7.72 3.12 8.54 c 5.26 0.82 -6.08 2.8 -6.08 2.8 m 34.43 -0.01 s 4.1 -6.57 -2.96 -11.33 c 0 0 2.14 7.72 -3.12 8.54 c -5.26 0.82 6.08 2.8 6.08 2.8" style="stroke: none; stroke-width: 1; stroke-dasharray: none; stroke-linecap: butt; stroke-linejoin: round; stroke-miterlimit: 1.41; fill: rgb(196,5,5); fill-rule: evenodd; opacity: 1;" transform="translate(0.71 -18.88) translate(-32.707218117957055, -13.119999999999997) " stroke-linecap="round" />
	<path d="M 11.13 38.59 l 0.9 0.57 l 0.24 1.04 l -0.04 0.23 a 15.17 15.17 0 0 0 -0.16 1.66 a 13.3 13.3 0 0 0 1.91 7.35 a 11.56 11.56 0 0 0 5.14 4.48 c 1.79 0.83 3.74 1.27 5.7 1.44 c 1.85 0.16 3.75 0.09 5.54 -0.47 a 10.21 10.21 0 0 0 4.23 -2.54 c 0.85 -0.79 1.6 -1.68 2.3 -2.6 c 0.66 -0.85 1.29 -1.73 1.93 -2.6 l 0.28 -0.38 l 0.73 -0.96 c 0.49 -0.61 0.99 -1.21 1.52 -1.78 a 15.25 15.25 0 0 1 3.19 -2.72 a 14 14 0 0 1 5.82 -2.13 a 13.7 13.7 0 0 1 1.93 -0.13 c 0.63 0.02 1.26 0.1 1.87 0.27 a 6.66 6.66 0 0 1 3.19 1.93 a 7.25 7.25 0 0 1 1.7 5.33 a 7.91 7.91 0 0 1 -2.2 4.95 a 6.65 6.65 0 0 1 -3.28 1.8 c -0.77 0.16 -1.57 0.2 -2.36 0.11 a 10.87 10.87 0 0 1 -4.36 -1.47 l -0.67 -0.84 l 0.12 -1.06 l 0.84 -0.67 l 1.06 0.12 a 14.5 14.5 0 0 0 1.53 0.7 l 0.46 0.17 a 5.68 5.68 0 0 0 2.95 0.16 a 3.98 3.98 0 0 0 1.43 -0.73 a 4.66 4.66 0 0 0 1.6 -2.84 a 5.18 5.18 0 0 0 0.08 -1.46 a 4.3 4.3 0 0 0 -0.97 -2.39 a 3.46 3.46 0 0 0 -1.09 -0.82 a 5.04 5.04 0 0 0 -2.32 -0.46 a 12.4 12.4 0 0 0 -3.51 0.68 a 11.09 11.09 0 0 0 -3.88 2.34 c -0.9 0.8 -1.7 1.72 -2.44 2.67 c -0.72 0.9 -1.39 1.85 -2.07 2.78 l -0.29 0.38 c -0.4 0.55 -0.82 1.09 -1.25 1.62 c -0.68 0.82 -1.4 1.61 -2.2 2.33 a 13.08 13.08 0 0 1 -5.4 3.02 c -1.07 0.3 -2.18 0.47 -3.3 0.53 a 20.77 20.77 0 0 1 -8.02 -1.11 a 15.9 15.9 0 0 1 -2.9 -1.34 a 14.48 14.48 0 0 1 -5.54 -5.78 a 15.64 15.64 0 0 1 -1.58 -4.69 a 16.61 16.61 0 0 1 0.02 -5.55 l 0.57 -0.9 l 1.04 -0.24 z" style="stroke: none; stroke-width: 1; stroke-dasharray: none; stroke-linecap: butt; stroke-linejoin: round; stroke-miterlimit: 1.41; fill: rgb(196,5,5); fill-rule: nonzero; opacity: 1;" transform="translate(2.17 16.41) translate(-34.17205496941075, -48.412846204578415) " stroke-linecap="round" />
	<ellipse cx="0" cy="0" rx="24.56" ry="21.8" style="stroke: none; stroke-width: 1; stroke-dasharray: none; stroke-linecap: butt; stroke-linejoin: round; stroke-miterlimit: 1.41; fill: rgb(237,175,6); fill-rule: evenodd; opacity: 1;" transform="translate(0.76 1.96)"/>
	<ellipse cx="0" cy="0" rx="24.56" ry="21.8" style="stroke: none; stroke-width: 1; stroke-dasharray: none; stroke-linecap: butt; stroke-linejoin: round; stroke-miterlimit: 1.41; fill: rgb(250,201,64); fill-rule: evenodd; opacity: 1;" transform="translate(1.7 0.85)"/>
	<radialGradient id="SVGID_1" gradientUnits="userSpaceOnUse" gradientTransform="matrix(2.9273115619515315 0.8899433573351094 -0.8899433573351094 2.9273115619515315 20.234957515574465 31.533470028077815)"  cx="0" cy="3.552713678800501e-15" r="1" fx="0" fy="3.552713678800501e-15">
<stop offset="0%" style="stop-color:rgb(29,29,29);stop-opacity: 1"/>
<stop offset="100%" style="stop-color:rgb(0,0,0);stop-opacity: 1"/>
</radialGradient>
<path d="M 17.87 29.59 l 5.15 2.44 s 0.18 0.1 0.06 0.5 a 2.91 2.91 0 0 1 -3.73 1.93 a 3.06 3.06 0 0 1 -2.04 -3.82 c 0.12 -0.4 0.56 -1.06 0.56 -1.06 z" style="stroke: none; stroke-width: 1; stroke-dasharray: none; stroke-linecap: butt; stroke-linejoin: round; stroke-miterlimit: 1.41; fill: url(#SVGID_1); fill-rule: evenodd; opacity: 1;" transform="translate(-11.85 0.1) translate(-20.149256889453397, -32.097863386739924) " stroke-linecap="round" />
	<path d="M 18.88 31.42 a 1.33 1.33 0 1 1 -0.77 2.54 a 1.33 1.33 0 0 1 0.77 -2.54 z m 1.49 -1.09 a 0.67 0.67 0 1 1 -0.4 1.27 a 0.67 0.67 0 0 1 0.4 -1.27 z" style="stroke: none; stroke-width: 1; stroke-dasharray: none; stroke-linecap: butt; stroke-linejoin: round; stroke-miterlimit: 1.41; fill: rgb(255,255,255); fill-rule: evenodd; opacity: 1;" transform="translate(-12.92 0.18) translate(-19.08049258958411, -32.18157476712079) " stroke-linecap="round" />
	<path d="M 20.2 25.15 l 3.15 2.68 l 0.26 0.53 l -0.18 0.56 l -0.53 0.27 l -0.56 -0.18 l -3.14 -2.67 l -0.27 -0.53 l 0.18 -0.56 v -0.01 l 0.53 -0.27 l 0.56 0.18 z" style="stroke: none; stroke-width: 1; stroke-dasharray: none; stroke-linecap: butt; stroke-linejoin: round; stroke-miterlimit: 1.41; fill: rgb(46,13,25); fill-rule: nonzero; opacity: 1;" transform="translate(-10.73 -4.92) translate(-21.27, -27.08) " stroke-linecap="round" />
	<radialGradient id="SVGID_2" gradientUnits="userSpaceOnUse" gradientTransform="matrix(-2.92733 0.8899 0.8899 2.92733 45.18 31.53)"  cx="0" cy="-3.552713678800501e-15" r="1" fx="0" fy="-3.552713678800501e-15">
<stop offset="0%" style="stop-color:rgb(29,29,29);stop-opacity: 1"/>
<stop offset="100%" style="stop-color:rgb(0,0,0);stop-opacity: 1"/>
</radialGradient>
<path d="M 47.54 29.59 l -5.15 2.44 s -0.17 0.1 -0.06 0.5 a 2.91 2.91 0 0 0 3.74 1.93 a 3.06 3.06 0 0 0 2.03 -3.82 a 5.51 5.51 0 0 0 -0.56 -1.06 z" style="stroke: none; stroke-width: 1; stroke-dasharray: none; stroke-linecap: butt; stroke-linejoin: round; stroke-miterlimit: 1.41; fill: url(#SVGID_2); fill-rule: evenodd; opacity: 1;" transform="translate(13.26 0.1) translate(-45.2636720736259, -32.0994201651732) " stroke-linecap="round" />
	<path d="M 46.53 31.42 a 1.33 1.33 0 1 0 0.77 2.54 a 1.33 1.33 0 0 0 -0.77 -2.54 z m -1.48 -1.09 a 0.67 0.67 0 1 0 0.38 1.27 a 0.67 0.67 0 0 0 -0.38 -1.27 z" style="stroke: none; stroke-width: 1; stroke-dasharray: none; stroke-linecap: butt; stroke-linejoin: round; stroke-miterlimit: 1.41; fill: rgb(255,255,255); fill-rule: evenodd; opacity: 1;" transform="translate(14.32 0.18) translate(-46.31856001741009, -32.18430010967589) " stroke-linecap="round" />
	<path d="M 45.87 24.86 l 0.18 0.57 l -0.26 0.53 l -3.15 2.67 l -0.56 0.18 l -0.53 -0.27 l -0.18 -0.57 l 0.26 -0.52 l 3.15 -2.68 l 0.56 -0.18 l 0.53 0.27 z m -3.9 12.3 a 3.67 3.67 0 0 1 -0.1 1.13 a 4.8 4.8 0 0 1 -1.37 2.26 a 7.72 7.72 0 0 1 -2.23 1.58 a 10.93 10.93 0 0 1 -2.38 0.88 l -0.36 0.09 a 18.1 18.1 0 0 1 -1.6 0.26 l -0.37 0.03 a 11.32 11.32 0 0 1 -1.33 0.04 h -0.14 a 21.94 21.94 0 0 1 -1.07 -0.1 l -0.36 -0.05 a 15.03 15.03 0 0 1 -2.28 -0.57 c -0.3 -0.1 -0.6 -0.23 -0.88 -0.36 l -0.28 -0.13 a 10.9 10.9 0 0 1 -1.73 -1.1 a 6.94 6.94 0 0 1 -1.5 -1.72 a 4.32 4.32 0 0 1 -0.52 -1.52 a 3.74 3.74 0 0 1 -0.03 -0.68 v -0.04 l 0.21 -0.2 l 0.2 0.2 a 3.04 3.04 0 0 0 0.17 0.77 A 3.42 3.42 0 0 0 24.6 39 a 4.38 4.38 0 0 0 1.03 1 a 6.43 6.43 0 0 0 0.96 0.58 a 10.4 10.4 0 0 0 2.82 0.98 l 0.34 0.07 a 12.45 12.45 0 0 0 1.11 0.16 l 0.33 0.03 l 0.39 0.03 l 0.36 0.02 l 0.33 0.01 l 0.44 0.01 a 15 15 0 0 0 1.1 -0.02 a 14.5 14.5 0 0 0 2.64 -0.37 a 11.43 11.43 0 0 0 2.61 -1 c 0.37 -0.21 0.72 -0.45 1.04 -0.72 a 4.66 4.66 0 0 0 1.19 -1.53 a 3.24 3.24 0 0 0 0.27 -1.08 l 0.2 -0.2 l 0.2 0.2 z" style="stroke: none; stroke-width: 1; stroke-dasharray: none; stroke-linecap: butt; stroke-linejoin: round; stroke-miterlimit: 1.41; fill: rgb(46,13,25); fill-rule: nonzero; opacity: 1;" transform="translate(2.74 2.01) translate(-34.74293193034575, -34.01233736925494) " stroke-linecap="round" />
	<path d="M 11.13 38.59 l 0.9 0.57 l 0.24 1.04 l -0.04 0.23 a 13.32 13.32 0 0 0 1.8 9.08 a 11.72 11.72 0 0 0 5.09 4.4 c 1.79 0.84 3.74 1.28 5.7 1.45 c 1.81 0.15 3.67 0.09 5.43 -0.44 a 10.45 10.45 0 0 0 4.35 -2.57 c 0.84 -0.79 1.58 -1.68 2.29 -2.6 c 0.66 -0.85 1.29 -1.73 1.93 -2.6 l 0.28 -0.38 l 0.73 -0.96 c 0.49 -0.61 0.99 -1.21 1.52 -1.78 a 15.05 15.05 0 0 1 5.53 -3.93 a 14.85 14.85 0 0 1 4.67 -1.04 c 0.84 -0.04 1.7 0.03 2.51 0.24 a 6.74 6.74 0 0 1 3.13 1.78 a 7.2 7.2 0 0 1 1.86 5.47 a 7.9 7.9 0 0 1 -1.85 4.6 a 6.79 6.79 0 0 1 -3.28 2.09 a 7.2 7.2 0 0 1 -1.98 0.24 a 8.7 8.7 0 0 1 -2.67 -0.45 l -0.82 -0.69 l -0.1 -1.06 l 0.7 -0.82 l 1.06 -0.1 a 9 9 0 0 0 1.2 0.27 a 4.8 4.8 0 0 0 2.16 -0.19 a 3.68 3.68 0 0 0 1.2 -0.7 a 4.74 4.74 0 0 0 1.54 -2.95 a 5.17 5.17 0 0 0 -0.33 -2.71 c -0.2 -0.46 -0.5 -0.88 -0.87 -1.22 a 3.7 3.7 0 0 0 -1.37 -0.78 c -0.42 -0.13 -0.85 -0.2 -1.3 -0.22 a 7.14 7.14 0 0 0 -1.78 0.12 a 11.06 11.06 0 0 0 -6.16 2.96 c -0.9 0.81 -1.69 1.73 -2.43 2.69 c -0.7 0.88 -1.34 1.8 -2 2.7 l -0.29 0.37 c -0.4 0.55 -0.82 1.09 -1.25 1.62 c -0.68 0.82 -1.4 1.61 -2.2 2.33 a 13.08 13.08 0 0 1 -5.4 3.02 c -1.07 0.3 -2.18 0.47 -3.3 0.53 a 20.77 20.77 0 0 1 -8.02 -1.11 a 15.9 15.9 0 0 1 -2.9 -1.34 a 14.48 14.48 0 0 1 -5.54 -5.78 a 15.64 15.64 0 0 1 -1.58 -4.69 a 16.61 16.61 0 0 1 0.02 -5.55 l 0.57 -0.9 c 0.35 -0.09 0.7 -0.3 1.05 -0.24 z" style="stroke: none; stroke-width: 1; stroke-dasharray: none; stroke-linecap: butt; stroke-linejoin: round; stroke-miterlimit: 1.41; fill: rgb(196,5,5); fill-rule: nonzero; opacity: 1;" transform="translate(2.17 16.41) translate(-34.17125461756801, -48.40754012467481) " stroke-linecap="round" />
	<path d="M 11.98 31.28 l 3.24 9.9 L 6 39.83 l 5.98 -8.54 z" style="stroke: none; stroke-width: 1; stroke-dasharray: none; stroke-linecap: butt; stroke-linejoin: round; stroke-miterlimit: 1.41; fill: rgb(196,5,5); fill-rule: evenodd; opacity: 1;" transform="translate(-21.39 4.23) translate(-10.61, -36.230000000000004) " stroke-linecap="round" />
</g>
</svg>