<?xml version="1.0" encoding="UTF-8" standalone="no" ?>
<!DOCTYPE svg PUBLIC "-//W3C//DTD SVG 1.1//EN" "http://www.w3.org/Graphics/SVG/1.1/DTD/svg11.dtd">
<svg xmlns="http://www.w3.org/2000/svg" xmlns:xlink="http://www.w3.org/1999/xlink" version="1.1" width="1772" height="1772" viewBox="0 0 2685.53 2685.53" xml:space="preserve">
<desc>Created with Fabric.js 2.3.3</desc>
<defs>
</defs>
<g transform="translate(1343 1347.65) scale(0.4 0.45)" style="">
</g>
	<g transform="translate(1342.98 1371.09) scale(0.59 0.59)">
		<text xml:space="preserve" font-family="Hammersmith One" font-size="20" font-style="normal" font-weight="normal" style="stroke: none; stroke-width: 1; stroke-dasharray: none; stroke-linecap: butt; stroke-linejoin: miter; stroke-miterlimit: 10; fill: rgb(64,71,98); fill-rule: nonzero; opacity: 1; white-space: pre;" ><tspan x="-46.68" y="6.28" >SINCE 1611</tspan></text>
	</g>
	<g transform="translate(1343.66 1334.05) scale(2.59 2.59)">
		<text xml:space="preserve" font-family="UnifrakturMaguntia" font-size="20" font-style="normal" font-weight="normal" style="stroke: none; stroke-width: 1; stroke-dasharray: none; stroke-linecap: butt; stroke-linejoin: miter; stroke-miterlimit: 10; fill: rgb(64,71,98); fill-rule: nonzero; opacity: 1; white-space: pre;" ><tspan x="-37.42" y="6.28" >Medieval</tspan></text>
	</g>
<g transform="translate(1343 1343) scale(0.4 0.39)" style="">
	<path d="M 312 246.9 h -500 v -3.6 h 500 V 246.9 z M -186.8 245.7 h 497.6 v -1.2 h -497.6 V 245.7 z" style="stroke: none; stroke-width: 1; stroke-dasharray: none; stroke-linecap: butt; stroke-linejoin: miter; stroke-miterlimit: 10; fill: rgb(64,71,98); fill-rule: nonzero; opacity: 1;" transform="translate(0 -56.45) translate(-62, -245.10000000000002) " stroke-linecap="round" />
	<path d="M 312 359.9 h -500 v -3.6 h 500 V 359.9 z M -186.8 358.7 h 497.6 v -1.2 h -497.6 V 358.7 z" style="stroke: none; stroke-width: 1; stroke-dasharray: none; stroke-linecap: butt; stroke-linejoin: miter; stroke-miterlimit: 10; fill: rgb(64,71,98); fill-rule: nonzero; opacity: 1;" transform="translate(0 56.55) translate(-62, -358.09999999999997) " stroke-linecap="round" />
</g>
	<g transform="translate(1341.03 1343.28)">
		<text xml:space="preserve" font-family="Playfair Display" font-size="20" font-style="normal" font-weight="normal" style="stroke: none; stroke-width: 1; stroke-dasharray: none; stroke-linecap: butt; stroke-linejoin: miter; stroke-miterlimit: 10; fill: rgb(64,71,98); fill-rule: nonzero; opacity: 1; white-space: pre;" ><tspan x="-66.9" y="6.28" >THE NEW YOU</tspan></text>
	</g>
<g transform="translate(1343 1347.65) scale(0.4 0.45)" style="">
</g>
	<g transform="translate(1342.98 1371.09) scale(0.59 0.59)">
		<text xml:space="preserve" font-family="Hammersmith One" font-size="20" font-style="normal" font-weight="normal" style="stroke: none; stroke-width: 1; stroke-dasharray: none; stroke-linecap: butt; stroke-linejoin: miter; stroke-miterlimit: 10; fill: rgb(64,71,98); fill-rule: nonzero; opacity: 1; white-space: pre;" ><tspan x="-46.68" y="6.28" >SINCE 1611</tspan></text>
	</g>
	<g transform="translate(1343.66 1334.05) scale(2.59 2.59)">
		<text xml:space="preserve" font-family="UnifrakturMaguntia" font-size="20" font-style="normal" font-weight="normal" style="stroke: none; stroke-width: 1; stroke-dasharray: none; stroke-linecap: butt; stroke-linejoin: miter; stroke-miterlimit: 10; fill: rgb(64,71,98); fill-rule: nonzero; opacity: 1; white-space: pre;" ><tspan x="-37.42" y="6.28" >Medieval</tspan></text>
	</g>
<g transform="translate(1343 1343) scale(0.5 0.5)" style="">
	<path d="M -76.7 326.9 h -63.2 c 0 -0.2 0 -0.2 0 -0.3 c 0 -1 -0.3 -1.7 -0.7 -2.8 c -0.3 -0.7 -1 -1.5 -1.5 -2.1 c -1.4 -1.2 -3.1 -2.1 -4.8 -2.2 c -1.7 -0.2 -3.4 0 -5 1 c -1.5 0.7 -2.8 1.9 -3.4 3.1 c -0.7 1.2 -1.4 2.2 -1.5 3.4 h -65.7 v 1.4 h 65.6 c -0.2 2.1 0.2 4.1 0.7 5.2 c 0.3 0.7 0.5 1.2 0.7 1.5 c 0.2 0.3 0.3 0.5 0.3 0.5 h 0.2 c 0 0 0.2 -0.2 0 -0.2 c 0 0 0 -0.2 -0.2 -0.5 c -0.2 -0.3 -0.3 -0.7 -0.5 -1.5 c -0.2 -0.5 -0.3 -1.5 -0.3 -2.6 s 0 -1.9 0.3 -3.1 c 0.5 -2.1 2.2 -4.5 4.8 -5.9 c 1.2 -0.5 2.8 -0.7 4.1 -0.5 c 1.4 0.2 2.8 0.7 3.8 1.9 c 0.5 0.5 1 1 1.4 1.7 c 0.3 0.5 0.5 1.4 0.5 1.9 c 0.2 1.4 -0.2 2.8 -1 3.8 c -0.3 0.5 -1 1 -1.4 1.4 c -0.2 0 -0.3 0.2 -0.3 0.2 c -0.2 0 -0.2 0.2 -0.3 0.2 c -0.2 0.2 -0.5 0.2 -0.7 0.2 c -1.2 0.2 -2.2 0 -3.3 -0.7 c -1 -0.5 -1.5 -1.5 -1.7 -2.2 c -0.2 -0.7 -0.2 -1.7 0.2 -2.2 c 0.2 -0.5 0.5 -1 0.7 -1.4 c 0.2 -0.2 0.3 -0.3 0.3 -0.3 v -0.2 c 0 0 -0.2 -0.2 -0.2 0 l 0 0 c 0 0 -0.2 0.2 -0.5 0.3 s -0.7 0.5 -1.2 1.4 c -0.3 0.5 -0.5 1.5 -0.3 2.8 c 0.2 1.2 0.7 2.2 1.9 3.1 c 1.2 0.7 2.6 1.4 4.3 1.2 c 0.3 0 0.7 -0.2 1.2 -0.2 c 0.2 0 0.3 -0.2 0.5 -0.2 s 0.3 -0.2 0.5 -0.2 c 0.7 -0.3 1.4 -1 1.9 -1.7 c 0.7 -1 1.2 -2.1 1.4 -3.4 h 63.2 v -1.4 h -0.5 V 326.9 z" style="stroke: none; stroke-width: 1; stroke-dasharray: none; stroke-linecap: butt; stroke-linejoin: miter; stroke-miterlimit: 10; fill: rgb(64,71,98); fill-rule: nonzero; opacity: 1;" transform="translate(0.6 -114.63) translate(149.2, -327.515153077165) " stroke-linecap="round" />
</g>
	<g transform="translate(1343.33 1307.83) scale(0.96 0.96)">
		<text xml:space="preserve" font-family="Playfair Display" font-size="20" font-style="normal" font-weight="normal" style="stroke: none; stroke-width: 1; stroke-dasharray: none; stroke-linecap: butt; stroke-linejoin: miter; stroke-miterlimit: 10; fill: rgb(64,71,98); fill-rule: nonzero; opacity: 1; white-space: pre;" ><tspan x="-100.3" y="6.28" >YOU ARE SIMPLY THE</tspan></text>
	</g>
	<g transform="translate(1343.47 1355.24) scale(4.01 4.01)">
		<text xml:space="preserve" font-family="Playfair Display" font-size="20" font-style="normal" font-weight="normal" style="stroke: none; stroke-width: 1; stroke-dasharray: none; stroke-linecap: butt; stroke-linejoin: miter; stroke-miterlimit: 10; fill: rgb(64,71,98); fill-rule: nonzero; opacity: 1; white-space: pre;" ><tspan x="-23.86" y="6.28" >BEST</tspan></text>
	</g>
<g transform="translate(359.06 269.74) scale(0.17 0.17)">
	<image xlink:href="http://solution.cmsmart.net/wp_printshop/printshop_boxed/wp-content/uploads/nbdesigner/temp/2019/01/10/154712478482599a4e.jpg" x="-1950" y="-1330" style="stroke: none; stroke-width: 0; stroke-dasharray: none; stroke-linecap: butt; stroke-linejoin: miter; stroke-miterlimit: 4; fill: rgb(255,0,0); fill-rule: nonzero; opacity: 1;" width="3900" height="2660"></image>
</g>
</svg>