<?xml version="1.0" encoding="UTF-8" standalone="no" ?>
<!DOCTYPE svg PUBLIC "-//W3C//DTD SVG 1.1//EN" "http://www.w3.org/Graphics/SVG/1.1/DTD/svg11.dtd">
<svg xmlns="http://www.w3.org/2000/svg" xmlns:xlink="http://www.w3.org/1999/xlink" version="1.1" width="1772" height="1772" viewBox="0 0 1620.32 1620.32" xml:space="preserve">
<desc>Created with Fabric.js 2.3.3</desc>
<defs>
</defs>
<path d="M 90 111.021 Q 90 111 90 110.5 Q 90 110 92.5 109 Q 95 108 97 107.5 Q 99 107 104.5 104 Q 110 101 113 99.5 Q 116 98 119.5 96.5 Q 123 95 125.5 93.5 Q 128 92 131.5 90.5 Q 135 89 136 88 Q 137 87 137.5 86.5 Q 138 86 139 85.5 Q 140 85 141 85 Q 142 85 144.5 84 Q 147 83 149.5 83 Q 152 83 157 83 Q 162 83 165 83 Q 168 83 170.5 83 Q 173 83 177 83.5 Q 181 84 184 84.5 Q 187 85 191 86 Q 195 87 196.5 88.5 Q 198 90 199.5 91 Q 201 92 203 93.5 Q 205 95 205 97 Q 205 99 206.5 101.5 Q 208 104 209 107.5 Q 210 111 210 113 Q 210 115 210 118 Q 210 121 209.5 124.5 Q 209 128 206.5 132 Q 204 136 201 139 Q 198 142 193 145.5 Q 188 149 186.5 150 Q 185 151 181 153 Q 177 155 174.5 157 Q 172 159 169.5 160.5 Q 167 162 165.5 163 Q 164 164 161 165.5 Q 158 167 153.5 169.5 Q 149 172 146.5 172.5 Q 144 173 143 173 Q 142 173 140.5 173.5 Q 139 174 141 174 Q 143 174 148 175.5 Q 153 177 161 179.5 Q 169 182 179 185.5 Q 189 189 201 194 Q 213 199 224 204 Q 235 209 245.5 214.5 Q 256 220 264.5 224 Q 273 228 278 230 Q 283 232 285.5 232.5 L 288.021 233.021" style="stroke: rgb(204,50,75); stroke-width: 21; stroke-dasharray: none; stroke-linecap: round; stroke-linejoin: round; stroke-miterlimit: 10; fill: none; fill-rule: nonzero; opacity: 1;" transform="translate(189.01 158.01) translate(-189.0105, -158.01049999999998) " stroke-linecap="round" />
</svg>