<?xml version="1.0" encoding="UTF-8" standalone="no" ?>
<!DOCTYPE svg PUBLIC "-//W3C//DTD SVG 1.1//EN" "http://www.w3.org/Graphics/SVG/1.1/DTD/svg11.dtd">
<svg xmlns="http://www.w3.org/2000/svg" xmlns:xlink="http://www.w3.org/1999/xlink" version="1.1" width="1771.6535433281251" height="1771.6535433281251" viewBox="0 0 2565 2565" xml:space="preserve">
<desc>Created with Fabric.js 2.3.3</desc>
<defs>
</defs>
<path d="M 121.999 251.5 Q 122 251.5 123.5 251.5 Q 125 251.5 127.5 251.5 Q 130 251.5 138 255.5 Q 146 259.5 157 265.5 Q 168 271.5 180 278 Q 192 284.5 212.5 292.5 Q 233 300.5 260.5 312 Q 288 323.5 315 332.5 Q 342 341.5 366 348.5 Q 390 355.5 412 361.5 Q 434 367.5 447 371 Q 460 374.5 478 379 Q 496 383.5 506.5 385 Q 517 386.5 527.5 387 Q 538 387.5 545 388 Q 552 388.5 558 388.5 Q 564 388.5 571 389 Q 578 389.5 580 389.5 Q 582 389.5 583.5 389.5 Q 585 389.5 587.5 389.5 Q 590 389.5 591 389.5 L 592.001 389.5" style="stroke: rgb(255,189,74); stroke-width: 1; stroke-dasharray: none; stroke-linecap: round; stroke-linejoin: round; stroke-miterlimit: 10; fill: none; fill-rule: nonzero; opacity: 1;" transform="translate(357 320.5) translate(-357, -320.5) " stroke-linecap="round" />
<g transform="translate(1282.5 1282.5)">
	<image xlink:href="http://solution.cmsmart.net/wp_printshop/printshop_boxed/wp-content/uploads/nbdesigner/temp/2019/05/06/155715787411f38f8e.jpg" x="-600" y="-400" style="stroke: none; stroke-width: 0; stroke-dasharray: none; stroke-linecap: butt; stroke-linejoin: miter; stroke-miterlimit: 4; fill: rgb(255,0,0); fill-rule: nonzero; opacity: 1;" width="1200" height="800"></image>
</g>
<g transform="translate(1282.5 1282.5)">
	<image xlink:href="http://solution.cmsmart.net/wp_printshop/printshop_boxed/wp-content/uploads/nbdesigner/temp/2019/05/06/1557157908243facb2.jpg" x="-165" y="-194.5" style="stroke: none; stroke-width: 0; stroke-dasharray: none; stroke-linecap: butt; stroke-linejoin: miter; stroke-miterlimit: 4; fill: rgb(255,0,0); fill-rule: nonzero; opacity: 1;" width="330" height="389"></image>
</g>
<g transform="translate(1282.5 1282.5)">
	<image xlink:href="http://solution.cmsmart.net/wp_printshop/printshop_boxed/wp-content/uploads/nbdesigner/temp/2019/05/06/155715787411f38f8e.jpg" x="-600" y="-400" style="stroke: none; stroke-width: 0; stroke-dasharray: none; stroke-linecap: butt; stroke-linejoin: miter; stroke-miterlimit: 4; fill: rgb(255,0,0); fill-rule: nonzero; opacity: 1;" width="1200" height="800"></image>
</g>
<g transform="translate(1282.5 1282.5)">
	<image xlink:href="http://solution.cmsmart.net/wp_printshop/printshop_boxed/wp-content/uploads/nbdesigner/temp/2019/05/06/1557157908243facb2.jpg" x="-165" y="-194.5" style="stroke: none; stroke-width: 0; stroke-dasharray: none; stroke-linecap: butt; stroke-linejoin: miter; stroke-miterlimit: 4; fill: rgb(255,0,0); fill-rule: nonzero; opacity: 1;" width="330" height="389"></image>
</g>
<g transform="translate(1282.5 1282.5)">
	<image xlink:href="http://solution.cmsmart.net/wp_printshop/printshop_boxed/wp-content/uploads/nbdesigner/temp/2019/05/06/1557157908243facb2.jpg" x="-165" y="-194.5" style="stroke: none; stroke-width: 0; stroke-dasharray: none; stroke-linecap: butt; stroke-linejoin: miter; stroke-miterlimit: 4; fill: rgb(255,0,0); fill-rule: nonzero; opacity: 1;" width="330" height="389"></image>
</g>
<g transform="translate(1282.5 1282.5)">
	<image xlink:href="http://solution.cmsmart.net/wp_printshop/printshop_boxed/wp-content/uploads/nbdesigner/temp/2019/05/06/1557157908243facb2.jpg" x="-165" y="-194.5" style="stroke: none; stroke-width: 0; stroke-dasharray: none; stroke-linecap: butt; stroke-linejoin: miter; stroke-miterlimit: 4; fill: rgb(255,0,0); fill-rule: nonzero; opacity: 1;" width="330" height="389"></image>
</g>
<g transform="translate(1282.5 1282.5)">
	<image xlink:href="http://solution.cmsmart.net/wp_printshop/printshop_boxed/wp-content/uploads/nbdesigner/temp/2019/05/06/1557157908243facb2.jpg" x="-165" y="-194.5" style="stroke: none; stroke-width: 0; stroke-dasharray: none; stroke-linecap: butt; stroke-linejoin: miter; stroke-miterlimit: 4; fill: rgb(255,0,0); fill-rule: nonzero; opacity: 1;" width="330" height="389"></image>
</g>
<g transform="translate(1282.5 1282.5)">
	<image xlink:href="http://solution.cmsmart.net/wp_printshop/printshop_boxed/wp-content/uploads/nbdesigner/temp/2019/05/06/1557157908243facb2.jpg" x="-165" y="-194.5" style="stroke: none; stroke-width: 0; stroke-dasharray: none; stroke-linecap: butt; stroke-linejoin: miter; stroke-miterlimit: 4; fill: rgb(255,0,0); fill-rule: nonzero; opacity: 1;" width="330" height="389"></image>
</g>
<g transform="translate(1282.5 1282.5)">
	<image xlink:href="http://solution.cmsmart.net/wp_printshop/printshop_boxed/wp-content/uploads/nbdesigner/temp/2019/05/06/1557157908243facb2.jpg" x="-165" y="-194.5" style="stroke: none; stroke-width: 0; stroke-dasharray: none; stroke-linecap: butt; stroke-linejoin: miter; stroke-miterlimit: 4; fill: rgb(255,0,0); fill-rule: nonzero; opacity: 1;" width="330" height="389"></image>
</g>
</svg>