<?xml version="1.0" encoding="UTF-8" standalone="no" ?>
<!DOCTYPE svg PUBLIC "-//W3C//DTD SVG 1.1//EN" "http://www.w3.org/Graphics/SVG/1.1/DTD/svg11.dtd">
<svg xmlns="http://www.w3.org/2000/svg" xmlns:xlink="http://www.w3.org/1999/xlink" version="1.1" width="1771.653543328125" height="1771.653543328125" viewBox="0 0 1623.75 1623.75" xml:space="preserve">
<desc>Created with Fabric.js 2.3.3</desc>
<defs>
</defs>
<g transform="translate(99.4079955539 99.7470503213) scale(0.179454175 0.179454175) matrix(1 0 0 -1 0 0)">
	<image xlink:href="http://solution.cmsmart.net/wp_printshop/printshop_boxed/wp-content/uploads/nbdesigner/temp/2019/04/18/15556083409523147e.jpg" x="-512" y="-384" style="stroke: none; stroke-width: 0; stroke-dasharray: none; stroke-linecap: butt; stroke-linejoin: miter; stroke-miterlimit: 4; fill: rgb(255,0,0); fill-rule: nonzero; opacity: 1;" width="1024" height="768"></image>
</g>
<path d="M 0 0 l 4 0 l 0 4 l -4 0 l 0 -4 z M 4 0 l 4 0 l 0 4 l -4 0 l 0 -4 z M 8 0 l 4 0 l 0 4 l -4 0 l 0 -4 z M 12 0 l 4 0 l 0 4 l -4 0 l 0 -4 z M 16 0 l 4 0 l 0 4 l -4 0 l 0 -4 z M 20 0 l 4 0 l 0 4 l -4 0 l 0 -4 z M 24 0 l 4 0 l 0 4 l -4 0 l 0 -4 z M 32 0 l 4 0 l 0 4 l -4 0 l 0 -4 z M 36 0 l 4 0 l 0 4 l -4 0 l 0 -4 z M 40 0 l 4 0 l 0 4 l -4 0 l 0 -4 z M 48 0 l 4 0 l 0 4 l -4 0 l 0 -4 z M 68 0 l 4 0 l 0 4 l -4 0 l 0 -4 z M 76 0 l 4 0 l 0 4 l -4 0 l 0 -4 z M 80 0 l 4 0 l 0 4 l -4 0 l 0 -4 z M 84 0 l 4 0 l 0 4 l -4 0 l 0 -4 z M 88 0 l 4 0 l 0 4 l -4 0 l 0 -4 z M 96 0 l 4 0 l 0 4 l -4 0 l 0 -4 z M 104 0 l 4 0 l 0 4 l -4 0 l 0 -4 z M 108 0 l 4 0 l 0 4 l -4 0 l 0 -4 z M 112 0 l 4 0 l 0 4 l -4 0 l 0 -4 z M 116 0 l 4 0 l 0 4 l -4 0 l 0 -4 z M 120 0 l 4 0 l 0 4 l -4 0 l 0 -4 z M 124 0 l 4 0 l 0 4 l -4 0 l 0 -4 z M 128 0 l 4 0 l 0 4 l -4 0 l 0 -4 z M 0 4 l 4 0 l 0 4 l -4 0 l 0 -4 z M 24 4 l 4 0 l 0 4 l -4 0 l 0 -4 z M 32 4 l 4 0 l 0 4 l -4 0 l 0 -4 z M 36 4 l 4 0 l 0 4 l -4 0 l 0 -4 z M 40 4 l 4 0 l 0 4 l -4 0 l 0 -4 z M 64 4 l 4 0 l 0 4 l -4 0 l 0 -4 z M 68 4 l 4 0 l 0 4 l -4 0 l 0 -4 z M 76 4 l 4 0 l 0 4 l -4 0 l 0 -4 z M 84 4 l 4 0 l 0 4 l -4 0 l 0 -4 z M 88 4 l 4 0 l 0 4 l -4 0 l 0 -4 z M 104 4 l 4 0 l 0 4 l -4 0 l 0 -4 z M 128 4 l 4 0 l 0 4 l -4 0 l 0 -4 z M 0 8 l 4 0 l 0 4 l -4 0 l 0 -4 z M 8 8 l 4 0 l 0 4 l -4 0 l 0 -4 z M 12 8 l 4 0 l 0 4 l -4 0 l 0 -4 z M 16 8 l 4 0 l 0 4 l -4 0 l 0 -4 z M 24 8 l 4 0 l 0 4 l -4 0 l 0 -4 z M 32 8 l 4 0 l 0 4 l -4 0 l 0 -4 z M 40 8 l 4 0 l 0 4 l -4 0 l 0 -4 z M 44 8 l 4 0 l 0 4 l -4 0 l 0 -4 z M 52 8 l 4 0 l 0 4 l -4 0 l 0 -4 z M 60 8 l 4 0 l 0 4 l -4 0 l 0 -4 z M 64 8 l 4 0 l 0 4 l -4 0 l 0 -4 z M 88 8 l 4 0 l 0 4 l -4 0 l 0 -4 z M 92 8 l 4 0 l 0 4 l -4 0 l 0 -4 z M 104 8 l 4 0 l 0 4 l -4 0 l 0 -4 z M 112 8 l 4 0 l 0 4 l -4 0 l 0 -4 z M 116 8 l 4 0 l 0 4 l -4 0 l 0 -4 z M 120 8 l 4 0 l 0 4 l -4 0 l 0 -4 z M 128 8 l 4 0 l 0 4 l -4 0 l 0 -4 z M 0 12 l 4 0 l 0 4 l -4 0 l 0 -4 z M 8 12 l 4 0 l 0 4 l -4 0 l 0 -4 z M 12 12 l 4 0 l 0 4 l -4 0 l 0 -4 z M 16 12 l 4 0 l 0 4 l -4 0 l 0 -4 z M 24 12 l 4 0 l 0 4 l -4 0 l 0 -4 z M 32 12 l 4 0 l 0 4 l -4 0 l 0 -4 z M 36 12 l 4 0 l 0 4 l -4 0 l 0 -4 z M 44 12 l 4 0 l 0 4 l -4 0 l 0 -4 z M 56 12 l 4 0 l 0 4 l -4 0 l 0 -4 z M 60 12 l 4 0 l 0 4 l -4 0 l 0 -4 z M 64 12 l 4 0 l 0 4 l -4 0 l 0 -4 z M 68 12 l 4 0 l 0 4 l -4 0 l 0 -4 z M 72 12 l 4 0 l 0 4 l -4 0 l 0 -4 z M 84 12 l 4 0 l 0 4 l -4 0 l 0 -4 z M 92 12 l 4 0 l 0 4 l -4 0 l 0 -4 z M 104 12 l 4 0 l 0 4 l -4 0 l 0 -4 z M 112 12 l 4 0 l 0 4 l -4 0 l 0 -4 z M 116 12 l 4 0 l 0 4 l -4 0 l 0 -4 z M 120 12 l 4 0 l 0 4 l -4 0 l 0 -4 z M 128 12 l 4 0 l 0 4 l -4 0 l 0 -4 z M 0 16 l 4 0 l 0 4 l -4 0 l 0 -4 z M 8 16 l 4 0 l 0 4 l -4 0 l 0 -4 z M 12 16 l 4 0 l 0 4 l -4 0 l 0 -4 z M 16 16 l 4 0 l 0 4 l -4 0 l 0 -4 z M 24 16 l 4 0 l 0 4 l -4 0 l 0 -4 z M 52 16 l 4 0 l 0 4 l -4 0 l 0 -4 z M 56 16 l 4 0 l 0 4 l -4 0 l 0 -4 z M 64 16 l 4 0 l 0 4 l -4 0 l 0 -4 z M 72 16 l 4 0 l 0 4 l -4 0 l 0 -4 z M 76 16 l 4 0 l 0 4 l -4 0 l 0 -4 z M 104 16 l 4 0 l 0 4 l -4 0 l 0 -4 z M 112 16 l 4 0 l 0 4 l -4 0 l 0 -4 z M 116 16 l 4 0 l 0 4 l -4 0 l 0 -4 z M 120 16 l 4 0 l 0 4 l -4 0 l 0 -4 z M 128 16 l 4 0 l 0 4 l -4 0 l 0 -4 z M 0 20 l 4 0 l 0 4 l -4 0 l 0 -4 z M 24 20 l 4 0 l 0 4 l -4 0 l 0 -4 z M 32 20 l 4 0 l 0 4 l -4 0 l 0 -4 z M 44 20 l 4 0 l 0 4 l -4 0 l 0 -4 z M 48 20 l 4 0 l 0 4 l -4 0 l 0 -4 z M 52 20 l 4 0 l 0 4 l -4 0 l 0 -4 z M 56 20 l 4 0 l 0 4 l -4 0 l 0 -4 z M 60 20 l 4 0 l 0 4 l -4 0 l 0 -4 z M 72 20 l 4 0 l 0 4 l -4 0 l 0 -4 z M 80 20 l 4 0 l 0 4 l -4 0 l 0 -4 z M 92 20 l 4 0 l 0 4 l -4 0 l 0 -4 z M 96 20 l 4 0 l 0 4 l -4 0 l 0 -4 z M 104 20 l 4 0 l 0 4 l -4 0 l 0 -4 z M 128 20 l 4 0 l 0 4 l -4 0 l 0 -4 z M 0 24 l 4 0 l 0 4 l -4 0 l 0 -4 z M 4 24 l 4 0 l 0 4 l -4 0 l 0 -4 z M 8 24 l 4 0 l 0 4 l -4 0 l 0 -4 z M 12 24 l 4 0 l 0 4 l -4 0 l 0 -4 z M 16 24 l 4 0 l 0 4 l -4 0 l 0 -4 z M 20 24 l 4 0 l 0 4 l -4 0 l 0 -4 z M 24 24 l 4 0 l 0 4 l -4 0 l 0 -4 z M 32 24 l 4 0 l 0 4 l -4 0 l 0 -4 z M 40 24 l 4 0 l 0 4 l -4 0 l 0 -4 z M 48 24 l 4 0 l 0 4 l -4 0 l 0 -4 z M 56 24 l 4 0 l 0 4 l -4 0 l 0 -4 z M 64 24 l 4 0 l 0 4 l -4 0 l 0 -4 z M 72 24 l 4 0 l 0 4 l -4 0 l 0 -4 z M 80 24 l 4 0 l 0 4 l -4 0 l 0 -4 z M 88 24 l 4 0 l 0 4 l -4 0 l 0 -4 z M 96 24 l 4 0 l 0 4 l -4 0 l 0 -4 z M 104 24 l 4 0 l 0 4 l -4 0 l 0 -4 z M 108 24 l 4 0 l 0 4 l -4 0 l 0 -4 z M 112 24 l 4 0 l 0 4 l -4 0 l 0 -4 z M 116 24 l 4 0 l 0 4 l -4 0 l 0 -4 z M 120 24 l 4 0 l 0 4 l -4 0 l 0 -4 z M 124 24 l 4 0 l 0 4 l -4 0 l 0 -4 z M 128 24 l 4 0 l 0 4 l -4 0 l 0 -4 z M 36 28 l 4 0 l 0 4 l -4 0 l 0 -4 z M 48 28 l 4 0 l 0 4 l -4 0 l 0 -4 z M 56 28 l 4 0 l 0 4 l -4 0 l 0 -4 z M 68 28 l 4 0 l 0 4 l -4 0 l 0 -4 z M 72 28 l 4 0 l 0 4 l -4 0 l 0 -4 z M 76 28 l 4 0 l 0 4 l -4 0 l 0 -4 z M 80 28 l 4 0 l 0 4 l -4 0 l 0 -4 z M 84 28 l 4 0 l 0 4 l -4 0 l 0 -4 z M 96 28 l 4 0 l 0 4 l -4 0 l 0 -4 z M 0 32 l 4 0 l 0 4 l -4 0 l 0 -4 z M 4 32 l 4 0 l 0 4 l -4 0 l 0 -4 z M 16 32 l 4 0 l 0 4 l -4 0 l 0 -4 z M 20 32 l 4 0 l 0 4 l -4 0 l 0 -4 z M 24 32 l 4 0 l 0 4 l -4 0 l 0 -4 z M 44 32 l 4 0 l 0 4 l -4 0 l 0 -4 z M 52 32 l 4 0 l 0 4 l -4 0 l 0 -4 z M 56 32 l 4 0 l 0 4 l -4 0 l 0 -4 z M 60 32 l 4 0 l 0 4 l -4 0 l 0 -4 z M 64 32 l 4 0 l 0 4 l -4 0 l 0 -4 z M 72 32 l 4 0 l 0 4 l -4 0 l 0 -4 z M 92 32 l 4 0 l 0 4 l -4 0 l 0 -4 z M 108 32 l 4 0 l 0 4 l -4 0 l 0 -4 z M 116 32 l 4 0 l 0 4 l -4 0 l 0 -4 z M 120 32 l 4 0 l 0 4 l -4 0 l 0 -4 z M 124 32 l 4 0 l 0 4 l -4 0 l 0 -4 z M 128 32 l 4 0 l 0 4 l -4 0 l 0 -4 z M 0 36 l 4 0 l 0 4 l -4 0 l 0 -4 z M 4 36 l 4 0 l 0 4 l -4 0 l 0 -4 z M 12 36 l 4 0 l 0 4 l -4 0 l 0 -4 z M 16 36 l 4 0 l 0 4 l -4 0 l 0 -4 z M 20 36 l 4 0 l 0 4 l -4 0 l 0 -4 z M 28 36 l 4 0 l 0 4 l -4 0 l 0 -4 z M 32 36 l 4 0 l 0 4 l -4 0 l 0 -4 z M 36 36 l 4 0 l 0 4 l -4 0 l 0 -4 z M 40 36 l 4 0 l 0 4 l -4 0 l 0 -4 z M 48 36 l 4 0 l 0 4 l -4 0 l 0 -4 z M 68 36 l 4 0 l 0 4 l -4 0 l 0 -4 z M 76 36 l 4 0 l 0 4 l -4 0 l 0 -4 z M 80 36 l 4 0 l 0 4 l -4 0 l 0 -4 z M 84 36 l 4 0 l 0 4 l -4 0 l 0 -4 z M 88 36 l 4 0 l 0 4 l -4 0 l 0 -4 z M 96 36 l 4 0 l 0 4 l -4 0 l 0 -4 z M 108 36 l 4 0 l 0 4 l -4 0 l 0 -4 z M 120 36 l 4 0 l 0 4 l -4 0 l 0 -4 z M 4 40 l 4 0 l 0 4 l -4 0 l 0 -4 z M 8 40 l 4 0 l 0 4 l -4 0 l 0 -4 z M 12 40 l 4 0 l 0 4 l -4 0 l 0 -4 z M 16 40 l 4 0 l 0 4 l -4 0 l 0 -4 z M 24 40 l 4 0 l 0 4 l -4 0 l 0 -4 z M 28 40 l 4 0 l 0 4 l -4 0 l 0 -4 z M 44 40 l 4 0 l 0 4 l -4 0 l 0 -4 z M 48 40 l 4 0 l 0 4 l -4 0 l 0 -4 z M 52 40 l 4 0 l 0 4 l -4 0 l 0 -4 z M 56 40 l 4 0 l 0 4 l -4 0 l 0 -4 z M 60 40 l 4 0 l 0 4 l -4 0 l 0 -4 z M 72 40 l 4 0 l 0 4 l -4 0 l 0 -4 z M 80 40 l 4 0 l 0 4 l -4 0 l 0 -4 z M 92 40 l 4 0 l 0 4 l -4 0 l 0 -4 z M 96 40 l 4 0 l 0 4 l -4 0 l 0 -4 z M 100 40 l 4 0 l 0 4 l -4 0 l 0 -4 z M 108 40 l 4 0 l 0 4 l -4 0 l 0 -4 z M 120 40 l 4 0 l 0 4 l -4 0 l 0 -4 z M 124 40 l 4 0 l 0 4 l -4 0 l 0 -4 z M 0 44 l 4 0 l 0 4 l -4 0 l 0 -4 z M 8 44 l 4 0 l 0 4 l -4 0 l 0 -4 z M 12 44 l 4 0 l 0 4 l -4 0 l 0 -4 z M 16 44 l 4 0 l 0 4 l -4 0 l 0 -4 z M 20 44 l 4 0 l 0 4 l -4 0 l 0 -4 z M 32 44 l 4 0 l 0 4 l -4 0 l 0 -4 z M 40 44 l 4 0 l 0 4 l -4 0 l 0 -4 z M 44 44 l 4 0 l 0 4 l -4 0 l 0 -4 z M 52 44 l 4 0 l 0 4 l -4 0 l 0 -4 z M 60 44 l 4 0 l 0 4 l -4 0 l 0 -4 z M 64 44 l 4 0 l 0 4 l -4 0 l 0 -4 z M 88 44 l 4 0 l 0 4 l -4 0 l 0 -4 z M 92 44 l 4 0 l 0 4 l -4 0 l 0 -4 z M 128 44 l 4 0 l 0 4 l -4 0 l 0 -4 z M 0 48 l 4 0 l 0 4 l -4 0 l 0 -4 z M 4 48 l 4 0 l 0 4 l -4 0 l 0 -4 z M 12 48 l 4 0 l 0 4 l -4 0 l 0 -4 z M 24 48 l 4 0 l 0 4 l -4 0 l 0 -4 z M 32 48 l 4 0 l 0 4 l -4 0 l 0 -4 z M 40 48 l 4 0 l 0 4 l -4 0 l 0 -4 z M 48 48 l 4 0 l 0 4 l -4 0 l 0 -4 z M 52 48 l 4 0 l 0 4 l -4 0 l 0 -4 z M 76 48 l 4 0 l 0 4 l -4 0 l 0 -4 z M 80 48 l 4 0 l 0 4 l -4 0 l 0 -4 z M 88 48 l 4 0 l 0 4 l -4 0 l 0 -4 z M 96 48 l 4 0 l 0 4 l -4 0 l 0 -4 z M 104 48 l 4 0 l 0 4 l -4 0 l 0 -4 z M 112 48 l 4 0 l 0 4 l -4 0 l 0 -4 z M 116 48 l 4 0 l 0 4 l -4 0 l 0 -4 z M 0 52 l 4 0 l 0 4 l -4 0 l 0 -4 z M 4 52 l 4 0 l 0 4 l -4 0 l 0 -4 z M 12 52 l 4 0 l 0 4 l -4 0 l 0 -4 z M 16 52 l 4 0 l 0 4 l -4 0 l 0 -4 z M 28 52 l 4 0 l 0 4 l -4 0 l 0 -4 z M 32 52 l 4 0 l 0 4 l -4 0 l 0 -4 z M 52 52 l 4 0 l 0 4 l -4 0 l 0 -4 z M 56 52 l 4 0 l 0 4 l -4 0 l 0 -4 z M 64 52 l 4 0 l 0 4 l -4 0 l 0 -4 z M 72 52 l 4 0 l 0 4 l -4 0 l 0 -4 z M 76 52 l 4 0 l 0 4 l -4 0 l 0 -4 z M 100 52 l 4 0 l 0 4 l -4 0 l 0 -4 z M 108 52 l 4 0 l 0 4 l -4 0 l 0 -4 z M 116 52 l 4 0 l 0 4 l -4 0 l 0 -4 z M 120 52 l 4 0 l 0 4 l -4 0 l 0 -4 z M 124 52 l 4 0 l 0 4 l -4 0 l 0 -4 z M 0 56 l 4 0 l 0 4 l -4 0 l 0 -4 z M 4 56 l 4 0 l 0 4 l -4 0 l 0 -4 z M 20 56 l 4 0 l 0 4 l -4 0 l 0 -4 z M 24 56 l 4 0 l 0 4 l -4 0 l 0 -4 z M 28 56 l 4 0 l 0 4 l -4 0 l 0 -4 z M 32 56 l 4 0 l 0 4 l -4 0 l 0 -4 z M 40 56 l 4 0 l 0 4 l -4 0 l 0 -4 z M 64 56 l 4 0 l 0 4 l -4 0 l 0 -4 z M 68 56 l 4 0 l 0 4 l -4 0 l 0 -4 z M 76 56 l 4 0 l 0 4 l -4 0 l 0 -4 z M 84 56 l 4 0 l 0 4 l -4 0 l 0 -4 z M 88 56 l 4 0 l 0 4 l -4 0 l 0 -4 z M 104 56 l 4 0 l 0 4 l -4 0 l 0 -4 z M 112 56 l 4 0 l 0 4 l -4 0 l 0 -4 z M 0 60 l 4 0 l 0 4 l -4 0 l 0 -4 z M 16 60 l 4 0 l 0 4 l -4 0 l 0 -4 z M 28 60 l 4 0 l 0 4 l -4 0 l 0 -4 z M 40 60 l 4 0 l 0 4 l -4 0 l 0 -4 z M 48 60 l 4 0 l 0 4 l -4 0 l 0 -4 z M 56 60 l 4 0 l 0 4 l -4 0 l 0 -4 z M 68 60 l 4 0 l 0 4 l -4 0 l 0 -4 z M 72 60 l 4 0 l 0 4 l -4 0 l 0 -4 z M 76 60 l 4 0 l 0 4 l -4 0 l 0 -4 z M 80 60 l 4 0 l 0 4 l -4 0 l 0 -4 z M 84 60 l 4 0 l 0 4 l -4 0 l 0 -4 z M 96 60 l 4 0 l 0 4 l -4 0 l 0 -4 z M 100 60 l 4 0 l 0 4 l -4 0 l 0 -4 z M 108 60 l 4 0 l 0 4 l -4 0 l 0 -4 z M 124 60 l 4 0 l 0 4 l -4 0 l 0 -4 z M 128 60 l 4 0 l 0 4 l -4 0 l 0 -4 z M 4 64 l 4 0 l 0 4 l -4 0 l 0 -4 z M 8 64 l 4 0 l 0 4 l -4 0 l 0 -4 z M 16 64 l 4 0 l 0 4 l -4 0 l 0 -4 z M 20 64 l 4 0 l 0 4 l -4 0 l 0 -4 z M 24 64 l 4 0 l 0 4 l -4 0 l 0 -4 z M 28 64 l 4 0 l 0 4 l -4 0 l 0 -4 z M 36 64 l 4 0 l 0 4 l -4 0 l 0 -4 z M 40 64 l 4 0 l 0 4 l -4 0 l 0 -4 z M 44 64 l 4 0 l 0 4 l -4 0 l 0 -4 z M 52 64 l 4 0 l 0 4 l -4 0 l 0 -4 z M 56 64 l 4 0 l 0 4 l -4 0 l 0 -4 z M 60 64 l 4 0 l 0 4 l -4 0 l 0 -4 z M 64 64 l 4 0 l 0 4 l -4 0 l 0 -4 z M 72 64 l 4 0 l 0 4 l -4 0 l 0 -4 z M 92 64 l 4 0 l 0 4 l -4 0 l 0 -4 z M 96 64 l 4 0 l 0 4 l -4 0 l 0 -4 z M 104 64 l 4 0 l 0 4 l -4 0 l 0 -4 z M 112 64 l 4 0 l 0 4 l -4 0 l 0 -4 z M 128 64 l 4 0 l 0 4 l -4 0 l 0 -4 z M 4 68 l 4 0 l 0 4 l -4 0 l 0 -4 z M 12 68 l 4 0 l 0 4 l -4 0 l 0 -4 z M 28 68 l 4 0 l 0 4 l -4 0 l 0 -4 z M 40 68 l 4 0 l 0 4 l -4 0 l 0 -4 z M 48 68 l 4 0 l 0 4 l -4 0 l 0 -4 z M 68 68 l 4 0 l 0 4 l -4 0 l 0 -4 z M 76 68 l 4 0 l 0 4 l -4 0 l 0 -4 z M 80 68 l 4 0 l 0 4 l -4 0 l 0 -4 z M 84 68 l 4 0 l 0 4 l -4 0 l 0 -4 z M 88 68 l 4 0 l 0 4 l -4 0 l 0 -4 z M 96 68 l 4 0 l 0 4 l -4 0 l 0 -4 z M 100 68 l 4 0 l 0 4 l -4 0 l 0 -4 z M 108 68 l 4 0 l 0 4 l -4 0 l 0 -4 z M 116 68 l 4 0 l 0 4 l -4 0 l 0 -4 z M 0 72 l 4 0 l 0 4 l -4 0 l 0 -4 z M 12 72 l 4 0 l 0 4 l -4 0 l 0 -4 z M 16 72 l 4 0 l 0 4 l -4 0 l 0 -4 z M 24 72 l 4 0 l 0 4 l -4 0 l 0 -4 z M 36 72 l 4 0 l 0 4 l -4 0 l 0 -4 z M 40 72 l 4 0 l 0 4 l -4 0 l 0 -4 z M 44 72 l 4 0 l 0 4 l -4 0 l 0 -4 z M 48 72 l 4 0 l 0 4 l -4 0 l 0 -4 z M 52 72 l 4 0 l 0 4 l -4 0 l 0 -4 z M 56 72 l 4 0 l 0 4 l -4 0 l 0 -4 z M 60 72 l 4 0 l 0 4 l -4 0 l 0 -4 z M 72 72 l 4 0 l 0 4 l -4 0 l 0 -4 z M 80 72 l 4 0 l 0 4 l -4 0 l 0 -4 z M 92 72 l 4 0 l 0 4 l -4 0 l 0 -4 z M 96 72 l 4 0 l 0 4 l -4 0 l 0 -4 z M 100 72 l 4 0 l 0 4 l -4 0 l 0 -4 z M 104 72 l 4 0 l 0 4 l -4 0 l 0 -4 z M 108 72 l 4 0 l 0 4 l -4 0 l 0 -4 z M 116 72 l 4 0 l 0 4 l -4 0 l 0 -4 z M 120 72 l 4 0 l 0 4 l -4 0 l 0 -4 z M 124 72 l 4 0 l 0 4 l -4 0 l 0 -4 z M 12 76 l 4 0 l 0 4 l -4 0 l 0 -4 z M 28 76 l 4 0 l 0 4 l -4 0 l 0 -4 z M 32 76 l 4 0 l 0 4 l -4 0 l 0 -4 z M 44 76 l 4 0 l 0 4 l -4 0 l 0 -4 z M 52 76 l 4 0 l 0 4 l -4 0 l 0 -4 z M 60 76 l 4 0 l 0 4 l -4 0 l 0 -4 z M 64 76 l 4 0 l 0 4 l -4 0 l 0 -4 z M 88 76 l 4 0 l 0 4 l -4 0 l 0 -4 z M 92 76 l 4 0 l 0 4 l -4 0 l 0 -4 z M 96 76 l 4 0 l 0 4 l -4 0 l 0 -4 z M 104 76 l 4 0 l 0 4 l -4 0 l 0 -4 z M 108 76 l 4 0 l 0 4 l -4 0 l 0 -4 z M 112 76 l 4 0 l 0 4 l -4 0 l 0 -4 z M 124 76 l 4 0 l 0 4 l -4 0 l 0 -4 z M 128 76 l 4 0 l 0 4 l -4 0 l 0 -4 z M 4 80 l 4 0 l 0 4 l -4 0 l 0 -4 z M 24 80 l 4 0 l 0 4 l -4 0 l 0 -4 z M 28 80 l 4 0 l 0 4 l -4 0 l 0 -4 z M 48 80 l 4 0 l 0 4 l -4 0 l 0 -4 z M 52 80 l 4 0 l 0 4 l -4 0 l 0 -4 z M 76 80 l 4 0 l 0 4 l -4 0 l 0 -4 z M 80 80 l 4 0 l 0 4 l -4 0 l 0 -4 z M 88 80 l 4 0 l 0 4 l -4 0 l 0 -4 z M 92 80 l 4 0 l 0 4 l -4 0 l 0 -4 z M 96 80 l 4 0 l 0 4 l -4 0 l 0 -4 z M 104 80 l 4 0 l 0 4 l -4 0 l 0 -4 z M 108 80 l 4 0 l 0 4 l -4 0 l 0 -4 z M 112 80 l 4 0 l 0 4 l -4 0 l 0 -4 z M 116 80 l 4 0 l 0 4 l -4 0 l 0 -4 z M 128 80 l 4 0 l 0 4 l -4 0 l 0 -4 z M 0 84 l 4 0 l 0 4 l -4 0 l 0 -4 z M 8 84 l 4 0 l 0 4 l -4 0 l 0 -4 z M 12 84 l 4 0 l 0 4 l -4 0 l 0 -4 z M 16 84 l 4 0 l 0 4 l -4 0 l 0 -4 z M 40 84 l 4 0 l 0 4 l -4 0 l 0 -4 z M 52 84 l 4 0 l 0 4 l -4 0 l 0 -4 z M 56 84 l 4 0 l 0 4 l -4 0 l 0 -4 z M 64 84 l 4 0 l 0 4 l -4 0 l 0 -4 z M 72 84 l 4 0 l 0 4 l -4 0 l 0 -4 z M 76 84 l 4 0 l 0 4 l -4 0 l 0 -4 z M 92 84 l 4 0 l 0 4 l -4 0 l 0 -4 z M 100 84 l 4 0 l 0 4 l -4 0 l 0 -4 z M 108 84 l 4 0 l 0 4 l -4 0 l 0 -4 z M 120 84 l 4 0 l 0 4 l -4 0 l 0 -4 z M 8 88 l 4 0 l 0 4 l -4 0 l 0 -4 z M 12 88 l 4 0 l 0 4 l -4 0 l 0 -4 z M 24 88 l 4 0 l 0 4 l -4 0 l 0 -4 z M 36 88 l 4 0 l 0 4 l -4 0 l 0 -4 z M 40 88 l 4 0 l 0 4 l -4 0 l 0 -4 z M 64 88 l 4 0 l 0 4 l -4 0 l 0 -4 z M 68 88 l 4 0 l 0 4 l -4 0 l 0 -4 z M 76 88 l 4 0 l 0 4 l -4 0 l 0 -4 z M 84 88 l 4 0 l 0 4 l -4 0 l 0 -4 z M 88 88 l 4 0 l 0 4 l -4 0 l 0 -4 z M 92 88 l 4 0 l 0 4 l -4 0 l 0 -4 z M 96 88 l 4 0 l 0 4 l -4 0 l 0 -4 z M 100 88 l 4 0 l 0 4 l -4 0 l 0 -4 z M 108 88 l 4 0 l 0 4 l -4 0 l 0 -4 z M 112 88 l 4 0 l 0 4 l -4 0 l 0 -4 z M 116 88 l 4 0 l 0 4 l -4 0 l 0 -4 z M 124 88 l 4 0 l 0 4 l -4 0 l 0 -4 z M 8 92 l 4 0 l 0 4 l -4 0 l 0 -4 z M 16 92 l 4 0 l 0 4 l -4 0 l 0 -4 z M 32 92 l 4 0 l 0 4 l -4 0 l 0 -4 z M 36 92 l 4 0 l 0 4 l -4 0 l 0 -4 z M 48 92 l 4 0 l 0 4 l -4 0 l 0 -4 z M 56 92 l 4 0 l 0 4 l -4 0 l 0 -4 z M 68 92 l 4 0 l 0 4 l -4 0 l 0 -4 z M 72 92 l 4 0 l 0 4 l -4 0 l 0 -4 z M 76 92 l 4 0 l 0 4 l -4 0 l 0 -4 z M 80 92 l 4 0 l 0 4 l -4 0 l 0 -4 z M 84 92 l 4 0 l 0 4 l -4 0 l 0 -4 z M 96 92 l 4 0 l 0 4 l -4 0 l 0 -4 z M 100 92 l 4 0 l 0 4 l -4 0 l 0 -4 z M 104 92 l 4 0 l 0 4 l -4 0 l 0 -4 z M 108 92 l 4 0 l 0 4 l -4 0 l 0 -4 z M 112 92 l 4 0 l 0 4 l -4 0 l 0 -4 z M 124 92 l 4 0 l 0 4 l -4 0 l 0 -4 z M 128 92 l 4 0 l 0 4 l -4 0 l 0 -4 z M 0 96 l 4 0 l 0 4 l -4 0 l 0 -4 z M 4 96 l 4 0 l 0 4 l -4 0 l 0 -4 z M 8 96 l 4 0 l 0 4 l -4 0 l 0 -4 z M 12 96 l 4 0 l 0 4 l -4 0 l 0 -4 z M 20 96 l 4 0 l 0 4 l -4 0 l 0 -4 z M 24 96 l 4 0 l 0 4 l -4 0 l 0 -4 z M 28 96 l 4 0 l 0 4 l -4 0 l 0 -4 z M 32 96 l 4 0 l 0 4 l -4 0 l 0 -4 z M 40 96 l 4 0 l 0 4 l -4 0 l 0 -4 z M 44 96 l 4 0 l 0 4 l -4 0 l 0 -4 z M 52 96 l 4 0 l 0 4 l -4 0 l 0 -4 z M 56 96 l 4 0 l 0 4 l -4 0 l 0 -4 z M 60 96 l 4 0 l 0 4 l -4 0 l 0 -4 z M 64 96 l 4 0 l 0 4 l -4 0 l 0 -4 z M 72 96 l 4 0 l 0 4 l -4 0 l 0 -4 z M 92 96 l 4 0 l 0 4 l -4 0 l 0 -4 z M 96 96 l 4 0 l 0 4 l -4 0 l 0 -4 z M 100 96 l 4 0 l 0 4 l -4 0 l 0 -4 z M 104 96 l 4 0 l 0 4 l -4 0 l 0 -4 z M 108 96 l 4 0 l 0 4 l -4 0 l 0 -4 z M 112 96 l 4 0 l 0 4 l -4 0 l 0 -4 z M 128 96 l 4 0 l 0 4 l -4 0 l 0 -4 z M 32 100 l 4 0 l 0 4 l -4 0 l 0 -4 z M 40 100 l 4 0 l 0 4 l -4 0 l 0 -4 z M 48 100 l 4 0 l 0 4 l -4 0 l 0 -4 z M 68 100 l 4 0 l 0 4 l -4 0 l 0 -4 z M 76 100 l 4 0 l 0 4 l -4 0 l 0 -4 z M 80 100 l 4 0 l 0 4 l -4 0 l 0 -4 z M 84 100 l 4 0 l 0 4 l -4 0 l 0 -4 z M 88 100 l 4 0 l 0 4 l -4 0 l 0 -4 z M 96 100 l 4 0 l 0 4 l -4 0 l 0 -4 z M 112 100 l 4 0 l 0 4 l -4 0 l 0 -4 z M 120 100 l 4 0 l 0 4 l -4 0 l 0 -4 z M 0 104 l 4 0 l 0 4 l -4 0 l 0 -4 z M 4 104 l 4 0 l 0 4 l -4 0 l 0 -4 z M 8 104 l 4 0 l 0 4 l -4 0 l 0 -4 z M 12 104 l 4 0 l 0 4 l -4 0 l 0 -4 z M 16 104 l 4 0 l 0 4 l -4 0 l 0 -4 z M 20 104 l 4 0 l 0 4 l -4 0 l 0 -4 z M 24 104 l 4 0 l 0 4 l -4 0 l 0 -4 z M 40 104 l 4 0 l 0 4 l -4 0 l 0 -4 z M 44 104 l 4 0 l 0 4 l -4 0 l 0 -4 z M 48 104 l 4 0 l 0 4 l -4 0 l 0 -4 z M 52 104 l 4 0 l 0 4 l -4 0 l 0 -4 z M 56 104 l 4 0 l 0 4 l -4 0 l 0 -4 z M 60 104 l 4 0 l 0 4 l -4 0 l 0 -4 z M 72 104 l 4 0 l 0 4 l -4 0 l 0 -4 z M 80 104 l 4 0 l 0 4 l -4 0 l 0 -4 z M 96 104 l 4 0 l 0 4 l -4 0 l 0 -4 z M 104 104 l 4 0 l 0 4 l -4 0 l 0 -4 z M 112 104 l 4 0 l 0 4 l -4 0 l 0 -4 z M 124 104 l 4 0 l 0 4 l -4 0 l 0 -4 z M 0 108 l 4 0 l 0 4 l -4 0 l 0 -4 z M 24 108 l 4 0 l 0 4 l -4 0 l 0 -4 z M 32 108 l 4 0 l 0 4 l -4 0 l 0 -4 z M 36 108 l 4 0 l 0 4 l -4 0 l 0 -4 z M 40 108 l 4 0 l 0 4 l -4 0 l 0 -4 z M 44 108 l 4 0 l 0 4 l -4 0 l 0 -4 z M 52 108 l 4 0 l 0 4 l -4 0 l 0 -4 z M 60 108 l 4 0 l 0 4 l -4 0 l 0 -4 z M 64 108 l 4 0 l 0 4 l -4 0 l 0 -4 z M 88 108 l 4 0 l 0 4 l -4 0 l 0 -4 z M 96 108 l 4 0 l 0 4 l -4 0 l 0 -4 z M 112 108 l 4 0 l 0 4 l -4 0 l 0 -4 z M 124 108 l 4 0 l 0 4 l -4 0 l 0 -4 z M 128 108 l 4 0 l 0 4 l -4 0 l 0 -4 z M 0 112 l 4 0 l 0 4 l -4 0 l 0 -4 z M 8 112 l 4 0 l 0 4 l -4 0 l 0 -4 z M 12 112 l 4 0 l 0 4 l -4 0 l 0 -4 z M 16 112 l 4 0 l 0 4 l -4 0 l 0 -4 z M 24 112 l 4 0 l 0 4 l -4 0 l 0 -4 z M 32 112 l 4 0 l 0 4 l -4 0 l 0 -4 z M 36 112 l 4 0 l 0 4 l -4 0 l 0 -4 z M 40 112 l 4 0 l 0 4 l -4 0 l 0 -4 z M 48 112 l 4 0 l 0 4 l -4 0 l 0 -4 z M 52 112 l 4 0 l 0 4 l -4 0 l 0 -4 z M 76 112 l 4 0 l 0 4 l -4 0 l 0 -4 z M 80 112 l 4 0 l 0 4 l -4 0 l 0 -4 z M 88 112 l 4 0 l 0 4 l -4 0 l 0 -4 z M 96 112 l 4 0 l 0 4 l -4 0 l 0 -4 z M 100 112 l 4 0 l 0 4 l -4 0 l 0 -4 z M 104 112 l 4 0 l 0 4 l -4 0 l 0 -4 z M 108 112 l 4 0 l 0 4 l -4 0 l 0 -4 z M 112 112 l 4 0 l 0 4 l -4 0 l 0 -4 z M 128 112 l 4 0 l 0 4 l -4 0 l 0 -4 z M 0 116 l 4 0 l 0 4 l -4 0 l 0 -4 z M 8 116 l 4 0 l 0 4 l -4 0 l 0 -4 z M 12 116 l 4 0 l 0 4 l -4 0 l 0 -4 z M 16 116 l 4 0 l 0 4 l -4 0 l 0 -4 z M 24 116 l 4 0 l 0 4 l -4 0 l 0 -4 z M 36 116 l 4 0 l 0 4 l -4 0 l 0 -4 z M 52 116 l 4 0 l 0 4 l -4 0 l 0 -4 z M 56 116 l 4 0 l 0 4 l -4 0 l 0 -4 z M 64 116 l 4 0 l 0 4 l -4 0 l 0 -4 z M 72 116 l 4 0 l 0 4 l -4 0 l 0 -4 z M 76 116 l 4 0 l 0 4 l -4 0 l 0 -4 z M 92 116 l 4 0 l 0 4 l -4 0 l 0 -4 z M 100 116 l 4 0 l 0 4 l -4 0 l 0 -4 z M 104 116 l 4 0 l 0 4 l -4 0 l 0 -4 z M 108 116 l 4 0 l 0 4 l -4 0 l 0 -4 z M 112 116 l 4 0 l 0 4 l -4 0 l 0 -4 z M 120 116 l 4 0 l 0 4 l -4 0 l 0 -4 z M 128 116 l 4 0 l 0 4 l -4 0 l 0 -4 z M 0 120 l 4 0 l 0 4 l -4 0 l 0 -4 z M 8 120 l 4 0 l 0 4 l -4 0 l 0 -4 z M 12 120 l 4 0 l 0 4 l -4 0 l 0 -4 z M 16 120 l 4 0 l 0 4 l -4 0 l 0 -4 z M 24 120 l 4 0 l 0 4 l -4 0 l 0 -4 z M 36 120 l 4 0 l 0 4 l -4 0 l 0 -4 z M 64 120 l 4 0 l 0 4 l -4 0 l 0 -4 z M 68 120 l 4 0 l 0 4 l -4 0 l 0 -4 z M 76 120 l 4 0 l 0 4 l -4 0 l 0 -4 z M 84 120 l 4 0 l 0 4 l -4 0 l 0 -4 z M 88 120 l 4 0 l 0 4 l -4 0 l 0 -4 z M 92 120 l 4 0 l 0 4 l -4 0 l 0 -4 z M 104 120 l 4 0 l 0 4 l -4 0 l 0 -4 z M 112 120 l 4 0 l 0 4 l -4 0 l 0 -4 z M 120 120 l 4 0 l 0 4 l -4 0 l 0 -4 z M 0 124 l 4 0 l 0 4 l -4 0 l 0 -4 z M 24 124 l 4 0 l 0 4 l -4 0 l 0 -4 z M 32 124 l 4 0 l 0 4 l -4 0 l 0 -4 z M 48 124 l 4 0 l 0 4 l -4 0 l 0 -4 z M 56 124 l 4 0 l 0 4 l -4 0 l 0 -4 z M 68 124 l 4 0 l 0 4 l -4 0 l 0 -4 z M 72 124 l 4 0 l 0 4 l -4 0 l 0 -4 z M 76 124 l 4 0 l 0 4 l -4 0 l 0 -4 z M 80 124 l 4 0 l 0 4 l -4 0 l 0 -4 z M 84 124 l 4 0 l 0 4 l -4 0 l 0 -4 z M 92 124 l 4 0 l 0 4 l -4 0 l 0 -4 z M 96 124 l 4 0 l 0 4 l -4 0 l 0 -4 z M 100 124 l 4 0 l 0 4 l -4 0 l 0 -4 z M 104 124 l 4 0 l 0 4 l -4 0 l 0 -4 z M 0 128 l 4 0 l 0 4 l -4 0 l 0 -4 z M 4 128 l 4 0 l 0 4 l -4 0 l 0 -4 z M 8 128 l 4 0 l 0 4 l -4 0 l 0 -4 z M 12 128 l 4 0 l 0 4 l -4 0 l 0 -4 z M 16 128 l 4 0 l 0 4 l -4 0 l 0 -4 z M 20 128 l 4 0 l 0 4 l -4 0 l 0 -4 z M 24 128 l 4 0 l 0 4 l -4 0 l 0 -4 z M 32 128 l 4 0 l 0 4 l -4 0 l 0 -4 z M 44 128 l 4 0 l 0 4 l -4 0 l 0 -4 z M 52 128 l 4 0 l 0 4 l -4 0 l 0 -4 z M 56 128 l 4 0 l 0 4 l -4 0 l 0 -4 z M 60 128 l 4 0 l 0 4 l -4 0 l 0 -4 z M 64 128 l 4 0 l 0 4 l -4 0 l 0 -4 z M 72 128 l 4 0 l 0 4 l -4 0 l 0 -4 z M 92 128 l 4 0 l 0 4 l -4 0 l 0 -4 z M 96 128 l 4 0 l 0 4 l -4 0 l 0 -4 z M 100 128 l 4 0 l 0 4 l -4 0 l 0 -4 z M 112 128 l 4 0 l 0 4 l -4 0 l 0 -4 z M 128 128 l 4 0 l 0 4 l -4 0 l 0 -4 z" style="stroke: rgb(255,255,255); stroke-opacity: 0; stroke-width: 1; stroke-dasharray: none; stroke-linecap: butt; stroke-linejoin: miter; stroke-miterlimit: 4; fill: rgb(0,0,0); fill-rule: nonzero; opacity: 1;" transform="translate(386.7757698229 84.2179561201) scale(0.7530164904 0.7530164904) translate(-66, -66) " stroke-linecap="round" />
<g transform="translate(354.3686104696 246.5121632025) scale(0.36 0.3)" style="">
	<path d="M 77.7 167.4 c 0.3 0.1 0.6 0.3 0.6 0.4 C 78.8 167.5 78.9 167.4 77.7 167.4 z" style="stroke: none; stroke-width: 1; stroke-dasharray: none; stroke-linecap: butt; stroke-linejoin: miter; stroke-miterlimit: 10; fill: rgb(64,71,98); fill-rule: nonzero; opacity: 1;" transform="translate(-196.8241663824 69.2) translate(-78.17583361756829, -167.60000000000002) " stroke-linecap="round" />
	<path d="M 78.4 167.7 c -0.1 0 -0.1 0 -0.3 0.1 C 78.3 167.8 78.3 167.8 78.4 167.7 C 78.4 167.8 78.4 167.8 78.4 167.7 z" style="stroke: none; stroke-width: 1; stroke-dasharray: none; stroke-linecap: butt; stroke-linejoin: miter; stroke-miterlimit: 10; fill: rgb(64,71,98); fill-rule: nonzero; opacity: 1;" transform="translate(-196.75 69.35) translate(-78.25, -167.75) " stroke-linecap="round" />
	<path d="M 101.4 174.3 c 1.3 -0.4 2.1 -0.1 3.2 -0.4 l 0.6 0.6 c 1.3 -0.3 0.6 -0.5 1.5 -0.9 c 1.2 0.4 3.7 0 4.2 0 c 0.4 0.3 -0.5 0.4 -0.6 0.6 c 1.5 -0.3 1.4 -0.9 3.3 -0.9 v 0.1 c 4.6 -0.9 10.4 -0.8 15.4 -1.3 c -0.4 0 -0.3 -0.1 -0.4 -0.3 c 5.4 -0.3 11.6 -0.3 15.8 -1.9 c -3 0.1 -7.8 -0.9 -10.8 0.3 c -1 -0.5 -2.8 0.3 -3.2 -0.5 c -4.2 -0.3 -5.9 0.9 -10 0.9 c -0.6 -0.1 -0.3 -0.5 -0.5 -0.8 l 3.2 -0.4 l -1.8 0.1 c 0.9 -0.3 3 -0.1 3.1 -0.6 c -2.8 0.8 -7.3 0.1 -9.8 1 c 1.2 0.1 2.6 0 4 0 c 0.6 0.3 1.5 0.4 1.4 0.6 c -3.9 0.9 -7.1 0.5 -11.2 0.8 c -1 0.1 -2.3 0 -2.6 -0.3 c 0.6 -0.1 0.1 -0.4 0.6 -0.5 c -1.4 0.3 -0.1 1.2 -2.2 1 l 0.3 -1.2 c -0.8 1.2 -2.6 -0.3 -4 0.5 c -0.5 -0.4 0.4 -0.8 1.5 -0.8 c -1.3 -0.3 -1.4 0.5 -2.4 0.4 l 1 -0.9 c -1 0.9 -1.9 -0.1 -2.6 -0.5 c -0.1 0.3 0.5 0.9 -0.9 0.9 c -0.6 -0.1 -0.3 -0.4 -0.4 -0.5 c -0.1 0.3 -0.5 0.6 -1.4 0.6 c -0.1 -0.3 0.6 -0.5 0.6 -0.8 c -0.6 0 -1.3 0.1 -1.7 -0.1 c -1.2 0.3 0.1 0.5 -0.6 0.8 c -1.8 -0.3 -0.1 -1.2 -0.9 -1.8 c 1.4 -0.5 3.2 -0.6 3.9 -0.9 l -2.7 0.3 c 0.1 -0.4 -1.8 -0.6 -0.4 -1 c -2.7 -0.4 -5.8 0.1 -8.4 0.4 c 0.4 0.1 0.8 0.3 0.8 0.4 c -1.3 0.3 -1.2 -0.3 -1.4 -0.5 c -1 0.3 -0.9 0.9 -1.4 1.4 c -2.1 -0.5 -2.3 -0.3 -4 -1 l 0.1 0.6 c -1.2 -0.5 -1.4 0.5 -2.7 0.1 c -0.1 -0.1 0.4 -0.3 0.8 -0.5 c -1.2 0.3 -1 -0.5 -2.2 -0.3 l 0.9 -0.8 c -0.9 0 -2.2 0.3 -1.8 -0.4 c -1.5 0.8 -4.4 0.4 -6.3 0.9 l 0.1 -0.5 c -1 0.6 -3.7 0 -4.6 0.8 l -0.1 -0.3 l -2.1 0.8 c -0.9 -0.1 -0.6 -0.9 -0.6 -0.6 c -2.1 0.1 -3.6 0.3 -4.9 -0.1 c -0.4 0.8 -2.4 0.9 -4.1 1 c -8.1 -0.5 -16.7 0.3 -24.3 1.2 c -1.2 0 -2.7 0.9 -4.1 1.3 c 1.7 0.1 1.9 -0.1 3.6 -0.3 c 1.3 0.3 1.8 1 2.8 1.4 l -0.5 -0.6 c 1.7 -0.5 1.2 0.4 2.6 -0.3 v 1 c 0.5 -0.5 1.7 -0.1 2.2 0.1 l 0.4 -0.6 c 1 0.4 1.8 0.5 2.1 1.2 l -0.1 -0.6 c 0.4 0.4 4.1 -0.1 2.8 1 c 0.3 -0.1 0.6 -0.5 1.3 -0.4 l 0.1 0.6 c 1 -0.1 2.1 -0.3 2.4 0.1 c -0.5 0.1 -0.8 0.4 -0.9 0.8 c 4.2 0.1 0.9 -2.1 4.6 -2.2 v 0.4 l 0.9 -0.4 l 1 0.5 c 1.3 -1.4 5.1 0.1 7.5 -0.6 c 0.9 -0.1 2.1 0.8 3.7 0.6 l -0.1 -0.6 c 1.3 0.6 6.4 1 7.6 2.6 c 1.3 -0.5 -0.1 -0.1 -0.1 -0.6 c 2.4 -0.6 2.7 0.4 4 0.8 c 1.5 -0.4 -1.2 -0.3 -0.4 -0.8 c 2.3 0.5 1.9 -0.8 4.8 -0.4 c 0.3 0.4 -0.8 0.3 -1 0.5 c 2.1 -0.6 5.8 -0.3 8.9 -0.4 c 3.5 0.5 8.6 0.6 12.6 1.2 l 0.1 -0.3 c 1.7 0.6 3.5 0 5.4 0.3 L 101.4 174.3 z" style="stroke: none; stroke-width: 1; stroke-dasharray: none; stroke-linecap: butt; stroke-linejoin: miter; stroke-miterlimit: 10; fill: rgb(64,71,98); fill-rule: nonzero; opacity: 1;" transform="translate(-191 71.8) translate(-83.99999999999997, -170.19999999999996) " stroke-linecap="round" />
	<path d="M 125.5 168.3 l -0.3 -0.5 l -1.8 0.4 C 124.1 168.6 124.4 168.2 125.5 168.3 z" style="stroke: none; stroke-width: 1; stroke-dasharray: none; stroke-linecap: butt; stroke-linejoin: miter; stroke-miterlimit: 10; fill: rgb(64,71,98); fill-rule: nonzero; opacity: 1;" transform="translate(-150.55 69.6908693606) translate(-124.45, -168.09086936058088) " stroke-linecap="round" />
	<polygon points="-0.1,0.15 0.8,-0.15 -0.8,-0.15 " style="stroke: none; stroke-width: 1; stroke-dasharray: none; stroke-linecap: butt; stroke-linejoin: miter; stroke-miterlimit: 10; fill: rgb(64,71,98); fill-rule: nonzero; opacity: 1;" transform="translate(-149.8 71.45) "/>
	<polygon points="-1.95,0.15 -1.65,0.25 1.95,-0.25 " style="stroke: none; stroke-width: 1; stroke-dasharray: none; stroke-linecap: butt; stroke-linejoin: miter; stroke-miterlimit: 10; fill: rgb(64,71,98); fill-rule: nonzero; opacity: 1;" transform="translate(-171.55 70.55) "/>
	<path d="M 77.9 166.8 c 0.4 -0.3 1 -0.1 1.4 -0.4 l -1.7 0.3 L 77.9 166.8 z" style="stroke: none; stroke-width: 1; stroke-dasharray: none; stroke-linecap: butt; stroke-linejoin: miter; stroke-miterlimit: 10; fill: rgb(64,71,98); fill-rule: nonzero; opacity: 1;" transform="translate(-196.55 68.2) translate(-78.45000000000002, -166.60000000000002) " stroke-linecap="round" />
	<path d="M 62.1 164.6 c -0.6 1 -1.3 0 -0.4 0.9 C 62.6 165.3 61.7 165 62.1 164.6 z" style="stroke: none; stroke-width: 1; stroke-dasharray: none; stroke-linecap: butt; stroke-linejoin: miter; stroke-miterlimit: 10; fill: rgb(64,71,98); fill-rule: nonzero; opacity: 1;" transform="translate(-213.3065799904 66.65) translate(-61.69342000956135, -165.05) " stroke-linecap="round" />
	<path d="M 58.3 166 c 0.5 0 0.9 -0.1 1.2 -0.3 C 58.7 165.3 58.7 165.9 58.3 166 z" style="stroke: none; stroke-width: 1; stroke-dasharray: none; stroke-linecap: butt; stroke-linejoin: miter; stroke-miterlimit: 10; fill: rgb(64,71,98); fill-rule: nonzero; opacity: 1;" transform="translate(-216.1 67.3820079054) translate(-58.9, -165.78200790541624) " stroke-linecap="round" />
	<path d="M 465.1 171.9 c -0.3 -0.1 -0.6 -0.3 -0.6 -0.4 C 464.2 171.8 464.1 171.9 465.1 171.9 z" style="stroke: none; stroke-width: 1; stroke-dasharray: none; stroke-linecap: butt; stroke-linejoin: miter; stroke-miterlimit: 10; fill: rgb(64,71,98); fill-rule: nonzero; opacity: 1;" transform="translate(189.6967892651 73.3) translate(-464.6967892651262, -171.7) " stroke-linecap="round" />
	<path d="M 464.5 171.5 c 0.1 0 0.1 0 0.3 -0.1 C 464.7 171.5 464.6 171.5 464.5 171.5 z" style="stroke: none; stroke-width: 1; stroke-dasharray: none; stroke-linecap: butt; stroke-linejoin: miter; stroke-miterlimit: 10; fill: rgb(64,71,98); fill-rule: nonzero; opacity: 1;" transform="translate(189.65 73.05) translate(-464.65, -171.45) " stroke-linecap="round" />
	<path d="M 441.6 165 c -1.3 0.4 -2.1 0.1 -3.2 0.4 l -0.6 -0.6 c -1.3 0.3 -0.6 0.5 -1.5 0.9 c -1.2 -0.4 -3.7 0 -4.2 0 c -0.4 -0.3 0.5 -0.4 0.6 -0.6 c -1.5 0.3 -1.4 0.9 -3.3 0.9 v -0.1 c -4.6 0.9 -10.4 0.8 -15.4 1.3 c 0.4 0 0.3 0.1 0.4 0.3 c -5.4 0.3 -11.6 0.3 -15.8 1.9 c 3 -0.1 7.8 0.9 10.8 -0.3 c 1 0.5 2.8 -0.3 3.2 0.5 c 4.2 0.3 5.9 -0.9 10 -0.9 c 0.6 0.1 0.3 0.5 0.5 0.8 l -3.2 0.4 l 1.9 0.3 c -0.9 0.3 -3 0.1 -3.1 0.6 c 2.8 -0.8 7.3 -0.1 9.8 -1 c -1.2 -0.1 -2.6 0 -4 0 c -0.6 -0.3 -1.5 -0.4 -1.4 -0.6 c 3.9 -0.9 7.1 -0.5 11.2 -0.8 c 1 -0.1 2.3 0 2.6 0.3 c -0.6 0.1 -0.1 0.4 -0.6 0.5 c 1.4 -0.3 0.1 -1.2 2.2 -1 l -0.3 1.2 c 0.8 -1.2 2.6 0.3 4 -0.5 c 0.5 0.4 -0.4 0.8 -1.5 0.8 c 1.3 0.3 1.4 -0.5 2.4 -0.4 l -1 0.9 c 1 -0.9 1.9 0.1 2.6 0.5 c 0.1 -0.3 -0.5 -0.9 0.9 -0.9 c 0.6 0.1 0.3 0.4 0.4 0.5 c 0.1 -0.3 0.5 -0.6 1.4 -0.6 c 0.1 0.3 -0.6 0.5 -0.6 0.8 c 0.6 0 1.3 -0.1 1.7 0.1 c 1.2 -0.3 -0.1 -0.5 0.6 -0.8 c 1.8 0.3 0.1 1.2 0.9 1.8 c -1.4 0.5 -3.2 0.6 -3.9 0.9 l 2.7 -0.3 c -0.1 0.4 1.8 0.6 0.4 1 c 2.7 0.4 5.8 -0.1 8.4 -0.4 c -0.4 -0.1 -0.8 -0.3 -0.8 -0.4 c 1.3 -0.3 1.2 0.3 1.4 0.5 c 1 -0.3 0.9 -0.9 1.4 -1.4 c 2.1 0.5 2.3 0.3 4 1 l -0.1 -0.6 c 1.2 0.5 1.4 -0.5 2.7 -0.1 c 0.1 0.1 -0.4 0.3 -0.8 0.5 c 1.2 -0.3 1 0.5 2.2 0.3 l -0.9 0.8 c 0.9 0 2.2 -0.3 1.8 0.4 c 1.5 -0.8 4.4 -0.4 6.3 -0.9 l -0.1 0.5 c 1 -0.6 3.7 0 4.6 -0.8 l 0.1 0.3 l 2.1 -0.8 c 0.9 0.1 0.6 0.9 0.6 0.6 c 2.1 -0.1 3.6 -0.3 4.9 0.1 c 0.4 -0.8 2.4 -0.9 4.1 -1 c 8.1 0.5 16.7 -0.3 24.3 -1.2 c 1.2 0 2.7 -0.9 4.1 -1.3 c -1.7 -0.1 -1.9 0.1 -3.6 0.3 c -1.3 -0.3 -1.8 -1 -2.8 -1.4 l 0.5 0.6 c -1.7 0.5 -1.2 -0.4 -2.6 0.3 v -1 c -0.5 0.5 -1.7 0.1 -2.2 -0.1 l -0.4 0.6 c -1 -0.4 -1.8 -0.5 -2.1 -1.2 l 0.1 0.6 c -0.4 -0.4 -4.1 0.1 -2.8 -1 c -0.3 0.1 -0.6 0.5 -1.3 0.4 l -0.1 -0.6 c -1 0.1 -2.1 0.3 -2.4 -0.1 c 0.5 -0.1 0.8 -0.4 0.9 -0.8 c -4.2 -0.1 -0.9 2.1 -4.6 2.2 v -0.4 l -0.9 0.4 l -1 -0.5 c -1.3 1.4 -5.1 -0.1 -7.5 0.6 c -0.9 0.1 -2.1 -0.8 -3.7 -0.6 l 0.1 0.6 c -1.3 -0.6 -6.4 -1 -7.6 -2.6 c -1.3 0.5 0.1 0.1 0.1 0.6 c -2.4 0.6 -2.7 -0.4 -4 -0.8 c -1.5 0.4 1.2 0.3 0.4 0.8 c -2.3 -0.5 -1.9 0.8 -4.8 0.4 c -0.3 -0.4 0.8 -0.3 1 -0.5 c -2.1 0.6 -5.8 0.3 -8.9 0.4 c -3.5 -0.5 -8.6 -0.6 -12.6 -1.2 l -0.1 0.3 c -1.7 -0.6 -3.5 0 -5.4 -0.3 L 441.6 165 z" style="stroke: none; stroke-width: 1; stroke-dasharray: none; stroke-linecap: butt; stroke-linejoin: miter; stroke-miterlimit: 10; fill: rgb(64,71,98); fill-rule: nonzero; opacity: 1;" transform="translate(184.05 70.9) translate(-459.04999999999995, -169.30000000000007) " stroke-linecap="round" />
	<path d="M 417.5 171 l 0.3 0.5 l 1.8 -0.4 C 418.9 170.7 418.5 171.1 417.5 171 z" style="stroke: none; stroke-width: 1; stroke-dasharray: none; stroke-linecap: butt; stroke-linejoin: miter; stroke-miterlimit: 10; fill: rgb(64,71,98); fill-rule: nonzero; opacity: 1;" transform="translate(143.55 72.8091306394) translate(-418.55, -171.20913063941913) " stroke-linecap="round" />
	<polygon points="0.25,-0.15 -0.75,0.15 0.75,0.15 " style="stroke: none; stroke-width: 1; stroke-dasharray: none; stroke-linecap: butt; stroke-linejoin: miter; stroke-miterlimit: 10; fill: rgb(64,71,98); fill-rule: nonzero; opacity: 1;" transform="translate(142.65 71.05) "/>
	<polygon points="1.85,-0.15 1.65,-0.25 -1.85,0.25 " style="stroke: none; stroke-width: 1; stroke-dasharray: none; stroke-linecap: butt; stroke-linejoin: miter; stroke-miterlimit: 10; fill: rgb(64,71,98); fill-rule: nonzero; opacity: 1;" transform="translate(164.45 71.95) "/>
	<path d="M 465 172.4 c -0.4 0.3 -1 0.1 -1.4 0.4 l 1.7 -0.3 L 465 172.4 z" style="stroke: none; stroke-width: 1; stroke-dasharray: none; stroke-linecap: butt; stroke-linejoin: miter; stroke-miterlimit: 10; fill: rgb(64,71,98); fill-rule: nonzero; opacity: 1;" transform="translate(189.45 74.2) translate(-464.45000000000005, -172.60000000000002) " stroke-linecap="round" />
	<path d="M 480.9 174.7 c 0.6 -1 1.3 0 0.4 -0.9 C 480.4 174 481.2 174.3 480.9 174.7 z" style="stroke: none; stroke-width: 1; stroke-dasharray: none; stroke-linecap: butt; stroke-linejoin: miter; stroke-miterlimit: 10; fill: rgb(64,71,98); fill-rule: nonzero; opacity: 1;" transform="translate(206.2933034884 75.85) translate(-481.29330348842234, -174.25) " stroke-linecap="round" />
	<path d="M 484.7 173.2 c -0.5 0 -0.9 0.1 -1.2 0.3 C 484.2 174 484.3 173.4 484.7 173.2 z" style="stroke: none; stroke-width: 1; stroke-dasharray: none; stroke-linecap: butt; stroke-linejoin: miter; stroke-miterlimit: 10; fill: rgb(64,71,98); fill-rule: nonzero; opacity: 1;" transform="translate(209.1 75.047105413) translate(-484.1, -173.44710541298832) " stroke-linecap="round" />
</g>
	<g transform="translate(327.9394101141 239.7711632025)">
		<text xml:space="preserve" font-family="Fredoka One" font-size="46.6" font-style="normal" font-weight="normal" style="stroke: none; stroke-width: 1; stroke-dasharray: none; stroke-linecap: butt; stroke-linejoin: miter; stroke-miterlimit: 10; fill: rgb(64,71,98); fill-rule: nonzero; opacity: 1; white-space: pre;" ><tspan x="-67.0107996445" y="14.638924" >kamal</tspan></text>
	</g>
	<g transform="translate(354.3627803915 267.2461632025) scale(0.43 0.43)">
		<text xml:space="preserve" font-family="Special Elite" font-size="20" font-style="normal" font-weight="normal" style="stroke: none; stroke-width: 1; stroke-dasharray: none; stroke-linecap: butt; stroke-linejoin: miter; stroke-miterlimit: 10; fill: rgb(64,71,98); fill-rule: nonzero; opacity: 1; white-space: pre;" ><tspan x="-71.6259765625" y="6.2828" >THE LOW-DOWN</tspan></text>
	</g>
</svg>