<?xml version="1.0" encoding="UTF-8" standalone="no" ?>
<!DOCTYPE svg PUBLIC "-//W3C//DTD SVG 1.1//EN" "http://www.w3.org/Graphics/SVG/1.1/DTD/svg11.dtd">
<svg xmlns="http://www.w3.org/2000/svg" xmlns:xlink="http://www.w3.org/1999/xlink" version="1.1" width="1772" height="1772" viewBox="0 0 1699.08 1699.08" xml:space="preserve">
<desc>Created with Fabric.js 2.3.3</desc>
<defs>
</defs>
<g transform="translate(849.5 849.5) scale(0.3 0.3)" style="">
	<rect x="-224.495" y="-88.125" rx="0" ry="0" width="448.99" height="176.25" style="stroke: none; stroke-width: 1; stroke-dasharray: none; stroke-linecap: butt; stroke-linejoin: miter; stroke-miterlimit: 4; fill: rgb(255,255,255); fill-rule: nonzero; opacity: 1;" transform="translate(0 0)"/>
	<rect x="-219.43" y="-83.065" rx="0" ry="0" width="438.86" height="166.13" style="stroke: none; stroke-width: 1; stroke-dasharray: none; stroke-linecap: butt; stroke-linejoin: miter; stroke-miterlimit: 4; fill: rgb(139,148,170); fill-rule: nonzero; opacity: 1;" transform="translate(0 0)"/>
	<rect x="-219.43" y="-41.53" rx="0" ry="0" width="438.86" height="83.06" style="stroke: none; stroke-width: 1; stroke-dasharray: none; stroke-linecap: butt; stroke-linejoin: miter; stroke-miterlimit: 4; fill: rgb(39,44,51); fill-rule: nonzero; opacity: 0.1;" transform="translate(0 41.53)"/>
	<path d="M 25.515 25.515 v 176.25 H 474.5 V 25.515 H 25.515 z M 13.265 0 h 18.923 c 0 7.326 5.94 13.269 13.27 13.269 C 52.78 13.265 58.72 7.326 58.72 0 h 18.923 c 0 7.326 5.939 13.269 13.269 13.269 c 7.324 0 13.265 -5.94 13.265 -13.269 H 123.1 c 0 7.326 5.939 13.269 13.267 13.269 c 7.324 0 13.267 -5.939 13.267 -13.269 h 18.925 c 0 7.326 5.939 13.269 13.265 13.269 c 7.326 0 13.27 -5.939 13.27 -13.269 h 18.923 c 0 7.326 5.938 13.269 13.266 13.269 c 7.328 0 13.265 -5.94 13.265 -13.269 h 18.925 c 0 7.326 5.938 13.269 13.264 13.269 c 7.326 0 13.259 -5.942 13.259 -13.269 h 18.925 c 0 7.326 5.938 13.269 13.265 13.269 S 331.448 7.328 331.448 0 h 18.925 c 0 7.326 5.939 13.269 13.269 13.269 S 376.905 7.327 376.905 0 h 18.924 c 0 7.326 5.939 13.269 13.27 13.269 S 422.361 7.326 422.361 0 h 18.923 c 0 7.326 5.939 13.269 13.271 13.269 c 7.324 0 13.264 -5.939 13.264 -13.269 h 18.924 c 0 7.326 5.94 13.269 13.27 13.269 V 32.19 c -7.325 0 -13.27 5.938 -13.27 13.265 s 5.94 13.265 13.27 13.265 v 18.927 c -7.325 0 -13.27 5.938 -13.27 13.266 c 0 7.325 5.94 13.266 13.27 13.266 v 18.931 c -7.325 0 -13.27 5.938 -13.27 13.264 s 5.94 13.265 13.27 13.265 v 18.929 c -7.325 0 -13.27 5.938 -13.27 13.264 s 5.94 13.267 13.27 13.267 v 18.926 c -7.325 0 -13.27 5.938 -13.27 13.268 h -18.924 c 0 -7.327 -5.938 -13.268 -13.264 -13.268 c -7.327 0 -13.271 5.938 -13.271 13.268 h -18.923 c 0 -7.327 -5.938 -13.268 -13.267 -13.268 c -7.326 0 -13.27 5.938 -13.27 13.268 h -18.924 c 0 -7.327 -5.938 -13.268 -13.266 -13.268 c -7.325 0 -13.269 5.938 -13.269 13.268 h -18.925 c 0 -7.327 -5.938 -13.268 -13.266 -13.268 c -7.323 0 -13.265 5.938 -13.265 13.268 H 285.99 c 0 -7.327 -5.938 -13.268 -13.267 -13.268 c -7.324 0 -13.264 5.938 -13.264 13.268 h -18.925 c 0 -7.327 -5.939 -13.268 -13.269 -13.268 S 214 219.955 214 227.285 h -18.923 c 0 -7.327 -5.939 -13.268 -13.27 -13.268 c -7.324 0 -13.265 5.938 -13.265 13.268 h -18.921 c 0 -7.327 -5.939 -13.268 -13.269 -13.268 c -7.324 0 -13.265 5.938 -13.265 13.268 H 104.17 c 0 -7.327 -5.939 -13.268 -13.269 -13.268 c -7.324 0 -13.266 5.938 -13.266 13.268 H 58.723 c 0 -7.327 -5.938 -13.268 -13.265 -13.268 s -13.269 5.938 -13.269 13.268 H 13.265 c 0 -7.327 -5.938 -13.268 -13.265 -13.268 V 195.09 c 7.326 0 13.265 -5.938 13.265 -13.267 c 0 -7.324 -5.938 -13.264 -13.265 -13.264 v -18.932 c 7.326 0 13.265 -5.938 13.265 -13.265 S 7.326 123.101 0 123.101 v -18.931 c 7.326 0 13.265 -5.938 13.265 -13.266 S 7.326 77.644 0 77.644 V 58.721 c 7.326 0 13.265 -5.939 13.265 -13.269 S 7.326 32.191 0 32.191 V 13.265 C 7.326 13.265 13.265 7.326 13.265 0 z" style="stroke: none; stroke-width: 1; stroke-dasharray: none; stroke-linecap: butt; stroke-linejoin: miter; stroke-miterlimit: 4; fill: rgb(49,139,162); fill-rule: nonzero; opacity: 1;" transform="translate(0.01 0.01) translate(-250.0065, -113.6465) " stroke-linecap="round" />
</g>
	<g transform="translate(849.17 837.08)">
		<text xml:space="preserve" font-family="Abril Fatface" font-size="20" font-style="normal" font-weight="normal" style="stroke: none; stroke-width: 1; stroke-dasharray: none; stroke-linecap: butt; stroke-linejoin: miter; stroke-miterlimit: 4; fill: rgb(255,255,255); fill-rule: nonzero; opacity: 1; white-space: pre;" ><tspan x="-44.86" y="6.28" >POSTAGE</tspan></text>
	</g>
	<g transform="translate(850.5 862.74)">
		<text xml:space="preserve" font-family="Abril Fatface" font-size="20" font-style="normal" font-weight="normal" style="stroke: none; stroke-width: 1; stroke-dasharray: none; stroke-linecap: butt; stroke-linejoin: miter; stroke-miterlimit: 4; fill: rgb(255,255,255); fill-rule: nonzero; opacity: 1; white-space: pre;" ><tspan x="-33.01" y="6.28" >STAMP</tspan></text>
	</g>
</svg>